<?xml version="1.0" encoding="UTF-8" standalone="no"?><svg xmlns="http://www.w3.org/2000/svg" xmlns:xlink="http://www.w3.org/1999/xlink" contentScriptType="application/ecmascript" contentStyleType="text/css" height="730px" preserveAspectRatio="none" style="width:385px;height:730px;" version="1.1" viewBox="0 0 385 730" width="385px" zoomAndPan="magnify"><defs><filter height="300%" id="fi0kz416lwpp5" width="300%" x="-1" y="-1"><feGaussianBlur result="blurOut" stdDeviation="2.0"/><feColorMatrix in="blurOut" result="blurOut2" type="matrix" values="0 0 0 0 0 0 0 0 0 0 0 0 0 0 0 0 0 0 .4 0"/><feOffset dx="4.0" dy="4.0" in="blurOut2" result="blurOut3"/><feBlend in="SourceGraphic" in2="blurOut3" mode="normal"/></filter></defs><g><!--MD5=[1053da7555f32ea3c982e01119b403ff]
class Thing--><rect fill="#FEFECE" filter="url(#fi0kz416lwpp5)" height="255.5391" id="Thing" style="stroke: #A80036; stroke-width: 1.5;" width="121" x="77" y="7"/><ellipse cx="118.1" cy="23" fill="#B4A7E5" rx="11" ry="11" style="stroke: #A80036; stroke-width: 1.0;"/><path d="M119.0531,19.6406 L119.0531,26.2969 L120.7719,26.2969 Q121.3813,26.2969 121.6469,26.5313 Q121.9125,26.7656 121.9125,27.1563 Q121.9125,27.5313 121.6469,27.7656 Q121.3813,28 120.7719,28 L115.6313,28 Q115.0219,28 114.7563,27.7656 Q114.4906,27.5313 114.4906,27.1406 Q114.4906,26.7656 114.7563,26.5313 Q115.0219,26.2969 115.6313,26.2969 L117.35,26.2969 L117.35,19.6406 L115.6313,19.6406 Q115.0219,19.6406 114.7563,19.4063 Q114.4906,19.1719 114.4906,18.7813 Q114.4906,18.4063 114.7563,18.1719 Q115.0219,17.9375 115.6313,17.9375 L120.7719,17.9375 Q121.3813,17.9375 121.6469,18.1719 Q121.9125,18.4063 121.9125,18.7813 Q121.9125,19.1719 121.6469,19.4063 Q121.3813,19.6406 120.7719,19.6406 L119.0531,19.6406 Z "/><text fill="#000000" font-family="sans-serif" font-size="12" font-style="italic" lengthAdjust="spacingAndGlyphs" textLength="31" x="137.9" y="27.9102">Thing</text><line style="stroke: #A80036; stroke-width: 1.5;" x1="78" x2="197" y1="39" y2="39"/><text fill="#000000" font-family="sans-serif" font-size="11" lengthAdjust="spacingAndGlyphs" textLength="36" x="97" y="54.4189">nullnull}</text><text fill="#000000" font-family="sans-serif" font-size="11" lengthAdjust="spacingAndGlyphs" textLength="84" x="97" y="68.2549">Interface Person{</text><text fill="#000000" font-family="sans-serif" font-size="11" lengthAdjust="spacingAndGlyphs" textLength="36" x="97" y="82.0908">nullnull}</text><text fill="#000000" font-family="sans-serif" font-size="11" lengthAdjust="spacingAndGlyphs" textLength="85" x="97" y="95.9268">Interface Worker{</text><text fill="#000000" font-family="sans-serif" font-size="11" lengthAdjust="spacingAndGlyphs" textLength="36" x="97" y="109.7627">nullnull}</text><text fill="#000000" font-family="sans-serif" font-size="11" lengthAdjust="spacingAndGlyphs" textLength="73" x="97" y="123.5986">class Teacher{</text><rect fill="none" height="6" style="stroke: #C82930; stroke-width: 1.0;" width="6" x="85" y="130.0156"/><text fill="#000000" font-family="sans-serif" font-size="11" lengthAdjust="spacingAndGlyphs" textLength="89" x="97" y="137.4346">designation: String</text><rect fill="none" height="6" style="stroke: #C82930; stroke-width: 1.0;" width="6" x="85" y="143.8516"/><text fill="#000000" font-family="sans-serif" font-size="11" lengthAdjust="spacingAndGlyphs" textLength="95" x="97" y="151.2705">collegeName: String</text><rect fill="none" height="6" style="stroke: #C82930; stroke-width: 1.0;" width="6" x="85" y="157.6875"/><text fill="#000000" font-family="sans-serif" font-size="11" lengthAdjust="spacingAndGlyphs" textLength="82" x="97" y="165.1064">teaches_job: Job</text><rect fill="none" height="6" style="stroke: #C82930; stroke-width: 1.0;" width="6" x="85" y="171.5234"/><text fill="#000000" font-family="sans-serif" font-size="11" lengthAdjust="spacingAndGlyphs" textLength="57" x="97" y="178.9424">heart: Heart</text><line style="stroke: #A80036; stroke-width: 1.5;" x1="78" x2="197" y1="185.3594" y2="185.3594"/><ellipse cx="88" cy="196.3594" fill="#84BE84" rx="3" ry="3" style="stroke: #038048; stroke-width: 1.0;"/><text fill="#000000" font-family="sans-serif" font-size="11" lengthAdjust="spacingAndGlyphs" textLength="79" x="97" y="200.7783">getDesignation()</text><polygon fill="#FFFF44" points="88,205.1953,92,209.1953,88,213.1953,84,209.1953" style="stroke: #B38D22; stroke-width: 1.0;"/><text fill="#000000" font-family="sans-serif" font-size="11" lengthAdjust="spacingAndGlyphs" textLength="79" x="97" y="214.6143">setDesignation()</text><polygon fill="#FFFF44" points="88,219.0313,92,223.0313,88,227.0313,84,223.0313" style="stroke: #B38D22; stroke-width: 1.0;"/><text fill="#000000" font-family="sans-serif" font-size="11" lengthAdjust="spacingAndGlyphs" textLength="85" x="97" y="228.4502">getCollegeName()</text><polygon fill="#FFFF44" points="88,232.8672,92,236.8672,88,240.8672,84,236.8672" style="stroke: #B38D22; stroke-width: 1.0;"/><text fill="#000000" font-family="sans-serif" font-size="11" lengthAdjust="spacingAndGlyphs" textLength="85" x="97" y="242.2861">setCollegeName()</text><text fill="#000000" font-family="sans-serif" font-size="11" lengthAdjust="spacingAndGlyphs" textLength="32" x="97" y="256.1221">does()</text><!--MD5=[003b10a9e8c6b63b70bf8bbab0bff892]
class GoodTeacher--><rect fill="#FEFECE" filter="url(#fi0kz416lwpp5)" height="75.6719" id="GoodTeacher" style="stroke: #A80036; stroke-width: 1.5;" width="107" x="7" y="587.5"/><ellipse cx="22" cy="603.5" fill="#ADD1B2" rx="11" ry="11" style="stroke: #A80036; stroke-width: 1.0;"/><path d="M24.7656,599.375 Q24.9219,599.1563 25.1094,599.0469 Q25.2969,598.9375 25.5156,598.9375 Q25.8906,598.9375 26.125,599.1953 Q26.3594,599.4531 26.3594,600.0625 L26.3594,601.5156 Q26.3594,602.125 26.125,602.3906 Q25.8906,602.6563 25.5156,602.6563 Q25.1719,602.6563 24.9688,602.4531 Q24.7656,602.2656 24.6563,601.75 Q24.6094,601.3906 24.4219,601.2031 Q24.0938,600.8281 23.4844,600.6094 Q22.875,600.3906 22.25,600.3906 Q21.4844,600.3906 20.8516,600.7188 Q20.2188,601.0469 19.7266,601.7969 Q19.2344,602.5469 19.2344,603.5781 L19.2344,604.6719 Q19.2344,605.9063 20.125,606.7266 Q21.0156,607.5469 22.6094,607.5469 Q23.5469,607.5469 24.2031,607.2969 Q24.5938,607.1406 25.0156,606.7031 Q25.2813,606.4375 25.4297,606.3594 Q25.5781,606.2813 25.7813,606.2813 Q26.1094,606.2813 26.3672,606.5391 Q26.625,606.7969 26.625,607.1406 Q26.625,607.4844 26.2813,607.8906 Q25.7813,608.4688 24.9844,608.7969 Q23.9063,609.25 22.6094,609.25 Q21.0938,609.25 19.8906,608.625 Q18.9063,608.125 18.2188,607.0547 Q17.5313,605.9844 17.5313,604.7031 L17.5313,603.5469 Q17.5313,602.2188 18.1484,601.0703 Q18.7656,599.9219 19.8594,599.3047 Q20.9531,598.6875 22.1875,598.6875 Q22.9219,598.6875 23.5703,598.8516 Q24.2188,599.0156 24.7656,599.375 Z "/><text fill="#000000" font-family="sans-serif" font-size="12" lengthAdjust="spacingAndGlyphs" textLength="75" x="36" y="608.4102">GoodTeacher</text><line style="stroke: #A80036; stroke-width: 1.5;" x1="8" x2="113" y1="619.5" y2="619.5"/><text fill="#000000" font-family="sans-serif" font-size="11" lengthAdjust="spacingAndGlyphs" textLength="92" x="13" y="634.9189">mainSubject: String</text><line style="stroke: #A80036; stroke-width: 1.5;" x1="8" x2="113" y1="641.3359" y2="641.3359"/><ellipse cx="18" cy="652.3359" fill="#84BE84" rx="3" ry="3" style="stroke: #038048; stroke-width: 1.0;"/><text fill="#000000" font-family="sans-serif" font-size="11" lengthAdjust="spacingAndGlyphs" text-decoration="underline" textLength="30" x="27" y="656.7549">main()</text><!--MD5=[b8e0354e0f3f5cbf52553869b78c0afa]
class Job--><rect fill="#FEFECE" filter="url(#fi0kz416lwpp5)" height="172.5234" id="Job" style="stroke: #A80036; stroke-width: 1.5;" width="82" x="149.5" y="539"/><ellipse cx="178" cy="555" fill="#ADD1B2" rx="11" ry="11" style="stroke: #A80036; stroke-width: 1.0;"/><path d="M180.7656,550.875 Q180.9219,550.6563 181.1094,550.5469 Q181.2969,550.4375 181.5156,550.4375 Q181.8906,550.4375 182.125,550.6953 Q182.3594,550.9531 182.3594,551.5625 L182.3594,553.0156 Q182.3594,553.625 182.125,553.8906 Q181.8906,554.1563 181.5156,554.1563 Q181.1719,554.1563 180.9688,553.9531 Q180.7656,553.7656 180.6563,553.25 Q180.6094,552.8906 180.4219,552.7031 Q180.0938,552.3281 179.4844,552.1094 Q178.875,551.8906 178.25,551.8906 Q177.4844,551.8906 176.8516,552.2188 Q176.2188,552.5469 175.7266,553.2969 Q175.2344,554.0469 175.2344,555.0781 L175.2344,556.1719 Q175.2344,557.4063 176.125,558.2266 Q177.0156,559.0469 178.6094,559.0469 Q179.5469,559.0469 180.2031,558.7969 Q180.5938,558.6406 181.0156,558.2031 Q181.2813,557.9375 181.4297,557.8594 Q181.5781,557.7813 181.7813,557.7813 Q182.1094,557.7813 182.3672,558.0391 Q182.625,558.2969 182.625,558.6406 Q182.625,558.9844 182.2813,559.3906 Q181.7813,559.9688 180.9844,560.2969 Q179.9063,560.75 178.6094,560.75 Q177.0938,560.75 175.8906,560.125 Q174.9063,559.625 174.2188,558.5547 Q173.5313,557.4844 173.5313,556.2031 L173.5313,555.0469 Q173.5313,553.7188 174.1484,552.5703 Q174.7656,551.4219 175.8594,550.8047 Q176.9531,550.1875 178.1875,550.1875 Q178.9219,550.1875 179.5703,550.3516 Q180.2188,550.5156 180.7656,550.875 Z "/><text fill="#000000" font-family="sans-serif" font-size="12" lengthAdjust="spacingAndGlyphs" textLength="20" x="195" y="559.9102">Job</text><line style="stroke: #A80036; stroke-width: 1.5;" x1="150.5" x2="230.5" y1="571" y2="571"/><rect fill="none" height="6" style="stroke: #C82930; stroke-width: 1.0;" width="6" x="157.5" y="579"/><text fill="#000000" font-family="sans-serif" font-size="11" lengthAdjust="spacingAndGlyphs" textLength="52" x="169.5" y="586.4189">role: String</text><rect fill="none" height="6" style="stroke: #C82930; stroke-width: 1.0;" width="6" x="157.5" y="592.8359"/><text fill="#000000" font-family="sans-serif" font-size="11" lengthAdjust="spacingAndGlyphs" textLength="56" x="169.5" y="600.2549">salary: long</text><rect fill="none" height="6" style="stroke: #C82930; stroke-width: 1.0;" width="6" x="157.5" y="606.6719"/><text fill="#000000" font-family="sans-serif" font-size="11" lengthAdjust="spacingAndGlyphs" textLength="25" x="169.5" y="614.0908">id: int</text><line style="stroke: #A80036; stroke-width: 1.5;" x1="150.5" x2="230.5" y1="620.5078" y2="620.5078"/><ellipse cx="160.5" cy="631.5078" fill="#84BE84" rx="3" ry="3" style="stroke: #038048; stroke-width: 1.0;"/><text fill="#000000" font-family="sans-serif" font-size="11" lengthAdjust="spacingAndGlyphs" textLength="44" x="169.5" y="635.9268">getRole()</text><ellipse cx="160.5" cy="645.3438" fill="#84BE84" rx="3" ry="3" style="stroke: #038048; stroke-width: 1.0;"/><text fill="#000000" font-family="sans-serif" font-size="11" lengthAdjust="spacingAndGlyphs" textLength="44" x="169.5" y="649.7627">setRole()</text><ellipse cx="160.5" cy="659.1797" fill="#84BE84" rx="3" ry="3" style="stroke: #038048; stroke-width: 1.0;"/><text fill="#000000" font-family="sans-serif" font-size="11" lengthAdjust="spacingAndGlyphs" textLength="54" x="169.5" y="663.5986">getSalary()</text><ellipse cx="160.5" cy="673.0156" fill="#84BE84" rx="3" ry="3" style="stroke: #038048; stroke-width: 1.0;"/><text fill="#000000" font-family="sans-serif" font-size="11" lengthAdjust="spacingAndGlyphs" textLength="54" x="169.5" y="677.4346">setSalary()</text><ellipse cx="160.5" cy="686.8516" fill="#84BE84" rx="3" ry="3" style="stroke: #038048; stroke-width: 1.0;"/><text fill="#000000" font-family="sans-serif" font-size="11" lengthAdjust="spacingAndGlyphs" textLength="31" x="169.5" y="691.2705">getId()</text><ellipse cx="160.5" cy="700.6875" fill="#84BE84" rx="3" ry="3" style="stroke: #038048; stroke-width: 1.0;"/><text fill="#000000" font-family="sans-serif" font-size="11" lengthAdjust="spacingAndGlyphs" textLength="31" x="169.5" y="705.1064">setId()</text><!--MD5=[9bb5813e59df3e2529d11a5afaed7800]
class Heart--><rect fill="#FEFECE" filter="url(#fi0kz416lwpp5)" height="131.0156" id="Heart" style="stroke: #A80036; stroke-width: 1.5;" width="100" x="266.5" y="560"/><ellipse cx="298.6" cy="576" fill="#ADD1B2" rx="11" ry="11" style="stroke: #A80036; stroke-width: 1.0;"/><path d="M301.3656,571.875 Q301.5219,571.6563 301.7094,571.5469 Q301.8969,571.4375 302.1156,571.4375 Q302.4906,571.4375 302.725,571.6953 Q302.9594,571.9531 302.9594,572.5625 L302.9594,574.0156 Q302.9594,574.625 302.725,574.8906 Q302.4906,575.1563 302.1156,575.1563 Q301.7719,575.1563 301.5688,574.9531 Q301.3656,574.7656 301.2563,574.25 Q301.2094,573.8906 301.0219,573.7031 Q300.6938,573.3281 300.0844,573.1094 Q299.475,572.8906 298.85,572.8906 Q298.0844,572.8906 297.4516,573.2188 Q296.8188,573.5469 296.3266,574.2969 Q295.8344,575.0469 295.8344,576.0781 L295.8344,577.1719 Q295.8344,578.4063 296.725,579.2266 Q297.6156,580.0469 299.2094,580.0469 Q300.1469,580.0469 300.8031,579.7969 Q301.1938,579.6406 301.6156,579.2031 Q301.8813,578.9375 302.0297,578.8594 Q302.1781,578.7813 302.3813,578.7813 Q302.7094,578.7813 302.9672,579.0391 Q303.225,579.2969 303.225,579.6406 Q303.225,579.9844 302.8813,580.3906 Q302.3813,580.9688 301.5844,581.2969 Q300.5063,581.75 299.2094,581.75 Q297.6938,581.75 296.4906,581.125 Q295.5063,580.625 294.8188,579.5547 Q294.1313,578.4844 294.1313,577.2031 L294.1313,576.0469 Q294.1313,574.7188 294.7484,573.5703 Q295.3656,572.4219 296.4594,571.8047 Q297.5531,571.1875 298.7875,571.1875 Q299.5219,571.1875 300.1703,571.3516 Q300.8188,571.5156 301.3656,571.875 Z "/><text fill="#000000" font-family="sans-serif" font-size="12" lengthAdjust="spacingAndGlyphs" textLength="30" x="316.4" y="580.9102">Heart</text><line style="stroke: #A80036; stroke-width: 1.5;" x1="267.5" x2="365.5" y1="592" y2="592"/><rect fill="none" height="6" style="stroke: #C82930; stroke-width: 1.0;" width="6" x="274.5" y="600"/><text fill="#000000" font-family="sans-serif" font-size="11" lengthAdjust="spacingAndGlyphs" textLength="56" x="286.5" y="607.4189">cells: String</text><ellipse cx="277.5" cy="616.8359" fill="none" rx="3" ry="3" style="stroke: #038048; stroke-width: 1.0;"/><text fill="#000000" font-family="sans-serif" font-size="11" lengthAdjust="spacingAndGlyphs" textLength="60" x="286.5" y="621.2549">blood: String</text><ellipse cx="277.5" cy="630.6719" fill="none" rx="3" ry="3" style="stroke: #038048; stroke-width: 1.0;"/><text fill="#000000" font-family="sans-serif" font-size="11" lengthAdjust="spacingAndGlyphs" textLength="74" x="286.5" y="635.0908">muscles: String</text><line style="stroke: #A80036; stroke-width: 1.5;" x1="267.5" x2="365.5" y1="641.5078" y2="641.5078"/><ellipse cx="277.5" cy="652.5078" fill="#84BE84" rx="3" ry="3" style="stroke: #038048; stroke-width: 1.0;"/><text fill="#000000" font-family="sans-serif" font-size="11" lengthAdjust="spacingAndGlyphs" textLength="46" x="286.5" y="656.9268">getCells()</text><ellipse cx="277.5" cy="666.3438" fill="#84BE84" rx="3" ry="3" style="stroke: #038048; stroke-width: 1.0;"/><text fill="#000000" font-family="sans-serif" font-size="11" lengthAdjust="spacingAndGlyphs" textLength="50" x="286.5" y="670.7627">getBlood()</text><ellipse cx="277.5" cy="680.1797" fill="#84BE84" rx="3" ry="3" style="stroke: #038048; stroke-width: 1.0;"/><text fill="#000000" font-family="sans-serif" font-size="11" lengthAdjust="spacingAndGlyphs" textLength="63" x="286.5" y="684.5986">getMuscles()</text><!--MD5=[61a83f88cb8b7d3a80bc8c481f3736bf]
class Teacher--><rect fill="#FEFECE" filter="url(#fi0kz416lwpp5)" height="48" id="Teacher" style="stroke: #A80036; stroke-width: 1.5;" width="77" x="152" y="431"/><ellipse cx="167" cy="447" fill="#ADD1B2" rx="11" ry="11" style="stroke: #A80036; stroke-width: 1.0;"/><path d="M169.7656,442.875 Q169.9219,442.6563 170.1094,442.5469 Q170.2969,442.4375 170.5156,442.4375 Q170.8906,442.4375 171.125,442.6953 Q171.3594,442.9531 171.3594,443.5625 L171.3594,445.0156 Q171.3594,445.625 171.125,445.8906 Q170.8906,446.1563 170.5156,446.1563 Q170.1719,446.1563 169.9688,445.9531 Q169.7656,445.7656 169.6563,445.25 Q169.6094,444.8906 169.4219,444.7031 Q169.0938,444.3281 168.4844,444.1094 Q167.875,443.8906 167.25,443.8906 Q166.4844,443.8906 165.8516,444.2188 Q165.2188,444.5469 164.7266,445.2969 Q164.2344,446.0469 164.2344,447.0781 L164.2344,448.1719 Q164.2344,449.4063 165.125,450.2266 Q166.0156,451.0469 167.6094,451.0469 Q168.5469,451.0469 169.2031,450.7969 Q169.5938,450.6406 170.0156,450.2031 Q170.2813,449.9375 170.4297,449.8594 Q170.5781,449.7813 170.7813,449.7813 Q171.1094,449.7813 171.3672,450.0391 Q171.625,450.2969 171.625,450.6406 Q171.625,450.9844 171.2813,451.3906 Q170.7813,451.9688 169.9844,452.2969 Q168.9063,452.75 167.6094,452.75 Q166.0938,452.75 164.8906,452.125 Q163.9063,451.625 163.2188,450.5547 Q162.5313,449.4844 162.5313,448.2031 L162.5313,447.0469 Q162.5313,445.7188 163.1484,444.5703 Q163.7656,443.4219 164.8594,442.8047 Q165.9531,442.1875 167.1875,442.1875 Q167.9219,442.1875 168.5703,442.3516 Q169.2188,442.5156 169.7656,442.875 Z "/><text fill="#000000" font-family="sans-serif" font-size="12" lengthAdjust="spacingAndGlyphs" textLength="45" x="181" y="451.9102">Teacher</text><line style="stroke: #A80036; stroke-width: 1.5;" x1="153" x2="228" y1="463" y2="463"/><line style="stroke: #A80036; stroke-width: 1.5;" x1="153" x2="228" y1="471" y2="471"/><!--MD5=[09ce52be0ee7de43c61b6e2d59bf108b]
class Person--><rect fill="#FEFECE" filter="url(#fi0kz416lwpp5)" height="48" id="Person" style="stroke: #A80036; stroke-width: 1.5;" width="72" x="101.5" y="323"/><ellipse cx="116.5" cy="339" fill="#ADD1B2" rx="11" ry="11" style="stroke: #A80036; stroke-width: 1.0;"/><path d="M119.2656,334.875 Q119.4219,334.6563 119.6094,334.5469 Q119.7969,334.4375 120.0156,334.4375 Q120.3906,334.4375 120.625,334.6953 Q120.8594,334.9531 120.8594,335.5625 L120.8594,337.0156 Q120.8594,337.625 120.625,337.8906 Q120.3906,338.1563 120.0156,338.1563 Q119.6719,338.1563 119.4688,337.9531 Q119.2656,337.7656 119.1563,337.25 Q119.1094,336.8906 118.9219,336.7031 Q118.5938,336.3281 117.9844,336.1094 Q117.375,335.8906 116.75,335.8906 Q115.9844,335.8906 115.3516,336.2188 Q114.7188,336.5469 114.2266,337.2969 Q113.7344,338.0469 113.7344,339.0781 L113.7344,340.1719 Q113.7344,341.4063 114.625,342.2266 Q115.5156,343.0469 117.1094,343.0469 Q118.0469,343.0469 118.7031,342.7969 Q119.0938,342.6406 119.5156,342.2031 Q119.7813,341.9375 119.9297,341.8594 Q120.0781,341.7813 120.2813,341.7813 Q120.6094,341.7813 120.8672,342.0391 Q121.125,342.2969 121.125,342.6406 Q121.125,342.9844 120.7813,343.3906 Q120.2813,343.9688 119.4844,344.2969 Q118.4063,344.75 117.1094,344.75 Q115.5938,344.75 114.3906,344.125 Q113.4063,343.625 112.7188,342.5547 Q112.0313,341.4844 112.0313,340.2031 L112.0313,339.0469 Q112.0313,337.7188 112.6484,336.5703 Q113.2656,335.4219 114.3594,334.8047 Q115.4531,334.1875 116.6875,334.1875 Q117.4219,334.1875 118.0703,334.3516 Q118.7188,334.5156 119.2656,334.875 Z "/><text fill="#000000" font-family="sans-serif" font-size="12" lengthAdjust="spacingAndGlyphs" textLength="40" x="130.5" y="343.9102">Person</text><line style="stroke: #A80036; stroke-width: 1.5;" x1="102.5" x2="172.5" y1="355" y2="355"/><line style="stroke: #A80036; stroke-width: 1.5;" x1="102.5" x2="172.5" y1="363" y2="363"/><!--MD5=[7b5bd88a8a025decccf0c9eac4aaabe9]
class Worker--><rect fill="#FEFECE" filter="url(#fi0kz416lwpp5)" height="48" id="Worker" style="stroke: #A80036; stroke-width: 1.5;" width="71" x="209" y="323"/><ellipse cx="224" cy="339" fill="#ADD1B2" rx="11" ry="11" style="stroke: #A80036; stroke-width: 1.0;"/><path d="M226.7656,334.875 Q226.9219,334.6563 227.1094,334.5469 Q227.2969,334.4375 227.5156,334.4375 Q227.8906,334.4375 228.125,334.6953 Q228.3594,334.9531 228.3594,335.5625 L228.3594,337.0156 Q228.3594,337.625 228.125,337.8906 Q227.8906,338.1563 227.5156,338.1563 Q227.1719,338.1563 226.9688,337.9531 Q226.7656,337.7656 226.6563,337.25 Q226.6094,336.8906 226.4219,336.7031 Q226.0938,336.3281 225.4844,336.1094 Q224.875,335.8906 224.25,335.8906 Q223.4844,335.8906 222.8516,336.2188 Q222.2188,336.5469 221.7266,337.2969 Q221.2344,338.0469 221.2344,339.0781 L221.2344,340.1719 Q221.2344,341.4063 222.125,342.2266 Q223.0156,343.0469 224.6094,343.0469 Q225.5469,343.0469 226.2031,342.7969 Q226.5938,342.6406 227.0156,342.2031 Q227.2813,341.9375 227.4297,341.8594 Q227.5781,341.7813 227.7813,341.7813 Q228.1094,341.7813 228.3672,342.0391 Q228.625,342.2969 228.625,342.6406 Q228.625,342.9844 228.2813,343.3906 Q227.7813,343.9688 226.9844,344.2969 Q225.9063,344.75 224.6094,344.75 Q223.0938,344.75 221.8906,344.125 Q220.9063,343.625 220.2188,342.5547 Q219.5313,341.4844 219.5313,340.2031 L219.5313,339.0469 Q219.5313,337.7188 220.1484,336.5703 Q220.7656,335.4219 221.8594,334.8047 Q222.9531,334.1875 224.1875,334.1875 Q224.9219,334.1875 225.5703,334.3516 Q226.2188,334.5156 226.7656,334.875 Z "/><text fill="#000000" font-family="sans-serif" font-size="12" lengthAdjust="spacingAndGlyphs" textLength="39" x="238" y="343.9102">Worker</text><line style="stroke: #A80036; stroke-width: 1.5;" x1="210" x2="279" y1="355" y2="355"/><line style="stroke: #A80036; stroke-width: 1.5;" x1="210" x2="279" y1="363" y2="363"/><!--MD5=[660a84f7d2118b289df1da96277a8d3e]
reverse link Teacher to GoodTeacher--><path d="M160.425,494.981 C139.013,522.735 110.41,559.81 89.2926,587.18 " fill="none" id="Teacher&lt;-GoodTeacher" style="stroke: #A80036; stroke-width: 1.0;"/><polygon fill="none" points="154.937,490.635,172.697,479.076,166.022,499.187,154.937,490.635" style="stroke: #A80036; stroke-width: 1.0;"/><!--MD5=[83f6542cdf8689fc8464dda03f9dd7a4]
reverse link Teacher to Job--><path d="M190.5,492.409 C190.5,506.191 190.5,522.527 190.5,538.93 " fill="none" id="Teacher&lt;-Job" style="stroke: #A80036; stroke-width: 1.0;"/><polygon fill="#FFFFFF" points="190.5,479.076,186.5,485.076,190.5,491.076,194.5,485.076,190.5,479.076" style="stroke: #A80036; stroke-width: 1.0;"/><!--MD5=[af1587ffe93d550a62c63614985ccb65]
reverse link Teacher to Heart--><path d="M215.606,489.574 C230.659,509.705 250.305,535.978 268.257,559.985 " fill="none" id="Teacher&lt;-Heart" style="stroke: #A80036; stroke-width: 1.0;"/><polygon fill="#A80036" points="207.756,479.076,208.1459,486.2766,214.9425,488.6861,214.5526,481.4856,207.756,479.076" style="stroke: #A80036; stroke-width: 1.0;"/><!--MD5=[15c8996a18b78152b9e33e7e4ee412f1]
reverse link Person to Teacher--><path d="M158.047,389.094 C165.098,403.196 172.742,418.484 178.839,430.678 " fill="none" id="Person&lt;-Teacher" style="stroke: #A80036; stroke-width: 1.0;"/><polygon fill="none" points="151.684,392.019,149,371,164.206,385.758,151.684,392.019" style="stroke: #A80036; stroke-width: 1.0;"/><!--MD5=[7aa90816f45acc1bd9ceab637fe290d7]
reverse link Worker to Teacher--><path d="M223.566,389.094 C216.381,403.196 208.593,418.484 202.381,430.678 " fill="none" id="Worker&lt;-Teacher" style="stroke: #A80036; stroke-width: 1.0;"/><polygon fill="none" points="217.467,385.644,232.783,371,229.942,391.999,217.467,385.644" style="stroke: #A80036; stroke-width: 1.0;"/><!--MD5=[879e30ae9266c2daeffc5faa5de92ff8]
reverse link Thing to Person--><path d="M137.5,283.208 C137.5,298.359 137.5,312.103 137.5,322.844 " fill="none" id="Thing&lt;-Person" style="stroke: #A80036; stroke-width: 1.0;"/><polygon fill="none" points="130.5,283.002,137.5,263.002,144.5,283.002,130.5,283.002" style="stroke: #A80036; stroke-width: 1.0;"/><!--MD5=[21f45a237dc5330c81362a66c08fcc16]
@startuml
Interface Thing{
nullnull}
Interface Person{
nullnull}
Interface Worker{
nullnull}
class Teacher{
	-designation: String
	-collegeName: String
	-teaches_job: Job
	-heart: Heart
	+getDesignation()
	#setDesignation()
	#getCollegeName()
	#setCollegeName()
	does()
}
class GoodTeacher{
	mainSubject: String
	+{static}main()
}
class Job{
	-role: String
	-salary: long
	-id: int
	+getRole()
	+setRole()
	+getSalary()
	+setSalary()
	+getId()
	+setId()
}
class Heart{
	-cells: String
	+blood: String
	+muscles: String
	+getCells()
	+getBlood()
	+getMuscles()
}
Teacher <|- - GoodTeacher
Teacher o- - Job
Teacher *- - Heart
Person <|- - Teacher
Worker <|- - Teacher
Thing <|- - Person
@enduml

PlantUML version 1.2020.14(Sat Jun 20 09:14:34 COT 2020)
(GPL source distribution)
Java Runtime: Java(TM) SE Runtime Environment
JVM: Java HotSpot(TM) 64-Bit Server VM
Default Encoding: UTF-8
Language: es
Country: CO
--></g></svg>