<?xml version="1.0" encoding="UTF-8" standalone="no"?><svg xmlns="http://www.w3.org/2000/svg" xmlns:xlink="http://www.w3.org/1999/xlink" contentScriptType="application/ecmascript" contentStyleType="text/css" height="726px" preserveAspectRatio="none" style="width:385px;height:726px;" version="1.1" viewBox="0 0 385 726" width="385px" zoomAndPan="magnify"><defs><filter height="300%" id="f3rsrui5pqmho" width="300%" x="-1" y="-1"><feGaussianBlur result="blurOut" stdDeviation="2.0"/><feColorMatrix in="blurOut" result="blurOut2" type="matrix" values="0 0 0 0 0 0 0 0 0 0 0 0 0 0 0 0 0 0 .4 0"/><feOffset dx="4.0" dy="4.0" in="blurOut2" result="blurOut3"/><feBlend in="SourceGraphic" in2="blurOut3" mode="normal"/></filter></defs><g><text fill="#000000" font-family="sans-serif" font-size="18" lengthAdjust="spacingAndGlyphs" textLength="114" x="126.75" y="18.6855">Class diagram</text><!--MD5=[1053da7555f32ea3c982e01119b403ff]
class Thing--><rect fill="#FEFECE" filter="url(#f3rsrui5pqmho)" height="75.6719" id="Thing" style="stroke: #A80036; stroke-width: 1.5;" width="76" x="97.5" y="29.6406"/><ellipse cx="118.35" cy="45.6406" fill="#B4A7E5" rx="11" ry="11" style="stroke: #A80036; stroke-width: 1.0;"/><path d="M119.3031,42.2813 L119.3031,48.9375 L121.0219,48.9375 Q121.6313,48.9375 121.8969,49.1719 Q122.1625,49.4063 122.1625,49.7969 Q122.1625,50.1719 121.8969,50.4063 Q121.6313,50.6406 121.0219,50.6406 L115.8813,50.6406 Q115.2719,50.6406 115.0063,50.4063 Q114.7406,50.1719 114.7406,49.7813 Q114.7406,49.4063 115.0063,49.1719 Q115.2719,48.9375 115.8813,48.9375 L117.6,48.9375 L117.6,42.2813 L115.8813,42.2813 Q115.2719,42.2813 115.0063,42.0469 Q114.7406,41.8125 114.7406,41.4219 Q114.7406,41.0469 115.0063,40.8125 Q115.2719,40.5781 115.8813,40.5781 L121.0219,40.5781 Q121.6313,40.5781 121.8969,40.8125 Q122.1625,41.0469 122.1625,41.4219 Q122.1625,41.8125 121.8969,42.0469 Q121.6313,42.2813 121.0219,42.2813 L119.3031,42.2813 Z "/><text fill="#000000" font-family="sans-serif" font-size="12" font-style="italic" lengthAdjust="spacingAndGlyphs" textLength="31" x="133.65" y="50.5508">Thing</text><line style="stroke: #A80036; stroke-width: 1.5;" x1="98.5" x2="172.5" y1="61.6406" y2="61.6406"/><line style="stroke: #A80036; stroke-width: 1.5;" x1="98.5" x2="172.5" y1="69.6406" y2="69.6406"/><ellipse cx="108.5" cy="80.6406" fill="#84BE84" rx="3" ry="3" style="stroke: #038048; stroke-width: 1.0;"/><text fill="#000000" font-family="sans-serif" font-size="11" lengthAdjust="spacingAndGlyphs" textLength="50" x="117.5" y="85.0596">getName()</text><ellipse cx="108.5" cy="94.4766" fill="#84BE84" rx="3" ry="3" style="stroke: #038048; stroke-width: 1.0;"/><text fill="#000000" font-family="sans-serif" font-size="11" lengthAdjust="spacingAndGlyphs" textLength="44" x="117.5" y="98.8955">doStuff()</text><!--MD5=[09ce52be0ee7de43c61b6e2d59bf108b]
class Person--><rect fill="#FEFECE" filter="url(#f3rsrui5pqmho)" height="75.6719" id="Person" style="stroke: #A80036; stroke-width: 1.5;" width="76" x="97.5" y="165.6406"/><ellipse cx="114.75" cy="181.6406" fill="#B4A7E5" rx="11" ry="11" style="stroke: #A80036; stroke-width: 1.0;"/><path d="M115.7031,178.2813 L115.7031,184.9375 L117.4219,184.9375 Q118.0313,184.9375 118.2969,185.1719 Q118.5625,185.4063 118.5625,185.7969 Q118.5625,186.1719 118.2969,186.4063 Q118.0313,186.6406 117.4219,186.6406 L112.2813,186.6406 Q111.6719,186.6406 111.4063,186.4063 Q111.1406,186.1719 111.1406,185.7813 Q111.1406,185.4063 111.4063,185.1719 Q111.6719,184.9375 112.2813,184.9375 L114,184.9375 L114,178.2813 L112.2813,178.2813 Q111.6719,178.2813 111.4063,178.0469 Q111.1406,177.8125 111.1406,177.4219 Q111.1406,177.0469 111.4063,176.8125 Q111.6719,176.5781 112.2813,176.5781 L117.4219,176.5781 Q118.0313,176.5781 118.2969,176.8125 Q118.5625,177.0469 118.5625,177.4219 Q118.5625,177.8125 118.2969,178.0469 Q118.0313,178.2813 117.4219,178.2813 L115.7031,178.2813 Z "/><text fill="#000000" font-family="sans-serif" font-size="12" font-style="italic" lengthAdjust="spacingAndGlyphs" textLength="39" x="129.25" y="186.5508">Person</text><line style="stroke: #A80036; stroke-width: 1.5;" x1="98.5" x2="172.5" y1="197.6406" y2="197.6406"/><line style="stroke: #A80036; stroke-width: 1.5;" x1="98.5" x2="172.5" y1="205.6406" y2="205.6406"/><ellipse cx="108.5" cy="216.6406" fill="#84BE84" rx="3" ry="3" style="stroke: #038048; stroke-width: 1.0;"/><text fill="#000000" font-family="sans-serif" font-size="11" lengthAdjust="spacingAndGlyphs" textLength="50" x="117.5" y="221.0596">getName()</text><ellipse cx="108.5" cy="230.4766" fill="#84BE84" rx="3" ry="3" style="stroke: #038048; stroke-width: 1.0;"/><text fill="#000000" font-family="sans-serif" font-size="11" lengthAdjust="spacingAndGlyphs" textLength="44" x="117.5" y="234.8955">doStuff()</text><!--MD5=[7b5bd88a8a025decccf0c9eac4aaabe9]
class Worker--><rect fill="#FEFECE" filter="url(#f3rsrui5pqmho)" height="75.6719" id="Worker" style="stroke: #A80036; stroke-width: 1.5;" width="74" x="208.5" y="165.6406"/><ellipse cx="224.4" cy="181.6406" fill="#B4A7E5" rx="11" ry="11" style="stroke: #A80036; stroke-width: 1.0;"/><path d="M225.3531,178.2813 L225.3531,184.9375 L227.0719,184.9375 Q227.6813,184.9375 227.9469,185.1719 Q228.2125,185.4063 228.2125,185.7969 Q228.2125,186.1719 227.9469,186.4063 Q227.6813,186.6406 227.0719,186.6406 L221.9313,186.6406 Q221.3219,186.6406 221.0563,186.4063 Q220.7906,186.1719 220.7906,185.7813 Q220.7906,185.4063 221.0563,185.1719 Q221.3219,184.9375 221.9313,184.9375 L223.65,184.9375 L223.65,178.2813 L221.9313,178.2813 Q221.3219,178.2813 221.0563,178.0469 Q220.7906,177.8125 220.7906,177.4219 Q220.7906,177.0469 221.0563,176.8125 Q221.3219,176.5781 221.9313,176.5781 L227.0719,176.5781 Q227.6813,176.5781 227.9469,176.8125 Q228.2125,177.0469 228.2125,177.4219 Q228.2125,177.8125 227.9469,178.0469 Q227.6813,178.2813 227.0719,178.2813 L225.3531,178.2813 Z "/><text fill="#000000" font-family="sans-serif" font-size="12" font-style="italic" lengthAdjust="spacingAndGlyphs" textLength="40" x="238.6" y="186.5508">Worker</text><line style="stroke: #A80036; stroke-width: 1.5;" x1="209.5" x2="281.5" y1="197.6406" y2="197.6406"/><line style="stroke: #A80036; stroke-width: 1.5;" x1="209.5" x2="281.5" y1="205.6406" y2="205.6406"/><ellipse cx="219.5" cy="216.6406" fill="#84BE84" rx="3" ry="3" style="stroke: #038048; stroke-width: 1.0;"/><text fill="#000000" font-family="sans-serif" font-size="11" lengthAdjust="spacingAndGlyphs" textLength="48" x="228.5" y="221.0596">getWork()</text><ellipse cx="219.5" cy="230.4766" fill="#84BE84" rx="3" ry="3" style="stroke: #038048; stroke-width: 1.0;"/><text fill="#000000" font-family="sans-serif" font-size="11" lengthAdjust="spacingAndGlyphs" textLength="43" x="228.5" y="234.8955">getPaid()</text><!--MD5=[61a83f88cb8b7d3a80bc8c481f3736bf]
class Teacher--><rect fill="#FEFECE" filter="url(#f3rsrui5pqmho)" height="172.5234" id="Teacher" style="stroke: #A80036; stroke-width: 1.5;" width="121" x="130" y="301.6406"/><ellipse cx="164.8" cy="317.6406" fill="#ADD1B2" rx="11" ry="11" style="stroke: #A80036; stroke-width: 1.0;"/><path d="M167.5656,313.5156 Q167.7219,313.2969 167.9094,313.1875 Q168.0969,313.0781 168.3156,313.0781 Q168.6906,313.0781 168.925,313.3359 Q169.1594,313.5938 169.1594,314.2031 L169.1594,315.6563 Q169.1594,316.2656 168.925,316.5313 Q168.6906,316.7969 168.3156,316.7969 Q167.9719,316.7969 167.7688,316.5938 Q167.5656,316.4063 167.4563,315.8906 Q167.4094,315.5313 167.2219,315.3438 Q166.8938,314.9688 166.2844,314.75 Q165.675,314.5313 165.05,314.5313 Q164.2844,314.5313 163.6516,314.8594 Q163.0188,315.1875 162.5266,315.9375 Q162.0344,316.6875 162.0344,317.7188 L162.0344,318.8125 Q162.0344,320.0469 162.925,320.8672 Q163.8156,321.6875 165.4094,321.6875 Q166.3469,321.6875 167.0031,321.4375 Q167.3938,321.2813 167.8156,320.8438 Q168.0813,320.5781 168.2297,320.5 Q168.3781,320.4219 168.5813,320.4219 Q168.9094,320.4219 169.1672,320.6797 Q169.425,320.9375 169.425,321.2813 Q169.425,321.625 169.0813,322.0313 Q168.5813,322.6094 167.7844,322.9375 Q166.7063,323.3906 165.4094,323.3906 Q163.8938,323.3906 162.6906,322.7656 Q161.7063,322.2656 161.0188,321.1953 Q160.3313,320.125 160.3313,318.8438 L160.3313,317.6875 Q160.3313,316.3594 160.9484,315.2109 Q161.5656,314.0625 162.6594,313.4453 Q163.7531,312.8281 164.9875,312.8281 Q165.7219,312.8281 166.3703,312.9922 Q167.0188,313.1563 167.5656,313.5156 Z "/><text fill="#000000" font-family="sans-serif" font-size="12" lengthAdjust="spacingAndGlyphs" textLength="45" x="183.2" y="322.5508">Teacher</text><line style="stroke: #A80036; stroke-width: 1.5;" x1="131" x2="250" y1="333.6406" y2="333.6406"/><rect fill="none" height="6" style="stroke: #C82930; stroke-width: 1.0;" width="6" x="138" y="341.6406"/><text fill="#000000" font-family="sans-serif" font-size="11" lengthAdjust="spacingAndGlyphs" textLength="89" x="150" y="349.0596">designation: String</text><rect fill="none" height="6" style="stroke: #C82930; stroke-width: 1.0;" width="6" x="138" y="355.4766"/><text fill="#000000" font-family="sans-serif" font-size="11" lengthAdjust="spacingAndGlyphs" textLength="95" x="150" y="362.8955">collegeName: String</text><rect fill="none" height="6" style="stroke: #C82930; stroke-width: 1.0;" width="6" x="138" y="369.3125"/><text fill="#000000" font-family="sans-serif" font-size="11" lengthAdjust="spacingAndGlyphs" textLength="82" x="150" y="376.7314">teaches_job: Job</text><rect fill="none" height="6" style="stroke: #C82930; stroke-width: 1.0;" width="6" x="138" y="383.1484"/><text fill="#000000" font-family="sans-serif" font-size="11" lengthAdjust="spacingAndGlyphs" textLength="57" x="150" y="390.5674">heart: Heart</text><line style="stroke: #A80036; stroke-width: 1.5;" x1="131" x2="250" y1="396.9844" y2="396.9844"/><ellipse cx="141" cy="407.9844" fill="#84BE84" rx="3" ry="3" style="stroke: #038048; stroke-width: 1.0;"/><text fill="#000000" font-family="sans-serif" font-size="11" lengthAdjust="spacingAndGlyphs" textLength="79" x="150" y="412.4033">getDesignation()</text><polygon fill="#FFFF44" points="141,416.8203,145,420.8203,141,424.8203,137,420.8203" style="stroke: #B38D22; stroke-width: 1.0;"/><text fill="#000000" font-family="sans-serif" font-size="11" lengthAdjust="spacingAndGlyphs" textLength="79" x="150" y="426.2393">setDesignation()</text><polygon fill="#FFFF44" points="141,430.6563,145,434.6563,141,438.6563,137,434.6563" style="stroke: #B38D22; stroke-width: 1.0;"/><text fill="#000000" font-family="sans-serif" font-size="11" lengthAdjust="spacingAndGlyphs" textLength="85" x="150" y="440.0752">getCollegeName()</text><polygon fill="#FFFF44" points="141,444.4922,145,448.4922,141,452.4922,137,448.4922" style="stroke: #B38D22; stroke-width: 1.0;"/><text fill="#000000" font-family="sans-serif" font-size="11" lengthAdjust="spacingAndGlyphs" textLength="85" x="150" y="453.9111">setCollegeName()</text><text fill="#000000" font-family="sans-serif" font-size="11" lengthAdjust="spacingAndGlyphs" textLength="32" x="150" y="467.7471">does()</text><!--MD5=[003b10a9e8c6b63b70bf8bbab0bff892]
class GoodTeacher--><rect fill="#FEFECE" filter="url(#f3rsrui5pqmho)" height="75.6719" id="GoodTeacher" style="stroke: #A80036; stroke-width: 1.5;" width="107" x="7" y="583.1406"/><ellipse cx="22" cy="599.1406" fill="#ADD1B2" rx="11" ry="11" style="stroke: #A80036; stroke-width: 1.0;"/><path d="M24.7656,595.0156 Q24.9219,594.7969 25.1094,594.6875 Q25.2969,594.5781 25.5156,594.5781 Q25.8906,594.5781 26.125,594.8359 Q26.3594,595.0938 26.3594,595.7031 L26.3594,597.1563 Q26.3594,597.7656 26.125,598.0313 Q25.8906,598.2969 25.5156,598.2969 Q25.1719,598.2969 24.9688,598.0938 Q24.7656,597.9063 24.6563,597.3906 Q24.6094,597.0313 24.4219,596.8438 Q24.0938,596.4688 23.4844,596.25 Q22.875,596.0313 22.25,596.0313 Q21.4844,596.0313 20.8516,596.3594 Q20.2188,596.6875 19.7266,597.4375 Q19.2344,598.1875 19.2344,599.2188 L19.2344,600.3125 Q19.2344,601.5469 20.125,602.3672 Q21.0156,603.1875 22.6094,603.1875 Q23.5469,603.1875 24.2031,602.9375 Q24.5938,602.7813 25.0156,602.3438 Q25.2813,602.0781 25.4297,602 Q25.5781,601.9219 25.7813,601.9219 Q26.1094,601.9219 26.3672,602.1797 Q26.625,602.4375 26.625,602.7813 Q26.625,603.125 26.2813,603.5313 Q25.7813,604.1094 24.9844,604.4375 Q23.9063,604.8906 22.6094,604.8906 Q21.0938,604.8906 19.8906,604.2656 Q18.9063,603.7656 18.2188,602.6953 Q17.5313,601.625 17.5313,600.3438 L17.5313,599.1875 Q17.5313,597.8594 18.1484,596.7109 Q18.7656,595.5625 19.8594,594.9453 Q20.9531,594.3281 22.1875,594.3281 Q22.9219,594.3281 23.5703,594.4922 Q24.2188,594.6563 24.7656,595.0156 Z "/><text fill="#000000" font-family="sans-serif" font-size="12" lengthAdjust="spacingAndGlyphs" textLength="75" x="36" y="604.0508">GoodTeacher</text><line style="stroke: #A80036; stroke-width: 1.5;" x1="8" x2="113" y1="615.1406" y2="615.1406"/><text fill="#000000" font-family="sans-serif" font-size="11" lengthAdjust="spacingAndGlyphs" textLength="92" x="13" y="630.5596">mainSubject: String</text><line style="stroke: #A80036; stroke-width: 1.5;" x1="8" x2="113" y1="636.9766" y2="636.9766"/><ellipse cx="18" cy="647.9766" fill="#84BE84" rx="3" ry="3" style="stroke: #038048; stroke-width: 1.0;"/><text fill="#000000" font-family="sans-serif" font-size="11" lengthAdjust="spacingAndGlyphs" text-decoration="underline" textLength="30" x="27" y="652.3955">main()</text><!--MD5=[b8e0354e0f3f5cbf52553869b78c0afa]
class Job--><rect fill="#FEFECE" filter="url(#f3rsrui5pqmho)" height="172.5234" id="Job" style="stroke: #A80036; stroke-width: 1.5;" width="82" x="149.5" y="534.6406"/><ellipse cx="178" cy="550.6406" fill="#ADD1B2" rx="11" ry="11" style="stroke: #A80036; stroke-width: 1.0;"/><path d="M180.7656,546.5156 Q180.9219,546.2969 181.1094,546.1875 Q181.2969,546.0781 181.5156,546.0781 Q181.8906,546.0781 182.125,546.3359 Q182.3594,546.5938 182.3594,547.2031 L182.3594,548.6563 Q182.3594,549.2656 182.125,549.5313 Q181.8906,549.7969 181.5156,549.7969 Q181.1719,549.7969 180.9688,549.5938 Q180.7656,549.4063 180.6563,548.8906 Q180.6094,548.5313 180.4219,548.3438 Q180.0938,547.9688 179.4844,547.75 Q178.875,547.5313 178.25,547.5313 Q177.4844,547.5313 176.8516,547.8594 Q176.2188,548.1875 175.7266,548.9375 Q175.2344,549.6875 175.2344,550.7188 L175.2344,551.8125 Q175.2344,553.0469 176.125,553.8672 Q177.0156,554.6875 178.6094,554.6875 Q179.5469,554.6875 180.2031,554.4375 Q180.5938,554.2813 181.0156,553.8438 Q181.2813,553.5781 181.4297,553.5 Q181.5781,553.4219 181.7813,553.4219 Q182.1094,553.4219 182.3672,553.6797 Q182.625,553.9375 182.625,554.2813 Q182.625,554.625 182.2813,555.0313 Q181.7813,555.6094 180.9844,555.9375 Q179.9063,556.3906 178.6094,556.3906 Q177.0938,556.3906 175.8906,555.7656 Q174.9063,555.2656 174.2188,554.1953 Q173.5313,553.125 173.5313,551.8438 L173.5313,550.6875 Q173.5313,549.3594 174.1484,548.2109 Q174.7656,547.0625 175.8594,546.4453 Q176.9531,545.8281 178.1875,545.8281 Q178.9219,545.8281 179.5703,545.9922 Q180.2188,546.1563 180.7656,546.5156 Z "/><text fill="#000000" font-family="sans-serif" font-size="12" lengthAdjust="spacingAndGlyphs" textLength="20" x="195" y="555.5508">Job</text><line style="stroke: #A80036; stroke-width: 1.5;" x1="150.5" x2="230.5" y1="566.6406" y2="566.6406"/><rect fill="none" height="6" style="stroke: #C82930; stroke-width: 1.0;" width="6" x="157.5" y="574.6406"/><text fill="#000000" font-family="sans-serif" font-size="11" lengthAdjust="spacingAndGlyphs" textLength="52" x="169.5" y="582.0596">role: String</text><rect fill="none" height="6" style="stroke: #C82930; stroke-width: 1.0;" width="6" x="157.5" y="588.4766"/><text fill="#000000" font-family="sans-serif" font-size="11" lengthAdjust="spacingAndGlyphs" textLength="56" x="169.5" y="595.8955">salary: long</text><rect fill="none" height="6" style="stroke: #C82930; stroke-width: 1.0;" width="6" x="157.5" y="602.3125"/><text fill="#000000" font-family="sans-serif" font-size="11" lengthAdjust="spacingAndGlyphs" textLength="25" x="169.5" y="609.7314">id: int</text><line style="stroke: #A80036; stroke-width: 1.5;" x1="150.5" x2="230.5" y1="616.1484" y2="616.1484"/><ellipse cx="160.5" cy="627.1484" fill="#84BE84" rx="3" ry="3" style="stroke: #038048; stroke-width: 1.0;"/><text fill="#000000" font-family="sans-serif" font-size="11" lengthAdjust="spacingAndGlyphs" textLength="44" x="169.5" y="631.5674">getRole()</text><ellipse cx="160.5" cy="640.9844" fill="#84BE84" rx="3" ry="3" style="stroke: #038048; stroke-width: 1.0;"/><text fill="#000000" font-family="sans-serif" font-size="11" lengthAdjust="spacingAndGlyphs" textLength="44" x="169.5" y="645.4033">setRole()</text><ellipse cx="160.5" cy="654.8203" fill="#84BE84" rx="3" ry="3" style="stroke: #038048; stroke-width: 1.0;"/><text fill="#000000" font-family="sans-serif" font-size="11" lengthAdjust="spacingAndGlyphs" textLength="54" x="169.5" y="659.2393">getSalary()</text><ellipse cx="160.5" cy="668.6563" fill="#84BE84" rx="3" ry="3" style="stroke: #038048; stroke-width: 1.0;"/><text fill="#000000" font-family="sans-serif" font-size="11" lengthAdjust="spacingAndGlyphs" textLength="54" x="169.5" y="673.0752">setSalary()</text><ellipse cx="160.5" cy="682.4922" fill="#84BE84" rx="3" ry="3" style="stroke: #038048; stroke-width: 1.0;"/><text fill="#000000" font-family="sans-serif" font-size="11" lengthAdjust="spacingAndGlyphs" textLength="31" x="169.5" y="686.9111">getId()</text><ellipse cx="160.5" cy="696.3281" fill="#84BE84" rx="3" ry="3" style="stroke: #038048; stroke-width: 1.0;"/><text fill="#000000" font-family="sans-serif" font-size="11" lengthAdjust="spacingAndGlyphs" textLength="31" x="169.5" y="700.7471">setId()</text><!--MD5=[9bb5813e59df3e2529d11a5afaed7800]
class Heart--><rect fill="#FEFECE" filter="url(#f3rsrui5pqmho)" height="131.0156" id="Heart" style="stroke: #A80036; stroke-width: 1.5;" width="100" x="266.5" y="555.6406"/><ellipse cx="298.6" cy="571.6406" fill="#ADD1B2" rx="11" ry="11" style="stroke: #A80036; stroke-width: 1.0;"/><path d="M301.3656,567.5156 Q301.5219,567.2969 301.7094,567.1875 Q301.8969,567.0781 302.1156,567.0781 Q302.4906,567.0781 302.725,567.3359 Q302.9594,567.5938 302.9594,568.2031 L302.9594,569.6563 Q302.9594,570.2656 302.725,570.5313 Q302.4906,570.7969 302.1156,570.7969 Q301.7719,570.7969 301.5688,570.5938 Q301.3656,570.4063 301.2563,569.8906 Q301.2094,569.5313 301.0219,569.3438 Q300.6938,568.9688 300.0844,568.75 Q299.475,568.5313 298.85,568.5313 Q298.0844,568.5313 297.4516,568.8594 Q296.8188,569.1875 296.3266,569.9375 Q295.8344,570.6875 295.8344,571.7188 L295.8344,572.8125 Q295.8344,574.0469 296.725,574.8672 Q297.6156,575.6875 299.2094,575.6875 Q300.1469,575.6875 300.8031,575.4375 Q301.1938,575.2813 301.6156,574.8438 Q301.8813,574.5781 302.0297,574.5 Q302.1781,574.4219 302.3813,574.4219 Q302.7094,574.4219 302.9672,574.6797 Q303.225,574.9375 303.225,575.2813 Q303.225,575.625 302.8813,576.0313 Q302.3813,576.6094 301.5844,576.9375 Q300.5063,577.3906 299.2094,577.3906 Q297.6938,577.3906 296.4906,576.7656 Q295.5063,576.2656 294.8188,575.1953 Q294.1313,574.125 294.1313,572.8438 L294.1313,571.6875 Q294.1313,570.3594 294.7484,569.2109 Q295.3656,568.0625 296.4594,567.4453 Q297.5531,566.8281 298.7875,566.8281 Q299.5219,566.8281 300.1703,566.9922 Q300.8188,567.1563 301.3656,567.5156 Z "/><text fill="#000000" font-family="sans-serif" font-size="12" lengthAdjust="spacingAndGlyphs" textLength="30" x="316.4" y="576.5508">Heart</text><line style="stroke: #A80036; stroke-width: 1.5;" x1="267.5" x2="365.5" y1="587.6406" y2="587.6406"/><rect fill="none" height="6" style="stroke: #C82930; stroke-width: 1.0;" width="6" x="274.5" y="595.6406"/><text fill="#000000" font-family="sans-serif" font-size="11" lengthAdjust="spacingAndGlyphs" textLength="56" x="286.5" y="603.0596">cells: String</text><ellipse cx="277.5" cy="612.4766" fill="none" rx="3" ry="3" style="stroke: #038048; stroke-width: 1.0;"/><text fill="#000000" font-family="sans-serif" font-size="11" lengthAdjust="spacingAndGlyphs" textLength="60" x="286.5" y="616.8955">blood: String</text><ellipse cx="277.5" cy="626.3125" fill="none" rx="3" ry="3" style="stroke: #038048; stroke-width: 1.0;"/><text fill="#000000" font-family="sans-serif" font-size="11" lengthAdjust="spacingAndGlyphs" textLength="74" x="286.5" y="630.7314">muscles: String</text><line style="stroke: #A80036; stroke-width: 1.5;" x1="267.5" x2="365.5" y1="637.1484" y2="637.1484"/><ellipse cx="277.5" cy="648.1484" fill="#84BE84" rx="3" ry="3" style="stroke: #038048; stroke-width: 1.0;"/><text fill="#000000" font-family="sans-serif" font-size="11" lengthAdjust="spacingAndGlyphs" textLength="46" x="286.5" y="652.5674">getCells()</text><ellipse cx="277.5" cy="661.9844" fill="#84BE84" rx="3" ry="3" style="stroke: #038048; stroke-width: 1.0;"/><text fill="#000000" font-family="sans-serif" font-size="11" lengthAdjust="spacingAndGlyphs" textLength="50" x="286.5" y="666.4033">getBlood()</text><ellipse cx="277.5" cy="675.8203" fill="#84BE84" rx="3" ry="3" style="stroke: #038048; stroke-width: 1.0;"/><text fill="#000000" font-family="sans-serif" font-size="11" lengthAdjust="spacingAndGlyphs" textLength="63" x="286.5" y="680.2393">getMuscles()</text><!--MD5=[660a84f7d2118b289df1da96277a8d3e]
reverse link Teacher to GoodTeacher--><path d="M132.308,492.5426 C114.166,524.7806 95.3078,558.2896 81.4719,582.8756 " fill="none" id="Teacher&lt;-GoodTeacher" style="stroke: #A80036; stroke-width: 1.0;"/><polygon fill="none" points="126.368,488.8246,142.278,474.8286,138.569,495.6906,126.368,488.8246" style="stroke: #A80036; stroke-width: 1.0;"/><!--MD5=[83f6542cdf8689fc8464dda03f9dd7a4]
reverse link Teacher to Job--><path d="M190.5,488.2526 C190.5,503.6776 190.5,519.5006 190.5,534.5916 " fill="none" id="Teacher&lt;-Job" style="stroke: #A80036; stroke-width: 1.0;"/><polygon fill="#FFFFFF" points="190.5,474.8286,186.5,480.8286,190.5,486.8286,194.5,480.8286,190.5,474.8286" style="stroke: #A80036; stroke-width: 1.0;"/><!--MD5=[af1587ffe93d550a62c63614985ccb65]
reverse link Teacher to Heart--><path d="M243.623,486.5326 C256.332,509.8316 269.59,534.1396 281.261,555.5346 " fill="none" id="Teacher&lt;-Heart" style="stroke: #A80036; stroke-width: 1.0;"/><polygon fill="#A80036" points="237.239,474.8286,236.6008,482.0114,242.9856,485.3632,243.6238,478.1804,237.239,474.8286" style="stroke: #A80036; stroke-width: 1.0;"/><!--MD5=[15c8996a18b78152b9e33e7e4ee412f1]
reverse link Person to Teacher--><path d="M152.657,261.5716 C156.487,274.2796 160.63,288.0266 164.722,301.6036 " fill="none" id="Person&lt;-Teacher" style="stroke: #A80036; stroke-width: 1.0; stroke-dasharray: 7.0,7.0;"/><polygon fill="none" points="145.832,263.1816,146.763,242.0126,159.236,259.1416,145.832,263.1816" style="stroke: #A80036; stroke-width: 1.0;"/><!--MD5=[7aa90816f45acc1bd9ceab637fe290d7]
reverse link Worker to Teacher--><path d="M228.343,261.5716 C224.513,274.2796 220.37,288.0266 216.278,301.6036 " fill="none" id="Worker&lt;-Teacher" style="stroke: #A80036; stroke-width: 1.0; stroke-dasharray: 7.0,7.0;"/><polygon fill="none" points="221.764,259.1416,234.237,242.0126,235.168,263.1816,221.764,259.1416" style="stroke: #A80036; stroke-width: 1.0;"/><!--MD5=[879e30ae9266c2daeffc5faa5de92ff8]
reverse link Thing to Person--><path d="M135.5,126.1756 C135.5,139.5006 135.5,153.3356 135.5,165.5146 " fill="none" id="Thing&lt;-Person" style="stroke: #A80036; stroke-width: 1.0; stroke-dasharray: 7.0,7.0;"/><polygon fill="none" points="128.5,125.9676,135.5,105.9666,142.5,125.9666,128.5,125.9676" style="stroke: #A80036; stroke-width: 1.0;"/><!--MD5=[fb1d1a9422bfb436a260e61554dc7532]
@startuml
title Class diagram
Interface Thing{
	+getName()
	+doStuff()
}
Interface Person{
	+getName()
	+doStuff()
}
Interface Worker{
	+getWork()
	+getPaid()
}
class Teacher{
	-designation: String
	-collegeName: String
	-teaches_job: Job
	-heart: Heart
	+getDesignation()
	#setDesignation()
	#getCollegeName()
	#setCollegeName()
	does()
}
class GoodTeacher{
	mainSubject: String
	+{static}main()
}
class Job{
	-role: String
	-salary: long
	-id: int
	+getRole()
	+setRole()
	+getSalary()
	+setSalary()
	+getId()
	+setId()
}
class Heart{
	-cells: String
	+blood: String
	+muscles: String
	+getCells()
	+getBlood()
	+getMuscles()
}
GoodTeacher -up-|> Teacher
Teacher o- - Job
Teacher *- - Heart
Teacher .up.|> Person
Teacher .up.|> Worker
Person .up.|> Thing
@enduml

PlantUML version 1.2020.14(Sat Jun 20 09:14:34 COT 2020)
(GPL source distribution)
Java Runtime: Java(TM) SE Runtime Environment
JVM: Java HotSpot(TM) 64-Bit Server VM
Default Encoding: UTF-8
Language: es
Country: CO
--></g></svg>