<?xml version="1.0" encoding="UTF-8" standalone="no"?><svg xmlns="http://www.w3.org/2000/svg" xmlns:xlink="http://www.w3.org/1999/xlink" contentScriptType="application/ecmascript" contentStyleType="text/css" height="361px" preserveAspectRatio="none" style="width:354px;height:361px;" version="1.1" viewBox="0 0 354 361" width="354px" zoomAndPan="magnify"><defs><filter height="300%" id="f1g4t0ixekvu0d" width="300%" x="-1" y="-1"><feGaussianBlur result="blurOut" stdDeviation="2.0"/><feColorMatrix in="blurOut" result="blurOut2" type="matrix" values="0 0 0 0 0 0 0 0 0 0 0 0 0 0 0 0 0 0 .4 0"/><feOffset dx="4.0" dy="4.0" in="blurOut2" result="blurOut3"/><feBlend in="SourceGraphic" in2="blurOut3" mode="normal"/></filter></defs><g><!--MD5=[d0da0a299942266ebd64acf2b2e95fa4]
class Subject--><rect fill="#FEFECE" filter="url(#f1g4t0ixekvu0d)" height="103.3438" id="Subject" style="stroke: #A80036; stroke-width: 1.5;" width="113" x="41" y="7"/><ellipse cx="73.55" cy="23" fill="#B4A7E5" rx="11" ry="11" style="stroke: #A80036; stroke-width: 1.0;"/><path d="M74.5031,19.6406 L74.5031,26.2969 L76.2219,26.2969 Q76.8313,26.2969 77.0969,26.5313 Q77.3625,26.7656 77.3625,27.1563 Q77.3625,27.5313 77.0969,27.7656 Q76.8313,28 76.2219,28 L71.0813,28 Q70.4719,28 70.2063,27.7656 Q69.9406,27.5313 69.9406,27.1406 Q69.9406,26.7656 70.2063,26.5313 Q70.4719,26.2969 71.0813,26.2969 L72.8,26.2969 L72.8,19.6406 L71.0813,19.6406 Q70.4719,19.6406 70.2063,19.4063 Q69.9406,19.1719 69.9406,18.7813 Q69.9406,18.4063 70.2063,18.1719 Q70.4719,17.9375 71.0813,17.9375 L76.2219,17.9375 Q76.8313,17.9375 77.0969,18.1719 Q77.3625,18.4063 77.3625,18.7813 Q77.3625,19.1719 77.0969,19.4063 Q76.8313,19.6406 76.2219,19.6406 L74.5031,19.6406 Z "/><text fill="#000000" font-family="sans-serif" font-size="12" font-style="italic" lengthAdjust="spacingAndGlyphs" textLength="42" x="91.45" y="27.9102">Subject</text><line style="stroke: #A80036; stroke-width: 1.5;" x1="42" x2="153" y1="39" y2="39"/><line style="stroke: #A80036; stroke-width: 1.5;" x1="42" x2="153" y1="47" y2="47"/><ellipse cx="52" cy="58" fill="#84BE84" rx="3" ry="3" style="stroke: #038048; stroke-width: 1.0;"/><text fill="#000000" font-family="sans-serif" font-size="11" lengthAdjust="spacingAndGlyphs" textLength="45" x="61" y="62.4189">register()</text><ellipse cx="52" cy="71.8359" fill="#84BE84" rx="3" ry="3" style="stroke: #038048; stroke-width: 1.0;"/><text fill="#000000" font-family="sans-serif" font-size="11" lengthAdjust="spacingAndGlyphs" textLength="57" x="61" y="76.2549">unregister()</text><ellipse cx="52" cy="85.6719" fill="#84BE84" rx="3" ry="3" style="stroke: #038048; stroke-width: 1.0;"/><text fill="#000000" font-family="sans-serif" font-size="11" lengthAdjust="spacingAndGlyphs" textLength="87" x="61" y="90.0908">notifyObservers()</text><ellipse cx="52" cy="99.5078" fill="#84BE84" rx="3" ry="3" style="stroke: #038048; stroke-width: 1.0;"/><text fill="#000000" font-family="sans-serif" font-size="11" lengthAdjust="spacingAndGlyphs" textLength="57" x="61" y="103.9268">getUpdate()</text><!--MD5=[d40932010816485ec57b44b6eea2392a]
class Observer--><rect fill="#FEFECE" filter="url(#f1g4t0ixekvu0d)" height="75.6719" id="Observer" style="stroke: #A80036; stroke-width: 1.5;" width="85" x="213" y="20.5"/><ellipse cx="228.9" cy="36.5" fill="#B4A7E5" rx="11" ry="11" style="stroke: #A80036; stroke-width: 1.0;"/><path d="M229.8531,33.1406 L229.8531,39.7969 L231.5719,39.7969 Q232.1813,39.7969 232.4469,40.0313 Q232.7125,40.2656 232.7125,40.6563 Q232.7125,41.0313 232.4469,41.2656 Q232.1813,41.5 231.5719,41.5 L226.4313,41.5 Q225.8219,41.5 225.5563,41.2656 Q225.2906,41.0313 225.2906,40.6406 Q225.2906,40.2656 225.5563,40.0313 Q225.8219,39.7969 226.4313,39.7969 L228.15,39.7969 L228.15,33.1406 L226.4313,33.1406 Q225.8219,33.1406 225.5563,32.9063 Q225.2906,32.6719 225.2906,32.2813 Q225.2906,31.9063 225.5563,31.6719 Q225.8219,31.4375 226.4313,31.4375 L231.5719,31.4375 Q232.1813,31.4375 232.4469,31.6719 Q232.7125,31.9063 232.7125,32.2813 Q232.7125,32.6719 232.4469,32.9063 Q232.1813,33.1406 231.5719,33.1406 L229.8531,33.1406 Z "/><text fill="#000000" font-family="sans-serif" font-size="12" font-style="italic" lengthAdjust="spacingAndGlyphs" textLength="51" x="243.1" y="41.4102">Observer</text><line style="stroke: #A80036; stroke-width: 1.5;" x1="214" x2="297" y1="52.5" y2="52.5"/><line style="stroke: #A80036; stroke-width: 1.5;" x1="214" x2="297" y1="60.5" y2="60.5"/><ellipse cx="224" cy="71.5" fill="#84BE84" rx="3" ry="3" style="stroke: #038048; stroke-width: 1.0;"/><text fill="#000000" font-family="sans-serif" font-size="11" lengthAdjust="spacingAndGlyphs" textLength="41" x="233" y="75.9189">update()</text><ellipse cx="224" cy="85.3359" fill="#84BE84" rx="3" ry="3" style="stroke: #038048; stroke-width: 1.0;"/><text fill="#000000" font-family="sans-serif" font-size="11" lengthAdjust="spacingAndGlyphs" textLength="59" x="233" y="89.7549">setSubject()</text><!--MD5=[a2d0adf9aada2d6cd58dac6cd3c62a40]
class MyTopic--><rect fill="#FEFECE" filter="url(#f1g4t0ixekvu0d)" height="172.5234" id="MyTopic" style="stroke: #A80036; stroke-width: 1.5;" width="157" x="7" y="170"/><ellipse cx="59.25" cy="186" fill="#ADD1B2" rx="11" ry="11" style="stroke: #A80036; stroke-width: 1.0;"/><path d="M62.0156,181.875 Q62.1719,181.6563 62.3594,181.5469 Q62.5469,181.4375 62.7656,181.4375 Q63.1406,181.4375 63.375,181.6953 Q63.6094,181.9531 63.6094,182.5625 L63.6094,184.0156 Q63.6094,184.625 63.375,184.8906 Q63.1406,185.1563 62.7656,185.1563 Q62.4219,185.1563 62.2188,184.9531 Q62.0156,184.7656 61.9063,184.25 Q61.8594,183.8906 61.6719,183.7031 Q61.3438,183.3281 60.7344,183.1094 Q60.125,182.8906 59.5,182.8906 Q58.7344,182.8906 58.1016,183.2188 Q57.4688,183.5469 56.9766,184.2969 Q56.4844,185.0469 56.4844,186.0781 L56.4844,187.1719 Q56.4844,188.4063 57.375,189.2266 Q58.2656,190.0469 59.8594,190.0469 Q60.7969,190.0469 61.4531,189.7969 Q61.8438,189.6406 62.2656,189.2031 Q62.5313,188.9375 62.6797,188.8594 Q62.8281,188.7813 63.0313,188.7813 Q63.3594,188.7813 63.6172,189.0391 Q63.875,189.2969 63.875,189.6406 Q63.875,189.9844 63.5313,190.3906 Q63.0313,190.9688 62.2344,191.2969 Q61.1563,191.75 59.8594,191.75 Q58.3438,191.75 57.1406,191.125 Q56.1563,190.625 55.4688,189.5547 Q54.7813,188.4844 54.7813,187.2031 L54.7813,186.0469 Q54.7813,184.7188 55.3984,183.5703 Q56.0156,182.4219 57.1094,181.8047 Q58.2031,181.1875 59.4375,181.1875 Q60.1719,181.1875 60.8203,181.3516 Q61.4688,181.5156 62.0156,181.875 Z "/><text fill="#000000" font-family="sans-serif" font-size="12" lengthAdjust="spacingAndGlyphs" textLength="44" x="79.75" y="190.9102">MyTopic</text><line style="stroke: #A80036; stroke-width: 1.5;" x1="8" x2="163" y1="202" y2="202"/><rect fill="none" height="6" style="stroke: #C82930; stroke-width: 1.0;" width="6" x="15" y="210"/><text fill="#000000" font-family="sans-serif" font-size="11" lengthAdjust="spacingAndGlyphs" textLength="131" x="27" y="217.4189">observers: List&lt;Observer&gt;</text><rect fill="none" height="6" style="stroke: #C82930; stroke-width: 1.0;" width="6" x="15" y="223.8359"/><text fill="#000000" font-family="sans-serif" font-size="11" lengthAdjust="spacingAndGlyphs" textLength="78" x="27" y="231.2549">message: String</text><rect fill="none" height="6" style="stroke: #C82930; stroke-width: 1.0;" width="6" x="15" y="237.6719"/><text fill="#000000" font-family="sans-serif" font-size="11" lengthAdjust="spacingAndGlyphs" textLength="86" x="27" y="245.0908">changed: boolean</text><rect fill="none" height="6" style="stroke: #C82930; stroke-width: 1.0;" width="6" x="15" y="251.5078"/><text fill="#000000" font-family="sans-serif" font-size="11" lengthAdjust="spacingAndGlyphs" textLength="71" x="27" y="258.9268">MUTEX: Object</text><line style="stroke: #A80036; stroke-width: 1.5;" x1="8" x2="163" y1="265.3438" y2="265.3438"/><ellipse cx="18" cy="276.3438" fill="#84BE84" rx="3" ry="3" style="stroke: #038048; stroke-width: 1.0;"/><text fill="#000000" font-family="sans-serif" font-size="11" lengthAdjust="spacingAndGlyphs" textLength="45" x="27" y="280.7627">register()</text><ellipse cx="18" cy="290.1797" fill="#84BE84" rx="3" ry="3" style="stroke: #038048; stroke-width: 1.0;"/><text fill="#000000" font-family="sans-serif" font-size="11" lengthAdjust="spacingAndGlyphs" textLength="57" x="27" y="294.5986">unregister()</text><ellipse cx="18" cy="304.0156" fill="#84BE84" rx="3" ry="3" style="stroke: #038048; stroke-width: 1.0;"/><text fill="#000000" font-family="sans-serif" font-size="11" lengthAdjust="spacingAndGlyphs" textLength="87" x="27" y="308.4346">notifyObservers()</text><ellipse cx="18" cy="317.8516" fill="#84BE84" rx="3" ry="3" style="stroke: #038048; stroke-width: 1.0;"/><text fill="#000000" font-family="sans-serif" font-size="11" lengthAdjust="spacingAndGlyphs" textLength="57" x="27" y="322.2705">getUpdate()</text><ellipse cx="18" cy="331.6875" fill="#84BE84" rx="3" ry="3" style="stroke: #038048; stroke-width: 1.0;"/><text fill="#000000" font-family="sans-serif" font-size="11" lengthAdjust="spacingAndGlyphs" textLength="73" x="27" y="336.1064">postMessage()</text><!--MD5=[1c0da4d2ded6e8e1189ae31f447a1af8]
class MyTopicSubscriber--><rect fill="#FEFECE" filter="url(#f1g4t0ixekvu0d)" height="103.3438" id="MyTopicSubscriber" style="stroke: #A80036; stroke-width: 1.5;" width="136" x="199.5" y="205"/><ellipse cx="214.5" cy="221" fill="#ADD1B2" rx="11" ry="11" style="stroke: #A80036; stroke-width: 1.0;"/><path d="M217.2656,216.875 Q217.4219,216.6563 217.6094,216.5469 Q217.7969,216.4375 218.0156,216.4375 Q218.3906,216.4375 218.625,216.6953 Q218.8594,216.9531 218.8594,217.5625 L218.8594,219.0156 Q218.8594,219.625 218.625,219.8906 Q218.3906,220.1563 218.0156,220.1563 Q217.6719,220.1563 217.4688,219.9531 Q217.2656,219.7656 217.1563,219.25 Q217.1094,218.8906 216.9219,218.7031 Q216.5938,218.3281 215.9844,218.1094 Q215.375,217.8906 214.75,217.8906 Q213.9844,217.8906 213.3516,218.2188 Q212.7188,218.5469 212.2266,219.2969 Q211.7344,220.0469 211.7344,221.0781 L211.7344,222.1719 Q211.7344,223.4063 212.625,224.2266 Q213.5156,225.0469 215.1094,225.0469 Q216.0469,225.0469 216.7031,224.7969 Q217.0938,224.6406 217.5156,224.2031 Q217.7813,223.9375 217.9297,223.8594 Q218.0781,223.7813 218.2813,223.7813 Q218.6094,223.7813 218.8672,224.0391 Q219.125,224.2969 219.125,224.6406 Q219.125,224.9844 218.7813,225.3906 Q218.2813,225.9688 217.4844,226.2969 Q216.4063,226.75 215.1094,226.75 Q213.5938,226.75 212.3906,226.125 Q211.4063,225.625 210.7188,224.5547 Q210.0313,223.4844 210.0313,222.2031 L210.0313,221.0469 Q210.0313,219.7188 210.6484,218.5703 Q211.2656,217.4219 212.3594,216.8047 Q213.4531,216.1875 214.6875,216.1875 Q215.4219,216.1875 216.0703,216.3516 Q216.7188,216.5156 217.2656,216.875 Z "/><text fill="#000000" font-family="sans-serif" font-size="12" lengthAdjust="spacingAndGlyphs" textLength="104" x="228.5" y="225.9102">MyTopicSubscriber</text><line style="stroke: #A80036; stroke-width: 1.5;" x1="200.5" x2="334.5" y1="237" y2="237"/><rect fill="none" height="6" style="stroke: #C82930; stroke-width: 1.0;" width="6" x="207.5" y="245"/><text fill="#000000" font-family="sans-serif" font-size="11" lengthAdjust="spacingAndGlyphs" textLength="60" x="219.5" y="252.4189">name: String</text><rect fill="none" height="6" style="stroke: #C82930; stroke-width: 1.0;" width="6" x="207.5" y="258.8359"/><text fill="#000000" font-family="sans-serif" font-size="11" lengthAdjust="spacingAndGlyphs" textLength="65" x="219.5" y="266.2549">topic: Subject</text><line style="stroke: #A80036; stroke-width: 1.5;" x1="200.5" x2="334.5" y1="272.6719" y2="272.6719"/><ellipse cx="210.5" cy="283.6719" fill="#84BE84" rx="3" ry="3" style="stroke: #038048; stroke-width: 1.0;"/><text fill="#000000" font-family="sans-serif" font-size="11" lengthAdjust="spacingAndGlyphs" textLength="41" x="219.5" y="288.0908">update()</text><ellipse cx="210.5" cy="297.5078" fill="#84BE84" rx="3" ry="3" style="stroke: #038048; stroke-width: 1.0;"/><text fill="#000000" font-family="sans-serif" font-size="11" lengthAdjust="spacingAndGlyphs" textLength="59" x="219.5" y="301.9268">setSubject()</text><!--MD5=[6f66b9259111a89226c2c6e1b677a0fb]
reverse link Subject to MyTopicSubscriber--><path d="M144.794,114.027 C169.492,142.502 199.517,177.119 223.684,204.983 " fill="none" id="Subject&lt;-MyTopicSubscriber" style="stroke: #A80036; stroke-width: 1.0;"/><polygon fill="#A80036" points="141.5,110.23,144.3768,119.6494,144.7767,114.0067,150.4194,114.4066,141.5,110.23" style="stroke: #A80036; stroke-width: 1.0;"/><!--MD5=[775f53394176362989ea01df6dadfb1c]
reverse link Observer to MyTopicSubscriber--><path d="M259.016,116.932 C260.724,144.832 262.759,178.059 264.407,204.981 " fill="none" id="Observer&lt;-MyTopicSubscriber" style="stroke: #A80036; stroke-width: 1.0; stroke-dasharray: 7.0,7.0;"/><polygon fill="none" points="252.021,117.218,257.785,96.827,265.995,116.362,252.021,117.218" style="stroke: #A80036; stroke-width: 1.0;"/><!--MD5=[11fcfbac5f85be8e31f68c916fcb0fc3]
reverse link Observer to MyTopic--><path d="M219.687,100.79 C202.212,120.938 180.507,145.963 159.683,169.971 " fill="none" id="Observer&lt;-MyTopic" style="stroke: #A80036; stroke-width: 1.0;"/><polygon fill="#A80036" points="223.124,96.827,214.2055,101.0055,219.8481,100.6044,220.2493,106.247,223.124,96.827" style="stroke: #A80036; stroke-width: 1.0;"/><!--MD5=[3ac4c13577018fcb6005f58d382ede4a]
reverse link Subject to MyTopic--><path d="M93.1671,130.271 C92.3846,143.051 91.5611,156.502 90.7557,169.656 " fill="none" id="Subject&lt;-MyTopic" style="stroke: #A80036; stroke-width: 1.0; stroke-dasharray: 7.0,7.0;"/><polygon fill="none" points="86.1849,129.765,94.3941,110.23,100.1587,130.62,86.1849,129.765" style="stroke: #A80036; stroke-width: 1.0;"/><!--MD5=[405f1e9686fbb898fc75dfba7b43022f]
@startuml
Interface Subject{
	+register()
	+unregister()
	+notifyObservers()
	+getUpdate()
}
Interface Observer{
	+update()
	+setSubject()
}
class MyTopic{
	-observers: List<Observer>
	-message: String
	-changed: boolean
	-MUTEX: Object
	+register()
	+unregister()
	+notifyObservers()
	+getUpdate()
	+postMessage()
}
class MyTopicSubscriber{
	-name: String
	-topic: Subject
	+update()
	+setSubject()
}
MyTopicSubscriber -up-> Subject
MyTopicSubscriber .up.|> Observer
MyTopic -up-> Observer
MyTopic .up.|> Subject
@enduml

PlantUML version 1.2020.14(Sat Jun 20 09:14:34 COT 2020)
(GPL source distribution)
Java Runtime: Java(TM) SE Runtime Environment
JVM: Java HotSpot(TM) 64-Bit Server VM
Default Encoding: UTF-8
Language: es
Country: CO
--></g></svg>