<?xml version="1.0" encoding="UTF-8" standalone="no"?><svg xmlns="http://www.w3.org/2000/svg" xmlns:xlink="http://www.w3.org/1999/xlink" contentScriptType="application/ecmascript" contentStyleType="text/css" height="647px" preserveAspectRatio="none" style="width:385px;height:647px;" version="1.1" viewBox="0 0 385 647" width="385px" zoomAndPan="magnify"><defs><filter height="300%" id="f1u0e3lylshy1d" width="300%" x="-1" y="-1"><feGaussianBlur result="blurOut" stdDeviation="2.0"/><feColorMatrix in="blurOut" result="blurOut2" type="matrix" values="0 0 0 0 0 0 0 0 0 0 0 0 0 0 0 0 0 0 .4 0"/><feOffset dx="4.0" dy="4.0" in="blurOut2" result="blurOut3"/><feBlend in="SourceGraphic" in2="blurOut3" mode="normal"/></filter></defs><g><!--MD5=[1053da7555f32ea3c982e01119b403ff]
class Thing--><rect fill="#FEFECE" filter="url(#f1u0e3lylshy1d)" height="48" id="Thing" style="stroke: #A80036; stroke-width: 1.5;" width="63" x="106" y="7"/><ellipse cx="121" cy="23" fill="#B4A7E5" rx="11" ry="11" style="stroke: #A80036; stroke-width: 1.0;"/><path d="M121.9531,19.6406 L121.9531,26.2969 L123.6719,26.2969 Q124.2813,26.2969 124.5469,26.5313 Q124.8125,26.7656 124.8125,27.1563 Q124.8125,27.5313 124.5469,27.7656 Q124.2813,28 123.6719,28 L118.5313,28 Q117.9219,28 117.6563,27.7656 Q117.3906,27.5313 117.3906,27.1406 Q117.3906,26.7656 117.6563,26.5313 Q117.9219,26.2969 118.5313,26.2969 L120.25,26.2969 L120.25,19.6406 L118.5313,19.6406 Q117.9219,19.6406 117.6563,19.4063 Q117.3906,19.1719 117.3906,18.7813 Q117.3906,18.4063 117.6563,18.1719 Q117.9219,17.9375 118.5313,17.9375 L123.6719,17.9375 Q124.2813,17.9375 124.5469,18.1719 Q124.8125,18.4063 124.8125,18.7813 Q124.8125,19.1719 124.5469,19.4063 Q124.2813,19.6406 123.6719,19.6406 L121.9531,19.6406 Z "/><text fill="#000000" font-family="sans-serif" font-size="12" font-style="italic" lengthAdjust="spacingAndGlyphs" textLength="31" x="135" y="27.9102">Thing</text><line style="stroke: #A80036; stroke-width: 1.5;" x1="107" x2="168" y1="39" y2="39"/><line style="stroke: #A80036; stroke-width: 1.5;" x1="107" x2="168" y1="47" y2="47"/><!--MD5=[09ce52be0ee7de43c61b6e2d59bf108b]
class Person--><rect fill="#FEFECE" filter="url(#f1u0e3lylshy1d)" height="48" id="Person" style="stroke: #A80036; stroke-width: 1.5;" width="71" x="102" y="115"/><ellipse cx="117" cy="131" fill="#B4A7E5" rx="11" ry="11" style="stroke: #A80036; stroke-width: 1.0;"/><path d="M117.9531,127.6406 L117.9531,134.2969 L119.6719,134.2969 Q120.2813,134.2969 120.5469,134.5313 Q120.8125,134.7656 120.8125,135.1563 Q120.8125,135.5313 120.5469,135.7656 Q120.2813,136 119.6719,136 L114.5313,136 Q113.9219,136 113.6563,135.7656 Q113.3906,135.5313 113.3906,135.1406 Q113.3906,134.7656 113.6563,134.5313 Q113.9219,134.2969 114.5313,134.2969 L116.25,134.2969 L116.25,127.6406 L114.5313,127.6406 Q113.9219,127.6406 113.6563,127.4063 Q113.3906,127.1719 113.3906,126.7813 Q113.3906,126.4063 113.6563,126.1719 Q113.9219,125.9375 114.5313,125.9375 L119.6719,125.9375 Q120.2813,125.9375 120.5469,126.1719 Q120.8125,126.4063 120.8125,126.7813 Q120.8125,127.1719 120.5469,127.4063 Q120.2813,127.6406 119.6719,127.6406 L117.9531,127.6406 Z "/><text fill="#000000" font-family="sans-serif" font-size="12" font-style="italic" lengthAdjust="spacingAndGlyphs" textLength="39" x="131" y="135.9102">Person</text><line style="stroke: #A80036; stroke-width: 1.5;" x1="103" x2="172" y1="147" y2="147"/><line style="stroke: #A80036; stroke-width: 1.5;" x1="103" x2="172" y1="155" y2="155"/><!--MD5=[7b5bd88a8a025decccf0c9eac4aaabe9]
class Worker--><rect fill="#FEFECE" filter="url(#f1u0e3lylshy1d)" height="48" id="Worker" style="stroke: #A80036; stroke-width: 1.5;" width="72" x="208.5" y="115"/><ellipse cx="223.5" cy="131" fill="#B4A7E5" rx="11" ry="11" style="stroke: #A80036; stroke-width: 1.0;"/><path d="M224.4531,127.6406 L224.4531,134.2969 L226.1719,134.2969 Q226.7813,134.2969 227.0469,134.5313 Q227.3125,134.7656 227.3125,135.1563 Q227.3125,135.5313 227.0469,135.7656 Q226.7813,136 226.1719,136 L221.0313,136 Q220.4219,136 220.1563,135.7656 Q219.8906,135.5313 219.8906,135.1406 Q219.8906,134.7656 220.1563,134.5313 Q220.4219,134.2969 221.0313,134.2969 L222.75,134.2969 L222.75,127.6406 L221.0313,127.6406 Q220.4219,127.6406 220.1563,127.4063 Q219.8906,127.1719 219.8906,126.7813 Q219.8906,126.4063 220.1563,126.1719 Q220.4219,125.9375 221.0313,125.9375 L226.1719,125.9375 Q226.7813,125.9375 227.0469,126.1719 Q227.3125,126.4063 227.3125,126.7813 Q227.3125,127.1719 227.0469,127.4063 Q226.7813,127.6406 226.1719,127.6406 L224.4531,127.6406 Z "/><text fill="#000000" font-family="sans-serif" font-size="12" font-style="italic" lengthAdjust="spacingAndGlyphs" textLength="40" x="237.5" y="135.9102">Worker</text><line style="stroke: #A80036; stroke-width: 1.5;" x1="209.5" x2="279.5" y1="147" y2="147"/><line style="stroke: #A80036; stroke-width: 1.5;" x1="209.5" x2="279.5" y1="155" y2="155"/><!--MD5=[61a83f88cb8b7d3a80bc8c481f3736bf]
class Teacher--><rect fill="#FEFECE" filter="url(#f1u0e3lylshy1d)" height="172.5234" id="Teacher" style="stroke: #A80036; stroke-width: 1.5;" width="121" x="130" y="223"/><ellipse cx="164.8" cy="239" fill="#ADD1B2" rx="11" ry="11" style="stroke: #A80036; stroke-width: 1.0;"/><path d="M167.5656,234.875 Q167.7219,234.6563 167.9094,234.5469 Q168.0969,234.4375 168.3156,234.4375 Q168.6906,234.4375 168.925,234.6953 Q169.1594,234.9531 169.1594,235.5625 L169.1594,237.0156 Q169.1594,237.625 168.925,237.8906 Q168.6906,238.1563 168.3156,238.1563 Q167.9719,238.1563 167.7688,237.9531 Q167.5656,237.7656 167.4563,237.25 Q167.4094,236.8906 167.2219,236.7031 Q166.8938,236.3281 166.2844,236.1094 Q165.675,235.8906 165.05,235.8906 Q164.2844,235.8906 163.6516,236.2188 Q163.0188,236.5469 162.5266,237.2969 Q162.0344,238.0469 162.0344,239.0781 L162.0344,240.1719 Q162.0344,241.4063 162.925,242.2266 Q163.8156,243.0469 165.4094,243.0469 Q166.3469,243.0469 167.0031,242.7969 Q167.3938,242.6406 167.8156,242.2031 Q168.0813,241.9375 168.2297,241.8594 Q168.3781,241.7813 168.5813,241.7813 Q168.9094,241.7813 169.1672,242.0391 Q169.425,242.2969 169.425,242.6406 Q169.425,242.9844 169.0813,243.3906 Q168.5813,243.9688 167.7844,244.2969 Q166.7063,244.75 165.4094,244.75 Q163.8938,244.75 162.6906,244.125 Q161.7063,243.625 161.0188,242.5547 Q160.3313,241.4844 160.3313,240.2031 L160.3313,239.0469 Q160.3313,237.7188 160.9484,236.5703 Q161.5656,235.4219 162.6594,234.8047 Q163.7531,234.1875 164.9875,234.1875 Q165.7219,234.1875 166.3703,234.3516 Q167.0188,234.5156 167.5656,234.875 Z "/><text fill="#000000" font-family="sans-serif" font-size="12" lengthAdjust="spacingAndGlyphs" textLength="45" x="183.2" y="243.9102">Teacher</text><line style="stroke: #A80036; stroke-width: 1.5;" x1="131" x2="250" y1="255" y2="255"/><rect fill="none" height="6" style="stroke: #C82930; stroke-width: 1.0;" width="6" x="138" y="263"/><text fill="#000000" font-family="sans-serif" font-size="11" lengthAdjust="spacingAndGlyphs" textLength="89" x="150" y="270.4189">designation: String</text><rect fill="none" height="6" style="stroke: #C82930; stroke-width: 1.0;" width="6" x="138" y="276.8359"/><text fill="#000000" font-family="sans-serif" font-size="11" lengthAdjust="spacingAndGlyphs" textLength="95" x="150" y="284.2549">collegeName: String</text><rect fill="none" height="6" style="stroke: #C82930; stroke-width: 1.0;" width="6" x="138" y="290.6719"/><text fill="#000000" font-family="sans-serif" font-size="11" lengthAdjust="spacingAndGlyphs" textLength="82" x="150" y="298.0908">teaches_job: Job</text><rect fill="none" height="6" style="stroke: #C82930; stroke-width: 1.0;" width="6" x="138" y="304.5078"/><text fill="#000000" font-family="sans-serif" font-size="11" lengthAdjust="spacingAndGlyphs" textLength="57" x="150" y="311.9268">heart: Heart</text><line style="stroke: #A80036; stroke-width: 1.5;" x1="131" x2="250" y1="318.3438" y2="318.3438"/><ellipse cx="141" cy="329.3438" fill="#84BE84" rx="3" ry="3" style="stroke: #038048; stroke-width: 1.0;"/><text fill="#000000" font-family="sans-serif" font-size="11" lengthAdjust="spacingAndGlyphs" textLength="79" x="150" y="333.7627">getDesignation()</text><polygon fill="#FFFF44" points="141,338.1797,145,342.1797,141,346.1797,137,342.1797" style="stroke: #B38D22; stroke-width: 1.0;"/><text fill="#000000" font-family="sans-serif" font-size="11" lengthAdjust="spacingAndGlyphs" textLength="79" x="150" y="347.5986">setDesignation()</text><polygon fill="#FFFF44" points="141,352.0156,145,356.0156,141,360.0156,137,356.0156" style="stroke: #B38D22; stroke-width: 1.0;"/><text fill="#000000" font-family="sans-serif" font-size="11" lengthAdjust="spacingAndGlyphs" textLength="85" x="150" y="361.4346">getCollegeName()</text><polygon fill="#FFFF44" points="141,365.8516,145,369.8516,141,373.8516,137,369.8516" style="stroke: #B38D22; stroke-width: 1.0;"/><text fill="#000000" font-family="sans-serif" font-size="11" lengthAdjust="spacingAndGlyphs" textLength="85" x="150" y="375.2705">setCollegeName()</text><text fill="#000000" font-family="sans-serif" font-size="11" lengthAdjust="spacingAndGlyphs" textLength="32" x="150" y="389.1064">does()</text><!--MD5=[003b10a9e8c6b63b70bf8bbab0bff892]
class GoodTeacher--><rect fill="#FEFECE" filter="url(#f1u0e3lylshy1d)" height="75.6719" id="GoodTeacher" style="stroke: #A80036; stroke-width: 1.5;" width="107" x="7" y="504.5"/><ellipse cx="22" cy="520.5" fill="#ADD1B2" rx="11" ry="11" style="stroke: #A80036; stroke-width: 1.0;"/><path d="M24.7656,516.375 Q24.9219,516.1563 25.1094,516.0469 Q25.2969,515.9375 25.5156,515.9375 Q25.8906,515.9375 26.125,516.1953 Q26.3594,516.4531 26.3594,517.0625 L26.3594,518.5156 Q26.3594,519.125 26.125,519.3906 Q25.8906,519.6563 25.5156,519.6563 Q25.1719,519.6563 24.9688,519.4531 Q24.7656,519.2656 24.6563,518.75 Q24.6094,518.3906 24.4219,518.2031 Q24.0938,517.8281 23.4844,517.6094 Q22.875,517.3906 22.25,517.3906 Q21.4844,517.3906 20.8516,517.7188 Q20.2188,518.0469 19.7266,518.7969 Q19.2344,519.5469 19.2344,520.5781 L19.2344,521.6719 Q19.2344,522.9063 20.125,523.7266 Q21.0156,524.5469 22.6094,524.5469 Q23.5469,524.5469 24.2031,524.2969 Q24.5938,524.1406 25.0156,523.7031 Q25.2813,523.4375 25.4297,523.3594 Q25.5781,523.2813 25.7813,523.2813 Q26.1094,523.2813 26.3672,523.5391 Q26.625,523.7969 26.625,524.1406 Q26.625,524.4844 26.2813,524.8906 Q25.7813,525.4688 24.9844,525.7969 Q23.9063,526.25 22.6094,526.25 Q21.0938,526.25 19.8906,525.625 Q18.9063,525.125 18.2188,524.0547 Q17.5313,522.9844 17.5313,521.7031 L17.5313,520.5469 Q17.5313,519.2188 18.1484,518.0703 Q18.7656,516.9219 19.8594,516.3047 Q20.9531,515.6875 22.1875,515.6875 Q22.9219,515.6875 23.5703,515.8516 Q24.2188,516.0156 24.7656,516.375 Z "/><text fill="#000000" font-family="sans-serif" font-size="12" lengthAdjust="spacingAndGlyphs" textLength="75" x="36" y="525.4102">GoodTeacher</text><line style="stroke: #A80036; stroke-width: 1.5;" x1="8" x2="113" y1="536.5" y2="536.5"/><text fill="#000000" font-family="sans-serif" font-size="11" lengthAdjust="spacingAndGlyphs" textLength="92" x="13" y="551.9189">mainSubject: String</text><line style="stroke: #A80036; stroke-width: 1.5;" x1="8" x2="113" y1="558.3359" y2="558.3359"/><ellipse cx="18" cy="569.3359" fill="#84BE84" rx="3" ry="3" style="stroke: #038048; stroke-width: 1.0;"/><text fill="#000000" font-family="sans-serif" font-size="11" lengthAdjust="spacingAndGlyphs" text-decoration="underline" textLength="30" x="27" y="573.7549">main()</text><!--MD5=[b8e0354e0f3f5cbf52553869b78c0afa]
class Job--><rect fill="#FEFECE" filter="url(#f1u0e3lylshy1d)" height="172.5234" id="Job" style="stroke: #A80036; stroke-width: 1.5;" width="82" x="149.5" y="456"/><ellipse cx="178" cy="472" fill="#ADD1B2" rx="11" ry="11" style="stroke: #A80036; stroke-width: 1.0;"/><path d="M180.7656,467.875 Q180.9219,467.6563 181.1094,467.5469 Q181.2969,467.4375 181.5156,467.4375 Q181.8906,467.4375 182.125,467.6953 Q182.3594,467.9531 182.3594,468.5625 L182.3594,470.0156 Q182.3594,470.625 182.125,470.8906 Q181.8906,471.1563 181.5156,471.1563 Q181.1719,471.1563 180.9688,470.9531 Q180.7656,470.7656 180.6563,470.25 Q180.6094,469.8906 180.4219,469.7031 Q180.0938,469.3281 179.4844,469.1094 Q178.875,468.8906 178.25,468.8906 Q177.4844,468.8906 176.8516,469.2188 Q176.2188,469.5469 175.7266,470.2969 Q175.2344,471.0469 175.2344,472.0781 L175.2344,473.1719 Q175.2344,474.4063 176.125,475.2266 Q177.0156,476.0469 178.6094,476.0469 Q179.5469,476.0469 180.2031,475.7969 Q180.5938,475.6406 181.0156,475.2031 Q181.2813,474.9375 181.4297,474.8594 Q181.5781,474.7813 181.7813,474.7813 Q182.1094,474.7813 182.3672,475.0391 Q182.625,475.2969 182.625,475.6406 Q182.625,475.9844 182.2813,476.3906 Q181.7813,476.9688 180.9844,477.2969 Q179.9063,477.75 178.6094,477.75 Q177.0938,477.75 175.8906,477.125 Q174.9063,476.625 174.2188,475.5547 Q173.5313,474.4844 173.5313,473.2031 L173.5313,472.0469 Q173.5313,470.7188 174.1484,469.5703 Q174.7656,468.4219 175.8594,467.8047 Q176.9531,467.1875 178.1875,467.1875 Q178.9219,467.1875 179.5703,467.3516 Q180.2188,467.5156 180.7656,467.875 Z "/><text fill="#000000" font-family="sans-serif" font-size="12" lengthAdjust="spacingAndGlyphs" textLength="20" x="195" y="476.9102">Job</text><line style="stroke: #A80036; stroke-width: 1.5;" x1="150.5" x2="230.5" y1="488" y2="488"/><rect fill="none" height="6" style="stroke: #C82930; stroke-width: 1.0;" width="6" x="157.5" y="496"/><text fill="#000000" font-family="sans-serif" font-size="11" lengthAdjust="spacingAndGlyphs" textLength="52" x="169.5" y="503.4189">role: String</text><rect fill="none" height="6" style="stroke: #C82930; stroke-width: 1.0;" width="6" x="157.5" y="509.8359"/><text fill="#000000" font-family="sans-serif" font-size="11" lengthAdjust="spacingAndGlyphs" textLength="56" x="169.5" y="517.2549">salary: long</text><rect fill="none" height="6" style="stroke: #C82930; stroke-width: 1.0;" width="6" x="157.5" y="523.6719"/><text fill="#000000" font-family="sans-serif" font-size="11" lengthAdjust="spacingAndGlyphs" textLength="25" x="169.5" y="531.0908">id: int</text><line style="stroke: #A80036; stroke-width: 1.5;" x1="150.5" x2="230.5" y1="537.5078" y2="537.5078"/><ellipse cx="160.5" cy="548.5078" fill="#84BE84" rx="3" ry="3" style="stroke: #038048; stroke-width: 1.0;"/><text fill="#000000" font-family="sans-serif" font-size="11" lengthAdjust="spacingAndGlyphs" textLength="44" x="169.5" y="552.9268">getRole()</text><ellipse cx="160.5" cy="562.3438" fill="#84BE84" rx="3" ry="3" style="stroke: #038048; stroke-width: 1.0;"/><text fill="#000000" font-family="sans-serif" font-size="11" lengthAdjust="spacingAndGlyphs" textLength="44" x="169.5" y="566.7627">setRole()</text><ellipse cx="160.5" cy="576.1797" fill="#84BE84" rx="3" ry="3" style="stroke: #038048; stroke-width: 1.0;"/><text fill="#000000" font-family="sans-serif" font-size="11" lengthAdjust="spacingAndGlyphs" textLength="54" x="169.5" y="580.5986">getSalary()</text><ellipse cx="160.5" cy="590.0156" fill="#84BE84" rx="3" ry="3" style="stroke: #038048; stroke-width: 1.0;"/><text fill="#000000" font-family="sans-serif" font-size="11" lengthAdjust="spacingAndGlyphs" textLength="54" x="169.5" y="594.4346">setSalary()</text><ellipse cx="160.5" cy="603.8516" fill="#84BE84" rx="3" ry="3" style="stroke: #038048; stroke-width: 1.0;"/><text fill="#000000" font-family="sans-serif" font-size="11" lengthAdjust="spacingAndGlyphs" textLength="31" x="169.5" y="608.2705">getId()</text><ellipse cx="160.5" cy="617.6875" fill="#84BE84" rx="3" ry="3" style="stroke: #038048; stroke-width: 1.0;"/><text fill="#000000" font-family="sans-serif" font-size="11" lengthAdjust="spacingAndGlyphs" textLength="31" x="169.5" y="622.1064">setId()</text><!--MD5=[9bb5813e59df3e2529d11a5afaed7800]
class Heart--><rect fill="#FEFECE" filter="url(#f1u0e3lylshy1d)" height="131.0156" id="Heart" style="stroke: #A80036; stroke-width: 1.5;" width="100" x="266.5" y="477"/><ellipse cx="298.6" cy="493" fill="#ADD1B2" rx="11" ry="11" style="stroke: #A80036; stroke-width: 1.0;"/><path d="M301.3656,488.875 Q301.5219,488.6563 301.7094,488.5469 Q301.8969,488.4375 302.1156,488.4375 Q302.4906,488.4375 302.725,488.6953 Q302.9594,488.9531 302.9594,489.5625 L302.9594,491.0156 Q302.9594,491.625 302.725,491.8906 Q302.4906,492.1563 302.1156,492.1563 Q301.7719,492.1563 301.5688,491.9531 Q301.3656,491.7656 301.2563,491.25 Q301.2094,490.8906 301.0219,490.7031 Q300.6938,490.3281 300.0844,490.1094 Q299.475,489.8906 298.85,489.8906 Q298.0844,489.8906 297.4516,490.2188 Q296.8188,490.5469 296.3266,491.2969 Q295.8344,492.0469 295.8344,493.0781 L295.8344,494.1719 Q295.8344,495.4063 296.725,496.2266 Q297.6156,497.0469 299.2094,497.0469 Q300.1469,497.0469 300.8031,496.7969 Q301.1938,496.6406 301.6156,496.2031 Q301.8813,495.9375 302.0297,495.8594 Q302.1781,495.7813 302.3813,495.7813 Q302.7094,495.7813 302.9672,496.0391 Q303.225,496.2969 303.225,496.6406 Q303.225,496.9844 302.8813,497.3906 Q302.3813,497.9688 301.5844,498.2969 Q300.5063,498.75 299.2094,498.75 Q297.6938,498.75 296.4906,498.125 Q295.5063,497.625 294.8188,496.5547 Q294.1313,495.4844 294.1313,494.2031 L294.1313,493.0469 Q294.1313,491.7188 294.7484,490.5703 Q295.3656,489.4219 296.4594,488.8047 Q297.5531,488.1875 298.7875,488.1875 Q299.5219,488.1875 300.1703,488.3516 Q300.8188,488.5156 301.3656,488.875 Z "/><text fill="#000000" font-family="sans-serif" font-size="12" lengthAdjust="spacingAndGlyphs" textLength="30" x="316.4" y="497.9102">Heart</text><line style="stroke: #A80036; stroke-width: 1.5;" x1="267.5" x2="365.5" y1="509" y2="509"/><rect fill="none" height="6" style="stroke: #C82930; stroke-width: 1.0;" width="6" x="274.5" y="517"/><text fill="#000000" font-family="sans-serif" font-size="11" lengthAdjust="spacingAndGlyphs" textLength="56" x="286.5" y="524.4189">cells: String</text><ellipse cx="277.5" cy="533.8359" fill="none" rx="3" ry="3" style="stroke: #038048; stroke-width: 1.0;"/><text fill="#000000" font-family="sans-serif" font-size="11" lengthAdjust="spacingAndGlyphs" textLength="60" x="286.5" y="538.2549">blood: String</text><ellipse cx="277.5" cy="547.6719" fill="none" rx="3" ry="3" style="stroke: #038048; stroke-width: 1.0;"/><text fill="#000000" font-family="sans-serif" font-size="11" lengthAdjust="spacingAndGlyphs" textLength="74" x="286.5" y="552.0908">muscles: String</text><line style="stroke: #A80036; stroke-width: 1.5;" x1="267.5" x2="365.5" y1="558.5078" y2="558.5078"/><ellipse cx="277.5" cy="569.5078" fill="#84BE84" rx="3" ry="3" style="stroke: #038048; stroke-width: 1.0;"/><text fill="#000000" font-family="sans-serif" font-size="11" lengthAdjust="spacingAndGlyphs" textLength="46" x="286.5" y="573.9268">getCells()</text><ellipse cx="277.5" cy="583.3438" fill="#84BE84" rx="3" ry="3" style="stroke: #038048; stroke-width: 1.0;"/><text fill="#000000" font-family="sans-serif" font-size="11" lengthAdjust="spacingAndGlyphs" textLength="50" x="286.5" y="587.7627">getBlood()</text><ellipse cx="277.5" cy="597.1797" fill="#84BE84" rx="3" ry="3" style="stroke: #038048; stroke-width: 1.0;"/><text fill="#000000" font-family="sans-serif" font-size="11" lengthAdjust="spacingAndGlyphs" textLength="63" x="286.5" y="601.5986">getMuscles()</text><!--MD5=[660a84f7d2118b289df1da96277a8d3e]
reverse link Teacher to GoodTeacher--><path d="M132.308,413.902 C114.166,446.14 95.3078,479.649 81.4719,504.235 " fill="none" id="Teacher&lt;-GoodTeacher" style="stroke: #A80036; stroke-width: 1.0;"/><polygon fill="none" points="126.368,410.184,142.278,396.188,138.569,417.05,126.368,410.184" style="stroke: #A80036; stroke-width: 1.0;"/><!--MD5=[83f6542cdf8689fc8464dda03f9dd7a4]
reverse link Teacher to Job--><path d="M190.5,409.612 C190.5,425.037 190.5,440.86 190.5,455.951 " fill="none" id="Teacher&lt;-Job" style="stroke: #A80036; stroke-width: 1.0;"/><polygon fill="#FFFFFF" points="190.5,396.188,186.5,402.188,190.5,408.188,194.5,402.188,190.5,396.188" style="stroke: #A80036; stroke-width: 1.0;"/><!--MD5=[af1587ffe93d550a62c63614985ccb65]
reverse link Teacher to Heart--><path d="M243.623,407.892 C256.332,431.191 269.59,455.499 281.261,476.894 " fill="none" id="Teacher&lt;-Heart" style="stroke: #A80036; stroke-width: 1.0;"/><polygon fill="#A80036" points="237.239,396.188,236.6008,403.3708,242.9856,406.7225,243.6238,399.5397,237.239,396.188" style="stroke: #A80036; stroke-width: 1.0;"/><!--MD5=[15c8996a18b78152b9e33e7e4ee412f1]
reverse link Person to Teacher--><path d="M150.775,182.204 C154.694,194.663 159.131,208.772 163.585,222.93 " fill="none" id="Person&lt;-Teacher" style="stroke: #A80036; stroke-width: 1.0;"/><polygon fill="none" points="144.082,184.255,144.758,163.076,157.437,180.054,144.082,184.255" style="stroke: #A80036; stroke-width: 1.0;"/><!--MD5=[7aa90816f45acc1bd9ceab637fe290d7]
reverse link Worker to Teacher--><path d="M230.975,182.204 C226.982,194.663 222.46,208.772 217.923,222.93 " fill="none" id="Worker&lt;-Teacher" style="stroke: #A80036; stroke-width: 1.0;"/><polygon fill="none" points="224.335,179.985,237.105,163.076,237.667,184.258,224.335,179.985" style="stroke: #A80036; stroke-width: 1.0;"/><!--MD5=[879e30ae9266c2daeffc5faa5de92ff8]
reverse link Thing to Person--><path d="M137.5,75.024 C137.5,88.579 137.5,103.038 137.5,114.678 " fill="none" id="Thing&lt;-Person" style="stroke: #A80036; stroke-width: 1.0;"/><polygon fill="none" points="130.5,75,137.5,55,144.5,75,130.5,75" style="stroke: #A80036; stroke-width: 1.0;"/><!--MD5=[883f1e6b9f2d7af595734f391f045c34]
@startuml
Interface Thing{
}
Interface Person{
}
Interface Worker{
}
class Teacher{
	-designation: String
	-collegeName: String
	-teaches_job: Job
	-heart: Heart
	+getDesignation()
	#setDesignation()
	#getCollegeName()
	#setCollegeName()
	does()
}
class GoodTeacher{
	mainSubject: String
	+{static}main()
}
class Job{
	-role: String
	-salary: long
	-id: int
	+getRole()
	+setRole()
	+getSalary()
	+setSalary()
	+getId()
	+setId()
}
class Heart{
	-cells: String
	+blood: String
	+muscles: String
	+getCells()
	+getBlood()
	+getMuscles()
}
Teacher <|- - GoodTeacher
Teacher o- - Job
Teacher *- - Heart
Person <|- - Teacher
Worker <|- - Teacher
Thing <|- - Person
@enduml

PlantUML version 1.2020.14(Sat Jun 20 09:14:34 COT 2020)
(GPL source distribution)
Java Runtime: Java(TM) SE Runtime Environment
JVM: Java HotSpot(TM) 64-Bit Server VM
Default Encoding: UTF-8
Language: es
Country: CO
--></g></svg>