<?xml version="1.0" encoding="UTF-8" standalone="no"?><svg xmlns="http://www.w3.org/2000/svg" xmlns:xlink="http://www.w3.org/1999/xlink" contentScriptType="application/ecmascript" contentStyleType="text/css" height="384px" preserveAspectRatio="none" style="width:354px;height:384px;" version="1.1" viewBox="0 0 354 384" width="354px" zoomAndPan="magnify"><defs><filter height="300%" id="fnooko9mx1kkh" width="300%" x="-1" y="-1"><feGaussianBlur result="blurOut" stdDeviation="2.0"/><feColorMatrix in="blurOut" result="blurOut2" type="matrix" values="0 0 0 0 0 0 0 0 0 0 0 0 0 0 0 0 0 0 .4 0"/><feOffset dx="4.0" dy="4.0" in="blurOut2" result="blurOut3"/><feBlend in="SourceGraphic" in2="blurOut3" mode="normal"/></filter></defs><g><text fill="#000000" font-family="sans-serif" font-size="18" lengthAdjust="spacingAndGlyphs" textLength="114" x="111.25" y="18.6855">Class diagram</text><!--MD5=[d0da0a299942266ebd64acf2b2e95fa4]
class Subject--><rect fill="#FEFECE" filter="url(#fnooko9mx1kkh)" height="103.3438" id="Subject" style="stroke: #A80036; stroke-width: 1.5;" width="113" x="41" y="29.6406"/><ellipse cx="73.55" cy="45.6406" fill="#B4A7E5" rx="11" ry="11" style="stroke: #A80036; stroke-width: 1.0;"/><path d="M74.5031,42.2813 L74.5031,48.9375 L76.2219,48.9375 Q76.8313,48.9375 77.0969,49.1719 Q77.3625,49.4063 77.3625,49.7969 Q77.3625,50.1719 77.0969,50.4063 Q76.8313,50.6406 76.2219,50.6406 L71.0813,50.6406 Q70.4719,50.6406 70.2063,50.4063 Q69.9406,50.1719 69.9406,49.7813 Q69.9406,49.4063 70.2063,49.1719 Q70.4719,48.9375 71.0813,48.9375 L72.8,48.9375 L72.8,42.2813 L71.0813,42.2813 Q70.4719,42.2813 70.2063,42.0469 Q69.9406,41.8125 69.9406,41.4219 Q69.9406,41.0469 70.2063,40.8125 Q70.4719,40.5781 71.0813,40.5781 L76.2219,40.5781 Q76.8313,40.5781 77.0969,40.8125 Q77.3625,41.0469 77.3625,41.4219 Q77.3625,41.8125 77.0969,42.0469 Q76.8313,42.2813 76.2219,42.2813 L74.5031,42.2813 Z "/><text fill="#000000" font-family="sans-serif" font-size="12" font-style="italic" lengthAdjust="spacingAndGlyphs" textLength="42" x="91.45" y="50.5508">Subject</text><line style="stroke: #A80036; stroke-width: 1.5;" x1="42" x2="153" y1="61.6406" y2="61.6406"/><line style="stroke: #A80036; stroke-width: 1.5;" x1="42" x2="153" y1="69.6406" y2="69.6406"/><ellipse cx="52" cy="80.6406" fill="#84BE84" rx="3" ry="3" style="stroke: #038048; stroke-width: 1.0;"/><text fill="#000000" font-family="sans-serif" font-size="11" lengthAdjust="spacingAndGlyphs" textLength="45" x="61" y="85.0596">register()</text><ellipse cx="52" cy="94.4766" fill="#84BE84" rx="3" ry="3" style="stroke: #038048; stroke-width: 1.0;"/><text fill="#000000" font-family="sans-serif" font-size="11" lengthAdjust="spacingAndGlyphs" textLength="57" x="61" y="98.8955">unregister()</text><ellipse cx="52" cy="108.3125" fill="#84BE84" rx="3" ry="3" style="stroke: #038048; stroke-width: 1.0;"/><text fill="#000000" font-family="sans-serif" font-size="11" lengthAdjust="spacingAndGlyphs" textLength="87" x="61" y="112.7314">notifyObservers()</text><ellipse cx="52" cy="122.1484" fill="#84BE84" rx="3" ry="3" style="stroke: #038048; stroke-width: 1.0;"/><text fill="#000000" font-family="sans-serif" font-size="11" lengthAdjust="spacingAndGlyphs" textLength="57" x="61" y="126.5674">getUpdate()</text><!--MD5=[d40932010816485ec57b44b6eea2392a]
class Observer--><rect fill="#FEFECE" filter="url(#fnooko9mx1kkh)" height="75.6719" id="Observer" style="stroke: #A80036; stroke-width: 1.5;" width="85" x="213" y="43.1406"/><ellipse cx="228.9" cy="59.1406" fill="#B4A7E5" rx="11" ry="11" style="stroke: #A80036; stroke-width: 1.0;"/><path d="M229.8531,55.7813 L229.8531,62.4375 L231.5719,62.4375 Q232.1813,62.4375 232.4469,62.6719 Q232.7125,62.9063 232.7125,63.2969 Q232.7125,63.6719 232.4469,63.9063 Q232.1813,64.1406 231.5719,64.1406 L226.4313,64.1406 Q225.8219,64.1406 225.5563,63.9063 Q225.2906,63.6719 225.2906,63.2813 Q225.2906,62.9063 225.5563,62.6719 Q225.8219,62.4375 226.4313,62.4375 L228.15,62.4375 L228.15,55.7813 L226.4313,55.7813 Q225.8219,55.7813 225.5563,55.5469 Q225.2906,55.3125 225.2906,54.9219 Q225.2906,54.5469 225.5563,54.3125 Q225.8219,54.0781 226.4313,54.0781 L231.5719,54.0781 Q232.1813,54.0781 232.4469,54.3125 Q232.7125,54.5469 232.7125,54.9219 Q232.7125,55.3125 232.4469,55.5469 Q232.1813,55.7813 231.5719,55.7813 L229.8531,55.7813 Z "/><text fill="#000000" font-family="sans-serif" font-size="12" font-style="italic" lengthAdjust="spacingAndGlyphs" textLength="51" x="243.1" y="64.0508">Observer</text><line style="stroke: #A80036; stroke-width: 1.5;" x1="214" x2="297" y1="75.1406" y2="75.1406"/><line style="stroke: #A80036; stroke-width: 1.5;" x1="214" x2="297" y1="83.1406" y2="83.1406"/><ellipse cx="224" cy="94.1406" fill="#84BE84" rx="3" ry="3" style="stroke: #038048; stroke-width: 1.0;"/><text fill="#000000" font-family="sans-serif" font-size="11" lengthAdjust="spacingAndGlyphs" textLength="41" x="233" y="98.5596">update()</text><ellipse cx="224" cy="107.9766" fill="#84BE84" rx="3" ry="3" style="stroke: #038048; stroke-width: 1.0;"/><text fill="#000000" font-family="sans-serif" font-size="11" lengthAdjust="spacingAndGlyphs" textLength="59" x="233" y="112.3955">setSubject()</text><!--MD5=[a2d0adf9aada2d6cd58dac6cd3c62a40]
class MyTopic--><rect fill="#FEFECE" filter="url(#fnooko9mx1kkh)" height="172.5234" id="MyTopic" style="stroke: #A80036; stroke-width: 1.5;" width="157" x="7" y="192.6406"/><ellipse cx="59.25" cy="208.6406" fill="#ADD1B2" rx="11" ry="11" style="stroke: #A80036; stroke-width: 1.0;"/><path d="M62.0156,204.5156 Q62.1719,204.2969 62.3594,204.1875 Q62.5469,204.0781 62.7656,204.0781 Q63.1406,204.0781 63.375,204.3359 Q63.6094,204.5938 63.6094,205.2031 L63.6094,206.6563 Q63.6094,207.2656 63.375,207.5313 Q63.1406,207.7969 62.7656,207.7969 Q62.4219,207.7969 62.2188,207.5938 Q62.0156,207.4063 61.9063,206.8906 Q61.8594,206.5313 61.6719,206.3438 Q61.3438,205.9688 60.7344,205.75 Q60.125,205.5313 59.5,205.5313 Q58.7344,205.5313 58.1016,205.8594 Q57.4688,206.1875 56.9766,206.9375 Q56.4844,207.6875 56.4844,208.7188 L56.4844,209.8125 Q56.4844,211.0469 57.375,211.8672 Q58.2656,212.6875 59.8594,212.6875 Q60.7969,212.6875 61.4531,212.4375 Q61.8438,212.2813 62.2656,211.8438 Q62.5313,211.5781 62.6797,211.5 Q62.8281,211.4219 63.0313,211.4219 Q63.3594,211.4219 63.6172,211.6797 Q63.875,211.9375 63.875,212.2813 Q63.875,212.625 63.5313,213.0313 Q63.0313,213.6094 62.2344,213.9375 Q61.1563,214.3906 59.8594,214.3906 Q58.3438,214.3906 57.1406,213.7656 Q56.1563,213.2656 55.4688,212.1953 Q54.7813,211.125 54.7813,209.8438 L54.7813,208.6875 Q54.7813,207.3594 55.3984,206.2109 Q56.0156,205.0625 57.1094,204.4453 Q58.2031,203.8281 59.4375,203.8281 Q60.1719,203.8281 60.8203,203.9922 Q61.4688,204.1563 62.0156,204.5156 Z "/><text fill="#000000" font-family="sans-serif" font-size="12" lengthAdjust="spacingAndGlyphs" textLength="44" x="79.75" y="213.5508">MyTopic</text><line style="stroke: #A80036; stroke-width: 1.5;" x1="8" x2="163" y1="224.6406" y2="224.6406"/><rect fill="none" height="6" style="stroke: #C82930; stroke-width: 1.0;" width="6" x="15" y="232.6406"/><text fill="#000000" font-family="sans-serif" font-size="11" lengthAdjust="spacingAndGlyphs" textLength="131" x="27" y="240.0596">observers: List&lt;Observer&gt;</text><rect fill="none" height="6" style="stroke: #C82930; stroke-width: 1.0;" width="6" x="15" y="246.4766"/><text fill="#000000" font-family="sans-serif" font-size="11" lengthAdjust="spacingAndGlyphs" textLength="78" x="27" y="253.8955">message: String</text><rect fill="none" height="6" style="stroke: #C82930; stroke-width: 1.0;" width="6" x="15" y="260.3125"/><text fill="#000000" font-family="sans-serif" font-size="11" lengthAdjust="spacingAndGlyphs" textLength="86" x="27" y="267.7314">changed: boolean</text><rect fill="none" height="6" style="stroke: #C82930; stroke-width: 1.0;" width="6" x="15" y="274.1484"/><text fill="#000000" font-family="sans-serif" font-size="11" lengthAdjust="spacingAndGlyphs" textLength="71" x="27" y="281.5674">MUTEX: Object</text><line style="stroke: #A80036; stroke-width: 1.5;" x1="8" x2="163" y1="287.9844" y2="287.9844"/><ellipse cx="18" cy="298.9844" fill="#84BE84" rx="3" ry="3" style="stroke: #038048; stroke-width: 1.0;"/><text fill="#000000" font-family="sans-serif" font-size="11" lengthAdjust="spacingAndGlyphs" textLength="45" x="27" y="303.4033">register()</text><ellipse cx="18" cy="312.8203" fill="#84BE84" rx="3" ry="3" style="stroke: #038048; stroke-width: 1.0;"/><text fill="#000000" font-family="sans-serif" font-size="11" lengthAdjust="spacingAndGlyphs" textLength="57" x="27" y="317.2393">unregister()</text><ellipse cx="18" cy="326.6563" fill="#84BE84" rx="3" ry="3" style="stroke: #038048; stroke-width: 1.0;"/><text fill="#000000" font-family="sans-serif" font-size="11" lengthAdjust="spacingAndGlyphs" textLength="87" x="27" y="331.0752">notifyObservers()</text><ellipse cx="18" cy="340.4922" fill="#84BE84" rx="3" ry="3" style="stroke: #038048; stroke-width: 1.0;"/><text fill="#000000" font-family="sans-serif" font-size="11" lengthAdjust="spacingAndGlyphs" textLength="57" x="27" y="344.9111">getUpdate()</text><ellipse cx="18" cy="354.3281" fill="#84BE84" rx="3" ry="3" style="stroke: #038048; stroke-width: 1.0;"/><text fill="#000000" font-family="sans-serif" font-size="11" lengthAdjust="spacingAndGlyphs" textLength="73" x="27" y="358.7471">postMessage()</text><!--MD5=[1c0da4d2ded6e8e1189ae31f447a1af8]
class MyTopicSubscriber--><rect fill="#FEFECE" filter="url(#fnooko9mx1kkh)" height="103.3438" id="MyTopicSubscriber" style="stroke: #A80036; stroke-width: 1.5;" width="136" x="199.5" y="227.6406"/><ellipse cx="214.5" cy="243.6406" fill="#ADD1B2" rx="11" ry="11" style="stroke: #A80036; stroke-width: 1.0;"/><path d="M217.2656,239.5156 Q217.4219,239.2969 217.6094,239.1875 Q217.7969,239.0781 218.0156,239.0781 Q218.3906,239.0781 218.625,239.3359 Q218.8594,239.5938 218.8594,240.2031 L218.8594,241.6563 Q218.8594,242.2656 218.625,242.5313 Q218.3906,242.7969 218.0156,242.7969 Q217.6719,242.7969 217.4688,242.5938 Q217.2656,242.4063 217.1563,241.8906 Q217.1094,241.5313 216.9219,241.3438 Q216.5938,240.9688 215.9844,240.75 Q215.375,240.5313 214.75,240.5313 Q213.9844,240.5313 213.3516,240.8594 Q212.7188,241.1875 212.2266,241.9375 Q211.7344,242.6875 211.7344,243.7188 L211.7344,244.8125 Q211.7344,246.0469 212.625,246.8672 Q213.5156,247.6875 215.1094,247.6875 Q216.0469,247.6875 216.7031,247.4375 Q217.0938,247.2813 217.5156,246.8438 Q217.7813,246.5781 217.9297,246.5 Q218.0781,246.4219 218.2813,246.4219 Q218.6094,246.4219 218.8672,246.6797 Q219.125,246.9375 219.125,247.2813 Q219.125,247.625 218.7813,248.0313 Q218.2813,248.6094 217.4844,248.9375 Q216.4063,249.3906 215.1094,249.3906 Q213.5938,249.3906 212.3906,248.7656 Q211.4063,248.2656 210.7188,247.1953 Q210.0313,246.125 210.0313,244.8438 L210.0313,243.6875 Q210.0313,242.3594 210.6484,241.2109 Q211.2656,240.0625 212.3594,239.4453 Q213.4531,238.8281 214.6875,238.8281 Q215.4219,238.8281 216.0703,238.9922 Q216.7188,239.1563 217.2656,239.5156 Z "/><text fill="#000000" font-family="sans-serif" font-size="12" lengthAdjust="spacingAndGlyphs" textLength="104" x="228.5" y="248.5508">MyTopicSubscriber</text><line style="stroke: #A80036; stroke-width: 1.5;" x1="200.5" x2="334.5" y1="259.6406" y2="259.6406"/><rect fill="none" height="6" style="stroke: #C82930; stroke-width: 1.0;" width="6" x="207.5" y="267.6406"/><text fill="#000000" font-family="sans-serif" font-size="11" lengthAdjust="spacingAndGlyphs" textLength="60" x="219.5" y="275.0596">name: String</text><rect fill="none" height="6" style="stroke: #C82930; stroke-width: 1.0;" width="6" x="207.5" y="281.4766"/><text fill="#000000" font-family="sans-serif" font-size="11" lengthAdjust="spacingAndGlyphs" textLength="65" x="219.5" y="288.8955">topic: Subject</text><line style="stroke: #A80036; stroke-width: 1.5;" x1="200.5" x2="334.5" y1="295.3125" y2="295.3125"/><ellipse cx="210.5" cy="306.3125" fill="#84BE84" rx="3" ry="3" style="stroke: #038048; stroke-width: 1.0;"/><text fill="#000000" font-family="sans-serif" font-size="11" lengthAdjust="spacingAndGlyphs" textLength="41" x="219.5" y="310.7314">update()</text><ellipse cx="210.5" cy="320.1484" fill="#84BE84" rx="3" ry="3" style="stroke: #038048; stroke-width: 1.0;"/><text fill="#000000" font-family="sans-serif" font-size="11" lengthAdjust="spacingAndGlyphs" textLength="59" x="219.5" y="324.5674">setSubject()</text><!--MD5=[6f66b9259111a89226c2c6e1b677a0fb]
reverse link Subject to MyTopicSubscriber--><path d="M144.794,136.6676 C169.492,165.1426 199.517,199.7596 223.684,227.6236 " fill="none" id="Subject&lt;-MyTopicSubscriber" style="stroke: #A80036; stroke-width: 1.0;"/><polygon fill="#A80036" points="141.5,132.8706,144.3768,142.29,144.7767,136.6473,150.4194,137.0472,141.5,132.8706" style="stroke: #A80036; stroke-width: 1.0;"/><!--MD5=[775f53394176362989ea01df6dadfb1c]
reverse link Observer to MyTopicSubscriber--><path d="M259.016,139.5726 C260.724,167.4726 262.759,200.6996 264.407,227.6216 " fill="none" id="Observer&lt;-MyTopicSubscriber" style="stroke: #A80036; stroke-width: 1.0; stroke-dasharray: 7.0,7.0;"/><polygon fill="none" points="252.021,139.8586,257.785,119.4676,265.995,139.0026,252.021,139.8586" style="stroke: #A80036; stroke-width: 1.0;"/><!--MD5=[11fcfbac5f85be8e31f68c916fcb0fc3]
reverse link Observer to MyTopic--><path d="M219.687,123.4306 C202.212,143.5786 180.507,168.6036 159.683,192.6116 " fill="none" id="Observer&lt;-MyTopic" style="stroke: #A80036; stroke-width: 1.0;"/><polygon fill="#A80036" points="223.124,119.4676,214.2055,123.6462,219.8481,123.245,220.2493,128.8876,223.124,119.4676" style="stroke: #A80036; stroke-width: 1.0;"/><!--MD5=[3ac4c13577018fcb6005f58d382ede4a]
reverse link Subject to MyTopic--><path d="M93.1671,152.9116 C92.3846,165.6916 91.5611,179.1426 90.7557,192.2966 " fill="none" id="Subject&lt;-MyTopic" style="stroke: #A80036; stroke-width: 1.0; stroke-dasharray: 7.0,7.0;"/><polygon fill="none" points="86.1849,152.4056,94.3941,132.8706,100.1587,153.2606,86.1849,152.4056" style="stroke: #A80036; stroke-width: 1.0;"/><!--MD5=[b9f472599516123e6db7f6dfa071aa76]
@startuml
title Class diagram
Interface Subject{
	+register()
	+unregister()
	+notifyObservers()
	+getUpdate()
}
Interface Observer{
	+update()
	+setSubject()
}
class MyTopic{
	-observers: List<Observer>
	-message: String
	-changed: boolean
	-MUTEX: Object
	+register()
	+unregister()
	+notifyObservers()
	+getUpdate()
	+postMessage()
}
class MyTopicSubscriber{
	-name: String
	-topic: Subject
	+update()
	+setSubject()
}
MyTopicSubscriber -up-> Subject
MyTopicSubscriber .up.|> Observer
MyTopic -up-> Observer
MyTopic .up.|> Subject
@enduml

PlantUML version 1.2020.14(Sat Jun 20 09:14:34 COT 2020)
(GPL source distribution)
Java Runtime: Java(TM) SE Runtime Environment
JVM: Java HotSpot(TM) 64-Bit Server VM
Default Encoding: UTF-8
Language: es
Country: CO
--></g></svg>