<?xml version="1.0" encoding="UTF-8" standalone="no"?><svg xmlns="http://www.w3.org/2000/svg" xmlns:xlink="http://www.w3.org/1999/xlink" contentScriptType="application/ecmascript" contentStyleType="text/css" height="334px" preserveAspectRatio="none" style="width:108px;height:334px;" version="1.1" viewBox="0 0 108 334" width="108px" zoomAndPan="magnify"><defs><filter height="300%" id="f1cpi7yhpus6e8" width="300%" x="-1" y="-1"><feGaussianBlur result="blurOut" stdDeviation="2.0"/><feColorMatrix in="blurOut" result="blurOut2" type="matrix" values="0 0 0 0 0 0 0 0 0 0 0 0 0 0 0 0 0 0 .4 0"/><feOffset dx="4.0" dy="4.0" in="blurOut2" result="blurOut3"/><feBlend in="SourceGraphic" in2="blurOut3" mode="normal"/></filter></defs><g><!--MD5=[b8e0354e0f3f5cbf52553869b78c0afa]
class Job--><rect fill="#FEFECE" filter="url(#f1cpi7yhpus6e8)" height="172.5234" id="Job" style="stroke: #A80036; stroke-width: 1.5;" width="82" x="7" y="143"/><ellipse cx="35.5" cy="159" fill="#ADD1B2" rx="11" ry="11" style="stroke: #A80036; stroke-width: 1.0;"/><path d="M38.2656,154.875 Q38.4219,154.6563 38.6094,154.5469 Q38.7969,154.4375 39.0156,154.4375 Q39.3906,154.4375 39.625,154.6953 Q39.8594,154.9531 39.8594,155.5625 L39.8594,157.0156 Q39.8594,157.625 39.625,157.8906 Q39.3906,158.1563 39.0156,158.1563 Q38.6719,158.1563 38.4688,157.9531 Q38.2656,157.7656 38.1563,157.25 Q38.1094,156.8906 37.9219,156.7031 Q37.5938,156.3281 36.9844,156.1094 Q36.375,155.8906 35.75,155.8906 Q34.9844,155.8906 34.3516,156.2188 Q33.7188,156.5469 33.2266,157.2969 Q32.7344,158.0469 32.7344,159.0781 L32.7344,160.1719 Q32.7344,161.4063 33.625,162.2266 Q34.5156,163.0469 36.1094,163.0469 Q37.0469,163.0469 37.7031,162.7969 Q38.0938,162.6406 38.5156,162.2031 Q38.7813,161.9375 38.9297,161.8594 Q39.0781,161.7813 39.2813,161.7813 Q39.6094,161.7813 39.8672,162.0391 Q40.125,162.2969 40.125,162.6406 Q40.125,162.9844 39.7813,163.3906 Q39.2813,163.9688 38.4844,164.2969 Q37.4063,164.75 36.1094,164.75 Q34.5938,164.75 33.3906,164.125 Q32.4063,163.625 31.7188,162.5547 Q31.0313,161.4844 31.0313,160.2031 L31.0313,159.0469 Q31.0313,157.7188 31.6484,156.5703 Q32.2656,155.4219 33.3594,154.8047 Q34.4531,154.1875 35.6875,154.1875 Q36.4219,154.1875 37.0703,154.3516 Q37.7188,154.5156 38.2656,154.875 Z "/><text fill="#000000" font-family="sans-serif" font-size="12" lengthAdjust="spacingAndGlyphs" textLength="20" x="52.5" y="163.9102">Job</text><line style="stroke: #A80036; stroke-width: 1.5;" x1="8" x2="88" y1="175" y2="175"/><rect fill="none" height="6" style="stroke: #C82930; stroke-width: 1.0;" width="6" x="15" y="183"/><text fill="#000000" font-family="sans-serif" font-size="11" lengthAdjust="spacingAndGlyphs" textLength="52" x="27" y="190.4189">role: String</text><rect fill="none" height="6" style="stroke: #C82930; stroke-width: 1.0;" width="6" x="15" y="196.8359"/><text fill="#000000" font-family="sans-serif" font-size="11" lengthAdjust="spacingAndGlyphs" textLength="56" x="27" y="204.2549">salary: long</text><rect fill="none" height="6" style="stroke: #C82930; stroke-width: 1.0;" width="6" x="15" y="210.6719"/><text fill="#000000" font-family="sans-serif" font-size="11" lengthAdjust="spacingAndGlyphs" textLength="25" x="27" y="218.0908">id: int</text><line style="stroke: #A80036; stroke-width: 1.5;" x1="8" x2="88" y1="224.5078" y2="224.5078"/><ellipse cx="18" cy="235.5078" fill="#84BE84" rx="3" ry="3" style="stroke: #038048; stroke-width: 1.0;"/><text fill="#000000" font-family="sans-serif" font-size="11" lengthAdjust="spacingAndGlyphs" textLength="44" x="27" y="239.9268">getRole()</text><ellipse cx="18" cy="249.3438" fill="#84BE84" rx="3" ry="3" style="stroke: #038048; stroke-width: 1.0;"/><text fill="#000000" font-family="sans-serif" font-size="11" lengthAdjust="spacingAndGlyphs" textLength="44" x="27" y="253.7627">setRole()</text><ellipse cx="18" cy="263.1797" fill="#84BE84" rx="3" ry="3" style="stroke: #038048; stroke-width: 1.0;"/><text fill="#000000" font-family="sans-serif" font-size="11" lengthAdjust="spacingAndGlyphs" textLength="54" x="27" y="267.5986">getSalary()</text><ellipse cx="18" cy="277.0156" fill="#84BE84" rx="3" ry="3" style="stroke: #038048; stroke-width: 1.0;"/><text fill="#000000" font-family="sans-serif" font-size="11" lengthAdjust="spacingAndGlyphs" textLength="54" x="27" y="281.4346">setSalary()</text><ellipse cx="18" cy="290.8516" fill="#84BE84" rx="3" ry="3" style="stroke: #038048; stroke-width: 1.0;"/><text fill="#000000" font-family="sans-serif" font-size="11" lengthAdjust="spacingAndGlyphs" textLength="31" x="27" y="295.2705">getId()</text><ellipse cx="18" cy="304.6875" fill="#84BE84" rx="3" ry="3" style="stroke: #038048; stroke-width: 1.0;"/><text fill="#000000" font-family="sans-serif" font-size="11" lengthAdjust="spacingAndGlyphs" textLength="31" x="27" y="309.1064">setId()</text><!--MD5=[09ce52be0ee7de43c61b6e2d59bf108b]
class Person--><rect fill="#FEFECE" filter="url(#f1cpi7yhpus6e8)" height="75.6719" id="Person" style="stroke: #A80036; stroke-width: 1.5;" width="80" x="8" y="7"/><ellipse cx="26.6" cy="23" fill="#ADD1B2" rx="11" ry="11" style="stroke: #A80036; stroke-width: 1.0;"/><path d="M29.3656,18.875 Q29.5219,18.6563 29.7094,18.5469 Q29.8969,18.4375 30.1156,18.4375 Q30.4906,18.4375 30.725,18.6953 Q30.9594,18.9531 30.9594,19.5625 L30.9594,21.0156 Q30.9594,21.625 30.725,21.8906 Q30.4906,22.1563 30.1156,22.1563 Q29.7719,22.1563 29.5688,21.9531 Q29.3656,21.7656 29.2563,21.25 Q29.2094,20.8906 29.0219,20.7031 Q28.6938,20.3281 28.0844,20.1094 Q27.475,19.8906 26.85,19.8906 Q26.0844,19.8906 25.4516,20.2188 Q24.8188,20.5469 24.3266,21.2969 Q23.8344,22.0469 23.8344,23.0781 L23.8344,24.1719 Q23.8344,25.4063 24.725,26.2266 Q25.6156,27.0469 27.2094,27.0469 Q28.1469,27.0469 28.8031,26.7969 Q29.1938,26.6406 29.6156,26.2031 Q29.8813,25.9375 30.0297,25.8594 Q30.1781,25.7813 30.3813,25.7813 Q30.7094,25.7813 30.9672,26.0391 Q31.225,26.2969 31.225,26.6406 Q31.225,26.9844 30.8813,27.3906 Q30.3813,27.9688 29.5844,28.2969 Q28.5063,28.75 27.2094,28.75 Q25.6938,28.75 24.4906,28.125 Q23.5063,27.625 22.8188,26.5547 Q22.1313,25.4844 22.1313,24.2031 L22.1313,23.0469 Q22.1313,21.7188 22.7484,20.5703 Q23.3656,19.4219 24.4594,18.8047 Q25.5531,18.1875 26.7875,18.1875 Q27.5219,18.1875 28.1703,18.3516 Q28.8188,18.5156 29.3656,18.875 Z "/><text fill="#000000" font-family="sans-serif" font-size="12" lengthAdjust="spacingAndGlyphs" textLength="40" x="41.4" y="27.9102">Person</text><line style="stroke: #A80036; stroke-width: 1.5;" x1="9" x2="87" y1="39" y2="39"/><rect fill="none" height="6" style="stroke: #C82930; stroke-width: 1.0;" width="6" x="16" y="47"/><text fill="#000000" font-family="sans-serif" font-size="11" lengthAdjust="spacingAndGlyphs" textLength="37" x="28" y="54.4189">job: Job</text><line style="stroke: #A80036; stroke-width: 1.5;" x1="9" x2="87" y1="60.8359" y2="60.8359"/><ellipse cx="19" cy="71.8359" fill="#84BE84" rx="3" ry="3" style="stroke: #038048; stroke-width: 1.0;"/><text fill="#000000" font-family="sans-serif" font-size="11" lengthAdjust="spacingAndGlyphs" textLength="54" x="28" y="76.2549">getSalary()</text><!--MD5=[e4b4d783441e8e5f0475aa51a5f96636]
reverse link Person to Job--><path d="M48,96.596 C48,110.997 48,127.095 48,142.963 " fill="none" id="Person&lt;-Job" style="stroke: #A80036; stroke-width: 1.0;"/><polygon fill="#A80036" points="48,83.372,44,89.372,48,95.372,52,89.372,48,83.372" style="stroke: #A80036; stroke-width: 1.0;"/><!--MD5=[34cb5995842ad9c102b5e914c0fbd43a]
@startuml
class Job{
	-role: String
	-salary: long
	-id: int
	+getRole()
	+setRole()
	+getSalary()
	+setSalary()
	+getId()
	+setId()
}
class Person{
	-job: Job
	+getSalary()
}
Person *- - Job
@enduml

PlantUML version 1.2020.14(Sat Jun 20 09:14:34 COT 2020)
(GPL source distribution)
Java Runtime: Java(TM) SE Runtime Environment
JVM: Java HotSpot(TM) 64-Bit Server VM
Default Encoding: UTF-8
Language: es
Country: CO
--></g></svg>