<?xml version="1.0" encoding="UTF-8" standalone="no"?><svg xmlns="http://www.w3.org/2000/svg" xmlns:xlink="http://www.w3.org/1999/xlink" contentScriptType="application/ecmascript" contentStyleType="text/css" height="415px" preserveAspectRatio="none" style="width:183px;height:415px;" version="1.1" viewBox="0 0 183 415" width="183px" zoomAndPan="magnify"><defs><filter height="300%" id="f147f42ugv8art" width="300%" x="-1" y="-1"><feGaussianBlur result="blurOut" stdDeviation="2.0"/><feColorMatrix in="blurOut" result="blurOut2" type="matrix" values="0 0 0 0 0 0 0 0 0 0 0 0 0 0 0 0 0 0 .4 0"/><feOffset dx="4.0" dy="4.0" in="blurOut2" result="blurOut3"/><feBlend in="SourceGraphic" in2="blurOut3" mode="normal"/></filter></defs><g><!--MD5=[d0da0a299942266ebd64acf2b2e95fa4]
class Subject--><rect fill="#FEFECE" filter="url(#f147f42ugv8art)" height="48" id="Subject" style="stroke: #A80036; stroke-width: 1.5;" width="74" x="48.5" y="7"/><ellipse cx="63.5" cy="23" fill="#B4A7E5" rx="11" ry="11" style="stroke: #A80036; stroke-width: 1.0;"/><path d="M64.4531,19.6406 L64.4531,26.2969 L66.1719,26.2969 Q66.7813,26.2969 67.0469,26.5313 Q67.3125,26.7656 67.3125,27.1563 Q67.3125,27.5313 67.0469,27.7656 Q66.7813,28 66.1719,28 L61.0313,28 Q60.4219,28 60.1563,27.7656 Q59.8906,27.5313 59.8906,27.1406 Q59.8906,26.7656 60.1563,26.5313 Q60.4219,26.2969 61.0313,26.2969 L62.75,26.2969 L62.75,19.6406 L61.0313,19.6406 Q60.4219,19.6406 60.1563,19.4063 Q59.8906,19.1719 59.8906,18.7813 Q59.8906,18.4063 60.1563,18.1719 Q60.4219,17.9375 61.0313,17.9375 L66.1719,17.9375 Q66.7813,17.9375 67.0469,18.1719 Q67.3125,18.4063 67.3125,18.7813 Q67.3125,19.1719 67.0469,19.4063 Q66.7813,19.6406 66.1719,19.6406 L64.4531,19.6406 Z "/><text fill="#000000" font-family="sans-serif" font-size="12" font-style="italic" lengthAdjust="spacingAndGlyphs" textLength="42" x="77.5" y="27.9102">Subject</text><line style="stroke: #A80036; stroke-width: 1.5;" x1="49.5" x2="121.5" y1="39" y2="39"/><line style="stroke: #A80036; stroke-width: 1.5;" x1="49.5" x2="121.5" y1="47" y2="47"/><!--MD5=[d40932010816485ec57b44b6eea2392a]
class Observer--><rect fill="#FEFECE" filter="url(#f147f42ugv8art)" height="48" id="Observer" style="stroke: #A80036; stroke-width: 1.5;" width="83" x="44" y="348"/><ellipse cx="59" cy="364" fill="#B4A7E5" rx="11" ry="11" style="stroke: #A80036; stroke-width: 1.0;"/><path d="M59.9531,360.6406 L59.9531,367.2969 L61.6719,367.2969 Q62.2813,367.2969 62.5469,367.5313 Q62.8125,367.7656 62.8125,368.1563 Q62.8125,368.5313 62.5469,368.7656 Q62.2813,369 61.6719,369 L56.5313,369 Q55.9219,369 55.6563,368.7656 Q55.3906,368.5313 55.3906,368.1406 Q55.3906,367.7656 55.6563,367.5313 Q55.9219,367.2969 56.5313,367.2969 L58.25,367.2969 L58.25,360.6406 L56.5313,360.6406 Q55.9219,360.6406 55.6563,360.4063 Q55.3906,360.1719 55.3906,359.7813 Q55.3906,359.4063 55.6563,359.1719 Q55.9219,358.9375 56.5313,358.9375 L61.6719,358.9375 Q62.2813,358.9375 62.5469,359.1719 Q62.8125,359.4063 62.8125,359.7813 Q62.8125,360.1719 62.5469,360.4063 Q62.2813,360.6406 61.6719,360.6406 L59.9531,360.6406 Z "/><text fill="#000000" font-family="sans-serif" font-size="12" font-style="italic" lengthAdjust="spacingAndGlyphs" textLength="51" x="73" y="368.9102">Observer</text><line style="stroke: #A80036; stroke-width: 1.5;" x1="45" x2="126" y1="380" y2="380"/><line style="stroke: #A80036; stroke-width: 1.5;" x1="45" x2="126" y1="388" y2="388"/><!--MD5=[a2d0adf9aada2d6cd58dac6cd3c62a40]
class MyTopic--><rect fill="#FEFECE" filter="url(#f147f42ugv8art)" height="172.5234" id="MyTopic" style="stroke: #A80036; stroke-width: 1.5;" width="157" x="7" y="115"/><ellipse cx="59.25" cy="131" fill="#ADD1B2" rx="11" ry="11" style="stroke: #A80036; stroke-width: 1.0;"/><path d="M62.0156,126.875 Q62.1719,126.6563 62.3594,126.5469 Q62.5469,126.4375 62.7656,126.4375 Q63.1406,126.4375 63.375,126.6953 Q63.6094,126.9531 63.6094,127.5625 L63.6094,129.0156 Q63.6094,129.625 63.375,129.8906 Q63.1406,130.1563 62.7656,130.1563 Q62.4219,130.1563 62.2188,129.9531 Q62.0156,129.7656 61.9063,129.25 Q61.8594,128.8906 61.6719,128.7031 Q61.3438,128.3281 60.7344,128.1094 Q60.125,127.8906 59.5,127.8906 Q58.7344,127.8906 58.1016,128.2188 Q57.4688,128.5469 56.9766,129.2969 Q56.4844,130.0469 56.4844,131.0781 L56.4844,132.1719 Q56.4844,133.4063 57.375,134.2266 Q58.2656,135.0469 59.8594,135.0469 Q60.7969,135.0469 61.4531,134.7969 Q61.8438,134.6406 62.2656,134.2031 Q62.5313,133.9375 62.6797,133.8594 Q62.8281,133.7813 63.0313,133.7813 Q63.3594,133.7813 63.6172,134.0391 Q63.875,134.2969 63.875,134.6406 Q63.875,134.9844 63.5313,135.3906 Q63.0313,135.9688 62.2344,136.2969 Q61.1563,136.75 59.8594,136.75 Q58.3438,136.75 57.1406,136.125 Q56.1563,135.625 55.4688,134.5547 Q54.7813,133.4844 54.7813,132.2031 L54.7813,131.0469 Q54.7813,129.7188 55.3984,128.5703 Q56.0156,127.4219 57.1094,126.8047 Q58.2031,126.1875 59.4375,126.1875 Q60.1719,126.1875 60.8203,126.3516 Q61.4688,126.5156 62.0156,126.875 Z "/><text fill="#000000" font-family="sans-serif" font-size="12" lengthAdjust="spacingAndGlyphs" textLength="44" x="79.75" y="135.9102">MyTopic</text><line style="stroke: #A80036; stroke-width: 1.5;" x1="8" x2="163" y1="147" y2="147"/><rect fill="none" height="6" style="stroke: #C82930; stroke-width: 1.0;" width="6" x="15" y="155"/><text fill="#000000" font-family="sans-serif" font-size="11" lengthAdjust="spacingAndGlyphs" textLength="131" x="27" y="162.4189">observers: List&lt;Observer&gt;</text><rect fill="none" height="6" style="stroke: #C82930; stroke-width: 1.0;" width="6" x="15" y="168.8359"/><text fill="#000000" font-family="sans-serif" font-size="11" lengthAdjust="spacingAndGlyphs" textLength="78" x="27" y="176.2549">message: String</text><rect fill="none" height="6" style="stroke: #C82930; stroke-width: 1.0;" width="6" x="15" y="182.6719"/><text fill="#000000" font-family="sans-serif" font-size="11" lengthAdjust="spacingAndGlyphs" textLength="86" x="27" y="190.0908">changed: boolean</text><rect fill="none" height="6" style="stroke: #C82930; stroke-width: 1.0;" width="6" x="15" y="196.5078"/><text fill="#000000" font-family="sans-serif" font-size="11" lengthAdjust="spacingAndGlyphs" textLength="71" x="27" y="203.9268">MUTEX: Object</text><line style="stroke: #A80036; stroke-width: 1.5;" x1="8" x2="163" y1="210.3438" y2="210.3438"/><ellipse cx="18" cy="221.3438" fill="#84BE84" rx="3" ry="3" style="stroke: #038048; stroke-width: 1.0;"/><text fill="#000000" font-family="sans-serif" font-size="11" lengthAdjust="spacingAndGlyphs" textLength="45" x="27" y="225.7627">register()</text><ellipse cx="18" cy="235.1797" fill="#84BE84" rx="3" ry="3" style="stroke: #038048; stroke-width: 1.0;"/><text fill="#000000" font-family="sans-serif" font-size="11" lengthAdjust="spacingAndGlyphs" textLength="57" x="27" y="239.5986">unregister()</text><ellipse cx="18" cy="249.0156" fill="#84BE84" rx="3" ry="3" style="stroke: #038048; stroke-width: 1.0;"/><text fill="#000000" font-family="sans-serif" font-size="11" lengthAdjust="spacingAndGlyphs" textLength="87" x="27" y="253.4346">notifyObservers()</text><ellipse cx="18" cy="262.8516" fill="#84BE84" rx="3" ry="3" style="stroke: #038048; stroke-width: 1.0;"/><text fill="#000000" font-family="sans-serif" font-size="11" lengthAdjust="spacingAndGlyphs" textLength="57" x="27" y="267.2705">getUpdate()</text><ellipse cx="18" cy="276.6875" fill="#84BE84" rx="3" ry="3" style="stroke: #038048; stroke-width: 1.0;"/><text fill="#000000" font-family="sans-serif" font-size="11" lengthAdjust="spacingAndGlyphs" textLength="73" x="27" y="281.1064">postMessage()</text><!--MD5=[578ec4fe28337cb712ebd4bc3085aa62]
reverse link MyTopic to Observer--><path d="M85.5,301.2869 C85.5,318.6326 85.5,335.1305 85.5,347.7187 " fill="none" id="MyTopic&lt;-Observer" style="stroke: #A80036; stroke-width: 1.0;"/><polygon fill="#A80036" points="85.5,288.231,81.5,294.231,85.5,300.231,89.5,294.231,85.5,288.231" style="stroke: #A80036; stroke-width: 1.0;"/><!--MD5=[3ac4c13577018fcb6005f58d382ede4a]
reverse link Subject to MyTopic--><path d="M85.5,75.118 C85.5,87.351 85.5,101.117 85.5,114.93 " fill="none" id="Subject&lt;-MyTopic" style="stroke: #A80036; stroke-width: 1.0;"/><polygon fill="none" points="78.5001,75.076,85.5,55.076,92.5001,75.076,78.5001,75.076" style="stroke: #A80036; stroke-width: 1.0;"/><!--MD5=[8d84111738af92f9dedbdb41daf408ca]
@startuml
Interface Subject{
}
Interface Observer{
}
class MyTopic{
	-observers: List<Observer>
	-message: String
	-changed: boolean
	-MUTEX: Object
	+register()
	+unregister()
	+notifyObservers()
	+getUpdate()
	+postMessage()
}
MyTopic *- - Observer
Subject <|- - MyTopic
@enduml

PlantUML version 1.2020.14(Sat Jun 20 09:14:34 COT 2020)
(GPL source distribution)
Java Runtime: Java(TM) SE Runtime Environment
JVM: Java HotSpot(TM) 64-Bit Server VM
Default Encoding: UTF-8
Language: es
Country: CO
--></g></svg>