<?xml version="1.0" encoding="UTF-8" standalone="no"?><svg xmlns="http://www.w3.org/2000/svg" xmlns:xlink="http://www.w3.org/1999/xlink" contentScriptType="application/ecmascript" contentStyleType="text/css" height="237px" preserveAspectRatio="none" style="width:133px;height:237px;" version="1.1" viewBox="0 0 133 237" width="133px" zoomAndPan="magnify"><defs><filter height="300%" id="f1m3ca2nwev6s1" width="300%" x="-1" y="-1"><feGaussianBlur result="blurOut" stdDeviation="2.0"/><feColorMatrix in="blurOut" result="blurOut2" type="matrix" values="0 0 0 0 0 0 0 0 0 0 0 0 0 0 0 0 0 0 .4 0"/><feOffset dx="4.0" dy="4.0" in="blurOut2" result="blurOut3"/><feBlend in="SourceGraphic" in2="blurOut3" mode="normal"/></filter></defs><g><!--MD5=[1a19a7d09e5db3ac76afe9a13dc3058a]
class OuterClass--><rect fill="#FEFECE" filter="url(#f1m3ca2nwev6s1)" height="89.5078" id="OuterClass" style="stroke: #A80036; stroke-width: 1.5;" width="107" x="7" y="7"/><ellipse cx="27.4" cy="23" fill="#ADD1B2" rx="11" ry="11" style="stroke: #A80036; stroke-width: 1.0;"/><path d="M30.1656,18.875 Q30.3219,18.6563 30.5094,18.5469 Q30.6969,18.4375 30.9156,18.4375 Q31.2906,18.4375 31.525,18.6953 Q31.7594,18.9531 31.7594,19.5625 L31.7594,21.0156 Q31.7594,21.625 31.525,21.8906 Q31.2906,22.1563 30.9156,22.1563 Q30.5719,22.1563 30.3688,21.9531 Q30.1656,21.7656 30.0563,21.25 Q30.0094,20.8906 29.8219,20.7031 Q29.4938,20.3281 28.8844,20.1094 Q28.275,19.8906 27.65,19.8906 Q26.8844,19.8906 26.2516,20.2188 Q25.6188,20.5469 25.1266,21.2969 Q24.6344,22.0469 24.6344,23.0781 L24.6344,24.1719 Q24.6344,25.4063 25.525,26.2266 Q26.4156,27.0469 28.0094,27.0469 Q28.9469,27.0469 29.6031,26.7969 Q29.9938,26.6406 30.4156,26.2031 Q30.6813,25.9375 30.8297,25.8594 Q30.9781,25.7813 31.1813,25.7813 Q31.5094,25.7813 31.7672,26.0391 Q32.025,26.2969 32.025,26.6406 Q32.025,26.9844 31.6813,27.3906 Q31.1813,27.9688 30.3844,28.2969 Q29.3063,28.75 28.0094,28.75 Q26.4938,28.75 25.2906,28.125 Q24.3063,27.625 23.6188,26.5547 Q22.9313,25.4844 22.9313,24.2031 L22.9313,23.0469 Q22.9313,21.7188 23.5484,20.5703 Q24.1656,19.4219 25.2594,18.8047 Q26.3531,18.1875 27.5875,18.1875 Q28.3219,18.1875 28.9703,18.3516 Q29.6188,18.5156 30.1656,18.875 Z "/><text fill="#000000" font-family="sans-serif" font-size="12" lengthAdjust="spacingAndGlyphs" textLength="63" x="42.6" y="27.9102">OuterClass</text><line style="stroke: #A80036; stroke-width: 1.5;" x1="8" x2="113" y1="39" y2="39"/><text fill="#000000" font-family="sans-serif" font-size="11" lengthAdjust="spacingAndGlyphs" text-decoration="underline" textLength="54" x="27" y="54.4189">outer_x: int</text><text fill="#000000" font-family="sans-serif" font-size="11" lengthAdjust="spacingAndGlyphs" textLength="54" x="27" y="68.2549">outer_y: int</text><rect fill="none" height="6" style="stroke: #C82930; stroke-width: 1.0;" width="6" x="15" y="74.6719"/><text fill="#000000" font-family="sans-serif" font-size="11" lengthAdjust="spacingAndGlyphs" textLength="81" x="27" y="82.0908">outer_private: int</text><line style="stroke: #A80036; stroke-width: 1.5;" x1="8" x2="113" y1="88.5078" y2="88.5078"/><!--MD5=[4dd7e48e1492b55375d428ebe664953f]
class InnerClass--><rect fill="#FEFECE" filter="url(#f1m3ca2nwev6s1)" height="61.8359" id="InnerClass" style="stroke: #A80036; stroke-width: 1.5;" width="93" x="14" y="157"/><ellipse cx="29" cy="173" fill="#ADD1B2" rx="11" ry="11" style="stroke: #A80036; stroke-width: 1.0;"/><path d="M31.7656,168.875 Q31.9219,168.6563 32.1094,168.5469 Q32.2969,168.4375 32.5156,168.4375 Q32.8906,168.4375 33.125,168.6953 Q33.3594,168.9531 33.3594,169.5625 L33.3594,171.0156 Q33.3594,171.625 33.125,171.8906 Q32.8906,172.1563 32.5156,172.1563 Q32.1719,172.1563 31.9688,171.9531 Q31.7656,171.7656 31.6563,171.25 Q31.6094,170.8906 31.4219,170.7031 Q31.0938,170.3281 30.4844,170.1094 Q29.875,169.8906 29.25,169.8906 Q28.4844,169.8906 27.8516,170.2188 Q27.2188,170.5469 26.7266,171.2969 Q26.2344,172.0469 26.2344,173.0781 L26.2344,174.1719 Q26.2344,175.4063 27.125,176.2266 Q28.0156,177.0469 29.6094,177.0469 Q30.5469,177.0469 31.2031,176.7969 Q31.5938,176.6406 32.0156,176.2031 Q32.2813,175.9375 32.4297,175.8594 Q32.5781,175.7813 32.7813,175.7813 Q33.1094,175.7813 33.3672,176.0391 Q33.625,176.2969 33.625,176.6406 Q33.625,176.9844 33.2813,177.3906 Q32.7813,177.9688 31.9844,178.2969 Q30.9063,178.75 29.6094,178.75 Q28.0938,178.75 26.8906,178.125 Q25.9063,177.625 25.2188,176.5547 Q24.5313,175.4844 24.5313,174.2031 L24.5313,173.0469 Q24.5313,171.7188 25.1484,170.5703 Q25.7656,169.4219 26.8594,168.8047 Q27.9531,168.1875 29.1875,168.1875 Q29.9219,168.1875 30.5703,168.3516 Q31.2188,168.5156 31.7656,168.875 Z "/><text fill="#000000" font-family="sans-serif" font-size="12" lengthAdjust="spacingAndGlyphs" textLength="61" x="43" y="177.9102">InnerClass</text><line style="stroke: #A80036; stroke-width: 1.5;" x1="15" x2="106" y1="189" y2="189"/><line style="stroke: #A80036; stroke-width: 1.5;" x1="15" x2="106" y1="197" y2="197"/><text fill="#000000" font-family="sans-serif" font-size="11" lengthAdjust="spacingAndGlyphs" textLength="42" x="20" y="212.4189">display()</text><!--MD5=[43a390ba015c91599e30ca93a7aad64c]
reverse link OuterClass to InnerClass--><path d="M60.5,112.311 C60.5,127.6777 60.5,143.5914 60.5,156.7607 " fill="none" id="OuterClass&lt;-InnerClass" style="stroke: #A80036; stroke-width: 1.0;"/><ellipse cx="60.5" cy="105.248" fill="#FFFFFF" rx="8" ry="8" style="stroke: #A80036; stroke-width: 1.0;"/><line style="stroke: #A80036; stroke-width: 1.0;" x1="60.5" x2="60.5" y1="113.248" y2="97.248"/><line style="stroke: #A80036; stroke-width: 1.0;" x1="52.5" x2="68.5" y1="105.248" y2="105.248"/><!--MD5=[9047be18e75f25aed4e5f7a833fed297]
@startuml
class OuterClass{
	{static}outer_x: int
	outer_y: int
	-outer_private: int
}
class InnerClass{
	display()
}
OuterClass +- - InnerClass
@enduml

PlantUML version 1.2020.14(Sat Jun 20 09:14:34 COT 2020)
(GPL source distribution)
Java Runtime: Java(TM) SE Runtime Environment
JVM: Java HotSpot(TM) 64-Bit Server VM
Default Encoding: UTF-8
Language: es
Country: CO
--></g></svg>