<?xml version="1.0" encoding="UTF-8" standalone="no"?><svg xmlns="http://www.w3.org/2000/svg" xmlns:xlink="http://www.w3.org/1999/xlink" contentScriptType="application/ecmascript" contentStyleType="text/css" height="661px" preserveAspectRatio="none" style="width:247px;height:661px;" version="1.1" viewBox="0 0 247 661" width="247px" zoomAndPan="magnify"><defs><filter height="300%" id="fpm0zbft9mrmr" width="300%" x="-1" y="-1"><feGaussianBlur result="blurOut" stdDeviation="2.0"/><feColorMatrix in="blurOut" result="blurOut2" type="matrix" values="0 0 0 0 0 0 0 0 0 0 0 0 0 0 0 0 0 0 .4 0"/><feOffset dx="4.0" dy="4.0" in="blurOut2" result="blurOut3"/><feBlend in="SourceGraphic" in2="blurOut3" mode="normal"/></filter></defs><g><!--MD5=[d0da0a299942266ebd64acf2b2e95fa4]
class Subject--><rect fill="#FEFECE" filter="url(#fpm0zbft9mrmr)" height="103.3438" id="Subject" style="stroke: #A80036; stroke-width: 1.5;" width="113" x="95" y="7"/><ellipse cx="127.55" cy="23" fill="#B4A7E5" rx="11" ry="11" style="stroke: #A80036; stroke-width: 1.0;"/><path d="M128.5031,19.6406 L128.5031,26.2969 L130.2219,26.2969 Q130.8313,26.2969 131.0969,26.5313 Q131.3625,26.7656 131.3625,27.1563 Q131.3625,27.5313 131.0969,27.7656 Q130.8313,28 130.2219,28 L125.0813,28 Q124.4719,28 124.2063,27.7656 Q123.9406,27.5313 123.9406,27.1406 Q123.9406,26.7656 124.2063,26.5313 Q124.4719,26.2969 125.0813,26.2969 L126.8,26.2969 L126.8,19.6406 L125.0813,19.6406 Q124.4719,19.6406 124.2063,19.4063 Q123.9406,19.1719 123.9406,18.7813 Q123.9406,18.4063 124.2063,18.1719 Q124.4719,17.9375 125.0813,17.9375 L130.2219,17.9375 Q130.8313,17.9375 131.0969,18.1719 Q131.3625,18.4063 131.3625,18.7813 Q131.3625,19.1719 131.0969,19.4063 Q130.8313,19.6406 130.2219,19.6406 L128.5031,19.6406 Z "/><text fill="#000000" font-family="sans-serif" font-size="12" font-style="italic" lengthAdjust="spacingAndGlyphs" textLength="42" x="145.45" y="27.9102">Subject</text><line style="stroke: #A80036; stroke-width: 1.5;" x1="96" x2="207" y1="39" y2="39"/><line style="stroke: #A80036; stroke-width: 1.5;" x1="96" x2="207" y1="47" y2="47"/><ellipse cx="106" cy="58" fill="#84BE84" rx="3" ry="3" style="stroke: #038048; stroke-width: 1.0;"/><text fill="#000000" font-family="sans-serif" font-size="11" lengthAdjust="spacingAndGlyphs" textLength="45" x="115" y="62.4189">register()</text><ellipse cx="106" cy="71.8359" fill="#84BE84" rx="3" ry="3" style="stroke: #038048; stroke-width: 1.0;"/><text fill="#000000" font-family="sans-serif" font-size="11" lengthAdjust="spacingAndGlyphs" textLength="57" x="115" y="76.2549">unregister()</text><ellipse cx="106" cy="85.6719" fill="#84BE84" rx="3" ry="3" style="stroke: #038048; stroke-width: 1.0;"/><text fill="#000000" font-family="sans-serif" font-size="11" lengthAdjust="spacingAndGlyphs" textLength="87" x="115" y="90.0908">notifyObservers()</text><ellipse cx="106" cy="99.5078" fill="#84BE84" rx="3" ry="3" style="stroke: #038048; stroke-width: 1.0;"/><text fill="#000000" font-family="sans-serif" font-size="11" lengthAdjust="spacingAndGlyphs" textLength="57" x="115" y="103.9268">getUpdate()</text><!--MD5=[d40932010816485ec57b44b6eea2392a]
class Observer--><rect fill="#FEFECE" filter="url(#fpm0zbft9mrmr)" height="75.6719" id="Observer" style="stroke: #A80036; stroke-width: 1.5;" width="85" x="61" y="403"/><ellipse cx="76.9" cy="419" fill="#B4A7E5" rx="11" ry="11" style="stroke: #A80036; stroke-width: 1.0;"/><path d="M77.8531,415.6406 L77.8531,422.2969 L79.5719,422.2969 Q80.1813,422.2969 80.4469,422.5313 Q80.7125,422.7656 80.7125,423.1563 Q80.7125,423.5313 80.4469,423.7656 Q80.1813,424 79.5719,424 L74.4313,424 Q73.8219,424 73.5563,423.7656 Q73.2906,423.5313 73.2906,423.1406 Q73.2906,422.7656 73.5563,422.5313 Q73.8219,422.2969 74.4313,422.2969 L76.15,422.2969 L76.15,415.6406 L74.4313,415.6406 Q73.8219,415.6406 73.5563,415.4063 Q73.2906,415.1719 73.2906,414.7813 Q73.2906,414.4063 73.5563,414.1719 Q73.8219,413.9375 74.4313,413.9375 L79.5719,413.9375 Q80.1813,413.9375 80.4469,414.1719 Q80.7125,414.4063 80.7125,414.7813 Q80.7125,415.1719 80.4469,415.4063 Q80.1813,415.6406 79.5719,415.6406 L77.8531,415.6406 Z "/><text fill="#000000" font-family="sans-serif" font-size="12" font-style="italic" lengthAdjust="spacingAndGlyphs" textLength="51" x="91.1" y="423.9102">Observer</text><line style="stroke: #A80036; stroke-width: 1.5;" x1="62" x2="145" y1="435" y2="435"/><line style="stroke: #A80036; stroke-width: 1.5;" x1="62" x2="145" y1="443" y2="443"/><ellipse cx="72" cy="454" fill="#84BE84" rx="3" ry="3" style="stroke: #038048; stroke-width: 1.0;"/><text fill="#000000" font-family="sans-serif" font-size="11" lengthAdjust="spacingAndGlyphs" textLength="41" x="81" y="458.4189">update()</text><ellipse cx="72" cy="467.8359" fill="#84BE84" rx="3" ry="3" style="stroke: #038048; stroke-width: 1.0;"/><text fill="#000000" font-family="sans-serif" font-size="11" lengthAdjust="spacingAndGlyphs" textLength="59" x="81" y="472.2549">setSubject()</text><!--MD5=[a2d0adf9aada2d6cd58dac6cd3c62a40]
class MyTopic--><rect fill="#FEFECE" filter="url(#fpm0zbft9mrmr)" height="172.5234" id="MyTopic" style="stroke: #A80036; stroke-width: 1.5;" width="157" x="7" y="170"/><ellipse cx="59.25" cy="186" fill="#ADD1B2" rx="11" ry="11" style="stroke: #A80036; stroke-width: 1.0;"/><path d="M62.0156,181.875 Q62.1719,181.6563 62.3594,181.5469 Q62.5469,181.4375 62.7656,181.4375 Q63.1406,181.4375 63.375,181.6953 Q63.6094,181.9531 63.6094,182.5625 L63.6094,184.0156 Q63.6094,184.625 63.375,184.8906 Q63.1406,185.1563 62.7656,185.1563 Q62.4219,185.1563 62.2188,184.9531 Q62.0156,184.7656 61.9063,184.25 Q61.8594,183.8906 61.6719,183.7031 Q61.3438,183.3281 60.7344,183.1094 Q60.125,182.8906 59.5,182.8906 Q58.7344,182.8906 58.1016,183.2188 Q57.4688,183.5469 56.9766,184.2969 Q56.4844,185.0469 56.4844,186.0781 L56.4844,187.1719 Q56.4844,188.4063 57.375,189.2266 Q58.2656,190.0469 59.8594,190.0469 Q60.7969,190.0469 61.4531,189.7969 Q61.8438,189.6406 62.2656,189.2031 Q62.5313,188.9375 62.6797,188.8594 Q62.8281,188.7813 63.0313,188.7813 Q63.3594,188.7813 63.6172,189.0391 Q63.875,189.2969 63.875,189.6406 Q63.875,189.9844 63.5313,190.3906 Q63.0313,190.9688 62.2344,191.2969 Q61.1563,191.75 59.8594,191.75 Q58.3438,191.75 57.1406,191.125 Q56.1563,190.625 55.4688,189.5547 Q54.7813,188.4844 54.7813,187.2031 L54.7813,186.0469 Q54.7813,184.7188 55.3984,183.5703 Q56.0156,182.4219 57.1094,181.8047 Q58.2031,181.1875 59.4375,181.1875 Q60.1719,181.1875 60.8203,181.3516 Q61.4688,181.5156 62.0156,181.875 Z "/><text fill="#000000" font-family="sans-serif" font-size="12" lengthAdjust="spacingAndGlyphs" textLength="44" x="79.75" y="190.9102">MyTopic</text><line style="stroke: #A80036; stroke-width: 1.5;" x1="8" x2="163" y1="202" y2="202"/><rect fill="none" height="6" style="stroke: #C82930; stroke-width: 1.0;" width="6" x="15" y="210"/><text fill="#000000" font-family="sans-serif" font-size="11" lengthAdjust="spacingAndGlyphs" textLength="131" x="27" y="217.4189">observers: List&lt;Observer&gt;</text><rect fill="none" height="6" style="stroke: #C82930; stroke-width: 1.0;" width="6" x="15" y="223.8359"/><text fill="#000000" font-family="sans-serif" font-size="11" lengthAdjust="spacingAndGlyphs" textLength="78" x="27" y="231.2549">message: String</text><rect fill="none" height="6" style="stroke: #C82930; stroke-width: 1.0;" width="6" x="15" y="237.6719"/><text fill="#000000" font-family="sans-serif" font-size="11" lengthAdjust="spacingAndGlyphs" textLength="86" x="27" y="245.0908">changed: boolean</text><rect fill="none" height="6" style="stroke: #C82930; stroke-width: 1.0;" width="6" x="15" y="251.5078"/><text fill="#000000" font-family="sans-serif" font-size="11" lengthAdjust="spacingAndGlyphs" textLength="71" x="27" y="258.9268">MUTEX: Object</text><line style="stroke: #A80036; stroke-width: 1.5;" x1="8" x2="163" y1="265.3438" y2="265.3438"/><ellipse cx="18" cy="276.3438" fill="#84BE84" rx="3" ry="3" style="stroke: #038048; stroke-width: 1.0;"/><text fill="#000000" font-family="sans-serif" font-size="11" lengthAdjust="spacingAndGlyphs" textLength="45" x="27" y="280.7627">register()</text><ellipse cx="18" cy="290.1797" fill="#84BE84" rx="3" ry="3" style="stroke: #038048; stroke-width: 1.0;"/><text fill="#000000" font-family="sans-serif" font-size="11" lengthAdjust="spacingAndGlyphs" textLength="57" x="27" y="294.5986">unregister()</text><ellipse cx="18" cy="304.0156" fill="#84BE84" rx="3" ry="3" style="stroke: #038048; stroke-width: 1.0;"/><text fill="#000000" font-family="sans-serif" font-size="11" lengthAdjust="spacingAndGlyphs" textLength="87" x="27" y="308.4346">notifyObservers()</text><ellipse cx="18" cy="317.8516" fill="#84BE84" rx="3" ry="3" style="stroke: #038048; stroke-width: 1.0;"/><text fill="#000000" font-family="sans-serif" font-size="11" lengthAdjust="spacingAndGlyphs" textLength="57" x="27" y="322.2705">getUpdate()</text><ellipse cx="18" cy="331.6875" fill="#84BE84" rx="3" ry="3" style="stroke: #038048; stroke-width: 1.0;"/><text fill="#000000" font-family="sans-serif" font-size="11" lengthAdjust="spacingAndGlyphs" textLength="73" x="27" y="336.1064">postMessage()</text><!--MD5=[1c0da4d2ded6e8e1189ae31f447a1af8]
class MyTopicSubscriber--><rect fill="#FEFECE" filter="url(#fpm0zbft9mrmr)" height="103.3438" id="MyTopicSubscriber" style="stroke: #A80036; stroke-width: 1.5;" width="136" x="92.5" y="539"/><ellipse cx="107.5" cy="555" fill="#ADD1B2" rx="11" ry="11" style="stroke: #A80036; stroke-width: 1.0;"/><path d="M110.2656,550.875 Q110.4219,550.6563 110.6094,550.5469 Q110.7969,550.4375 111.0156,550.4375 Q111.3906,550.4375 111.625,550.6953 Q111.8594,550.9531 111.8594,551.5625 L111.8594,553.0156 Q111.8594,553.625 111.625,553.8906 Q111.3906,554.1563 111.0156,554.1563 Q110.6719,554.1563 110.4688,553.9531 Q110.2656,553.7656 110.1563,553.25 Q110.1094,552.8906 109.9219,552.7031 Q109.5938,552.3281 108.9844,552.1094 Q108.375,551.8906 107.75,551.8906 Q106.9844,551.8906 106.3516,552.2188 Q105.7188,552.5469 105.2266,553.2969 Q104.7344,554.0469 104.7344,555.0781 L104.7344,556.1719 Q104.7344,557.4063 105.625,558.2266 Q106.5156,559.0469 108.1094,559.0469 Q109.0469,559.0469 109.7031,558.7969 Q110.0938,558.6406 110.5156,558.2031 Q110.7813,557.9375 110.9297,557.8594 Q111.0781,557.7813 111.2813,557.7813 Q111.6094,557.7813 111.8672,558.0391 Q112.125,558.2969 112.125,558.6406 Q112.125,558.9844 111.7813,559.3906 Q111.2813,559.9688 110.4844,560.2969 Q109.4063,560.75 108.1094,560.75 Q106.5938,560.75 105.3906,560.125 Q104.4063,559.625 103.7188,558.5547 Q103.0313,557.4844 103.0313,556.2031 L103.0313,555.0469 Q103.0313,553.7188 103.6484,552.5703 Q104.2656,551.4219 105.3594,550.8047 Q106.4531,550.1875 107.6875,550.1875 Q108.4219,550.1875 109.0703,550.3516 Q109.7188,550.5156 110.2656,550.875 Z "/><text fill="#000000" font-family="sans-serif" font-size="12" lengthAdjust="spacingAndGlyphs" textLength="104" x="121.5" y="559.9102">MyTopicSubscriber</text><line style="stroke: #A80036; stroke-width: 1.5;" x1="93.5" x2="227.5" y1="571" y2="571"/><rect fill="none" height="6" style="stroke: #C82930; stroke-width: 1.0;" width="6" x="100.5" y="579"/><text fill="#000000" font-family="sans-serif" font-size="11" lengthAdjust="spacingAndGlyphs" textLength="60" x="112.5" y="586.4189">name: String</text><rect fill="none" height="6" style="stroke: #C82930; stroke-width: 1.0;" width="6" x="100.5" y="592.8359"/><text fill="#000000" font-family="sans-serif" font-size="11" lengthAdjust="spacingAndGlyphs" textLength="65" x="112.5" y="600.2549">topic: Subject</text><line style="stroke: #A80036; stroke-width: 1.5;" x1="93.5" x2="227.5" y1="606.6719" y2="606.6719"/><ellipse cx="103.5" cy="617.6719" fill="#84BE84" rx="3" ry="3" style="stroke: #038048; stroke-width: 1.0;"/><text fill="#000000" font-family="sans-serif" font-size="11" lengthAdjust="spacingAndGlyphs" textLength="41" x="112.5" y="622.0908">update()</text><ellipse cx="103.5" cy="631.5078" fill="#84BE84" rx="3" ry="3" style="stroke: #038048; stroke-width: 1.0;"/><text fill="#000000" font-family="sans-serif" font-size="11" lengthAdjust="spacingAndGlyphs" textLength="59" x="112.5" y="635.9268">setSubject()</text><!--MD5=[553f987cfc93aab280a89ef13f14174b]
link MyTopicSubscriber to Subject--><path d="M168.951,538.888 C180.827,459.803 199.137,302.275 181.5,170 C179.075,151.809 174.497,132.368 169.635,114.944 " fill="none" id="MyTopicSubscriber-&gt;Subject" style="stroke: #A80036; stroke-width: 1.0;"/><polygon fill="#A80036" points="168.257,110.085,166.8646,119.8349,169.6214,114.8953,174.561,117.652,168.257,110.085" style="stroke: #A80036; stroke-width: 1.0;"/><!--MD5=[775f53394176362989ea01df6dadfb1c]
reverse link Observer to MyTopicSubscriber--><path d="M125.169,498.074 C130.358,511.5 135.867,525.758 140.954,538.919 " fill="none" id="Observer&lt;-MyTopicSubscriber" style="stroke: #A80036; stroke-width: 1.0; stroke-dasharray: 7.0,7.0;"/><polygon fill="none" points="118.563,500.399,117.884,479.22,131.622,495.353,118.563,500.399" style="stroke: #A80036; stroke-width: 1.0;"/><!--MD5=[51fd7c9884d568404fb8370aa83df625]
link MyTopic to Observer--><path d="M93.9466,343.139 C95.8013,361.943 97.6874,381.067 99.2883,397.298 " fill="none" id="MyTopic-&gt;Observer" style="stroke: #A80036; stroke-width: 1.0;"/><polygon fill="#A80036" points="99.8199,402.687,102.9186,393.3383,99.3299,397.7111,94.9571,394.1223,99.8199,402.687" style="stroke: #A80036; stroke-width: 1.0;"/><!--MD5=[3ac4c13577018fcb6005f58d382ede4a]
reverse link Subject to MyTopic--><path d="M127.98,129.348 C123.584,142.402 118.943,156.185 114.407,169.656 " fill="none" id="Subject&lt;-MyTopic" style="stroke: #A80036; stroke-width: 1.0; stroke-dasharray: 7.0,7.0;"/><polygon fill="none" points="121.401,126.95,134.418,110.23,134.669,131.418,121.401,126.95" style="stroke: #A80036; stroke-width: 1.0;"/><!--MD5=[b012f800948f91e1f5c87f9aa984060c]
@startuml
Interface Subject{
	+register()
	+unregister()
	+notifyObservers()
	+getUpdate()
}
Interface Observer{
	+update()
	+setSubject()
}
class MyTopic{
	-observers: List<Observer>
	-message: String
	-changed: boolean
	-MUTEX: Object
	+register()
	+unregister()
	+notifyObservers()
	+getUpdate()
	+postMessage()
}
class MyTopicSubscriber{
	-name: String
	-topic: Subject
	+update()
	+setSubject()
}
MyTopicSubscriber - -> Subject
MyTopicSubscriber .up.|> Observer
MyTopic - -> Observer
MyTopic .up.|> Subject
@enduml

PlantUML version 1.2020.14(Sat Jun 20 09:14:34 COT 2020)
(GPL source distribution)
Java Runtime: Java(TM) SE Runtime Environment
JVM: Java HotSpot(TM) 64-Bit Server VM
Default Encoding: UTF-8
Language: es
Country: CO
--></g></svg>