<?xml version="1.0" encoding="UTF-8" standalone="no"?><svg xmlns="http://www.w3.org/2000/svg" xmlns:xlink="http://www.w3.org/1999/xlink" contentScriptType="application/ecmascript" contentStyleType="text/css" height="688px" preserveAspectRatio="none" style="width:248px;height:688px;" version="1.1" viewBox="0 0 248 688" width="248px" zoomAndPan="magnify"><defs><filter height="300%" id="f2d8fh5oawkgk" width="300%" x="-1" y="-1"><feGaussianBlur result="blurOut" stdDeviation="2.0"/><feColorMatrix in="blurOut" result="blurOut2" type="matrix" values="0 0 0 0 0 0 0 0 0 0 0 0 0 0 0 0 0 0 .4 0"/><feOffset dx="4.0" dy="4.0" in="blurOut2" result="blurOut3"/><feBlend in="SourceGraphic" in2="blurOut3" mode="normal"/></filter></defs><g><text fill="#000000" font-family="sans-serif" font-size="18" lengthAdjust="spacingAndGlyphs" textLength="114" x="58" y="18.6855">Class diagram</text><!--MD5=[9196e7f5424c8ba52e10312e1fe81956]
class Estudiante--><rect fill="#FEFECE" filter="url(#f2d8fh5oawkgk)" height="352.3906" id="Estudiante" style="stroke: #A80036; stroke-width: 1.5;" width="175" x="31.5" y="29.6406"/><ellipse cx="85.25" cy="45.6406" fill="#ADD1B2" rx="11" ry="11" style="stroke: #A80036; stroke-width: 1.0;"/><path d="M88.0156,41.5156 Q88.1719,41.2969 88.3594,41.1875 Q88.5469,41.0781 88.7656,41.0781 Q89.1406,41.0781 89.375,41.3359 Q89.6094,41.5938 89.6094,42.2031 L89.6094,43.6563 Q89.6094,44.2656 89.375,44.5313 Q89.1406,44.7969 88.7656,44.7969 Q88.4219,44.7969 88.2188,44.5938 Q88.0156,44.4063 87.9063,43.8906 Q87.8594,43.5313 87.6719,43.3438 Q87.3438,42.9688 86.7344,42.75 Q86.125,42.5313 85.5,42.5313 Q84.7344,42.5313 84.1016,42.8594 Q83.4688,43.1875 82.9766,43.9375 Q82.4844,44.6875 82.4844,45.7188 L82.4844,46.8125 Q82.4844,48.0469 83.375,48.8672 Q84.2656,49.6875 85.8594,49.6875 Q86.7969,49.6875 87.4531,49.4375 Q87.8438,49.2813 88.2656,48.8438 Q88.5313,48.5781 88.6797,48.5 Q88.8281,48.4219 89.0313,48.4219 Q89.3594,48.4219 89.6172,48.6797 Q89.875,48.9375 89.875,49.2813 Q89.875,49.625 89.5313,50.0313 Q89.0313,50.6094 88.2344,50.9375 Q87.1563,51.3906 85.8594,51.3906 Q84.3438,51.3906 83.1406,50.7656 Q82.1563,50.2656 81.4688,49.1953 Q80.7813,48.125 80.7813,46.8438 L80.7813,45.6875 Q80.7813,44.3594 81.3984,43.2109 Q82.0156,42.0625 83.1094,41.4453 Q84.2031,40.8281 85.4375,40.8281 Q86.1719,40.8281 86.8203,40.9922 Q87.4688,41.1563 88.0156,41.5156 Z "/><text fill="#000000" font-family="sans-serif" font-size="12" lengthAdjust="spacingAndGlyphs" textLength="59" x="105.75" y="50.5508">Estudiante</text><line style="stroke: #A80036; stroke-width: 1.5;" x1="32.5" x2="205.5" y1="61.6406" y2="61.6406"/><rect fill="none" height="6" style="stroke: #C82930; stroke-width: 1.0;" width="6" x="39.5" y="69.6406"/><text fill="#000000" font-family="sans-serif" font-size="11" lengthAdjust="spacingAndGlyphs" textLength="66" x="51.5" y="77.0596">codigo: String</text><rect fill="none" height="6" style="stroke: #C82930; stroke-width: 1.0;" width="6" x="39.5" y="83.4766"/><text fill="#000000" font-family="sans-serif" font-size="11" lengthAdjust="spacingAndGlyphs" textLength="66" x="51.5" y="90.8955">correo: String</text><rect fill="none" height="6" style="stroke: #C82930; stroke-width: 1.0;" width="6" x="39.5" y="97.3125"/><text fill="#000000" font-family="sans-serif" font-size="11" lengthAdjust="spacingAndGlyphs" textLength="70" x="51.5" y="104.7314">nombre: String</text><rect fill="none" height="6" style="stroke: #C82930; stroke-width: 1.0;" width="6" x="39.5" y="111.1484"/><text fill="#000000" font-family="sans-serif" font-size="11" lengthAdjust="spacingAndGlyphs" textLength="70" x="51.5" y="118.5674">apellido: String</text><rect fill="none" height="6" style="stroke: #C82930; stroke-width: 1.0;" width="6" x="39.5" y="124.9844"/><text fill="#000000" font-family="sans-serif" font-size="11" lengthAdjust="spacingAndGlyphs" textLength="129" x="51.5" y="132.4033">carreraEstudiante: Carrera</text><rect fill="none" height="6" style="stroke: #C82930; stroke-width: 1.0;" width="6" x="39.5" y="138.8203"/><text fill="#000000" font-family="sans-serif" font-size="11" lengthAdjust="spacingAndGlyphs" textLength="149" x="51.5" y="146.2393">gruposEstudiante: List&lt;Grupo&gt;</text><rect fill="none" height="6" style="stroke: #C82930; stroke-width: 1.0;" width="6" x="39.5" y="152.6563"/><text fill="#000000" font-family="sans-serif" font-size="11" lengthAdjust="spacingAndGlyphs" textLength="134" x="51.5" y="160.0752">notasEstudiante: List&lt;Nota&gt;</text><line style="stroke: #A80036; stroke-width: 1.5;" x1="32.5" x2="205.5" y1="166.4922" y2="166.4922"/><ellipse cx="42.5" cy="177.4922" fill="#84BE84" rx="3" ry="3" style="stroke: #038048; stroke-width: 1.0;"/><text fill="#000000" font-family="sans-serif" font-size="11" lengthAdjust="spacingAndGlyphs" textLength="57" x="51.5" y="181.9111">darCodigo()</text><ellipse cx="42.5" cy="191.3281" fill="#84BE84" rx="3" ry="3" style="stroke: #038048; stroke-width: 1.0;"/><text fill="#000000" font-family="sans-serif" font-size="11" lengthAdjust="spacingAndGlyphs" textLength="79" x="51.5" y="195.7471">cambiarCodigo()</text><ellipse cx="42.5" cy="205.1641" fill="#84BE84" rx="3" ry="3" style="stroke: #038048; stroke-width: 1.0;"/><text fill="#000000" font-family="sans-serif" font-size="11" lengthAdjust="spacingAndGlyphs" textLength="57" x="51.5" y="209.583">darCorreo()</text><ellipse cx="42.5" cy="219" fill="#84BE84" rx="3" ry="3" style="stroke: #038048; stroke-width: 1.0;"/><text fill="#000000" font-family="sans-serif" font-size="11" lengthAdjust="spacingAndGlyphs" textLength="79" x="51.5" y="223.4189">cambiarCorreo()</text><ellipse cx="42.5" cy="232.8359" fill="#84BE84" rx="3" ry="3" style="stroke: #038048; stroke-width: 1.0;"/><text fill="#000000" font-family="sans-serif" font-size="11" lengthAdjust="spacingAndGlyphs" textLength="61" x="51.5" y="237.2549">darNombre()</text><ellipse cx="42.5" cy="246.6719" fill="#84BE84" rx="3" ry="3" style="stroke: #038048; stroke-width: 1.0;"/><text fill="#000000" font-family="sans-serif" font-size="11" lengthAdjust="spacingAndGlyphs" textLength="83" x="51.5" y="251.0908">cambiarNombre()</text><ellipse cx="42.5" cy="260.5078" fill="#84BE84" rx="3" ry="3" style="stroke: #038048; stroke-width: 1.0;"/><text fill="#000000" font-family="sans-serif" font-size="11" lengthAdjust="spacingAndGlyphs" textLength="62" x="51.5" y="264.9268">darApellido()</text><ellipse cx="42.5" cy="274.3438" fill="#84BE84" rx="3" ry="3" style="stroke: #038048; stroke-width: 1.0;"/><text fill="#000000" font-family="sans-serif" font-size="11" lengthAdjust="spacingAndGlyphs" textLength="84" x="51.5" y="278.7627">cambiarApellido()</text><ellipse cx="42.5" cy="288.1797" fill="#84BE84" rx="3" ry="3" style="stroke: #038048; stroke-width: 1.0;"/><text fill="#000000" font-family="sans-serif" font-size="11" lengthAdjust="spacingAndGlyphs" textLength="61" x="51.5" y="292.5986">darCarrera()</text><ellipse cx="42.5" cy="302.0156" fill="#84BE84" rx="3" ry="3" style="stroke: #038048; stroke-width: 1.0;"/><text fill="#000000" font-family="sans-serif" font-size="11" lengthAdjust="spacingAndGlyphs" textLength="83" x="51.5" y="306.4346">cambiarCarrera()</text><ellipse cx="42.5" cy="315.8516" fill="#84BE84" rx="3" ry="3" style="stroke: #038048; stroke-width: 1.0;"/><text fill="#000000" font-family="sans-serif" font-size="11" lengthAdjust="spacingAndGlyphs" textLength="60" x="51.5" y="320.2705">darGrupos()</text><ellipse cx="42.5" cy="329.6875" fill="#84BE84" rx="3" ry="3" style="stroke: #038048; stroke-width: 1.0;"/><text fill="#000000" font-family="sans-serif" font-size="11" lengthAdjust="spacingAndGlyphs" textLength="82" x="51.5" y="334.1064">cambiarGrupos()</text><ellipse cx="42.5" cy="343.5234" fill="#84BE84" rx="3" ry="3" style="stroke: #038048; stroke-width: 1.0;"/><text fill="#000000" font-family="sans-serif" font-size="11" lengthAdjust="spacingAndGlyphs" textLength="46" x="51.5" y="347.9424">darNota()</text><ellipse cx="42.5" cy="357.3594" fill="#84BE84" rx="3" ry="3" style="stroke: #038048; stroke-width: 1.0;"/><text fill="#000000" font-family="sans-serif" font-size="11" lengthAdjust="spacingAndGlyphs" textLength="74" x="51.5" y="361.7783">cambiarNotas()</text><ellipse cx="42.5" cy="371.1953" fill="#84BE84" rx="3" ry="3" style="stroke: #038048; stroke-width: 1.0;"/><text fill="#000000" font-family="sans-serif" font-size="11" lengthAdjust="spacingAndGlyphs" textLength="45" x="51.5" y="375.6143">toString()</text><!--MD5=[6c12453d355242fc13a0fab73bb902ea]
class Carrera--><rect fill="#FEFECE" filter="url(#f2d8fh5oawkgk)" height="227.8672" id="Carrera" style="stroke: #A80036; stroke-width: 1.5;" width="220" x="9" y="441.6406"/><ellipse cx="93.75" cy="457.6406" fill="#ADD1B2" rx="11" ry="11" style="stroke: #A80036; stroke-width: 1.0;"/><path d="M96.5156,453.5156 Q96.6719,453.2969 96.8594,453.1875 Q97.0469,453.0781 97.2656,453.0781 Q97.6406,453.0781 97.875,453.3359 Q98.1094,453.5938 98.1094,454.2031 L98.1094,455.6563 Q98.1094,456.2656 97.875,456.5313 Q97.6406,456.7969 97.2656,456.7969 Q96.9219,456.7969 96.7188,456.5938 Q96.5156,456.4063 96.4063,455.8906 Q96.3594,455.5313 96.1719,455.3438 Q95.8438,454.9688 95.2344,454.75 Q94.625,454.5313 94,454.5313 Q93.2344,454.5313 92.6016,454.8594 Q91.9688,455.1875 91.4766,455.9375 Q90.9844,456.6875 90.9844,457.7188 L90.9844,458.8125 Q90.9844,460.0469 91.875,460.8672 Q92.7656,461.6875 94.3594,461.6875 Q95.2969,461.6875 95.9531,461.4375 Q96.3438,461.2813 96.7656,460.8438 Q97.0313,460.5781 97.1797,460.5 Q97.3281,460.4219 97.5313,460.4219 Q97.8594,460.4219 98.1172,460.6797 Q98.375,460.9375 98.375,461.2813 Q98.375,461.625 98.0313,462.0313 Q97.5313,462.6094 96.7344,462.9375 Q95.6563,463.3906 94.3594,463.3906 Q92.8438,463.3906 91.6406,462.7656 Q90.6563,462.2656 89.9688,461.1953 Q89.2813,460.125 89.2813,458.8438 L89.2813,457.6875 Q89.2813,456.3594 89.8984,455.2109 Q90.5156,454.0625 91.6094,453.4453 Q92.7031,452.8281 93.9375,452.8281 Q94.6719,452.8281 95.3203,452.9922 Q95.9688,453.1563 96.5156,453.5156 Z "/><text fill="#000000" font-family="sans-serif" font-size="12" lengthAdjust="spacingAndGlyphs" textLength="42" x="114.25" y="462.5508">Carrera</text><line style="stroke: #A80036; stroke-width: 1.5;" x1="10" x2="228" y1="473.6406" y2="473.6406"/><rect fill="none" height="6" style="stroke: #C82930; stroke-width: 1.0;" width="6" x="17" y="481.6406"/><text fill="#000000" font-family="sans-serif" font-size="11" lengthAdjust="spacingAndGlyphs" textLength="70" x="29" y="489.0596">nombre: String</text><ellipse cx="20" cy="498.4766" fill="none" rx="3" ry="3" style="stroke: #038048; stroke-width: 1.0;"/><text fill="#000000" font-family="sans-serif" font-size="11" lengthAdjust="spacingAndGlyphs" textLength="123" x="29" y="502.8955">facultadCarrera: Facultad</text><polygon fill="none" points="20,507.3125,24,511.3125,20,515.3125,16,511.3125" style="stroke: #B38D22; stroke-width: 1.0;"/><text fill="#000000" font-family="sans-serif" font-size="11" lengthAdjust="spacingAndGlyphs" textLength="100" x="29" y="516.7314">departamento: String</text><rect fill="none" height="6" style="stroke: #C82930; stroke-width: 1.0;" width="6" x="17" y="523.1484"/><text fill="#000000" font-family="sans-serif" font-size="11" lengthAdjust="spacingAndGlyphs" text-decoration="underline" textLength="194" x="29" y="530.5674">nuevoListaEstudiantes: List&lt;Estudiante&gt;</text><line style="stroke: #A80036; stroke-width: 1.5;" x1="10" x2="228" y1="536.9844" y2="536.9844"/><ellipse cx="20" cy="547.9844" fill="#84BE84" rx="3" ry="3" style="stroke: #038048; stroke-width: 1.0;"/><text fill="#000000" font-family="sans-serif" font-size="11" lengthAdjust="spacingAndGlyphs" textLength="65" x="29" y="552.4033">darFacultad()</text><ellipse cx="20" cy="561.8203" fill="#84BE84" rx="3" ry="3" style="stroke: #038048; stroke-width: 1.0;"/><text fill="#000000" font-family="sans-serif" font-size="11" lengthAdjust="spacingAndGlyphs" textLength="87" x="29" y="566.2393">cambiarFacultad()</text><ellipse cx="20" cy="575.6563" fill="#84BE84" rx="3" ry="3" style="stroke: #038048; stroke-width: 1.0;"/><text fill="#000000" font-family="sans-serif" font-size="11" lengthAdjust="spacingAndGlyphs" textLength="91" x="29" y="580.0752">darDepartamento()</text><ellipse cx="20" cy="589.4922" fill="#84BE84" rx="3" ry="3" style="stroke: #038048; stroke-width: 1.0;"/><text fill="#000000" font-family="sans-serif" font-size="11" lengthAdjust="spacingAndGlyphs" textLength="113" x="29" y="593.9111">cambiarDepartamento()</text><rect fill="#F24D5C" height="6" style="stroke: #C82930; stroke-width: 1.0;" width="6" x="17" y="600.3281"/><text fill="#000000" font-family="sans-serif" font-size="11" lengthAdjust="spacingAndGlyphs" text-decoration="underline" textLength="61" x="29" y="607.7471">darNombre()</text><polygon fill="#FFFF44" points="20,612.1641,24,616.1641,20,620.1641,16,616.1641" style="stroke: #B38D22; stroke-width: 1.0;"/><text fill="#000000" font-family="sans-serif" font-size="11" lengthAdjust="spacingAndGlyphs" textLength="83" x="29" y="621.583">cambiarNombre()</text><ellipse cx="20" cy="631" fill="#84BE84" rx="3" ry="3" style="stroke: #038048; stroke-width: 1.0;"/><text fill="#000000" font-family="sans-serif" font-size="11" lengthAdjust="spacingAndGlyphs" textLength="80" x="29" y="635.4189">darEstudiantes()</text><ellipse cx="20" cy="644.8359" fill="#84BE84" rx="3" ry="3" style="stroke: #038048; stroke-width: 1.0;"/><text fill="#000000" font-family="sans-serif" font-size="11" lengthAdjust="spacingAndGlyphs" textLength="102" x="29" y="649.2549">cambiarEstudiantes()</text><ellipse cx="20" cy="658.6719" fill="#84BE84" rx="3" ry="3" style="stroke: #038048; stroke-width: 1.0;"/><text fill="#000000" font-family="sans-serif" font-size="11" lengthAdjust="spacingAndGlyphs" textLength="45" x="29" y="663.0908">toString()</text><!--MD5=[65835a3a2bdb2031294d10df0140fef3]
reverse link Carrera to Estudiante--><path d="M132.041,428.2416 C132.34,413.0676 132.493,397.3696 132.5,381.6606 " fill="none" id="Carrera&lt;-Estudiante" style="stroke: #A80036; stroke-width: 1.0;"/><polygon fill="#FFFFFF" points="131.739,441.4296,135.8751,435.5226,132.0133,429.4328,127.8772,435.3398,131.739,441.4296" style="stroke: #A80036; stroke-width: 1.0;"/><!--MD5=[4681c84f934762fb64b6b91949434067]
reverse link Estudiante to Carrera--><path d="M106.2885,394.9746 C106.3738,410.7946 106.6004,426.4556 106.9684,441.4296 " fill="none" id="Estudiante&lt;-Carrera" style="stroke: #A80036; stroke-width: 1.0;"/><polygon fill="#FFFFFF" points="106.2502,381.6606,102.268,387.6725,106.2858,393.6606,110.268,387.6487,106.2502,381.6606" style="stroke: #A80036; stroke-width: 1.0;"/><!--MD5=[1b5b6959a690eaa16f9e04940d5507dd]
@startuml
title Class diagram
class Estudiante{
	-codigo: String
	-correo: String
	-nombre: String
	-apellido: String
	-carreraEstudiante: Carrera
	-gruposEstudiante: List<Grupo>
	-notasEstudiante: List<Nota>
	+darCodigo()
	+cambiarCodigo()
	+darCorreo()
	+cambiarCorreo()
	+darNombre()
	+cambiarNombre()
	+darApellido()
	+cambiarApellido()
	+darCarrera()
	+cambiarCarrera()
	+darGrupos()
	+cambiarGrupos()
	+darNota()
	+cambiarNotas()
	+toString()
}
class Carrera{
	-nombre: String
	+facultadCarrera: Facultad
	#departamento: String
	-{static}nuevoListaEstudiantes: List<Estudiante>
	+darFacultad()
	+cambiarFacultad()
	+darDepartamento()
	+cambiarDepartamento()
	-{static}darNombre()
	#cambiarNombre()
	+darEstudiantes()
	+cambiarEstudiantes()
	+toString()
}
Carrera o- - Estudiante
Estudiante o- - Carrera
@enduml

PlantUML version 1.2020.14(Sat Jun 20 09:14:34 COT 2020)
(GPL source distribution)
Java Runtime: Java(TM) SE Runtime Environment
JVM: Java HotSpot(TM) 64-Bit Server VM
Default Encoding: UTF-8
Language: es
Country: CO
--></g></svg>