<?xml version="1.0" encoding="UTF-8" standalone="no"?><svg xmlns="http://www.w3.org/2000/svg" xmlns:xlink="http://www.w3.org/1999/xlink" contentScriptType="application/ecmascript" contentStyleType="text/css" height="497px" preserveAspectRatio="none" style="width:183px;height:497px;" version="1.1" viewBox="0 0 183 497" width="183px" zoomAndPan="magnify"><defs><filter height="300%" id="f1v94yd7br2x11" width="300%" x="-1" y="-1"><feGaussianBlur result="blurOut" stdDeviation="2.0"/><feColorMatrix in="blurOut" result="blurOut2" type="matrix" values="0 0 0 0 0 0 0 0 0 0 0 0 0 0 0 0 0 0 .4 0"/><feOffset dx="4.0" dy="4.0" in="blurOut2" result="blurOut3"/><feBlend in="SourceGraphic" in2="blurOut3" mode="normal"/></filter></defs><g><!--MD5=[d0da0a299942266ebd64acf2b2e95fa4]
class Subject--><rect fill="#FEFECE" filter="url(#f1v94yd7br2x11)" height="103.3438" id="Subject" style="stroke: #A80036; stroke-width: 1.5;" width="113" x="29" y="7"/><ellipse cx="61.55" cy="23" fill="#B4A7E5" rx="11" ry="11" style="stroke: #A80036; stroke-width: 1.0;"/><path d="M62.5031,19.6406 L62.5031,26.2969 L64.2219,26.2969 Q64.8313,26.2969 65.0969,26.5313 Q65.3625,26.7656 65.3625,27.1563 Q65.3625,27.5313 65.0969,27.7656 Q64.8313,28 64.2219,28 L59.0813,28 Q58.4719,28 58.2063,27.7656 Q57.9406,27.5313 57.9406,27.1406 Q57.9406,26.7656 58.2063,26.5313 Q58.4719,26.2969 59.0813,26.2969 L60.8,26.2969 L60.8,19.6406 L59.0813,19.6406 Q58.4719,19.6406 58.2063,19.4063 Q57.9406,19.1719 57.9406,18.7813 Q57.9406,18.4063 58.2063,18.1719 Q58.4719,17.9375 59.0813,17.9375 L64.2219,17.9375 Q64.8313,17.9375 65.0969,18.1719 Q65.3625,18.4063 65.3625,18.7813 Q65.3625,19.1719 65.0969,19.4063 Q64.8313,19.6406 64.2219,19.6406 L62.5031,19.6406 Z "/><text fill="#000000" font-family="sans-serif" font-size="12" font-style="italic" lengthAdjust="spacingAndGlyphs" textLength="42" x="79.45" y="27.9102">Subject</text><line style="stroke: #A80036; stroke-width: 1.5;" x1="30" x2="141" y1="39" y2="39"/><line style="stroke: #A80036; stroke-width: 1.5;" x1="30" x2="141" y1="47" y2="47"/><ellipse cx="40" cy="58" fill="#84BE84" rx="3" ry="3" style="stroke: #038048; stroke-width: 1.0;"/><text fill="#000000" font-family="sans-serif" font-size="11" lengthAdjust="spacingAndGlyphs" textLength="45" x="49" y="62.4189">register()</text><ellipse cx="40" cy="71.8359" fill="#84BE84" rx="3" ry="3" style="stroke: #038048; stroke-width: 1.0;"/><text fill="#000000" font-family="sans-serif" font-size="11" lengthAdjust="spacingAndGlyphs" textLength="57" x="49" y="76.2549">unregister()</text><ellipse cx="40" cy="85.6719" fill="#84BE84" rx="3" ry="3" style="stroke: #038048; stroke-width: 1.0;"/><text fill="#000000" font-family="sans-serif" font-size="11" lengthAdjust="spacingAndGlyphs" textLength="87" x="49" y="90.0908">notifyObservers()</text><ellipse cx="40" cy="99.5078" fill="#84BE84" rx="3" ry="3" style="stroke: #038048; stroke-width: 1.0;"/><text fill="#000000" font-family="sans-serif" font-size="11" lengthAdjust="spacingAndGlyphs" textLength="57" x="49" y="103.9268">getUpdate()</text><!--MD5=[d40932010816485ec57b44b6eea2392a]
class Observer--><rect fill="#FEFECE" filter="url(#f1v94yd7br2x11)" height="75.6719" id="Observer" style="stroke: #A80036; stroke-width: 1.5;" width="85" x="43" y="403"/><ellipse cx="58.9" cy="419" fill="#B4A7E5" rx="11" ry="11" style="stroke: #A80036; stroke-width: 1.0;"/><path d="M59.8531,415.6406 L59.8531,422.2969 L61.5719,422.2969 Q62.1813,422.2969 62.4469,422.5313 Q62.7125,422.7656 62.7125,423.1563 Q62.7125,423.5313 62.4469,423.7656 Q62.1813,424 61.5719,424 L56.4313,424 Q55.8219,424 55.5563,423.7656 Q55.2906,423.5313 55.2906,423.1406 Q55.2906,422.7656 55.5563,422.5313 Q55.8219,422.2969 56.4313,422.2969 L58.15,422.2969 L58.15,415.6406 L56.4313,415.6406 Q55.8219,415.6406 55.5563,415.4063 Q55.2906,415.1719 55.2906,414.7813 Q55.2906,414.4063 55.5563,414.1719 Q55.8219,413.9375 56.4313,413.9375 L61.5719,413.9375 Q62.1813,413.9375 62.4469,414.1719 Q62.7125,414.4063 62.7125,414.7813 Q62.7125,415.1719 62.4469,415.4063 Q62.1813,415.6406 61.5719,415.6406 L59.8531,415.6406 Z "/><text fill="#000000" font-family="sans-serif" font-size="12" font-style="italic" lengthAdjust="spacingAndGlyphs" textLength="51" x="73.1" y="423.9102">Observer</text><line style="stroke: #A80036; stroke-width: 1.5;" x1="44" x2="127" y1="435" y2="435"/><line style="stroke: #A80036; stroke-width: 1.5;" x1="44" x2="127" y1="443" y2="443"/><ellipse cx="54" cy="454" fill="#84BE84" rx="3" ry="3" style="stroke: #038048; stroke-width: 1.0;"/><text fill="#000000" font-family="sans-serif" font-size="11" lengthAdjust="spacingAndGlyphs" textLength="41" x="63" y="458.4189">update()</text><ellipse cx="54" cy="467.8359" fill="#84BE84" rx="3" ry="3" style="stroke: #038048; stroke-width: 1.0;"/><text fill="#000000" font-family="sans-serif" font-size="11" lengthAdjust="spacingAndGlyphs" textLength="59" x="63" y="472.2549">setSubject()</text><!--MD5=[a2d0adf9aada2d6cd58dac6cd3c62a40]
class MyTopic--><rect fill="#FEFECE" filter="url(#f1v94yd7br2x11)" height="172.5234" id="MyTopic" style="stroke: #A80036; stroke-width: 1.5;" width="157" x="7" y="170"/><ellipse cx="59.25" cy="186" fill="#ADD1B2" rx="11" ry="11" style="stroke: #A80036; stroke-width: 1.0;"/><path d="M62.0156,181.875 Q62.1719,181.6563 62.3594,181.5469 Q62.5469,181.4375 62.7656,181.4375 Q63.1406,181.4375 63.375,181.6953 Q63.6094,181.9531 63.6094,182.5625 L63.6094,184.0156 Q63.6094,184.625 63.375,184.8906 Q63.1406,185.1563 62.7656,185.1563 Q62.4219,185.1563 62.2188,184.9531 Q62.0156,184.7656 61.9063,184.25 Q61.8594,183.8906 61.6719,183.7031 Q61.3438,183.3281 60.7344,183.1094 Q60.125,182.8906 59.5,182.8906 Q58.7344,182.8906 58.1016,183.2188 Q57.4688,183.5469 56.9766,184.2969 Q56.4844,185.0469 56.4844,186.0781 L56.4844,187.1719 Q56.4844,188.4063 57.375,189.2266 Q58.2656,190.0469 59.8594,190.0469 Q60.7969,190.0469 61.4531,189.7969 Q61.8438,189.6406 62.2656,189.2031 Q62.5313,188.9375 62.6797,188.8594 Q62.8281,188.7813 63.0313,188.7813 Q63.3594,188.7813 63.6172,189.0391 Q63.875,189.2969 63.875,189.6406 Q63.875,189.9844 63.5313,190.3906 Q63.0313,190.9688 62.2344,191.2969 Q61.1563,191.75 59.8594,191.75 Q58.3438,191.75 57.1406,191.125 Q56.1563,190.625 55.4688,189.5547 Q54.7813,188.4844 54.7813,187.2031 L54.7813,186.0469 Q54.7813,184.7188 55.3984,183.5703 Q56.0156,182.4219 57.1094,181.8047 Q58.2031,181.1875 59.4375,181.1875 Q60.1719,181.1875 60.8203,181.3516 Q61.4688,181.5156 62.0156,181.875 Z "/><text fill="#000000" font-family="sans-serif" font-size="12" lengthAdjust="spacingAndGlyphs" textLength="44" x="79.75" y="190.9102">MyTopic</text><line style="stroke: #A80036; stroke-width: 1.5;" x1="8" x2="163" y1="202" y2="202"/><rect fill="none" height="6" style="stroke: #C82930; stroke-width: 1.0;" width="6" x="15" y="210"/><text fill="#000000" font-family="sans-serif" font-size="11" lengthAdjust="spacingAndGlyphs" textLength="131" x="27" y="217.4189">observers: List&lt;Observer&gt;</text><rect fill="none" height="6" style="stroke: #C82930; stroke-width: 1.0;" width="6" x="15" y="223.8359"/><text fill="#000000" font-family="sans-serif" font-size="11" lengthAdjust="spacingAndGlyphs" textLength="78" x="27" y="231.2549">message: String</text><rect fill="none" height="6" style="stroke: #C82930; stroke-width: 1.0;" width="6" x="15" y="237.6719"/><text fill="#000000" font-family="sans-serif" font-size="11" lengthAdjust="spacingAndGlyphs" textLength="86" x="27" y="245.0908">changed: boolean</text><rect fill="none" height="6" style="stroke: #C82930; stroke-width: 1.0;" width="6" x="15" y="251.5078"/><text fill="#000000" font-family="sans-serif" font-size="11" lengthAdjust="spacingAndGlyphs" textLength="71" x="27" y="258.9268">MUTEX: Object</text><line style="stroke: #A80036; stroke-width: 1.5;" x1="8" x2="163" y1="265.3438" y2="265.3438"/><ellipse cx="18" cy="276.3438" fill="#84BE84" rx="3" ry="3" style="stroke: #038048; stroke-width: 1.0;"/><text fill="#000000" font-family="sans-serif" font-size="11" lengthAdjust="spacingAndGlyphs" textLength="45" x="27" y="280.7627">register()</text><ellipse cx="18" cy="290.1797" fill="#84BE84" rx="3" ry="3" style="stroke: #038048; stroke-width: 1.0;"/><text fill="#000000" font-family="sans-serif" font-size="11" lengthAdjust="spacingAndGlyphs" textLength="57" x="27" y="294.5986">unregister()</text><ellipse cx="18" cy="304.0156" fill="#84BE84" rx="3" ry="3" style="stroke: #038048; stroke-width: 1.0;"/><text fill="#000000" font-family="sans-serif" font-size="11" lengthAdjust="spacingAndGlyphs" textLength="87" x="27" y="308.4346">notifyObservers()</text><ellipse cx="18" cy="317.8516" fill="#84BE84" rx="3" ry="3" style="stroke: #038048; stroke-width: 1.0;"/><text fill="#000000" font-family="sans-serif" font-size="11" lengthAdjust="spacingAndGlyphs" textLength="57" x="27" y="322.2705">getUpdate()</text><ellipse cx="18" cy="331.6875" fill="#84BE84" rx="3" ry="3" style="stroke: #038048; stroke-width: 1.0;"/><text fill="#000000" font-family="sans-serif" font-size="11" lengthAdjust="spacingAndGlyphs" textLength="73" x="27" y="336.1064">postMessage()</text><!--MD5=[51fd7c9884d568404fb8370aa83df625]
link MyTopic to Observer--><path d="M85.5,343.139 C85.5,361.943 85.5,381.0665 85.5,397.2983 " fill="none" id="MyTopic-&gt;Observer" style="stroke: #A80036; stroke-width: 1.0;"/><polygon fill="#A80036" points="85.5,402.6875,89.5,393.6875,85.5,397.6875,81.5,393.6875,85.5,402.6875" style="stroke: #A80036; stroke-width: 1.0;"/><!--MD5=[3ac4c13577018fcb6005f58d382ede4a]
reverse link Subject to MyTopic--><path d="M85.5,130.271 C85.5,143.051 85.5,156.502 85.5,169.656 " fill="none" id="Subject&lt;-MyTopic" style="stroke: #A80036; stroke-width: 1.0; stroke-dasharray: 7.0,7.0;"/><polygon fill="none" points="78.5001,130.23,85.5,110.23,92.5001,130.23,78.5001,130.23" style="stroke: #A80036; stroke-width: 1.0;"/><!--MD5=[d6a05e3e74bb594545707c7365a0b515]
@startuml
Interface Subject{
	+register()
	+unregister()
	+notifyObservers()
	+getUpdate()
}
Interface Observer{
	+update()
	+setSubject()
}
class MyTopic{
	-observers: List<Observer>
	-message: String
	-changed: boolean
	-MUTEX: Object
	+register()
	+unregister()
	+notifyObservers()
	+getUpdate()
	+postMessage()
}
MyTopic - -> Observer
MyTopic .up.|> Subject
@enduml

PlantUML version 1.2020.14(Sat Jun 20 09:14:34 COT 2020)
(GPL source distribution)
Java Runtime: Java(TM) SE Runtime Environment
JVM: Java HotSpot(TM) 64-Bit Server VM
Default Encoding: UTF-8
Language: es
Country: CO
--></g></svg>