<?xml version="1.0" encoding="UTF-8" standalone="no"?><svg xmlns="http://www.w3.org/2000/svg" xmlns:xlink="http://www.w3.org/1999/xlink" contentScriptType="application/ecmascript" contentStyleType="text/css" height="666px" preserveAspectRatio="none" style="width:248px;height:666px;" version="1.1" viewBox="0 0 248 666" width="248px" zoomAndPan="magnify"><defs><filter height="300%" id="ff8q1uyxe9fb0" width="300%" x="-1" y="-1"><feGaussianBlur result="blurOut" stdDeviation="2.0"/><feColorMatrix in="blurOut" result="blurOut2" type="matrix" values="0 0 0 0 0 0 0 0 0 0 0 0 0 0 0 0 0 0 .4 0"/><feOffset dx="4.0" dy="4.0" in="blurOut2" result="blurOut3"/><feBlend in="SourceGraphic" in2="blurOut3" mode="normal"/></filter></defs><g><!--MD5=[6c12453d355242fc13a0fab73bb902ea]
class Carrera--><rect fill="#FEFECE" filter="url(#ff8q1uyxe9fb0)" height="227.8672" id="Carrera" style="stroke: #A80036; stroke-width: 1.5;" width="220" x="9" y="7"/><ellipse cx="93.75" cy="23" fill="#ADD1B2" rx="11" ry="11" style="stroke: #A80036; stroke-width: 1.0;"/><path d="M96.5156,18.875 Q96.6719,18.6563 96.8594,18.5469 Q97.0469,18.4375 97.2656,18.4375 Q97.6406,18.4375 97.875,18.6953 Q98.1094,18.9531 98.1094,19.5625 L98.1094,21.0156 Q98.1094,21.625 97.875,21.8906 Q97.6406,22.1563 97.2656,22.1563 Q96.9219,22.1563 96.7188,21.9531 Q96.5156,21.7656 96.4063,21.25 Q96.3594,20.8906 96.1719,20.7031 Q95.8438,20.3281 95.2344,20.1094 Q94.625,19.8906 94,19.8906 Q93.2344,19.8906 92.6016,20.2188 Q91.9688,20.5469 91.4766,21.2969 Q90.9844,22.0469 90.9844,23.0781 L90.9844,24.1719 Q90.9844,25.4063 91.875,26.2266 Q92.7656,27.0469 94.3594,27.0469 Q95.2969,27.0469 95.9531,26.7969 Q96.3438,26.6406 96.7656,26.2031 Q97.0313,25.9375 97.1797,25.8594 Q97.3281,25.7813 97.5313,25.7813 Q97.8594,25.7813 98.1172,26.0391 Q98.375,26.2969 98.375,26.6406 Q98.375,26.9844 98.0313,27.3906 Q97.5313,27.9688 96.7344,28.2969 Q95.6563,28.75 94.3594,28.75 Q92.8438,28.75 91.6406,28.125 Q90.6563,27.625 89.9688,26.5547 Q89.2813,25.4844 89.2813,24.2031 L89.2813,23.0469 Q89.2813,21.7188 89.8984,20.5703 Q90.5156,19.4219 91.6094,18.8047 Q92.7031,18.1875 93.9375,18.1875 Q94.6719,18.1875 95.3203,18.3516 Q95.9688,18.5156 96.5156,18.875 Z "/><text fill="#000000" font-family="sans-serif" font-size="12" lengthAdjust="spacingAndGlyphs" textLength="42" x="114.25" y="27.9102">Carrera</text><line style="stroke: #A80036; stroke-width: 1.5;" x1="10" x2="228" y1="39" y2="39"/><rect fill="none" height="6" style="stroke: #C82930; stroke-width: 1.0;" width="6" x="17" y="47"/><text fill="#000000" font-family="sans-serif" font-size="11" lengthAdjust="spacingAndGlyphs" textLength="70" x="29" y="54.4189">nombre: String</text><ellipse cx="20" cy="63.8359" fill="none" rx="3" ry="3" style="stroke: #038048; stroke-width: 1.0;"/><text fill="#000000" font-family="sans-serif" font-size="11" lengthAdjust="spacingAndGlyphs" textLength="123" x="29" y="68.2549">facultadCarrera: Facultad</text><polygon fill="none" points="20,72.6719,24,76.6719,20,80.6719,16,76.6719" style="stroke: #B38D22; stroke-width: 1.0;"/><text fill="#000000" font-family="sans-serif" font-size="11" lengthAdjust="spacingAndGlyphs" textLength="100" x="29" y="82.0908">departamento: String</text><rect fill="none" height="6" style="stroke: #C82930; stroke-width: 1.0;" width="6" x="17" y="88.5078"/><text fill="#000000" font-family="sans-serif" font-size="11" lengthAdjust="spacingAndGlyphs" text-decoration="underline" textLength="194" x="29" y="95.9268">nuevoListaEstudiantes: List&lt;Estudiante&gt;</text><line style="stroke: #A80036; stroke-width: 1.5;" x1="10" x2="228" y1="102.3438" y2="102.3438"/><ellipse cx="20" cy="113.3438" fill="#84BE84" rx="3" ry="3" style="stroke: #038048; stroke-width: 1.0;"/><text fill="#000000" font-family="sans-serif" font-size="11" lengthAdjust="spacingAndGlyphs" textLength="65" x="29" y="117.7627">darFacultad()</text><ellipse cx="20" cy="127.1797" fill="#84BE84" rx="3" ry="3" style="stroke: #038048; stroke-width: 1.0;"/><text fill="#000000" font-family="sans-serif" font-size="11" lengthAdjust="spacingAndGlyphs" textLength="87" x="29" y="131.5986">cambiarFacultad()</text><ellipse cx="20" cy="141.0156" fill="#84BE84" rx="3" ry="3" style="stroke: #038048; stroke-width: 1.0;"/><text fill="#000000" font-family="sans-serif" font-size="11" lengthAdjust="spacingAndGlyphs" textLength="91" x="29" y="145.4346">darDepartamento()</text><ellipse cx="20" cy="154.8516" fill="#84BE84" rx="3" ry="3" style="stroke: #038048; stroke-width: 1.0;"/><text fill="#000000" font-family="sans-serif" font-size="11" lengthAdjust="spacingAndGlyphs" textLength="113" x="29" y="159.2705">cambiarDepartamento()</text><rect fill="#F24D5C" height="6" style="stroke: #C82930; stroke-width: 1.0;" width="6" x="17" y="165.6875"/><text fill="#000000" font-family="sans-serif" font-size="11" lengthAdjust="spacingAndGlyphs" text-decoration="underline" textLength="61" x="29" y="173.1064">darNombre()</text><polygon fill="#FFFF44" points="20,177.5234,24,181.5234,20,185.5234,16,181.5234" style="stroke: #B38D22; stroke-width: 1.0;"/><text fill="#000000" font-family="sans-serif" font-size="11" lengthAdjust="spacingAndGlyphs" textLength="83" x="29" y="186.9424">cambiarNombre()</text><ellipse cx="20" cy="196.3594" fill="#84BE84" rx="3" ry="3" style="stroke: #038048; stroke-width: 1.0;"/><text fill="#000000" font-family="sans-serif" font-size="11" lengthAdjust="spacingAndGlyphs" textLength="80" x="29" y="200.7783">darEstudiantes()</text><ellipse cx="20" cy="210.1953" fill="#84BE84" rx="3" ry="3" style="stroke: #038048; stroke-width: 1.0;"/><text fill="#000000" font-family="sans-serif" font-size="11" lengthAdjust="spacingAndGlyphs" textLength="102" x="29" y="214.6143">cambiarEstudiantes()</text><ellipse cx="20" cy="224.0313" fill="#84BE84" rx="3" ry="3" style="stroke: #038048; stroke-width: 1.0;"/><text fill="#000000" font-family="sans-serif" font-size="11" lengthAdjust="spacingAndGlyphs" textLength="45" x="29" y="228.4502">toString()</text><!--MD5=[9196e7f5424c8ba52e10312e1fe81956]
class Estudiante--><rect fill="#FEFECE" filter="url(#ff8q1uyxe9fb0)" height="352.3906" id="Estudiante" style="stroke: #A80036; stroke-width: 1.5;" width="175" x="31.5" y="295"/><ellipse cx="85.25" cy="311" fill="#ADD1B2" rx="11" ry="11" style="stroke: #A80036; stroke-width: 1.0;"/><path d="M88.0156,306.875 Q88.1719,306.6563 88.3594,306.5469 Q88.5469,306.4375 88.7656,306.4375 Q89.1406,306.4375 89.375,306.6953 Q89.6094,306.9531 89.6094,307.5625 L89.6094,309.0156 Q89.6094,309.625 89.375,309.8906 Q89.1406,310.1563 88.7656,310.1563 Q88.4219,310.1563 88.2188,309.9531 Q88.0156,309.7656 87.9063,309.25 Q87.8594,308.8906 87.6719,308.7031 Q87.3438,308.3281 86.7344,308.1094 Q86.125,307.8906 85.5,307.8906 Q84.7344,307.8906 84.1016,308.2188 Q83.4688,308.5469 82.9766,309.2969 Q82.4844,310.0469 82.4844,311.0781 L82.4844,312.1719 Q82.4844,313.4063 83.375,314.2266 Q84.2656,315.0469 85.8594,315.0469 Q86.7969,315.0469 87.4531,314.7969 Q87.8438,314.6406 88.2656,314.2031 Q88.5313,313.9375 88.6797,313.8594 Q88.8281,313.7813 89.0313,313.7813 Q89.3594,313.7813 89.6172,314.0391 Q89.875,314.2969 89.875,314.6406 Q89.875,314.9844 89.5313,315.3906 Q89.0313,315.9688 88.2344,316.2969 Q87.1563,316.75 85.8594,316.75 Q84.3438,316.75 83.1406,316.125 Q82.1563,315.625 81.4688,314.5547 Q80.7813,313.4844 80.7813,312.2031 L80.7813,311.0469 Q80.7813,309.7188 81.3984,308.5703 Q82.0156,307.4219 83.1094,306.8047 Q84.2031,306.1875 85.4375,306.1875 Q86.1719,306.1875 86.8203,306.3516 Q87.4688,306.5156 88.0156,306.875 Z "/><text fill="#000000" font-family="sans-serif" font-size="12" lengthAdjust="spacingAndGlyphs" textLength="59" x="105.75" y="315.9102">Estudiante</text><line style="stroke: #A80036; stroke-width: 1.5;" x1="32.5" x2="205.5" y1="327" y2="327"/><rect fill="none" height="6" style="stroke: #C82930; stroke-width: 1.0;" width="6" x="39.5" y="335"/><text fill="#000000" font-family="sans-serif" font-size="11" lengthAdjust="spacingAndGlyphs" textLength="66" x="51.5" y="342.4189">codigo: String</text><rect fill="none" height="6" style="stroke: #C82930; stroke-width: 1.0;" width="6" x="39.5" y="348.8359"/><text fill="#000000" font-family="sans-serif" font-size="11" lengthAdjust="spacingAndGlyphs" textLength="66" x="51.5" y="356.2549">correo: String</text><rect fill="none" height="6" style="stroke: #C82930; stroke-width: 1.0;" width="6" x="39.5" y="362.6719"/><text fill="#000000" font-family="sans-serif" font-size="11" lengthAdjust="spacingAndGlyphs" textLength="70" x="51.5" y="370.0908">nombre: String</text><rect fill="none" height="6" style="stroke: #C82930; stroke-width: 1.0;" width="6" x="39.5" y="376.5078"/><text fill="#000000" font-family="sans-serif" font-size="11" lengthAdjust="spacingAndGlyphs" textLength="70" x="51.5" y="383.9268">apellido: String</text><rect fill="none" height="6" style="stroke: #C82930; stroke-width: 1.0;" width="6" x="39.5" y="390.3438"/><text fill="#000000" font-family="sans-serif" font-size="11" lengthAdjust="spacingAndGlyphs" textLength="129" x="51.5" y="397.7627">carreraEstudiante: Carrera</text><rect fill="none" height="6" style="stroke: #C82930; stroke-width: 1.0;" width="6" x="39.5" y="404.1797"/><text fill="#000000" font-family="sans-serif" font-size="11" lengthAdjust="spacingAndGlyphs" textLength="149" x="51.5" y="411.5986">gruposEstudiante: List&lt;Grupo&gt;</text><rect fill="none" height="6" style="stroke: #C82930; stroke-width: 1.0;" width="6" x="39.5" y="418.0156"/><text fill="#000000" font-family="sans-serif" font-size="11" lengthAdjust="spacingAndGlyphs" textLength="134" x="51.5" y="425.4346">notasEstudiante: List&lt;Nota&gt;</text><line style="stroke: #A80036; stroke-width: 1.5;" x1="32.5" x2="205.5" y1="431.8516" y2="431.8516"/><ellipse cx="42.5" cy="442.8516" fill="#84BE84" rx="3" ry="3" style="stroke: #038048; stroke-width: 1.0;"/><text fill="#000000" font-family="sans-serif" font-size="11" lengthAdjust="spacingAndGlyphs" textLength="57" x="51.5" y="447.2705">darCodigo()</text><ellipse cx="42.5" cy="456.6875" fill="#84BE84" rx="3" ry="3" style="stroke: #038048; stroke-width: 1.0;"/><text fill="#000000" font-family="sans-serif" font-size="11" lengthAdjust="spacingAndGlyphs" textLength="79" x="51.5" y="461.1064">cambiarCodigo()</text><ellipse cx="42.5" cy="470.5234" fill="#84BE84" rx="3" ry="3" style="stroke: #038048; stroke-width: 1.0;"/><text fill="#000000" font-family="sans-serif" font-size="11" lengthAdjust="spacingAndGlyphs" textLength="57" x="51.5" y="474.9424">darCorreo()</text><ellipse cx="42.5" cy="484.3594" fill="#84BE84" rx="3" ry="3" style="stroke: #038048; stroke-width: 1.0;"/><text fill="#000000" font-family="sans-serif" font-size="11" lengthAdjust="spacingAndGlyphs" textLength="79" x="51.5" y="488.7783">cambiarCorreo()</text><ellipse cx="42.5" cy="498.1953" fill="#84BE84" rx="3" ry="3" style="stroke: #038048; stroke-width: 1.0;"/><text fill="#000000" font-family="sans-serif" font-size="11" lengthAdjust="spacingAndGlyphs" textLength="61" x="51.5" y="502.6143">darNombre()</text><ellipse cx="42.5" cy="512.0313" fill="#84BE84" rx="3" ry="3" style="stroke: #038048; stroke-width: 1.0;"/><text fill="#000000" font-family="sans-serif" font-size="11" lengthAdjust="spacingAndGlyphs" textLength="83" x="51.5" y="516.4502">cambiarNombre()</text><ellipse cx="42.5" cy="525.8672" fill="#84BE84" rx="3" ry="3" style="stroke: #038048; stroke-width: 1.0;"/><text fill="#000000" font-family="sans-serif" font-size="11" lengthAdjust="spacingAndGlyphs" textLength="62" x="51.5" y="530.2861">darApellido()</text><ellipse cx="42.5" cy="539.7031" fill="#84BE84" rx="3" ry="3" style="stroke: #038048; stroke-width: 1.0;"/><text fill="#000000" font-family="sans-serif" font-size="11" lengthAdjust="spacingAndGlyphs" textLength="84" x="51.5" y="544.1221">cambiarApellido()</text><ellipse cx="42.5" cy="553.5391" fill="#84BE84" rx="3" ry="3" style="stroke: #038048; stroke-width: 1.0;"/><text fill="#000000" font-family="sans-serif" font-size="11" lengthAdjust="spacingAndGlyphs" textLength="61" x="51.5" y="557.958">darCarrera()</text><ellipse cx="42.5" cy="567.375" fill="#84BE84" rx="3" ry="3" style="stroke: #038048; stroke-width: 1.0;"/><text fill="#000000" font-family="sans-serif" font-size="11" lengthAdjust="spacingAndGlyphs" textLength="83" x="51.5" y="571.7939">cambiarCarrera()</text><ellipse cx="42.5" cy="581.2109" fill="#84BE84" rx="3" ry="3" style="stroke: #038048; stroke-width: 1.0;"/><text fill="#000000" font-family="sans-serif" font-size="11" lengthAdjust="spacingAndGlyphs" textLength="60" x="51.5" y="585.6299">darGrupos()</text><ellipse cx="42.5" cy="595.0469" fill="#84BE84" rx="3" ry="3" style="stroke: #038048; stroke-width: 1.0;"/><text fill="#000000" font-family="sans-serif" font-size="11" lengthAdjust="spacingAndGlyphs" textLength="82" x="51.5" y="599.4658">cambiarGrupos()</text><ellipse cx="42.5" cy="608.8828" fill="#84BE84" rx="3" ry="3" style="stroke: #038048; stroke-width: 1.0;"/><text fill="#000000" font-family="sans-serif" font-size="11" lengthAdjust="spacingAndGlyphs" textLength="46" x="51.5" y="613.3018">darNota()</text><ellipse cx="42.5" cy="622.7188" fill="#84BE84" rx="3" ry="3" style="stroke: #038048; stroke-width: 1.0;"/><text fill="#000000" font-family="sans-serif" font-size="11" lengthAdjust="spacingAndGlyphs" textLength="74" x="51.5" y="627.1377">cambiarNotas()</text><ellipse cx="42.5" cy="636.5547" fill="#84BE84" rx="3" ry="3" style="stroke: #038048; stroke-width: 1.0;"/><text fill="#000000" font-family="sans-serif" font-size="11" lengthAdjust="spacingAndGlyphs" textLength="45" x="51.5" y="640.9736">toString()</text><!--MD5=[65835a3a2bdb2031294d10df0140fef3]
reverse link Carrera to Estudiante--><path d="M106.6808,248.566 C106.4006,263.638 106.2571,279.223 106.2503,294.821 " fill="none" id="Carrera&lt;-Estudiante" style="stroke: #A80036; stroke-width: 1.0;"/><polygon fill="#FFFFFF" points="106.9621,235.467,102.8344,241.3799,106.705,247.4642,110.8326,241.5513,106.9621,235.467" style="stroke: #A80036; stroke-width: 1.0;"/><!--MD5=[4681c84f934762fb64b6b91949434067]
reverse link Estudiante to Carrera--><path d="M132.459,281.601 C132.369,265.893 132.131,250.343 131.746,235.467 " fill="none" id="Estudiante&lt;-Carrera" style="stroke: #A80036; stroke-width: 1.0;"/><polygon fill="#FFFFFF" points="132.5,294.821,136.4815,288.8087,132.4631,282.8211,128.4816,288.8333,132.5,294.821" style="stroke: #A80036; stroke-width: 1.0;"/><!--MD5=[7eefb59b7bbdff090f259325490be6d5]
@startuml
class Carrera{
	-nombre: String
	+facultadCarrera: Facultad
	#departamento: String
	-{static}nuevoListaEstudiantes: List<Estudiante>
	+darFacultad()
	+cambiarFacultad()
	+darDepartamento()
	+cambiarDepartamento()
	-{static}darNombre()
	#cambiarNombre()
	+darEstudiantes()
	+cambiarEstudiantes()
	+toString()
}
class Estudiante{
	-codigo: String
	-correo: String
	-nombre: String
	-apellido: String
	-carreraEstudiante: Carrera
	-gruposEstudiante: List<Grupo>
	-notasEstudiante: List<Nota>
	+darCodigo()
	+cambiarCodigo()
	+darCorreo()
	+cambiarCorreo()
	+darNombre()
	+cambiarNombre()
	+darApellido()
	+cambiarApellido()
	+darCarrera()
	+cambiarCarrera()
	+darGrupos()
	+cambiarGrupos()
	+darNota()
	+cambiarNotas()
	+toString()
}
Carrera o- - Estudiante
Estudiante o- - Carrera
@enduml

PlantUML version 1.2020.14(Sat Jun 20 09:14:34 COT 2020)
(GPL source distribution)
Java Runtime: Java(TM) SE Runtime Environment
JVM: Java HotSpot(TM) 64-Bit Server VM
Default Encoding: UTF-8
Language: es
Country: CO
--></g></svg>