<?xml version="1.0" encoding="UTF-8" standalone="no"?><svg xmlns="http://www.w3.org/2000/svg" xmlns:xlink="http://www.w3.org/1999/xlink" contentScriptType="application/ecmascript" contentStyleType="text/css" height="703px" preserveAspectRatio="none" style="width:385px;height:703px;" version="1.1" viewBox="0 0 385 703" width="385px" zoomAndPan="magnify"><defs><filter height="300%" id="f1iexvu4kjpw4w" width="300%" x="-1" y="-1"><feGaussianBlur result="blurOut" stdDeviation="2.0"/><feColorMatrix in="blurOut" result="blurOut2" type="matrix" values="0 0 0 0 0 0 0 0 0 0 0 0 0 0 0 0 0 0 .4 0"/><feOffset dx="4.0" dy="4.0" in="blurOut2" result="blurOut3"/><feBlend in="SourceGraphic" in2="blurOut3" mode="normal"/></filter></defs><g><!--MD5=[1053da7555f32ea3c982e01119b403ff]
class Thing--><rect fill="#FEFECE" filter="url(#f1iexvu4kjpw4w)" height="75.6719" id="Thing" style="stroke: #A80036; stroke-width: 1.5;" width="76" x="97.5" y="7"/><ellipse cx="118.35" cy="23" fill="#B4A7E5" rx="11" ry="11" style="stroke: #A80036; stroke-width: 1.0;"/><path d="M119.3031,19.6406 L119.3031,26.2969 L121.0219,26.2969 Q121.6313,26.2969 121.8969,26.5313 Q122.1625,26.7656 122.1625,27.1563 Q122.1625,27.5313 121.8969,27.7656 Q121.6313,28 121.0219,28 L115.8813,28 Q115.2719,28 115.0063,27.7656 Q114.7406,27.5313 114.7406,27.1406 Q114.7406,26.7656 115.0063,26.5313 Q115.2719,26.2969 115.8813,26.2969 L117.6,26.2969 L117.6,19.6406 L115.8813,19.6406 Q115.2719,19.6406 115.0063,19.4063 Q114.7406,19.1719 114.7406,18.7813 Q114.7406,18.4063 115.0063,18.1719 Q115.2719,17.9375 115.8813,17.9375 L121.0219,17.9375 Q121.6313,17.9375 121.8969,18.1719 Q122.1625,18.4063 122.1625,18.7813 Q122.1625,19.1719 121.8969,19.4063 Q121.6313,19.6406 121.0219,19.6406 L119.3031,19.6406 Z "/><text fill="#000000" font-family="sans-serif" font-size="12" font-style="italic" lengthAdjust="spacingAndGlyphs" textLength="31" x="133.65" y="27.9102">Thing</text><line style="stroke: #A80036; stroke-width: 1.5;" x1="98.5" x2="172.5" y1="39" y2="39"/><line style="stroke: #A80036; stroke-width: 1.5;" x1="98.5" x2="172.5" y1="47" y2="47"/><ellipse cx="108.5" cy="58" fill="#84BE84" rx="3" ry="3" style="stroke: #038048; stroke-width: 1.0;"/><text fill="#000000" font-family="sans-serif" font-size="11" lengthAdjust="spacingAndGlyphs" textLength="50" x="117.5" y="62.4189">getName()</text><ellipse cx="108.5" cy="71.8359" fill="#84BE84" rx="3" ry="3" style="stroke: #038048; stroke-width: 1.0;"/><text fill="#000000" font-family="sans-serif" font-size="11" lengthAdjust="spacingAndGlyphs" textLength="44" x="117.5" y="76.2549">doStuff()</text><!--MD5=[09ce52be0ee7de43c61b6e2d59bf108b]
class Person--><rect fill="#FEFECE" filter="url(#f1iexvu4kjpw4w)" height="75.6719" id="Person" style="stroke: #A80036; stroke-width: 1.5;" width="76" x="97.5" y="143"/><ellipse cx="114.75" cy="159" fill="#B4A7E5" rx="11" ry="11" style="stroke: #A80036; stroke-width: 1.0;"/><path d="M115.7031,155.6406 L115.7031,162.2969 L117.4219,162.2969 Q118.0313,162.2969 118.2969,162.5313 Q118.5625,162.7656 118.5625,163.1563 Q118.5625,163.5313 118.2969,163.7656 Q118.0313,164 117.4219,164 L112.2813,164 Q111.6719,164 111.4063,163.7656 Q111.1406,163.5313 111.1406,163.1406 Q111.1406,162.7656 111.4063,162.5313 Q111.6719,162.2969 112.2813,162.2969 L114,162.2969 L114,155.6406 L112.2813,155.6406 Q111.6719,155.6406 111.4063,155.4063 Q111.1406,155.1719 111.1406,154.7813 Q111.1406,154.4063 111.4063,154.1719 Q111.6719,153.9375 112.2813,153.9375 L117.4219,153.9375 Q118.0313,153.9375 118.2969,154.1719 Q118.5625,154.4063 118.5625,154.7813 Q118.5625,155.1719 118.2969,155.4063 Q118.0313,155.6406 117.4219,155.6406 L115.7031,155.6406 Z "/><text fill="#000000" font-family="sans-serif" font-size="12" font-style="italic" lengthAdjust="spacingAndGlyphs" textLength="39" x="129.25" y="163.9102">Person</text><line style="stroke: #A80036; stroke-width: 1.5;" x1="98.5" x2="172.5" y1="175" y2="175"/><line style="stroke: #A80036; stroke-width: 1.5;" x1="98.5" x2="172.5" y1="183" y2="183"/><ellipse cx="108.5" cy="194" fill="#84BE84" rx="3" ry="3" style="stroke: #038048; stroke-width: 1.0;"/><text fill="#000000" font-family="sans-serif" font-size="11" lengthAdjust="spacingAndGlyphs" textLength="50" x="117.5" y="198.4189">getName()</text><ellipse cx="108.5" cy="207.8359" fill="#84BE84" rx="3" ry="3" style="stroke: #038048; stroke-width: 1.0;"/><text fill="#000000" font-family="sans-serif" font-size="11" lengthAdjust="spacingAndGlyphs" textLength="44" x="117.5" y="212.2549">doStuff()</text><!--MD5=[7b5bd88a8a025decccf0c9eac4aaabe9]
class Worker--><rect fill="#FEFECE" filter="url(#f1iexvu4kjpw4w)" height="75.6719" id="Worker" style="stroke: #A80036; stroke-width: 1.5;" width="74" x="208.5" y="143"/><ellipse cx="224.4" cy="159" fill="#B4A7E5" rx="11" ry="11" style="stroke: #A80036; stroke-width: 1.0;"/><path d="M225.3531,155.6406 L225.3531,162.2969 L227.0719,162.2969 Q227.6813,162.2969 227.9469,162.5313 Q228.2125,162.7656 228.2125,163.1563 Q228.2125,163.5313 227.9469,163.7656 Q227.6813,164 227.0719,164 L221.9313,164 Q221.3219,164 221.0563,163.7656 Q220.7906,163.5313 220.7906,163.1406 Q220.7906,162.7656 221.0563,162.5313 Q221.3219,162.2969 221.9313,162.2969 L223.65,162.2969 L223.65,155.6406 L221.9313,155.6406 Q221.3219,155.6406 221.0563,155.4063 Q220.7906,155.1719 220.7906,154.7813 Q220.7906,154.4063 221.0563,154.1719 Q221.3219,153.9375 221.9313,153.9375 L227.0719,153.9375 Q227.6813,153.9375 227.9469,154.1719 Q228.2125,154.4063 228.2125,154.7813 Q228.2125,155.1719 227.9469,155.4063 Q227.6813,155.6406 227.0719,155.6406 L225.3531,155.6406 Z "/><text fill="#000000" font-family="sans-serif" font-size="12" font-style="italic" lengthAdjust="spacingAndGlyphs" textLength="40" x="238.6" y="163.9102">Worker</text><line style="stroke: #A80036; stroke-width: 1.5;" x1="209.5" x2="281.5" y1="175" y2="175"/><line style="stroke: #A80036; stroke-width: 1.5;" x1="209.5" x2="281.5" y1="183" y2="183"/><ellipse cx="219.5" cy="194" fill="#84BE84" rx="3" ry="3" style="stroke: #038048; stroke-width: 1.0;"/><text fill="#000000" font-family="sans-serif" font-size="11" lengthAdjust="spacingAndGlyphs" textLength="48" x="228.5" y="198.4189">getWork()</text><ellipse cx="219.5" cy="207.8359" fill="#84BE84" rx="3" ry="3" style="stroke: #038048; stroke-width: 1.0;"/><text fill="#000000" font-family="sans-serif" font-size="11" lengthAdjust="spacingAndGlyphs" textLength="43" x="228.5" y="212.2549">getPaid()</text><!--MD5=[61a83f88cb8b7d3a80bc8c481f3736bf]
class Teacher--><rect fill="#FEFECE" filter="url(#f1iexvu4kjpw4w)" height="172.5234" id="Teacher" style="stroke: #A80036; stroke-width: 1.5;" width="121" x="130" y="279"/><ellipse cx="164.8" cy="295" fill="#ADD1B2" rx="11" ry="11" style="stroke: #A80036; stroke-width: 1.0;"/><path d="M167.5656,290.875 Q167.7219,290.6563 167.9094,290.5469 Q168.0969,290.4375 168.3156,290.4375 Q168.6906,290.4375 168.925,290.6953 Q169.1594,290.9531 169.1594,291.5625 L169.1594,293.0156 Q169.1594,293.625 168.925,293.8906 Q168.6906,294.1563 168.3156,294.1563 Q167.9719,294.1563 167.7688,293.9531 Q167.5656,293.7656 167.4563,293.25 Q167.4094,292.8906 167.2219,292.7031 Q166.8938,292.3281 166.2844,292.1094 Q165.675,291.8906 165.05,291.8906 Q164.2844,291.8906 163.6516,292.2188 Q163.0188,292.5469 162.5266,293.2969 Q162.0344,294.0469 162.0344,295.0781 L162.0344,296.1719 Q162.0344,297.4063 162.925,298.2266 Q163.8156,299.0469 165.4094,299.0469 Q166.3469,299.0469 167.0031,298.7969 Q167.3938,298.6406 167.8156,298.2031 Q168.0813,297.9375 168.2297,297.8594 Q168.3781,297.7813 168.5813,297.7813 Q168.9094,297.7813 169.1672,298.0391 Q169.425,298.2969 169.425,298.6406 Q169.425,298.9844 169.0813,299.3906 Q168.5813,299.9688 167.7844,300.2969 Q166.7063,300.75 165.4094,300.75 Q163.8938,300.75 162.6906,300.125 Q161.7063,299.625 161.0188,298.5547 Q160.3313,297.4844 160.3313,296.2031 L160.3313,295.0469 Q160.3313,293.7188 160.9484,292.5703 Q161.5656,291.4219 162.6594,290.8047 Q163.7531,290.1875 164.9875,290.1875 Q165.7219,290.1875 166.3703,290.3516 Q167.0188,290.5156 167.5656,290.875 Z "/><text fill="#000000" font-family="sans-serif" font-size="12" lengthAdjust="spacingAndGlyphs" textLength="45" x="183.2" y="299.9102">Teacher</text><line style="stroke: #A80036; stroke-width: 1.5;" x1="131" x2="250" y1="311" y2="311"/><rect fill="none" height="6" style="stroke: #C82930; stroke-width: 1.0;" width="6" x="138" y="319"/><text fill="#000000" font-family="sans-serif" font-size="11" lengthAdjust="spacingAndGlyphs" textLength="89" x="150" y="326.4189">designation: String</text><rect fill="none" height="6" style="stroke: #C82930; stroke-width: 1.0;" width="6" x="138" y="332.8359"/><text fill="#000000" font-family="sans-serif" font-size="11" lengthAdjust="spacingAndGlyphs" textLength="95" x="150" y="340.2549">collegeName: String</text><rect fill="none" height="6" style="stroke: #C82930; stroke-width: 1.0;" width="6" x="138" y="346.6719"/><text fill="#000000" font-family="sans-serif" font-size="11" lengthAdjust="spacingAndGlyphs" textLength="82" x="150" y="354.0908">teaches_job: Job</text><rect fill="none" height="6" style="stroke: #C82930; stroke-width: 1.0;" width="6" x="138" y="360.5078"/><text fill="#000000" font-family="sans-serif" font-size="11" lengthAdjust="spacingAndGlyphs" textLength="57" x="150" y="367.9268">heart: Heart</text><line style="stroke: #A80036; stroke-width: 1.5;" x1="131" x2="250" y1="374.3438" y2="374.3438"/><ellipse cx="141" cy="385.3438" fill="#84BE84" rx="3" ry="3" style="stroke: #038048; stroke-width: 1.0;"/><text fill="#000000" font-family="sans-serif" font-size="11" lengthAdjust="spacingAndGlyphs" textLength="79" x="150" y="389.7627">getDesignation()</text><polygon fill="#FFFF44" points="141,394.1797,145,398.1797,141,402.1797,137,398.1797" style="stroke: #B38D22; stroke-width: 1.0;"/><text fill="#000000" font-family="sans-serif" font-size="11" lengthAdjust="spacingAndGlyphs" textLength="79" x="150" y="403.5986">setDesignation()</text><polygon fill="#FFFF44" points="141,408.0156,145,412.0156,141,416.0156,137,412.0156" style="stroke: #B38D22; stroke-width: 1.0;"/><text fill="#000000" font-family="sans-serif" font-size="11" lengthAdjust="spacingAndGlyphs" textLength="85" x="150" y="417.4346">getCollegeName()</text><polygon fill="#FFFF44" points="141,421.8516,145,425.8516,141,429.8516,137,425.8516" style="stroke: #B38D22; stroke-width: 1.0;"/><text fill="#000000" font-family="sans-serif" font-size="11" lengthAdjust="spacingAndGlyphs" textLength="85" x="150" y="431.2705">setCollegeName()</text><text fill="#000000" font-family="sans-serif" font-size="11" lengthAdjust="spacingAndGlyphs" textLength="32" x="150" y="445.1064">does()</text><!--MD5=[003b10a9e8c6b63b70bf8bbab0bff892]
class GoodTeacher--><rect fill="#FEFECE" filter="url(#f1iexvu4kjpw4w)" height="75.6719" id="GoodTeacher" style="stroke: #A80036; stroke-width: 1.5;" width="107" x="7" y="560.5"/><ellipse cx="22" cy="576.5" fill="#ADD1B2" rx="11" ry="11" style="stroke: #A80036; stroke-width: 1.0;"/><path d="M24.7656,572.375 Q24.9219,572.1563 25.1094,572.0469 Q25.2969,571.9375 25.5156,571.9375 Q25.8906,571.9375 26.125,572.1953 Q26.3594,572.4531 26.3594,573.0625 L26.3594,574.5156 Q26.3594,575.125 26.125,575.3906 Q25.8906,575.6563 25.5156,575.6563 Q25.1719,575.6563 24.9688,575.4531 Q24.7656,575.2656 24.6563,574.75 Q24.6094,574.3906 24.4219,574.2031 Q24.0938,573.8281 23.4844,573.6094 Q22.875,573.3906 22.25,573.3906 Q21.4844,573.3906 20.8516,573.7188 Q20.2188,574.0469 19.7266,574.7969 Q19.2344,575.5469 19.2344,576.5781 L19.2344,577.6719 Q19.2344,578.9063 20.125,579.7266 Q21.0156,580.5469 22.6094,580.5469 Q23.5469,580.5469 24.2031,580.2969 Q24.5938,580.1406 25.0156,579.7031 Q25.2813,579.4375 25.4297,579.3594 Q25.5781,579.2813 25.7813,579.2813 Q26.1094,579.2813 26.3672,579.5391 Q26.625,579.7969 26.625,580.1406 Q26.625,580.4844 26.2813,580.8906 Q25.7813,581.4688 24.9844,581.7969 Q23.9063,582.25 22.6094,582.25 Q21.0938,582.25 19.8906,581.625 Q18.9063,581.125 18.2188,580.0547 Q17.5313,578.9844 17.5313,577.7031 L17.5313,576.5469 Q17.5313,575.2188 18.1484,574.0703 Q18.7656,572.9219 19.8594,572.3047 Q20.9531,571.6875 22.1875,571.6875 Q22.9219,571.6875 23.5703,571.8516 Q24.2188,572.0156 24.7656,572.375 Z "/><text fill="#000000" font-family="sans-serif" font-size="12" lengthAdjust="spacingAndGlyphs" textLength="75" x="36" y="581.4102">GoodTeacher</text><line style="stroke: #A80036; stroke-width: 1.5;" x1="8" x2="113" y1="592.5" y2="592.5"/><text fill="#000000" font-family="sans-serif" font-size="11" lengthAdjust="spacingAndGlyphs" textLength="92" x="13" y="607.9189">mainSubject: String</text><line style="stroke: #A80036; stroke-width: 1.5;" x1="8" x2="113" y1="614.3359" y2="614.3359"/><ellipse cx="18" cy="625.3359" fill="#84BE84" rx="3" ry="3" style="stroke: #038048; stroke-width: 1.0;"/><text fill="#000000" font-family="sans-serif" font-size="11" lengthAdjust="spacingAndGlyphs" text-decoration="underline" textLength="30" x="27" y="629.7549">main()</text><!--MD5=[b8e0354e0f3f5cbf52553869b78c0afa]
class Job--><rect fill="#FEFECE" filter="url(#f1iexvu4kjpw4w)" height="172.5234" id="Job" style="stroke: #A80036; stroke-width: 1.5;" width="82" x="149.5" y="512"/><ellipse cx="178" cy="528" fill="#ADD1B2" rx="11" ry="11" style="stroke: #A80036; stroke-width: 1.0;"/><path d="M180.7656,523.875 Q180.9219,523.6563 181.1094,523.5469 Q181.2969,523.4375 181.5156,523.4375 Q181.8906,523.4375 182.125,523.6953 Q182.3594,523.9531 182.3594,524.5625 L182.3594,526.0156 Q182.3594,526.625 182.125,526.8906 Q181.8906,527.1563 181.5156,527.1563 Q181.1719,527.1563 180.9688,526.9531 Q180.7656,526.7656 180.6563,526.25 Q180.6094,525.8906 180.4219,525.7031 Q180.0938,525.3281 179.4844,525.1094 Q178.875,524.8906 178.25,524.8906 Q177.4844,524.8906 176.8516,525.2188 Q176.2188,525.5469 175.7266,526.2969 Q175.2344,527.0469 175.2344,528.0781 L175.2344,529.1719 Q175.2344,530.4063 176.125,531.2266 Q177.0156,532.0469 178.6094,532.0469 Q179.5469,532.0469 180.2031,531.7969 Q180.5938,531.6406 181.0156,531.2031 Q181.2813,530.9375 181.4297,530.8594 Q181.5781,530.7813 181.7813,530.7813 Q182.1094,530.7813 182.3672,531.0391 Q182.625,531.2969 182.625,531.6406 Q182.625,531.9844 182.2813,532.3906 Q181.7813,532.9688 180.9844,533.2969 Q179.9063,533.75 178.6094,533.75 Q177.0938,533.75 175.8906,533.125 Q174.9063,532.625 174.2188,531.5547 Q173.5313,530.4844 173.5313,529.2031 L173.5313,528.0469 Q173.5313,526.7188 174.1484,525.5703 Q174.7656,524.4219 175.8594,523.8047 Q176.9531,523.1875 178.1875,523.1875 Q178.9219,523.1875 179.5703,523.3516 Q180.2188,523.5156 180.7656,523.875 Z "/><text fill="#000000" font-family="sans-serif" font-size="12" lengthAdjust="spacingAndGlyphs" textLength="20" x="195" y="532.9102">Job</text><line style="stroke: #A80036; stroke-width: 1.5;" x1="150.5" x2="230.5" y1="544" y2="544"/><rect fill="none" height="6" style="stroke: #C82930; stroke-width: 1.0;" width="6" x="157.5" y="552"/><text fill="#000000" font-family="sans-serif" font-size="11" lengthAdjust="spacingAndGlyphs" textLength="52" x="169.5" y="559.4189">role: String</text><rect fill="none" height="6" style="stroke: #C82930; stroke-width: 1.0;" width="6" x="157.5" y="565.8359"/><text fill="#000000" font-family="sans-serif" font-size="11" lengthAdjust="spacingAndGlyphs" textLength="56" x="169.5" y="573.2549">salary: long</text><rect fill="none" height="6" style="stroke: #C82930; stroke-width: 1.0;" width="6" x="157.5" y="579.6719"/><text fill="#000000" font-family="sans-serif" font-size="11" lengthAdjust="spacingAndGlyphs" textLength="25" x="169.5" y="587.0908">id: int</text><line style="stroke: #A80036; stroke-width: 1.5;" x1="150.5" x2="230.5" y1="593.5078" y2="593.5078"/><ellipse cx="160.5" cy="604.5078" fill="#84BE84" rx="3" ry="3" style="stroke: #038048; stroke-width: 1.0;"/><text fill="#000000" font-family="sans-serif" font-size="11" lengthAdjust="spacingAndGlyphs" textLength="44" x="169.5" y="608.9268">getRole()</text><ellipse cx="160.5" cy="618.3438" fill="#84BE84" rx="3" ry="3" style="stroke: #038048; stroke-width: 1.0;"/><text fill="#000000" font-family="sans-serif" font-size="11" lengthAdjust="spacingAndGlyphs" textLength="44" x="169.5" y="622.7627">setRole()</text><ellipse cx="160.5" cy="632.1797" fill="#84BE84" rx="3" ry="3" style="stroke: #038048; stroke-width: 1.0;"/><text fill="#000000" font-family="sans-serif" font-size="11" lengthAdjust="spacingAndGlyphs" textLength="54" x="169.5" y="636.5986">getSalary()</text><ellipse cx="160.5" cy="646.0156" fill="#84BE84" rx="3" ry="3" style="stroke: #038048; stroke-width: 1.0;"/><text fill="#000000" font-family="sans-serif" font-size="11" lengthAdjust="spacingAndGlyphs" textLength="54" x="169.5" y="650.4346">setSalary()</text><ellipse cx="160.5" cy="659.8516" fill="#84BE84" rx="3" ry="3" style="stroke: #038048; stroke-width: 1.0;"/><text fill="#000000" font-family="sans-serif" font-size="11" lengthAdjust="spacingAndGlyphs" textLength="31" x="169.5" y="664.2705">getId()</text><ellipse cx="160.5" cy="673.6875" fill="#84BE84" rx="3" ry="3" style="stroke: #038048; stroke-width: 1.0;"/><text fill="#000000" font-family="sans-serif" font-size="11" lengthAdjust="spacingAndGlyphs" textLength="31" x="169.5" y="678.1064">setId()</text><!--MD5=[9bb5813e59df3e2529d11a5afaed7800]
class Heart--><rect fill="#FEFECE" filter="url(#f1iexvu4kjpw4w)" height="131.0156" id="Heart" style="stroke: #A80036; stroke-width: 1.5;" width="100" x="266.5" y="533"/><ellipse cx="298.6" cy="549" fill="#ADD1B2" rx="11" ry="11" style="stroke: #A80036; stroke-width: 1.0;"/><path d="M301.3656,544.875 Q301.5219,544.6563 301.7094,544.5469 Q301.8969,544.4375 302.1156,544.4375 Q302.4906,544.4375 302.725,544.6953 Q302.9594,544.9531 302.9594,545.5625 L302.9594,547.0156 Q302.9594,547.625 302.725,547.8906 Q302.4906,548.1563 302.1156,548.1563 Q301.7719,548.1563 301.5688,547.9531 Q301.3656,547.7656 301.2563,547.25 Q301.2094,546.8906 301.0219,546.7031 Q300.6938,546.3281 300.0844,546.1094 Q299.475,545.8906 298.85,545.8906 Q298.0844,545.8906 297.4516,546.2188 Q296.8188,546.5469 296.3266,547.2969 Q295.8344,548.0469 295.8344,549.0781 L295.8344,550.1719 Q295.8344,551.4063 296.725,552.2266 Q297.6156,553.0469 299.2094,553.0469 Q300.1469,553.0469 300.8031,552.7969 Q301.1938,552.6406 301.6156,552.2031 Q301.8813,551.9375 302.0297,551.8594 Q302.1781,551.7813 302.3813,551.7813 Q302.7094,551.7813 302.9672,552.0391 Q303.225,552.2969 303.225,552.6406 Q303.225,552.9844 302.8813,553.3906 Q302.3813,553.9688 301.5844,554.2969 Q300.5063,554.75 299.2094,554.75 Q297.6938,554.75 296.4906,554.125 Q295.5063,553.625 294.8188,552.5547 Q294.1313,551.4844 294.1313,550.2031 L294.1313,549.0469 Q294.1313,547.7188 294.7484,546.5703 Q295.3656,545.4219 296.4594,544.8047 Q297.5531,544.1875 298.7875,544.1875 Q299.5219,544.1875 300.1703,544.3516 Q300.8188,544.5156 301.3656,544.875 Z "/><text fill="#000000" font-family="sans-serif" font-size="12" lengthAdjust="spacingAndGlyphs" textLength="30" x="316.4" y="553.9102">Heart</text><line style="stroke: #A80036; stroke-width: 1.5;" x1="267.5" x2="365.5" y1="565" y2="565"/><rect fill="none" height="6" style="stroke: #C82930; stroke-width: 1.0;" width="6" x="274.5" y="573"/><text fill="#000000" font-family="sans-serif" font-size="11" lengthAdjust="spacingAndGlyphs" textLength="56" x="286.5" y="580.4189">cells: String</text><ellipse cx="277.5" cy="589.8359" fill="none" rx="3" ry="3" style="stroke: #038048; stroke-width: 1.0;"/><text fill="#000000" font-family="sans-serif" font-size="11" lengthAdjust="spacingAndGlyphs" textLength="60" x="286.5" y="594.2549">blood: String</text><ellipse cx="277.5" cy="603.6719" fill="none" rx="3" ry="3" style="stroke: #038048; stroke-width: 1.0;"/><text fill="#000000" font-family="sans-serif" font-size="11" lengthAdjust="spacingAndGlyphs" textLength="74" x="286.5" y="608.0908">muscles: String</text><line style="stroke: #A80036; stroke-width: 1.5;" x1="267.5" x2="365.5" y1="614.5078" y2="614.5078"/><ellipse cx="277.5" cy="625.5078" fill="#84BE84" rx="3" ry="3" style="stroke: #038048; stroke-width: 1.0;"/><text fill="#000000" font-family="sans-serif" font-size="11" lengthAdjust="spacingAndGlyphs" textLength="46" x="286.5" y="629.9268">getCells()</text><ellipse cx="277.5" cy="639.3438" fill="#84BE84" rx="3" ry="3" style="stroke: #038048; stroke-width: 1.0;"/><text fill="#000000" font-family="sans-serif" font-size="11" lengthAdjust="spacingAndGlyphs" textLength="50" x="286.5" y="643.7627">getBlood()</text><ellipse cx="277.5" cy="653.1797" fill="#84BE84" rx="3" ry="3" style="stroke: #038048; stroke-width: 1.0;"/><text fill="#000000" font-family="sans-serif" font-size="11" lengthAdjust="spacingAndGlyphs" textLength="63" x="286.5" y="657.5986">getMuscles()</text><!--MD5=[660a84f7d2118b289df1da96277a8d3e]
reverse link Teacher to GoodTeacher--><path d="M132.308,469.902 C114.166,502.14 95.3078,535.649 81.4719,560.235 " fill="none" id="Teacher&lt;-GoodTeacher" style="stroke: #A80036; stroke-width: 1.0;"/><polygon fill="none" points="126.368,466.184,142.278,452.188,138.569,473.05,126.368,466.184" style="stroke: #A80036; stroke-width: 1.0;"/><!--MD5=[83f6542cdf8689fc8464dda03f9dd7a4]
reverse link Teacher to Job--><path d="M190.5,465.612 C190.5,481.037 190.5,496.86 190.5,511.951 " fill="none" id="Teacher&lt;-Job" style="stroke: #A80036; stroke-width: 1.0;"/><polygon fill="#FFFFFF" points="190.5,452.188,186.5,458.188,190.5,464.188,194.5,458.188,190.5,452.188" style="stroke: #A80036; stroke-width: 1.0;"/><!--MD5=[af1587ffe93d550a62c63614985ccb65]
reverse link Teacher to Heart--><path d="M243.623,463.892 C256.332,487.191 269.59,511.499 281.261,532.894 " fill="none" id="Teacher&lt;-Heart" style="stroke: #A80036; stroke-width: 1.0;"/><polygon fill="#A80036" points="237.239,452.188,236.6008,459.3708,242.9856,462.7225,243.6238,455.5397,237.239,452.188" style="stroke: #A80036; stroke-width: 1.0;"/><!--MD5=[15c8996a18b78152b9e33e7e4ee412f1]
reverse link Person to Teacher--><path d="M152.657,238.931 C156.487,251.639 160.63,265.386 164.722,278.963 " fill="none" id="Person&lt;-Teacher" style="stroke: #A80036; stroke-width: 1.0; stroke-dasharray: 7.0,7.0;"/><polygon fill="none" points="145.832,240.541,146.763,219.372,159.236,236.501,145.832,240.541" style="stroke: #A80036; stroke-width: 1.0;"/><!--MD5=[7aa90816f45acc1bd9ceab637fe290d7]
reverse link Worker to Teacher--><path d="M228.343,238.931 C224.513,251.639 220.37,265.386 216.278,278.963 " fill="none" id="Worker&lt;-Teacher" style="stroke: #A80036; stroke-width: 1.0; stroke-dasharray: 7.0,7.0;"/><polygon fill="none" points="221.764,236.501,234.237,219.372,235.168,240.541,221.764,236.501" style="stroke: #A80036; stroke-width: 1.0;"/><!--MD5=[879e30ae9266c2daeffc5faa5de92ff8]
reverse link Thing to Person--><path d="M135.5,103.535 C135.5,116.86 135.5,130.695 135.5,142.874 " fill="none" id="Thing&lt;-Person" style="stroke: #A80036; stroke-width: 1.0; stroke-dasharray: 7.0,7.0;"/><polygon fill="none" points="128.5,103.327,135.5,83.326,142.5,103.326,128.5,103.327" style="stroke: #A80036; stroke-width: 1.0;"/><!--MD5=[574c0f6d5bc4bf2cbaa43aa933998fab]
@startuml
Interface Thing{
	+getName()
	+doStuff()
}
Interface Person{
	+getName()
	+doStuff()
}
Interface Worker{
	+getWork()
	+getPaid()
}
class Teacher{
	-designation: String
	-collegeName: String
	-teaches_job: Job
	-heart: Heart
	+getDesignation()
	#setDesignation()
	#getCollegeName()
	#setCollegeName()
	does()
}
class GoodTeacher{
	mainSubject: String
	+{static}main()
}
class Job{
	-role: String
	-salary: long
	-id: int
	+getRole()
	+setRole()
	+getSalary()
	+setSalary()
	+getId()
	+setId()
}
class Heart{
	-cells: String
	+blood: String
	+muscles: String
	+getCells()
	+getBlood()
	+getMuscles()
}
GoodTeacher -up-|> Teacher
Teacher o- - Job
Teacher *- - Heart
Teacher .up.|> Person
Teacher .up.|> Worker
Person .up.|> Thing
@enduml

PlantUML version 1.2020.14(Sat Jun 20 09:14:34 COT 2020)
(GPL source distribution)
Java Runtime: Java(TM) SE Runtime Environment
JVM: Java HotSpot(TM) 64-Bit Server VM
Default Encoding: UTF-8
Language: es
Country: CO
--></g></svg>