<?xml version="1.0" encoding="UTF-8" standalone="no"?><svg xmlns="http://www.w3.org/2000/svg" xmlns:xlink="http://www.w3.org/1999/xlink" contentScriptType="application/ecmascript" contentStyleType="text/css" height="448px" preserveAspectRatio="none" style="width:307px;height:448px;" version="1.1" viewBox="0 0 307 448" width="307px" zoomAndPan="magnify"><defs><filter height="300%" id="f1mr8ckkoxqkpr" width="300%" x="-1" y="-1"><feGaussianBlur result="blurOut" stdDeviation="2.0"/><feColorMatrix in="blurOut" result="blurOut2" type="matrix" values="0 0 0 0 0 0 0 0 0 0 0 0 0 0 0 0 0 0 .4 0"/><feOffset dx="4.0" dy="4.0" in="blurOut2" result="blurOut3"/><feBlend in="SourceGraphic" in2="blurOut3" mode="normal"/></filter></defs><g><text fill="#000000" font-family="sans-serif" font-size="18" lengthAdjust="spacingAndGlyphs" textLength="95" x="105" y="28.6855">conditionals</text><ellipse cx="140.5" cy="42.6406" fill="#000000" filter="url(#f1mr8ckkoxqkpr)" rx="10" ry="10" style="stroke: none; stroke-width: 1.0;"/><rect fill="#FEFECE" filter="url(#f1mr8ckkoxqkpr)" height="35.0938" rx="12.5" ry="12.5" style="stroke: #A80036; stroke-width: 1.5;" width="104" x="88.5" y="72.6406"/><text fill="#000000" font-family="sans-serif" font-size="12" lengthAdjust="spacingAndGlyphs" textLength="74" x="98.5" y="95.0977">New variable:</text><text fill="#000000" font-family="sans-serif" font-size="12" font-weight="bold" lengthAdjust="spacingAndGlyphs" textLength="7" x="175.5" y="95.0977">n</text><polygon fill="#FEFECE" filter="url(#f1mr8ckkoxqkpr)" points="128.5,127.7344,152.5,127.7344,164.5,139.7344,152.5,151.7344,128.5,151.7344,116.5,139.7344,128.5,127.7344" style="stroke: #A80036; stroke-width: 1.5;"/><text fill="#000000" font-family="sans-serif" font-size="11" lengthAdjust="spacingAndGlyphs" textLength="18" x="131.5" y="144.2354">1&gt;4</text><text fill="#000000" font-family="sans-serif" font-size="11" lengthAdjust="spacingAndGlyphs" textLength="18" x="98.5" y="137.3174">yes</text><text fill="#000000" font-family="sans-serif" font-size="11" lengthAdjust="spacingAndGlyphs" textLength="12" x="164.5" y="137.3174">no</text><rect fill="#FEFECE" filter="url(#f1mr8ckkoxqkpr)" height="35.0938" rx="12.5" ry="12.5" style="stroke: #A80036; stroke-width: 1.5;" width="91" x="17" y="161.7344"/><text fill="#000000" font-family="sans-serif" font-size="12" lengthAdjust="spacingAndGlyphs" textLength="38" x="27" y="184.1914">Assign</text><text fill="#00008B" font-family="sans-serif" font-size="12" font-style="italic" lengthAdjust="spacingAndGlyphs" textLength="7" x="68" y="184.1914">2</text><text fill="#000000" font-family="sans-serif" font-size="12" lengthAdjust="spacingAndGlyphs" textLength="10" x="78" y="184.1914">to</text><text fill="#000000" font-family="sans-serif" font-size="12" font-weight="bold" lengthAdjust="spacingAndGlyphs" textLength="7" x="91" y="184.1914">n</text><rect fill="#FEFECE" filter="url(#f1mr8ckkoxqkpr)" height="35.0938" rx="12.5" ry="12.5" style="stroke: #A80036; stroke-width: 1.5;" width="103" x="11" y="280.7461"/><text fill="#000000" font-family="sans-serif" font-size="12" lengthAdjust="spacingAndGlyphs" textLength="38" x="21" y="303.2031">Assign</text><text fill="#00008B" font-family="sans-serif" font-size="12" font-style="italic" lengthAdjust="spacingAndGlyphs" textLength="19" x="62" y="303.2031">5*n</text><text fill="#000000" font-family="sans-serif" font-size="12" lengthAdjust="spacingAndGlyphs" textLength="10" x="84" y="303.2031">to</text><text fill="#000000" font-family="sans-serif" font-size="12" font-weight="bold" lengthAdjust="spacingAndGlyphs" textLength="7" x="97" y="303.2031">n</text><polygon fill="#FEFECE" filter="url(#f1mr8ckkoxqkpr)" points="50.5,231.8281,74.5,231.8281,86.5,243.8281,74.5,255.8281,50.5,255.8281,38.5,243.8281,50.5,231.8281" style="stroke: #A80036; stroke-width: 1.5;"/><text fill="#000000" font-family="sans-serif" font-size="11" lengthAdjust="spacingAndGlyphs" textLength="18" x="66.5" y="267.2471">yes</text><text fill="#000000" font-family="sans-serif" font-size="11" lengthAdjust="spacingAndGlyphs" textLength="20" x="52.5" y="248.3291">n!=2</text><text fill="#000000" font-family="sans-serif" font-size="11" lengthAdjust="spacingAndGlyphs" textLength="12" x="86.5" y="241.4111">no</text><polygon fill="#FEFECE" filter="url(#f1mr8ckkoxqkpr)" points="62.5,335.8398,74.5,347.8398,62.5,359.8398,50.5,347.8398,62.5,335.8398" style="stroke: #A80036; stroke-width: 1.5;"/><rect fill="#FEFECE" filter="url(#f1mr8ckkoxqkpr)" height="35.0938" rx="12.5" ry="12.5" style="stroke: #A80036; stroke-width: 1.5;" width="105" x="166" y="210.6523"/><text fill="#000000" font-family="sans-serif" font-size="12" lengthAdjust="spacingAndGlyphs" textLength="38" x="176" y="233.1094">Assign</text><text fill="#00008B" font-family="sans-serif" font-size="12" font-style="italic" lengthAdjust="spacingAndGlyphs" textLength="21" x="217" y="233.1094">9+n</text><text fill="#000000" font-family="sans-serif" font-size="12" lengthAdjust="spacingAndGlyphs" textLength="10" x="241" y="233.1094">to</text><text fill="#000000" font-family="sans-serif" font-size="12" font-weight="bold" lengthAdjust="spacingAndGlyphs" textLength="7" x="254" y="233.1094">n</text><polygon fill="#FEFECE" filter="url(#f1mr8ckkoxqkpr)" points="206.5,161.7344,230.5,161.7344,242.5,173.7344,230.5,185.7344,206.5,185.7344,194.5,173.7344,206.5,161.7344" style="stroke: #A80036; stroke-width: 1.5;"/><text fill="#000000" font-family="sans-serif" font-size="11" lengthAdjust="spacingAndGlyphs" textLength="18" x="222.5" y="197.1533">yes</text><text fill="#000000" font-family="sans-serif" font-size="11" lengthAdjust="spacingAndGlyphs" textLength="19" x="209" y="178.2354">true</text><text fill="#000000" font-family="sans-serif" font-size="11" lengthAdjust="spacingAndGlyphs" textLength="12" x="242.5" y="171.3174">no</text><polygon fill="#FEFECE" filter="url(#f1mr8ckkoxqkpr)" points="218.5,270.6641,230.5,282.6641,218.5,294.6641,206.5,282.6641,218.5,270.6641" style="stroke: #A80036; stroke-width: 1.5;"/><polygon fill="#FEFECE" filter="url(#f1mr8ckkoxqkpr)" points="140.5,365.8398,152.5,377.8398,140.5,389.8398,128.5,377.8398,140.5,365.8398" style="stroke: #A80036; stroke-width: 1.5;"/><ellipse cx="140.5" cy="420.8398" fill="#FFFFFF" filter="url(#f1mr8ckkoxqkpr)" rx="11" ry="11" style="stroke: #000000; stroke-width: 1.0;"/><ellipse cx="140.5" cy="420.8398" fill="#000000" rx="6" ry="6" style="stroke: #7F7F7F; stroke-width: 1.0;"/><line style="stroke: #A80036; stroke-width: 1.5;" x1="140.5" x2="140.5" y1="52.6406" y2="72.6406"/><polygon fill="#A80036" points="136.5,62.6406,140.5,72.6406,144.5,62.6406,140.5,66.6406" style="stroke: #A80036; stroke-width: 1.0;"/><line style="stroke: #A80036; stroke-width: 1.5;" x1="62.5" x2="62.5" y1="255.8281" y2="280.7461"/><polygon fill="#A80036" points="58.5,270.7461,62.5,280.7461,66.5,270.7461,62.5,274.7461" style="stroke: #A80036; stroke-width: 1.0;"/><line style="stroke: #A80036; stroke-width: 1.5;" x1="86.5" x2="124" y1="243.8281" y2="243.8281"/><polygon fill="#A80036" points="120,288.293,124,298.293,128,288.293,124,292.293" style="stroke: #A80036; stroke-width: 1.5;"/><line style="stroke: #A80036; stroke-width: 1.5;" x1="124" x2="124" y1="243.8281" y2="347.8398"/><line style="stroke: #A80036; stroke-width: 1.5;" x1="124" x2="74.5" y1="347.8398" y2="347.8398"/><polygon fill="#A80036" points="84.5,343.8398,74.5,347.8398,84.5,351.8398,80.5,347.8398" style="stroke: #A80036; stroke-width: 1.0;"/><line style="stroke: #A80036; stroke-width: 1.5;" x1="62.5" x2="62.5" y1="315.8398" y2="335.8398"/><polygon fill="#A80036" points="58.5,325.8398,62.5,335.8398,66.5,325.8398,62.5,329.8398" style="stroke: #A80036; stroke-width: 1.0;"/><line style="stroke: #A80036; stroke-width: 1.5;" x1="62.5" x2="62.5" y1="196.8281" y2="231.8281"/><polygon fill="#A80036" points="58.5,221.8281,62.5,231.8281,66.5,221.8281,62.5,225.8281" style="stroke: #A80036; stroke-width: 1.0;"/><line style="stroke: #A80036; stroke-width: 1.5;" x1="218.5" x2="218.5" y1="185.7344" y2="210.6523"/><polygon fill="#A80036" points="214.5,200.6523,218.5,210.6523,222.5,200.6523,218.5,204.6523" style="stroke: #A80036; stroke-width: 1.0;"/><line style="stroke: #A80036; stroke-width: 1.5;" x1="242.5" x2="281" y1="173.7344" y2="173.7344"/><polygon fill="#A80036" points="277,218.1992,281,228.1992,285,218.1992,281,222.1992" style="stroke: #A80036; stroke-width: 1.5;"/><line style="stroke: #A80036; stroke-width: 1.5;" x1="281" x2="281" y1="173.7344" y2="282.6641"/><line style="stroke: #A80036; stroke-width: 1.5;" x1="281" x2="230.5" y1="282.6641" y2="282.6641"/><polygon fill="#A80036" points="240.5,278.6641,230.5,282.6641,240.5,286.6641,236.5,282.6641" style="stroke: #A80036; stroke-width: 1.0;"/><line style="stroke: #A80036; stroke-width: 1.5;" x1="218.5" x2="218.5" y1="245.7461" y2="270.6641"/><polygon fill="#A80036" points="214.5,260.6641,218.5,270.6641,222.5,260.6641,218.5,264.6641" style="stroke: #A80036; stroke-width: 1.0;"/><line style="stroke: #A80036; stroke-width: 1.5;" x1="116.5" x2="62.5" y1="139.7344" y2="139.7344"/><line style="stroke: #A80036; stroke-width: 1.5;" x1="62.5" x2="62.5" y1="139.7344" y2="161.7344"/><polygon fill="#A80036" points="58.5,151.7344,62.5,161.7344,66.5,151.7344,62.5,155.7344" style="stroke: #A80036; stroke-width: 1.0;"/><line style="stroke: #A80036; stroke-width: 1.5;" x1="164.5" x2="218.5" y1="139.7344" y2="139.7344"/><line style="stroke: #A80036; stroke-width: 1.5;" x1="218.5" x2="218.5" y1="139.7344" y2="161.7344"/><polygon fill="#A80036" points="214.5,151.7344,218.5,161.7344,222.5,151.7344,218.5,155.7344" style="stroke: #A80036; stroke-width: 1.0;"/><line style="stroke: #A80036; stroke-width: 1.5;" x1="62.5" x2="62.5" y1="359.8398" y2="377.8398"/><line style="stroke: #A80036; stroke-width: 1.5;" x1="62.5" x2="128.5" y1="377.8398" y2="377.8398"/><polygon fill="#A80036" points="118.5,373.8398,128.5,377.8398,118.5,381.8398,122.5,377.8398" style="stroke: #A80036; stroke-width: 1.0;"/><line style="stroke: #A80036; stroke-width: 1.5;" x1="218.5" x2="218.5" y1="294.6641" y2="377.8398"/><line style="stroke: #A80036; stroke-width: 1.5;" x1="218.5" x2="152.5" y1="377.8398" y2="377.8398"/><polygon fill="#A80036" points="162.5,373.8398,152.5,377.8398,162.5,381.8398,158.5,377.8398" style="stroke: #A80036; stroke-width: 1.0;"/><line style="stroke: #A80036; stroke-width: 1.5;" x1="140.5" x2="140.5" y1="107.7344" y2="127.7344"/><polygon fill="#A80036" points="136.5,117.7344,140.5,127.7344,144.5,117.7344,140.5,121.7344" style="stroke: #A80036; stroke-width: 1.0;"/><line style="stroke: #A80036; stroke-width: 1.5;" x1="140.5" x2="140.5" y1="389.8398" y2="409.8398"/><polygon fill="#A80036" points="136.5,399.8398,140.5,409.8398,144.5,399.8398,140.5,403.8398" style="stroke: #A80036; stroke-width: 1.0;"/><!--MD5=[cb27d9602c0d282428d96ecf078c15fe]
@startuml
title conditionals
start
:New variable: <b>n</b>;
if (1>4) then (yes)
:Assign <color:darkblue><i>2</i></color> to <b>n</b>;
if (n!=2) then (yes)
:Assign <color:darkblue><i>5*n</i></color> to <b>n</b>;
else (no)
endif
else (no)
if (true) then (yes)
:Assign <color:darkblue><i>9+n</i></color> to <b>n</b>;
else (no)
endif
endif
stop
@enduml

PlantUML version 1.2020.14(Sat Jun 20 09:14:34 COT 2020)
(GPL source distribution)
Java Runtime: Java(TM) SE Runtime Environment
JVM: Java HotSpot(TM) 64-Bit Server VM
Default Encoding: UTF-8
Language: es
Country: CO
--></g></svg>