<?xml version="1.0" encoding="UTF-8" standalone="no"?><svg xmlns="http://www.w3.org/2000/svg" xmlns:xlink="http://www.w3.org/1999/xlink" contentScriptType="application/ecmascript" contentStyleType="text/css" height="584px" preserveAspectRatio="none" style="width:167px;height:584px;" version="1.1" viewBox="0 0 167 584" width="167px" zoomAndPan="magnify"><defs><filter height="300%" id="f1oylsri6c6cre" width="300%" x="-1" y="-1"><feGaussianBlur result="blurOut" stdDeviation="2.0"/><feColorMatrix in="blurOut" result="blurOut2" type="matrix" values="0 0 0 0 0 0 0 0 0 0 0 0 0 0 0 0 0 0 .4 0"/><feOffset dx="4.0" dy="4.0" in="blurOut2" result="blurOut3"/><feBlend in="SourceGraphic" in2="blurOut3" mode="normal"/></filter></defs><g><text fill="#000000" font-family="sans-serif" font-size="18" lengthAdjust="spacingAndGlyphs" textLength="77" x="44.25" y="28.6855">printArray</text><ellipse cx="82.5" cy="42.6406" fill="#000000" filter="url(#f1oylsri6c6cre)" rx="10" ry="10" style="stroke: none; stroke-width: 1.0;"/><rect fill="#FEFECE" filter="url(#f1oylsri6c6cre)" height="35.0938" rx="12.5" ry="12.5" style="stroke: #A80036; stroke-width: 1.5;" width="104" x="30.5" y="72.6406"/><text fill="#000000" font-family="sans-serif" font-size="12" lengthAdjust="spacingAndGlyphs" textLength="74" x="40.5" y="95.0977">New variable:</text><text fill="#000000" font-family="sans-serif" font-size="12" font-weight="bold" lengthAdjust="spacingAndGlyphs" textLength="7" x="117.5" y="95.0977">n</text><rect fill="#FEFECE" filter="url(#f1oylsri6c6cre)" height="35.0938" rx="12.5" ry="12.5" style="stroke: #A80036; stroke-width: 1.5;" width="136" x="14.5" y="127.7344"/><text fill="#000000" font-family="sans-serif" font-size="12" lengthAdjust="spacingAndGlyphs" textLength="38" x="24.5" y="150.1914">Assign</text><text fill="#00008B" font-family="sans-serif" font-size="12" font-style="italic" lengthAdjust="spacingAndGlyphs" textLength="52" x="65.5" y="150.1914">arr.length</text><text fill="#000000" font-family="sans-serif" font-size="12" lengthAdjust="spacingAndGlyphs" textLength="10" x="120.5" y="150.1914">to</text><text fill="#000000" font-family="sans-serif" font-size="12" font-weight="bold" lengthAdjust="spacingAndGlyphs" textLength="7" x="133.5" y="150.1914">n</text><rect fill="#FEFECE" filter="url(#f1oylsri6c6cre)" height="35.0938" rx="12.5" ry="12.5" style="stroke: #A80036; stroke-width: 1.5;" width="100" x="32.5" y="182.8281"/><text fill="#000000" font-family="sans-serif" font-size="12" lengthAdjust="spacingAndGlyphs" textLength="74" x="42.5" y="205.2852">New variable:</text><text fill="#000000" font-family="sans-serif" font-size="12" font-weight="bold" lengthAdjust="spacingAndGlyphs" textLength="3" x="119.5" y="205.2852">i</text><rect fill="#FEFECE" filter="url(#f1oylsri6c6cre)" height="35.0938" rx="12.5" ry="12.5" style="stroke: #A80036; stroke-width: 1.5;" width="87" x="39" y="237.9219"/><text fill="#000000" font-family="sans-serif" font-size="12" lengthAdjust="spacingAndGlyphs" textLength="38" x="49" y="260.3789">Assign</text><text fill="#00008B" font-family="sans-serif" font-size="12" font-style="italic" lengthAdjust="spacingAndGlyphs" textLength="7" x="90" y="260.3789">0</text><text fill="#000000" font-family="sans-serif" font-size="12" lengthAdjust="spacingAndGlyphs" textLength="10" x="100" y="260.3789">to</text><text fill="#000000" font-family="sans-serif" font-size="12" font-weight="bold" lengthAdjust="spacingAndGlyphs" textLength="3" x="113" y="260.3789">i</text><rect fill="#FEFECE" filter="url(#f1oylsri6c6cre)" height="35.0938" rx="12.5" ry="12.5" style="stroke: #A80036; stroke-width: 1.5;" width="37" x="64" y="349.9346"/><text fill="#000000" font-family="sans-serif" font-size="12" lengthAdjust="spacingAndGlyphs" textLength="17" x="74" y="372.3916">++i</text><rect fill="#FEFECE" filter="url(#f1oylsri6c6cre)" height="35.0938" rx="12.5" ry="12.5" style="stroke: #A80036; stroke-width: 1.5;" width="93" x="36" y="413.6104"/><text fill="#000000" font-family="sans-serif" font-size="12" lengthAdjust="spacingAndGlyphs" textLength="28" x="46" y="436.0674">Print:</text><text fill="#00008B" font-family="sans-serif" font-size="12" font-style="italic" lengthAdjust="spacingAndGlyphs" textLength="42" x="77" y="436.0674">arr[i]+" "</text><polygon fill="#FEFECE" filter="url(#f1oylsri6c6cre)" points="68,293.0156,97,293.0156,109,305.0156,97,317.0156,68,317.0156,56,305.0156,68,293.0156" style="stroke: #A80036; stroke-width: 1.5;"/><text fill="#000000" font-family="sans-serif" font-size="11" lengthAdjust="spacingAndGlyphs" textLength="20" x="86.5" y="328.4346">Yes</text><text fill="#000000" font-family="sans-serif" font-size="11" lengthAdjust="spacingAndGlyphs" textLength="29" x="68" y="309.5166">i &lt; n ?</text><text fill="#000000" font-family="sans-serif" font-size="11" lengthAdjust="spacingAndGlyphs" textLength="13" x="43" y="302.5986">No</text><rect fill="#FEFECE" filter="url(#f1oylsri6c6cre)" height="35.0938" rx="12.5" ry="12.5" style="stroke: #A80036; stroke-width: 1.5;" width="126" x="19.5" y="490.7041"/><text fill="#000000" font-family="sans-serif" font-size="12" lengthAdjust="spacingAndGlyphs" textLength="106" x="29.5" y="513.1611">System.out.println()</text><ellipse cx="82.5" cy="556.7979" fill="#FFFFFF" filter="url(#f1oylsri6c6cre)" rx="11" ry="11" style="stroke: #000000; stroke-width: 1.0;"/><ellipse cx="82.5" cy="556.7979" fill="#000000" rx="6" ry="6" style="stroke: #7F7F7F; stroke-width: 1.0;"/><line style="stroke: #A80036; stroke-width: 1.5;" x1="82.5" x2="82.5" y1="52.6406" y2="72.6406"/><polygon fill="#A80036" points="78.5,62.6406,82.5,72.6406,86.5,62.6406,82.5,66.6406" style="stroke: #A80036; stroke-width: 1.0;"/><line style="stroke: #A80036; stroke-width: 1.5;" x1="82.5" x2="82.5" y1="107.7344" y2="127.7344"/><polygon fill="#A80036" points="78.5,117.7344,82.5,127.7344,86.5,117.7344,82.5,121.7344" style="stroke: #A80036; stroke-width: 1.0;"/><line style="stroke: #A80036; stroke-width: 1.5;" x1="82.5" x2="82.5" y1="162.8281" y2="182.8281"/><polygon fill="#A80036" points="78.5,172.8281,82.5,182.8281,86.5,172.8281,82.5,176.8281" style="stroke: #A80036; stroke-width: 1.0;"/><line style="stroke: #A80036; stroke-width: 1.5;" x1="82.5" x2="82.5" y1="217.9219" y2="237.9219"/><polygon fill="#A80036" points="78.5,227.9219,82.5,237.9219,86.5,227.9219,82.5,231.9219" style="stroke: #A80036; stroke-width: 1.0;"/><line style="stroke: #A80036; stroke-width: 1.5;" x1="82.5" x2="82.5" y1="385.0283" y2="413.6104"/><polygon fill="#A80036" points="78.5,403.6104,82.5,413.6104,86.5,403.6104,82.5,407.6104" style="stroke: #A80036; stroke-width: 1.0;"/><line style="stroke: #A80036; stroke-width: 1.5;" x1="82.5" x2="82.5" y1="317.0156" y2="349.9346"/><polygon fill="#A80036" points="78.5,339.9346,82.5,349.9346,86.5,339.9346,82.5,343.9346" style="stroke: #A80036; stroke-width: 1.0;"/><line style="stroke: #A80036; stroke-width: 1.5;" x1="82.5" x2="82.5" y1="448.7041" y2="458.7041"/><line style="stroke: #A80036; stroke-width: 1.5;" x1="82.5" x2="141" y1="458.7041" y2="458.7041"/><polygon fill="#A80036" points="137,393.6104,141,383.6104,145,393.6104,141,389.6104" style="stroke: #A80036; stroke-width: 1.5;"/><line style="stroke: #A80036; stroke-width: 1.5;" x1="141" x2="141" y1="305.0156" y2="458.7041"/><line style="stroke: #A80036; stroke-width: 1.5;" x1="141" x2="109" y1="305.0156" y2="305.0156"/><polygon fill="#A80036" points="119,301.0156,109,305.0156,119,309.0156,115,305.0156" style="stroke: #A80036; stroke-width: 1.0;"/><line style="stroke: #A80036; stroke-width: 1.5;" x1="56" x2="24" y1="305.0156" y2="305.0156"/><polygon fill="#A80036" points="20,379.6104,24,389.6104,28,379.6104,24,383.6104" style="stroke: #A80036; stroke-width: 1.5;"/><line style="stroke: #A80036; stroke-width: 1.5;" x1="24" x2="24" y1="305.0156" y2="470.7041"/><line style="stroke: #A80036; stroke-width: 1.5;" x1="24" x2="82.5" y1="470.7041" y2="470.7041"/><line style="stroke: #A80036; stroke-width: 1.5;" x1="82.5" x2="82.5" y1="470.7041" y2="490.7041"/><polygon fill="#A80036" points="78.5,480.7041,82.5,490.7041,86.5,480.7041,82.5,484.7041" style="stroke: #A80036; stroke-width: 1.0;"/><line style="stroke: #A80036; stroke-width: 1.5;" x1="82.5" x2="82.5" y1="273.0156" y2="293.0156"/><polygon fill="#A80036" points="78.5,283.0156,82.5,293.0156,86.5,283.0156,82.5,287.0156" style="stroke: #A80036; stroke-width: 1.0;"/><line style="stroke: #A80036; stroke-width: 1.5;" x1="82.5" x2="82.5" y1="525.7979" y2="545.7979"/><polygon fill="#A80036" points="78.5,535.7979,82.5,545.7979,86.5,535.7979,82.5,539.7979" style="stroke: #A80036; stroke-width: 1.0;"/><!--MD5=[a446a10caa3e436469399980bc521d4e]
@startuml
title printArray
start
:New variable: <b>n</b>;
:Assign <color:darkblue><i>arr.length</i></color> to <b>n</b>;
:New variable: <b>i</b>;
:Assign <color:darkblue><i>0</i></color> to <b>i</b>;
while (i < n ?) is (Yes)
:++i;
:Print: <color:darkblue><i>arr[i]+" "</i></color>;
endwhile (No)
:System.out.println();
stop
@enduml

PlantUML version 1.2020.14(Sat Jun 20 09:14:34 COT 2020)
(GPL source distribution)
Java Runtime: Java(TM) SE Runtime Environment
JVM: Java HotSpot(TM) 64-Bit Server VM
Default Encoding: UTF-8
Language: es
Country: CO
--></g></svg>