<?xml version="1.0" encoding="UTF-8" standalone="no"?><svg xmlns="http://www.w3.org/2000/svg" xmlns:xlink="http://www.w3.org/1999/xlink" contentScriptType="application/ecmascript" contentStyleType="text/css" height="423px" preserveAspectRatio="none" style="width:244px;height:423px;" version="1.1" viewBox="0 0 244 423" width="244px" zoomAndPan="magnify"><defs><filter height="300%" id="f1gy3kq48x0uas" width="300%" x="-1" y="-1"><feGaussianBlur result="blurOut" stdDeviation="2.0"/><feColorMatrix in="blurOut" result="blurOut2" type="matrix" values="0 0 0 0 0 0 0 0 0 0 0 0 0 0 0 0 0 0 .4 0"/><feOffset dx="4.0" dy="4.0" in="blurOut2" result="blurOut3"/><feBlend in="SourceGraphic" in2="blurOut3" mode="normal"/></filter></defs><g><text fill="#000000" font-family="sans-serif" font-size="18" lengthAdjust="spacingAndGlyphs" textLength="81" x="80.5" y="28.6855">whileLoop</text><ellipse cx="125.5" cy="42.6406" fill="#000000" filter="url(#f1gy3kq48x0uas)" rx="10" ry="10" style="stroke: none; stroke-width: 1.0;"/><rect fill="#FEFECE" filter="url(#f1gy3kq48x0uas)" height="35.0938" rx="12.5" ry="12.5" style="stroke: #A80036; stroke-width: 1.5;" width="104" x="73.5" y="72.6406"/><text fill="#000000" font-family="sans-serif" font-size="12" lengthAdjust="spacingAndGlyphs" textLength="74" x="83.5" y="95.0977">New variable:</text><text fill="#000000" font-family="sans-serif" font-size="12" font-weight="bold" lengthAdjust="spacingAndGlyphs" textLength="7" x="160.5" y="95.0977">a</text><rect fill="#FEFECE" filter="url(#f1gy3kq48x0uas)" height="35.0938" rx="12.5" ry="12.5" style="stroke: #A80036; stroke-width: 1.5;" width="91" x="80" y="127.7344"/><text fill="#000000" font-family="sans-serif" font-size="12" lengthAdjust="spacingAndGlyphs" textLength="38" x="90" y="150.1914">Assign</text><text fill="#00008B" font-family="sans-serif" font-size="12" font-style="italic" lengthAdjust="spacingAndGlyphs" textLength="7" x="131" y="150.1914">5</text><text fill="#000000" font-family="sans-serif" font-size="12" lengthAdjust="spacingAndGlyphs" textLength="10" x="141" y="150.1914">to</text><text fill="#000000" font-family="sans-serif" font-size="12" font-weight="bold" lengthAdjust="spacingAndGlyphs" textLength="7" x="154" y="150.1914">a</text><rect fill="#FEFECE" filter="url(#f1gy3kq48x0uas)" height="35.0938" rx="12.5" ry="12.5" style="stroke: #A80036; stroke-width: 1.5;" width="95" x="78" y="244.6641"/><text fill="#000000" font-family="sans-serif" font-size="12" lengthAdjust="spacingAndGlyphs" textLength="38" x="88" y="267.1211">Assign</text><text fill="#00008B" font-family="sans-serif" font-size="12" font-style="italic" lengthAdjust="spacingAndGlyphs" textLength="11" x="129" y="267.1211">-8</text><text fill="#000000" font-family="sans-serif" font-size="12" lengthAdjust="spacingAndGlyphs" textLength="10" x="143" y="267.1211">to</text><text fill="#000000" font-family="sans-serif" font-size="12" font-weight="bold" lengthAdjust="spacingAndGlyphs" textLength="7" x="156" y="267.1211">a</text><rect fill="#FEFECE" filter="url(#f1gy3kq48x0uas)" height="35.0938" rx="12.5" ry="12.5" style="stroke: #A80036; stroke-width: 1.5;" width="86" x="82.5" y="299.7578"/><text fill="#000000" font-family="sans-serif" font-size="12" lengthAdjust="spacingAndGlyphs" textLength="28" x="92.5" y="322.2148">Print:</text><text fill="#00008B" font-family="sans-serif" font-size="12" font-style="italic" lengthAdjust="spacingAndGlyphs" textLength="35" x="123.5" y="322.2148">"hello"</text><rect fill="#FEFECE" filter="url(#f1gy3kq48x0uas)" height="35.0938" rx="12.5" ry="12.5" style="stroke: #A80036; stroke-width: 1.5;" width="161" x="45" y="354.8516"/><text fill="#000000" font-family="sans-serif" font-size="12" lengthAdjust="spacingAndGlyphs" textLength="94" x="55" y="377.3086">Enter subroutine:</text><text fill="#8B0000" font-family="sans-serif" font-size="12" font-weight="bold" lengthAdjust="spacingAndGlyphs" textLength="44" x="152" y="377.3086">forLoop</text><polygon fill="#FEFECE" filter="url(#f1gy3kq48x0uas)" points="111.5,182.8281,139.5,182.8281,151.5,194.8281,139.5,206.8281,111.5,206.8281,99.5,194.8281,111.5,182.8281" style="stroke: #A80036; stroke-width: 1.5;"/><text fill="#000000" font-family="sans-serif" font-size="11" lengthAdjust="spacingAndGlyphs" textLength="20" x="129.5" y="218.2471">Yes</text><text fill="#000000" font-family="sans-serif" font-size="11" lengthAdjust="spacingAndGlyphs" textLength="28" x="111.5" y="199.3291">true ?</text><text fill="#000000" font-family="sans-serif" font-size="11" lengthAdjust="spacingAndGlyphs" textLength="13" x="86.5" y="192.4111">No</text><ellipse cx="24" cy="241.8281" fill="#FFFFFF" filter="url(#f1gy3kq48x0uas)" rx="11" ry="11" style="stroke: #000000; stroke-width: 1.0;"/><ellipse cx="24" cy="241.8281" fill="#000000" rx="6" ry="6" style="stroke: #7F7F7F; stroke-width: 1.0;"/><line style="stroke: #A80036; stroke-width: 1.5;" x1="125.5" x2="125.5" y1="52.6406" y2="72.6406"/><polygon fill="#A80036" points="121.5,62.6406,125.5,72.6406,129.5,62.6406,125.5,66.6406" style="stroke: #A80036; stroke-width: 1.0;"/><line style="stroke: #A80036; stroke-width: 1.5;" x1="125.5" x2="125.5" y1="107.7344" y2="127.7344"/><polygon fill="#A80036" points="121.5,117.7344,125.5,127.7344,129.5,117.7344,125.5,121.7344" style="stroke: #A80036; stroke-width: 1.0;"/><line style="stroke: #A80036; stroke-width: 1.5;" x1="125.5" x2="125.5" y1="279.7578" y2="299.7578"/><polygon fill="#A80036" points="121.5,289.7578,125.5,299.7578,129.5,289.7578,125.5,293.7578" style="stroke: #A80036; stroke-width: 1.0;"/><line style="stroke: #A80036; stroke-width: 1.5;" x1="125.5" x2="125.5" y1="334.8516" y2="354.8516"/><polygon fill="#A80036" points="121.5,344.8516,125.5,354.8516,129.5,344.8516,125.5,348.8516" style="stroke: #A80036; stroke-width: 1.0;"/><line style="stroke: #A80036; stroke-width: 1.5;" x1="125.5" x2="125.5" y1="206.8281" y2="244.6641"/><polygon fill="#A80036" points="121.5,234.6641,125.5,244.6641,129.5,234.6641,125.5,238.6641" style="stroke: #A80036; stroke-width: 1.0;"/><line style="stroke: #A80036; stroke-width: 1.5;" x1="125.5" x2="125.5" y1="389.9453" y2="399.9453"/><line style="stroke: #A80036; stroke-width: 1.5;" x1="125.5" x2="218" y1="399.9453" y2="399.9453"/><polygon fill="#A80036" points="214,308.3867,218,298.3867,222,308.3867,218,304.3867" style="stroke: #A80036; stroke-width: 1.5;"/><line style="stroke: #A80036; stroke-width: 1.5;" x1="218" x2="218" y1="194.8281" y2="399.9453"/><line style="stroke: #A80036; stroke-width: 1.5;" x1="218" x2="151.5" y1="194.8281" y2="194.8281"/><polygon fill="#A80036" points="161.5,190.8281,151.5,194.8281,161.5,198.8281,157.5,194.8281" style="stroke: #A80036; stroke-width: 1.0;"/><line style="stroke: #A80036; stroke-width: 1.5;" x1="99.5" x2="24" y1="194.8281" y2="194.8281"/><line style="stroke: #A80036; stroke-width: 1.5;" x1="24" x2="24" y1="194.8281" y2="230.8281"/><polygon fill="#A80036" points="20,220.8281,24,230.8281,28,220.8281,24,224.8281" style="stroke: #A80036; stroke-width: 1.0;"/><line style="stroke: #A80036; stroke-width: 1.5;" x1="125.5" x2="125.5" y1="162.8281" y2="182.8281"/><polygon fill="#A80036" points="121.5,172.8281,125.5,182.8281,129.5,172.8281,125.5,176.8281" style="stroke: #A80036; stroke-width: 1.0;"/><!--MD5=[46f62aff5dba44ffbceee984066c4b69]
@startuml
title whileLoop
start
:New variable: <b>a</b>;
:Assign <color:darkblue><i>5</i></color> to <b>a</b>;
while (true ?) is (Yes)
:Assign <color:darkblue><i>-8</i></color> to <b>a</b>;
:Print: <color:darkblue><i>"hello"</i></color>;
:Enter subroutine: <color:darkred><b>forLoop</b></color>;
endwhile (No)
stop
@enduml

PlantUML version 1.2020.14(Sat Jun 20 09:14:34 COT 2020)
(GPL source distribution)
Java Runtime: Java(TM) SE Runtime Environment
JVM: Java HotSpot(TM) 64-Bit Server VM
Default Encoding: UTF-8
Language: es
Country: CO
--></g></svg>