<?xml version="1.0" encoding="UTF-8" standalone="no"?><svg xmlns="http://www.w3.org/2000/svg" xmlns:xlink="http://www.w3.org/1999/xlink" contentScriptType="application/ecmascript" contentStyleType="text/css" height="448px" preserveAspectRatio="none" style="width:320px;height:448px;" version="1.1" viewBox="0 0 320 448" width="320px" zoomAndPan="magnify"><defs><filter height="300%" id="fi87g1wiv5mn" width="300%" x="-1" y="-1"><feGaussianBlur result="blurOut" stdDeviation="2.0"/><feColorMatrix in="blurOut" result="blurOut2" type="matrix" values="0 0 0 0 0 0 0 0 0 0 0 0 0 0 0 0 0 0 .4 0"/><feOffset dx="4.0" dy="4.0" in="blurOut2" result="blurOut3"/><feBlend in="SourceGraphic" in2="blurOut3" mode="normal"/></filter></defs><g><text fill="#000000" font-family="sans-serif" font-size="18" lengthAdjust="spacingAndGlyphs" textLength="95" x="111.5" y="28.6855">conditionals</text><ellipse cx="151" cy="42.6406" fill="#000000" filter="url(#fi87g1wiv5mn)" rx="10" ry="10" style="stroke: none; stroke-width: 1.0;"/><rect fill="#FEFECE" filter="url(#fi87g1wiv5mn)" height="35.0938" rx="12.5" ry="12.5" style="stroke: #A80036; stroke-width: 1.5;" width="104" x="99" y="72.6406"/><text fill="#000000" font-family="sans-serif" font-size="12" lengthAdjust="spacingAndGlyphs" textLength="74" x="109" y="95.0977">New variable:</text><text fill="#000000" font-family="sans-serif" font-size="12" font-weight="bold" lengthAdjust="spacingAndGlyphs" textLength="7" x="186" y="95.0977">n</text><polygon fill="#FEFECE" filter="url(#fi87g1wiv5mn)" points="92.5,127.7344,209.5,127.7344,221.5,139.7344,209.5,151.7344,92.5,151.7344,80.5,139.7344,92.5,127.7344" style="stroke: #A80036; stroke-width: 1.5;"/><text fill="#000000" font-family="sans-serif" font-size="11" lengthAdjust="spacingAndGlyphs" textLength="117" x="92.5" y="144.2354">1 &gt; 4 or n not equals 0 ?</text><text fill="#000000" font-family="sans-serif" font-size="11" lengthAdjust="spacingAndGlyphs" textLength="18" x="62.5" y="137.3174">yes</text><text fill="#000000" font-family="sans-serif" font-size="11" lengthAdjust="spacingAndGlyphs" textLength="12" x="221.5" y="137.3174">no</text><rect fill="#FEFECE" filter="url(#fi87g1wiv5mn)" height="35.0938" rx="12.5" ry="12.5" style="stroke: #A80036; stroke-width: 1.5;" width="91" x="25" y="161.7344"/><text fill="#000000" font-family="sans-serif" font-size="12" lengthAdjust="spacingAndGlyphs" textLength="38" x="35" y="184.1914">Assign</text><text fill="#00008B" font-family="sans-serif" font-size="12" font-style="italic" lengthAdjust="spacingAndGlyphs" textLength="7" x="76" y="184.1914">2</text><text fill="#000000" font-family="sans-serif" font-size="12" lengthAdjust="spacingAndGlyphs" textLength="10" x="86" y="184.1914">to</text><text fill="#000000" font-family="sans-serif" font-size="12" font-weight="bold" lengthAdjust="spacingAndGlyphs" textLength="7" x="99" y="184.1914">n</text><rect fill="#FEFECE" filter="url(#fi87g1wiv5mn)" height="35.0938" rx="12.5" ry="12.5" style="stroke: #A80036; stroke-width: 1.5;" width="103" x="19" y="280.7461"/><text fill="#000000" font-family="sans-serif" font-size="12" lengthAdjust="spacingAndGlyphs" textLength="38" x="29" y="303.2031">Assign</text><text fill="#00008B" font-family="sans-serif" font-size="12" font-style="italic" lengthAdjust="spacingAndGlyphs" textLength="19" x="70" y="303.2031">5*n</text><text fill="#000000" font-family="sans-serif" font-size="12" lengthAdjust="spacingAndGlyphs" textLength="10" x="92" y="303.2031">to</text><text fill="#000000" font-family="sans-serif" font-size="12" font-weight="bold" lengthAdjust="spacingAndGlyphs" textLength="7" x="105" y="303.2031">n</text><polygon fill="#FEFECE" filter="url(#fi87g1wiv5mn)" points="32,231.8281,109,231.8281,121,243.8281,109,255.8281,32,255.8281,20,243.8281,32,231.8281" style="stroke: #A80036; stroke-width: 1.5;"/><text fill="#000000" font-family="sans-serif" font-size="11" lengthAdjust="spacingAndGlyphs" textLength="18" x="74.5" y="267.2471">yes</text><text fill="#000000" font-family="sans-serif" font-size="11" lengthAdjust="spacingAndGlyphs" textLength="77" x="32" y="248.3291">n not equals 2 ?</text><text fill="#000000" font-family="sans-serif" font-size="11" lengthAdjust="spacingAndGlyphs" textLength="12" x="121" y="241.4111">no</text><polygon fill="#FEFECE" filter="url(#fi87g1wiv5mn)" points="70.5,335.8398,82.5,347.8398,70.5,359.8398,58.5,347.8398,70.5,335.8398" style="stroke: #A80036; stroke-width: 1.5;"/><rect fill="#FEFECE" filter="url(#fi87g1wiv5mn)" height="35.0938" rx="12.5" ry="12.5" style="stroke: #A80036; stroke-width: 1.5;" width="105" x="179" y="210.6523"/><text fill="#000000" font-family="sans-serif" font-size="12" lengthAdjust="spacingAndGlyphs" textLength="38" x="189" y="233.1094">Assign</text><text fill="#00008B" font-family="sans-serif" font-size="12" font-style="italic" lengthAdjust="spacingAndGlyphs" textLength="21" x="230" y="233.1094">9+n</text><text fill="#000000" font-family="sans-serif" font-size="12" lengthAdjust="spacingAndGlyphs" textLength="10" x="254" y="233.1094">to</text><text fill="#000000" font-family="sans-serif" font-size="12" font-weight="bold" lengthAdjust="spacingAndGlyphs" textLength="7" x="267" y="233.1094">n</text><polygon fill="#FEFECE" filter="url(#fi87g1wiv5mn)" points="197.5,161.7344,265.5,161.7344,277.5,173.7344,265.5,185.7344,197.5,185.7344,185.5,173.7344,197.5,161.7344" style="stroke: #A80036; stroke-width: 1.5;"/><text fill="#000000" font-family="sans-serif" font-size="11" lengthAdjust="spacingAndGlyphs" textLength="18" x="235.5" y="197.1533">yes</text><text fill="#000000" font-family="sans-serif" font-size="11" lengthAdjust="spacingAndGlyphs" textLength="68" x="197.5" y="178.2354">true or false ?</text><text fill="#000000" font-family="sans-serif" font-size="11" lengthAdjust="spacingAndGlyphs" textLength="12" x="277.5" y="171.3174">no</text><polygon fill="#FEFECE" filter="url(#fi87g1wiv5mn)" points="231.5,270.6641,243.5,282.6641,231.5,294.6641,219.5,282.6641,231.5,270.6641" style="stroke: #A80036; stroke-width: 1.5;"/><polygon fill="#FEFECE" filter="url(#fi87g1wiv5mn)" points="151,365.8398,163,377.8398,151,389.8398,139,377.8398,151,365.8398" style="stroke: #A80036; stroke-width: 1.5;"/><ellipse cx="151" cy="420.8398" fill="#FFFFFF" filter="url(#fi87g1wiv5mn)" rx="11" ry="11" style="stroke: #000000; stroke-width: 1.0;"/><ellipse cx="151" cy="420.8398" fill="#000000" rx="6" ry="6" style="stroke: #7F7F7F; stroke-width: 1.0;"/><line style="stroke: #A80036; stroke-width: 1.5;" x1="151" x2="151" y1="52.6406" y2="72.6406"/><polygon fill="#A80036" points="147,62.6406,151,72.6406,155,62.6406,151,66.6406" style="stroke: #A80036; stroke-width: 1.0;"/><line style="stroke: #A80036; stroke-width: 1.5;" x1="70.5" x2="70.5" y1="255.8281" y2="280.7461"/><polygon fill="#A80036" points="66.5,270.7461,70.5,280.7461,74.5,270.7461,70.5,274.7461" style="stroke: #A80036; stroke-width: 1.0;"/><line style="stroke: #A80036; stroke-width: 1.5;" x1="121" x2="133" y1="243.8281" y2="243.8281"/><polygon fill="#A80036" points="129,288.293,133,298.293,137,288.293,133,292.293" style="stroke: #A80036; stroke-width: 1.5;"/><line style="stroke: #A80036; stroke-width: 1.5;" x1="133" x2="133" y1="243.8281" y2="347.8398"/><line style="stroke: #A80036; stroke-width: 1.5;" x1="133" x2="82.5" y1="347.8398" y2="347.8398"/><polygon fill="#A80036" points="92.5,343.8398,82.5,347.8398,92.5,351.8398,88.5,347.8398" style="stroke: #A80036; stroke-width: 1.0;"/><line style="stroke: #A80036; stroke-width: 1.5;" x1="70.5" x2="70.5" y1="315.8398" y2="335.8398"/><polygon fill="#A80036" points="66.5,325.8398,70.5,335.8398,74.5,325.8398,70.5,329.8398" style="stroke: #A80036; stroke-width: 1.0;"/><line style="stroke: #A80036; stroke-width: 1.5;" x1="70.5" x2="70.5" y1="196.8281" y2="231.8281"/><polygon fill="#A80036" points="66.5,221.8281,70.5,231.8281,74.5,221.8281,70.5,225.8281" style="stroke: #A80036; stroke-width: 1.0;"/><line style="stroke: #A80036; stroke-width: 1.5;" x1="231.5" x2="231.5" y1="185.7344" y2="210.6523"/><polygon fill="#A80036" points="227.5,200.6523,231.5,210.6523,235.5,200.6523,231.5,204.6523" style="stroke: #A80036; stroke-width: 1.0;"/><line style="stroke: #A80036; stroke-width: 1.5;" x1="277.5" x2="294" y1="173.7344" y2="173.7344"/><polygon fill="#A80036" points="290,218.1992,294,228.1992,298,218.1992,294,222.1992" style="stroke: #A80036; stroke-width: 1.5;"/><line style="stroke: #A80036; stroke-width: 1.5;" x1="294" x2="294" y1="173.7344" y2="282.6641"/><line style="stroke: #A80036; stroke-width: 1.5;" x1="294" x2="243.5" y1="282.6641" y2="282.6641"/><polygon fill="#A80036" points="253.5,278.6641,243.5,282.6641,253.5,286.6641,249.5,282.6641" style="stroke: #A80036; stroke-width: 1.0;"/><line style="stroke: #A80036; stroke-width: 1.5;" x1="231.5" x2="231.5" y1="245.7461" y2="270.6641"/><polygon fill="#A80036" points="227.5,260.6641,231.5,270.6641,235.5,260.6641,231.5,264.6641" style="stroke: #A80036; stroke-width: 1.0;"/><line style="stroke: #A80036; stroke-width: 1.5;" x1="80.5" x2="70.5" y1="139.7344" y2="139.7344"/><line style="stroke: #A80036; stroke-width: 1.5;" x1="70.5" x2="70.5" y1="139.7344" y2="161.7344"/><polygon fill="#A80036" points="66.5,151.7344,70.5,161.7344,74.5,151.7344,70.5,155.7344" style="stroke: #A80036; stroke-width: 1.0;"/><line style="stroke: #A80036; stroke-width: 1.5;" x1="221.5" x2="231.5" y1="139.7344" y2="139.7344"/><line style="stroke: #A80036; stroke-width: 1.5;" x1="231.5" x2="231.5" y1="139.7344" y2="161.7344"/><polygon fill="#A80036" points="227.5,151.7344,231.5,161.7344,235.5,151.7344,231.5,155.7344" style="stroke: #A80036; stroke-width: 1.0;"/><line style="stroke: #A80036; stroke-width: 1.5;" x1="70.5" x2="70.5" y1="359.8398" y2="377.8398"/><line style="stroke: #A80036; stroke-width: 1.5;" x1="70.5" x2="139" y1="377.8398" y2="377.8398"/><polygon fill="#A80036" points="129,373.8398,139,377.8398,129,381.8398,133,377.8398" style="stroke: #A80036; stroke-width: 1.0;"/><line style="stroke: #A80036; stroke-width: 1.5;" x1="231.5" x2="231.5" y1="294.6641" y2="377.8398"/><line style="stroke: #A80036; stroke-width: 1.5;" x1="231.5" x2="163" y1="377.8398" y2="377.8398"/><polygon fill="#A80036" points="173,373.8398,163,377.8398,173,381.8398,169,377.8398" style="stroke: #A80036; stroke-width: 1.0;"/><line style="stroke: #A80036; stroke-width: 1.5;" x1="151" x2="151" y1="107.7344" y2="127.7344"/><polygon fill="#A80036" points="147,117.7344,151,127.7344,155,117.7344,151,121.7344" style="stroke: #A80036; stroke-width: 1.0;"/><line style="stroke: #A80036; stroke-width: 1.5;" x1="151" x2="151" y1="389.8398" y2="409.8398"/><polygon fill="#A80036" points="147,399.8398,151,409.8398,155,399.8398,151,403.8398" style="stroke: #A80036; stroke-width: 1.0;"/><!--MD5=[55d9b676a81afe39ecb058736a86d48e]
@startuml
title conditionals
start
:New variable: <b>n</b>;
if (1 > 4 or n not equals 0 ?) then (yes)
:Assign <color:darkblue><i>2</i></color> to <b>n</b>;
if (n not equals 2 ?) then (yes)
:Assign <color:darkblue><i>5*n</i></color> to <b>n</b>;
else (no)
endif
else (no)
if (true or false ?) then (yes)
:Assign <color:darkblue><i>9+n</i></color> to <b>n</b>;
else (no)
endif
endif
stop
@enduml

PlantUML version 1.2020.14(Sat Jun 20 09:14:34 COT 2020)
(GPL source distribution)
Java Runtime: Java(TM) SE Runtime Environment
JVM: Java HotSpot(TM) 64-Bit Server VM
Default Encoding: UTF-8
Language: es
Country: CO
--></g></svg>