<?xml version="1.0" encoding="UTF-8" standalone="no"?><svg xmlns="http://www.w3.org/2000/svg" xmlns:xlink="http://www.w3.org/1999/xlink" contentScriptType="application/ecmascript" contentStyleType="text/css" height="340px" preserveAspectRatio="none" style="width:200px;height:340px;" version="1.1" viewBox="0 0 200 340" width="200px" zoomAndPan="magnify"><defs><filter height="300%" id="fhxhpzwmhc9vl" width="300%" x="-1" y="-1"><feGaussianBlur result="blurOut" stdDeviation="2.0"/><feColorMatrix in="blurOut" result="blurOut2" type="matrix" values="0 0 0 0 0 0 0 0 0 0 0 0 0 0 0 0 0 0 .4 0"/><feOffset dx="4.0" dy="4.0" in="blurOut2" result="blurOut3"/><feBlend in="SourceGraphic" in2="blurOut3" mode="normal"/></filter></defs><g><text fill="#000000" font-family="sans-serif" font-size="18" lengthAdjust="spacingAndGlyphs" textLength="131" x="33.75" y="28.6855">withReturnValue</text><ellipse cx="95.5" cy="42.6406" fill="#000000" filter="url(#fhxhpzwmhc9vl)" rx="10" ry="10" style="stroke: none; stroke-width: 1.0;"/><rect fill="#FEFECE" filter="url(#fhxhpzwmhc9vl)" height="35.0938" rx="12.5" ry="12.5" style="stroke: #A80036; stroke-width: 1.5;" width="141" x="25" y="72.6406"/><text fill="#000000" font-family="sans-serif" font-size="12" lengthAdjust="spacingAndGlyphs" textLength="74" x="35" y="95.0977">New variable:</text><text fill="#000000" font-family="sans-serif" font-size="12" font-weight="bold" lengthAdjust="spacingAndGlyphs" textLength="44" x="112" y="95.0977">number</text><rect fill="#FEFECE" filter="url(#fhxhpzwmhc9vl)" height="35.0938" rx="12.5" ry="12.5" style="stroke: #A80036; stroke-width: 1.5;" width="128" x="31.5" y="127.7344"/><text fill="#000000" font-family="sans-serif" font-size="12" lengthAdjust="spacingAndGlyphs" textLength="38" x="41.5" y="150.1914">Assign</text><text fill="#00008B" font-family="sans-serif" font-size="12" font-style="italic" lengthAdjust="spacingAndGlyphs" textLength="7" x="82.5" y="150.1914">6</text><text fill="#000000" font-family="sans-serif" font-size="12" lengthAdjust="spacingAndGlyphs" textLength="10" x="92.5" y="150.1914">to</text><text fill="#000000" font-family="sans-serif" font-size="12" font-weight="bold" lengthAdjust="spacingAndGlyphs" textLength="44" x="105.5" y="150.1914">number</text><polygon fill="#FEFECE" filter="url(#fhxhpzwmhc9vl)" points="64,182.8281,127,182.8281,139,194.8281,127,206.8281,64,206.8281,52,194.8281,64,182.8281" style="stroke: #A80036; stroke-width: 1.5;"/><text fill="#000000" font-family="sans-serif" font-size="11" lengthAdjust="spacingAndGlyphs" textLength="63" x="64" y="199.3291">number &gt; 6 ?</text><text fill="#000000" font-family="sans-serif" font-size="11" lengthAdjust="spacingAndGlyphs" textLength="18" x="34" y="192.4111">yes</text><text fill="#000000" font-family="sans-serif" font-size="11" lengthAdjust="spacingAndGlyphs" textLength="12" x="139" y="192.4111">no</text><rect fill="#FEFECE" filter="url(#fhxhpzwmhc9vl)" height="35.0938" rx="12.5" ry="12.5" style="stroke: #A80036; stroke-width: 1.5;" width="62" x="11" y="216.8281"/><text fill="#4B0082" font-family="sans-serif" font-size="12" font-style="italic" lengthAdjust="spacingAndGlyphs" textLength="32" x="21" y="239.2852">return</text><text fill="#000000" font-family="sans-serif" font-size="12" lengthAdjust="spacingAndGlyphs" textLength="0" x="56" y="239.2852"/><text fill="#4B0082" font-family="sans-serif" font-size="12" font-weight="bold" lengthAdjust="spacingAndGlyphs" textLength="7" x="56" y="239.2852">8</text><rect fill="#FEFECE" filter="url(#fhxhpzwmhc9vl)" height="35.0938" rx="12.5" ry="12.5" style="stroke: #A80036; stroke-width: 1.5;" width="69" x="114.5" y="216.8281"/><text fill="#4B0082" font-family="sans-serif" font-size="12" font-style="italic" lengthAdjust="spacingAndGlyphs" textLength="32" x="124.5" y="239.2852">return</text><text fill="#000000" font-family="sans-serif" font-size="12" lengthAdjust="spacingAndGlyphs" textLength="0" x="159.5" y="239.2852"/><text fill="#4B0082" font-family="sans-serif" font-size="12" font-weight="bold" lengthAdjust="spacingAndGlyphs" textLength="14" x="159.5" y="239.2852">20</text><polygon fill="#FEFECE" filter="url(#fhxhpzwmhc9vl)" points="95.5,257.9219,107.5,269.9219,95.5,281.9219,83.5,269.9219,95.5,257.9219" style="stroke: #A80036; stroke-width: 1.5;"/><ellipse cx="95.5" cy="312.9219" fill="#FFFFFF" filter="url(#fhxhpzwmhc9vl)" rx="11" ry="11" style="stroke: #000000; stroke-width: 1.0;"/><ellipse cx="95.5" cy="312.9219" fill="#000000" rx="6" ry="6" style="stroke: #7F7F7F; stroke-width: 1.0;"/><line style="stroke: #A80036; stroke-width: 1.5;" x1="95.5" x2="95.5" y1="52.6406" y2="72.6406"/><polygon fill="#A80036" points="91.5,62.6406,95.5,72.6406,99.5,62.6406,95.5,66.6406" style="stroke: #A80036; stroke-width: 1.0;"/><line style="stroke: #A80036; stroke-width: 1.5;" x1="95.5" x2="95.5" y1="107.7344" y2="127.7344"/><polygon fill="#A80036" points="91.5,117.7344,95.5,127.7344,99.5,117.7344,95.5,121.7344" style="stroke: #A80036; stroke-width: 1.0;"/><line style="stroke: #A80036; stroke-width: 1.5;" x1="52" x2="42" y1="194.8281" y2="194.8281"/><line style="stroke: #A80036; stroke-width: 1.5;" x1="42" x2="42" y1="194.8281" y2="216.8281"/><polygon fill="#A80036" points="38,206.8281,42,216.8281,46,206.8281,42,210.8281" style="stroke: #A80036; stroke-width: 1.0;"/><line style="stroke: #A80036; stroke-width: 1.5;" x1="139" x2="149" y1="194.8281" y2="194.8281"/><line style="stroke: #A80036; stroke-width: 1.5;" x1="149" x2="149" y1="194.8281" y2="216.8281"/><polygon fill="#A80036" points="145,206.8281,149,216.8281,153,206.8281,149,210.8281" style="stroke: #A80036; stroke-width: 1.0;"/><line style="stroke: #A80036; stroke-width: 1.5;" x1="42" x2="42" y1="251.9219" y2="269.9219"/><line style="stroke: #A80036; stroke-width: 1.5;" x1="42" x2="83.5" y1="269.9219" y2="269.9219"/><polygon fill="#A80036" points="73.5,265.9219,83.5,269.9219,73.5,273.9219,77.5,269.9219" style="stroke: #A80036; stroke-width: 1.0;"/><line style="stroke: #A80036; stroke-width: 1.5;" x1="149" x2="149" y1="251.9219" y2="269.9219"/><line style="stroke: #A80036; stroke-width: 1.5;" x1="149" x2="107.5" y1="269.9219" y2="269.9219"/><polygon fill="#A80036" points="117.5,265.9219,107.5,269.9219,117.5,273.9219,113.5,269.9219" style="stroke: #A80036; stroke-width: 1.0;"/><line style="stroke: #A80036; stroke-width: 1.5;" x1="95.5" x2="95.5" y1="162.8281" y2="182.8281"/><polygon fill="#A80036" points="91.5,172.8281,95.5,182.8281,99.5,172.8281,95.5,176.8281" style="stroke: #A80036; stroke-width: 1.0;"/><line style="stroke: #A80036; stroke-width: 1.5;" x1="95.5" x2="95.5" y1="281.9219" y2="301.9219"/><polygon fill="#A80036" points="91.5,291.9219,95.5,301.9219,99.5,291.9219,95.5,295.9219" style="stroke: #A80036; stroke-width: 1.0;"/><!--MD5=[e91f740e0151b8953c5f001f793b040c]
@startuml
title withReturnValue
start
:New variable: <b>number</b>;
:Assign <color:darkblue><i>6</i></color> to <b>number</b>;
if (number > 6 ?) then (yes)
:<color:INDIGO><i>return</i></color> <color:INDIGO><b>8</b></color>;
else (no)
:<color:INDIGO><i>return</i></color> <color:INDIGO><b>20</b></color>;
endif
stop
@enduml

PlantUML version 1.2020.14(Sat Jun 20 09:14:34 COT 2020)
(GPL source distribution)
Java Runtime: Java(TM) SE Runtime Environment
JVM: Java HotSpot(TM) 64-Bit Server VM
Default Encoding: UTF-8
Language: es
Country: CO
--></g></svg>