<?xml version="1.0" encoding="UTF-8" standalone="no"?><svg xmlns="http://www.w3.org/2000/svg" xmlns:xlink="http://www.w3.org/1999/xlink" contentScriptType="application/ecmascript" contentStyleType="text/css" height="250px" preserveAspectRatio="none" style="width:132px;height:250px;" version="1.1" viewBox="0 0 132 250" width="132px" zoomAndPan="magnify"><defs><filter height="300%" id="ft7usqov6k9gg" width="300%" x="-1" y="-1"><feGaussianBlur result="blurOut" stdDeviation="2.0"/><feColorMatrix in="blurOut" result="blurOut2" type="matrix" values="0 0 0 0 0 0 0 0 0 0 0 0 0 0 0 0 0 0 .4 0"/><feOffset dx="4.0" dy="4.0" in="blurOut2" result="blurOut3"/><feBlend in="SourceGraphic" in2="blurOut3" mode="normal"/></filter></defs><g><text fill="#000000" font-family="sans-serif" font-size="18" lengthAdjust="spacingAndGlyphs" textLength="59" x="35.5" y="28.6855">method</text><ellipse cx="63" cy="42.6406" fill="#000000" filter="url(#ft7usqov6k9gg)" rx="10" ry="10" style="stroke: none; stroke-width: 1.0;"/><rect fill="#FEFECE" filter="url(#ft7usqov6k9gg)" height="35.0938" rx="12.5" ry="12.5" style="stroke: #A80036; stroke-width: 1.5;" width="104" x="11" y="72.6406"/><text fill="#000000" font-family="sans-serif" font-size="12" lengthAdjust="spacingAndGlyphs" textLength="84" x="21" y="95.0977">New variable: n</text><polygon fill="#FEFECE" filter="url(#ft7usqov6k9gg)" points="51,127.7344,75,127.7344,87,139.7344,75,151.7344,51,151.7344,39,139.7344,51,127.7344" style="stroke: #A80036; stroke-width: 1.5;"/><text fill="#000000" font-family="sans-serif" font-size="11" lengthAdjust="spacingAndGlyphs" textLength="18" x="54" y="144.2354">1&gt;4</text><text fill="#000000" font-family="sans-serif" font-size="11" lengthAdjust="spacingAndGlyphs" textLength="18" x="21" y="137.3174">yes</text><text fill="#000000" font-family="sans-serif" font-size="11" lengthAdjust="spacingAndGlyphs" textLength="12" x="87" y="137.3174">no</text><polygon fill="#FEFECE" filter="url(#ft7usqov6k9gg)" points="63,167.7344,75,179.7344,63,191.7344,51,179.7344,63,167.7344" style="stroke: #A80036; stroke-width: 1.5;"/><ellipse cx="63" cy="222.7344" fill="#FFFFFF" filter="url(#ft7usqov6k9gg)" rx="11" ry="11" style="stroke: #000000; stroke-width: 1.0;"/><ellipse cx="63" cy="222.7344" fill="#000000" rx="6" ry="6" style="stroke: #7F7F7F; stroke-width: 1.0;"/><line style="stroke: #A80036; stroke-width: 1.5;" x1="63" x2="63" y1="52.6406" y2="72.6406"/><polygon fill="#A80036" points="59,62.6406,63,72.6406,67,62.6406,63,66.6406" style="stroke: #A80036; stroke-width: 1.0;"/><line style="stroke: #A80036; stroke-width: 1.5;" x1="39" x2="29" y1="139.7344" y2="139.7344"/><polygon fill="#A80036" points="25,149.7344,29,159.7344,33,149.7344,29,153.7344" style="stroke: #A80036; stroke-width: 1.5;"/><line style="stroke: #A80036; stroke-width: 1.5;" x1="29" x2="29" y1="139.7344" y2="179.7344"/><line style="stroke: #A80036; stroke-width: 1.5;" x1="29" x2="51" y1="179.7344" y2="179.7344"/><polygon fill="#A80036" points="41,175.7344,51,179.7344,41,183.7344,45,179.7344" style="stroke: #A80036; stroke-width: 1.0;"/><line style="stroke: #A80036; stroke-width: 1.5;" x1="87" x2="97" y1="139.7344" y2="139.7344"/><polygon fill="#A80036" points="93,149.7344,97,159.7344,101,149.7344,97,153.7344" style="stroke: #A80036; stroke-width: 1.5;"/><line style="stroke: #A80036; stroke-width: 1.5;" x1="97" x2="97" y1="139.7344" y2="179.7344"/><line style="stroke: #A80036; stroke-width: 1.5;" x1="97" x2="75" y1="179.7344" y2="179.7344"/><polygon fill="#A80036" points="85,175.7344,75,179.7344,85,183.7344,81,179.7344" style="stroke: #A80036; stroke-width: 1.0;"/><line style="stroke: #A80036; stroke-width: 1.5;" x1="63" x2="63" y1="107.7344" y2="127.7344"/><polygon fill="#A80036" points="59,117.7344,63,127.7344,67,117.7344,63,121.7344" style="stroke: #A80036; stroke-width: 1.0;"/><line style="stroke: #A80036; stroke-width: 1.5;" x1="63" x2="63" y1="191.7344" y2="211.7344"/><polygon fill="#A80036" points="59,201.7344,63,211.7344,67,201.7344,63,205.7344" style="stroke: #A80036; stroke-width: 1.0;"/><!--MD5=[985006dd843bcf6dab5d160a7c6fe955]
@startuml
title method
start
:New variable: n;
if (1>4) then (yes)
else (no)
endif
stop
@enduml

PlantUML version 1.2020.14(Sat Jun 20 09:14:34 COT 2020)
(GPL source distribution)
Java Runtime: Java(TM) SE Runtime Environment
JVM: Java HotSpot(TM) 64-Bit Server VM
Default Encoding: UTF-8
Language: es
Country: CO
--></g></svg>