<?xml version="1.0" encoding="UTF-8" standalone="no"?><svg xmlns="http://www.w3.org/2000/svg" xmlns:xlink="http://www.w3.org/1999/xlink" contentScriptType="application/ecmascript" contentStyleType="text/css" height="497px" preserveAspectRatio="none" style="width:246px;height:497px;" version="1.1" viewBox="0 0 246 497" width="246px" zoomAndPan="magnify"><defs><filter height="300%" id="ffx0auzrhce42" width="300%" x="-1" y="-1"><feGaussianBlur result="blurOut" stdDeviation="2.0"/><feColorMatrix in="blurOut" result="blurOut2" type="matrix" values="0 0 0 0 0 0 0 0 0 0 0 0 0 0 0 0 0 0 .4 0"/><feOffset dx="4.0" dy="4.0" in="blurOut2" result="blurOut3"/><feBlend in="SourceGraphic" in2="blurOut3" mode="normal"/></filter></defs><g><text fill="#000000" font-family="sans-serif" font-size="18" lengthAdjust="spacingAndGlyphs" textLength="38" x="103" y="28.6855">main</text><ellipse cx="120" cy="42.6406" fill="#000000" filter="url(#ffx0auzrhce42)" rx="10" ry="10" style="stroke: none; stroke-width: 1.0;"/><rect fill="#FEFECE" filter="url(#ffx0auzrhce42)" height="35.0938" rx="12.5" ry="12.5" style="stroke: #A80036; stroke-width: 1.5;" width="101" x="69.5" y="72.6406"/><text fill="#000000" font-family="sans-serif" font-size="12" lengthAdjust="spacingAndGlyphs" textLength="64" x="79.5" y="95.0977">New object:</text><text fill="#000000" font-family="sans-serif" font-size="12" font-weight="bold" lengthAdjust="spacingAndGlyphs" textLength="14" x="146.5" y="95.0977">ob</text><rect fill="#FEFECE" filter="url(#ffx0auzrhce42)" height="35.0938" rx="12.5" ry="12.5" style="stroke: #A80036; stroke-width: 1.5;" width="184" x="28" y="127.7344"/><text fill="#000000" font-family="sans-serif" font-size="12" lengthAdjust="spacingAndGlyphs" textLength="38" x="38" y="150.1914">Assign</text><text fill="#00008B" font-family="sans-serif" font-size="12" font-style="italic" lengthAdjust="spacingAndGlyphs" textLength="93" x="79" y="150.1914">newBubbleSort()</text><text fill="#000000" font-family="sans-serif" font-size="12" lengthAdjust="spacingAndGlyphs" textLength="10" x="175" y="150.1914">to</text><text fill="#000000" font-family="sans-serif" font-size="12" font-weight="bold" lengthAdjust="spacingAndGlyphs" textLength="14" x="188" y="150.1914">ob</text><rect fill="#FEFECE" filter="url(#ffx0auzrhce42)" height="35.0938" rx="12.5" ry="12.5" style="stroke: #A80036; stroke-width: 1.5;" width="98" x="71" y="182.8281"/><text fill="#000000" font-family="sans-serif" font-size="12" lengthAdjust="spacingAndGlyphs" textLength="58" x="81" y="205.2852">New array:</text><text fill="#000000" font-family="sans-serif" font-size="12" font-weight="bold" lengthAdjust="spacingAndGlyphs" textLength="17" x="142" y="205.2852">arr</text><rect fill="#FEFECE" filter="url(#ffx0auzrhce42)" height="35.0938" rx="12.5" ry="12.5" style="stroke: #A80036; stroke-width: 1.5;" width="218" x="11" y="237.9219"/><text fill="#000000" font-family="sans-serif" font-size="12" lengthAdjust="spacingAndGlyphs" textLength="38" x="21" y="260.3789">Assign</text><text fill="#00008B" font-family="sans-serif" font-size="12" font-style="italic" lengthAdjust="spacingAndGlyphs" textLength="124" x="62" y="260.3789">{64,34,25,12,22,11,90}</text><text fill="#000000" font-family="sans-serif" font-size="12" lengthAdjust="spacingAndGlyphs" textLength="10" x="189" y="260.3789">to</text><text fill="#000000" font-family="sans-serif" font-size="12" font-weight="bold" lengthAdjust="spacingAndGlyphs" textLength="17" x="202" y="260.3789">arr</text><rect fill="#FEFECE" filter="url(#ffx0auzrhce42)" height="35.0938" rx="12.5" ry="12.5" style="stroke: #A80036; stroke-width: 1.5;" width="179" x="30.5" y="293.0156"/><text fill="#000000" font-family="sans-serif" font-size="12" lengthAdjust="spacingAndGlyphs" textLength="94" x="40.5" y="315.4727">Enter subroutine:</text><text fill="#8B0000" font-family="sans-serif" font-size="12" font-weight="bold" lengthAdjust="spacingAndGlyphs" textLength="62" x="137.5" y="315.4727">bubbleSort</text><rect fill="#FEFECE" filter="url(#ffx0auzrhce42)" height="35.0938" rx="12.5" ry="12.5" style="stroke: #A80036; stroke-width: 1.5;" width="126" x="57" y="348.1094"/><text fill="#000000" font-family="sans-serif" font-size="12" lengthAdjust="spacingAndGlyphs" textLength="28" x="67" y="370.5664">Print:</text><text fill="#00008B" font-family="sans-serif" font-size="12" font-style="italic" lengthAdjust="spacingAndGlyphs" textLength="75" x="98" y="370.5664">"Sorted array"</text><rect fill="#FEFECE" filter="url(#ffx0auzrhce42)" height="35.0938" rx="12.5" ry="12.5" style="stroke: #A80036; stroke-width: 1.5;" width="174" x="33" y="403.2031"/><text fill="#000000" font-family="sans-serif" font-size="12" lengthAdjust="spacingAndGlyphs" textLength="94" x="43" y="425.6602">Enter subroutine:</text><text fill="#8B0000" font-family="sans-serif" font-size="12" font-weight="bold" lengthAdjust="spacingAndGlyphs" textLength="57" x="140" y="425.6602">printArray</text><ellipse cx="120" cy="469.2969" fill="#FFFFFF" filter="url(#ffx0auzrhce42)" rx="11" ry="11" style="stroke: #000000; stroke-width: 1.0;"/><ellipse cx="120" cy="469.2969" fill="#000000" rx="6" ry="6" style="stroke: #7F7F7F; stroke-width: 1.0;"/><line style="stroke: #A80036; stroke-width: 1.5;" x1="120" x2="120" y1="52.6406" y2="72.6406"/><polygon fill="#A80036" points="116,62.6406,120,72.6406,124,62.6406,120,66.6406" style="stroke: #A80036; stroke-width: 1.0;"/><line style="stroke: #A80036; stroke-width: 1.5;" x1="120" x2="120" y1="107.7344" y2="127.7344"/><polygon fill="#A80036" points="116,117.7344,120,127.7344,124,117.7344,120,121.7344" style="stroke: #A80036; stroke-width: 1.0;"/><line style="stroke: #A80036; stroke-width: 1.5;" x1="120" x2="120" y1="162.8281" y2="182.8281"/><polygon fill="#A80036" points="116,172.8281,120,182.8281,124,172.8281,120,176.8281" style="stroke: #A80036; stroke-width: 1.0;"/><line style="stroke: #A80036; stroke-width: 1.5;" x1="120" x2="120" y1="217.9219" y2="237.9219"/><polygon fill="#A80036" points="116,227.9219,120,237.9219,124,227.9219,120,231.9219" style="stroke: #A80036; stroke-width: 1.0;"/><line style="stroke: #A80036; stroke-width: 1.5;" x1="120" x2="120" y1="273.0156" y2="293.0156"/><polygon fill="#A80036" points="116,283.0156,120,293.0156,124,283.0156,120,287.0156" style="stroke: #A80036; stroke-width: 1.0;"/><line style="stroke: #A80036; stroke-width: 1.5;" x1="120" x2="120" y1="328.1094" y2="348.1094"/><polygon fill="#A80036" points="116,338.1094,120,348.1094,124,338.1094,120,342.1094" style="stroke: #A80036; stroke-width: 1.0;"/><line style="stroke: #A80036; stroke-width: 1.5;" x1="120" x2="120" y1="383.2031" y2="403.2031"/><polygon fill="#A80036" points="116,393.2031,120,403.2031,124,393.2031,120,397.2031" style="stroke: #A80036; stroke-width: 1.0;"/><line style="stroke: #A80036; stroke-width: 1.5;" x1="120" x2="120" y1="438.2969" y2="458.2969"/><polygon fill="#A80036" points="116,448.2969,120,458.2969,124,448.2969,120,452.2969" style="stroke: #A80036; stroke-width: 1.0;"/><!--MD5=[ccff487e98519875372c41d2083bba0e]
@startuml
title main
start
:New object: <b>ob</b>;
:Assign <color:darkblue><i>newBubbleSort()</i></color> to <b>ob</b>;
:New array: <b>arr</b>;
:Assign <color:darkblue><i>{64,34,25,12,22,11,90}</i></color> to <b>arr</b>;
:Enter subroutine: <color:darkred><b>bubbleSort</b></color>;
:Print: <color:darkblue><i>"Sorted array"</i></color>;
:Enter subroutine: <color:darkred><b>printArray</b></color>;
stop
@enduml

PlantUML version 1.2020.14(Sat Jun 20 09:14:34 COT 2020)
(GPL source distribution)
Java Runtime: Java(TM) SE Runtime Environment
JVM: Java HotSpot(TM) 64-Bit Server VM
Default Encoding: UTF-8
Language: es
Country: CO
--></g></svg>