<?xml version="1.0" encoding="UTF-8" standalone="no"?><svg xmlns="http://www.w3.org/2000/svg" xmlns:xlink="http://www.w3.org/1999/xlink" contentScriptType="application/ecmascript" contentStyleType="text/css" height="343px" preserveAspectRatio="none" style="width:209px;height:343px;" version="1.1" viewBox="0 0 209 343" width="209px" zoomAndPan="magnify"><defs><filter height="300%" id="fy9q5n7tinulu" width="300%" x="-1" y="-1"><feGaussianBlur result="blurOut" stdDeviation="2.0"/><feColorMatrix in="blurOut" result="blurOut2" type="matrix" values="0 0 0 0 0 0 0 0 0 0 0 0 0 0 0 0 0 0 .4 0"/><feOffset dx="4.0" dy="4.0" in="blurOut2" result="blurOut3"/><feBlend in="SourceGraphic" in2="blurOut3" mode="normal"/></filter></defs><g><text fill="#000000" font-family="sans-serif" font-size="18" lengthAdjust="spacingAndGlyphs" textLength="60" x="73.5" y="28.6855">register</text><ellipse cx="95.5" cy="42.6406" fill="#000000" filter="url(#fy9q5n7tinulu)" rx="10" ry="10" style="stroke: none; stroke-width: 1.0;"/><polygon fill="#FEFECE" filter="url(#fy9q5n7tinulu)" points="57,72.6406,134,72.6406,146,84.6406,134,96.6406,57,96.6406,45,84.6406,57,72.6406" style="stroke: #A80036; stroke-width: 1.5;"/><text fill="#000000" font-family="sans-serif" font-size="11" lengthAdjust="spacingAndGlyphs" textLength="77" x="57" y="89.1416">obj equals null ?</text><text fill="#000000" font-family="sans-serif" font-size="11" lengthAdjust="spacingAndGlyphs" textLength="18" x="27" y="82.2236">yes</text><text fill="#000000" font-family="sans-serif" font-size="11" lengthAdjust="spacingAndGlyphs" textLength="12" x="146" y="82.2236">no</text><polygon fill="#FEFECE" filter="url(#fy9q5n7tinulu)" points="95.5,112.6406,107.5,124.6406,95.5,136.6406,83.5,124.6406,95.5,112.6406" style="stroke: #A80036; stroke-width: 1.5;"/><rect fill="#FEFECE" filter="url(#fy9q5n7tinulu)" height="35.0938" rx="12.5" ry="12.5" style="stroke: #A80036; stroke-width: 1.5;" width="124" x="33.5" y="205.5586"/><text fill="#000000" font-family="sans-serif" font-size="12" lengthAdjust="spacingAndGlyphs" textLength="104" x="43.5" y="228.0156">observers.add(obj)</text><polygon fill="#FEFECE" filter="url(#fy9q5n7tinulu)" points="32,156.6406,159,156.6406,171,168.6406,159,180.6406,32,180.6406,20,168.6406,32,156.6406" style="stroke: #A80036; stroke-width: 1.5;"/><text fill="#000000" font-family="sans-serif" font-size="11" lengthAdjust="spacingAndGlyphs" textLength="18" x="99.5" y="192.0596">yes</text><text fill="#000000" font-family="sans-serif" font-size="11" lengthAdjust="spacingAndGlyphs" textLength="127" x="32" y="173.1416">!observers.contains(obj) ?</text><text fill="#000000" font-family="sans-serif" font-size="11" lengthAdjust="spacingAndGlyphs" textLength="12" x="171" y="166.2236">no</text><polygon fill="#FEFECE" filter="url(#fy9q5n7tinulu)" points="95.5,260.6523,107.5,272.6523,95.5,284.6523,83.5,272.6523,95.5,260.6523" style="stroke: #A80036; stroke-width: 1.5;"/><ellipse cx="95.5" cy="315.6523" fill="#FFFFFF" filter="url(#fy9q5n7tinulu)" rx="11" ry="11" style="stroke: #000000; stroke-width: 1.0;"/><ellipse cx="95.5" cy="315.6523" fill="#000000" rx="6" ry="6" style="stroke: #7F7F7F; stroke-width: 1.0;"/><line style="stroke: #A80036; stroke-width: 1.5;" x1="45" x2="35" y1="84.6406" y2="84.6406"/><polygon fill="#A80036" points="31,94.6406,35,104.6406,39,94.6406,35,98.6406" style="stroke: #A80036; stroke-width: 1.5;"/><line style="stroke: #A80036; stroke-width: 1.5;" x1="35" x2="35" y1="84.6406" y2="124.6406"/><line style="stroke: #A80036; stroke-width: 1.5;" x1="35" x2="83.5" y1="124.6406" y2="124.6406"/><polygon fill="#A80036" points="73.5,120.6406,83.5,124.6406,73.5,128.6406,77.5,124.6406" style="stroke: #A80036; stroke-width: 1.0;"/><line style="stroke: #A80036; stroke-width: 1.5;" x1="146" x2="156" y1="84.6406" y2="84.6406"/><polygon fill="#A80036" points="152,94.6406,156,104.6406,160,94.6406,156,98.6406" style="stroke: #A80036; stroke-width: 1.5;"/><line style="stroke: #A80036; stroke-width: 1.5;" x1="156" x2="156" y1="84.6406" y2="124.6406"/><line style="stroke: #A80036; stroke-width: 1.5;" x1="156" x2="107.5" y1="124.6406" y2="124.6406"/><polygon fill="#A80036" points="117.5,120.6406,107.5,124.6406,117.5,128.6406,113.5,124.6406" style="stroke: #A80036; stroke-width: 1.0;"/><line style="stroke: #A80036; stroke-width: 1.5;" x1="95.5" x2="95.5" y1="52.6406" y2="72.6406"/><polygon fill="#A80036" points="91.5,62.6406,95.5,72.6406,99.5,62.6406,95.5,66.6406" style="stroke: #A80036; stroke-width: 1.0;"/><line style="stroke: #A80036; stroke-width: 1.5;" x1="95.5" x2="95.5" y1="180.6406" y2="205.5586"/><polygon fill="#A80036" points="91.5,195.5586,95.5,205.5586,99.5,195.5586,95.5,199.5586" style="stroke: #A80036; stroke-width: 1.0;"/><line style="stroke: #A80036; stroke-width: 1.5;" x1="171" x2="183" y1="168.6406" y2="168.6406"/><polygon fill="#A80036" points="179,213.1055,183,223.1055,187,213.1055,183,217.1055" style="stroke: #A80036; stroke-width: 1.5;"/><line style="stroke: #A80036; stroke-width: 1.5;" x1="183" x2="183" y1="168.6406" y2="272.6523"/><line style="stroke: #A80036; stroke-width: 1.5;" x1="183" x2="107.5" y1="272.6523" y2="272.6523"/><polygon fill="#A80036" points="117.5,268.6523,107.5,272.6523,117.5,276.6523,113.5,272.6523" style="stroke: #A80036; stroke-width: 1.0;"/><line style="stroke: #A80036; stroke-width: 1.5;" x1="95.5" x2="95.5" y1="240.6523" y2="260.6523"/><polygon fill="#A80036" points="91.5,250.6523,95.5,260.6523,99.5,250.6523,95.5,254.6523" style="stroke: #A80036; stroke-width: 1.0;"/><line style="stroke: #A80036; stroke-width: 1.5;" x1="95.5" x2="95.5" y1="136.6406" y2="156.6406"/><polygon fill="#A80036" points="91.5,146.6406,95.5,156.6406,99.5,146.6406,95.5,150.6406" style="stroke: #A80036; stroke-width: 1.0;"/><line style="stroke: #A80036; stroke-width: 1.5;" x1="95.5" x2="95.5" y1="284.6523" y2="304.6523"/><polygon fill="#A80036" points="91.5,294.6523,95.5,304.6523,99.5,294.6523,95.5,298.6523" style="stroke: #A80036; stroke-width: 1.0;"/><!--MD5=[8ca39dc0c05b15a569c71c3ae84ee391]
@startuml
title register
start
if (obj equals null ?) then (yes)
else (no)
endif
if (!observers.contains(obj) ?) then (yes)
:observers.add(obj);
else (no)
endif
stop
@enduml

PlantUML version 1.2020.14(Sat Jun 20 09:14:34 COT 2020)
(GPL source distribution)
Java Runtime: Java(TM) SE Runtime Environment
JVM: Java HotSpot(TM) 64-Bit Server VM
Default Encoding: UTF-8
Language: es
Country: CO
--></g></svg>