<?xml version="1.0" encoding="UTF-8" standalone="no"?><svg xmlns="http://www.w3.org/2000/svg" xmlns:xlink="http://www.w3.org/1999/xlink" contentScriptType="application/ecmascript" contentStyleType="text/css" height="996px" preserveAspectRatio="none" style="width:260px;height:996px;" version="1.1" viewBox="0 0 260 996" width="260px" zoomAndPan="magnify"><defs><filter height="300%" id="fpdoprf2ezql" width="300%" x="-1" y="-1"><feGaussianBlur result="blurOut" stdDeviation="2.0"/><feColorMatrix in="blurOut" result="blurOut2" type="matrix" values="0 0 0 0 0 0 0 0 0 0 0 0 0 0 0 0 0 0 .4 0"/><feOffset dx="4.0" dy="4.0" in="blurOut2" result="blurOut3"/><feBlend in="SourceGraphic" in2="blurOut3" mode="normal"/></filter></defs><g><text fill="#000000" font-family="sans-serif" font-size="18" lengthAdjust="spacingAndGlyphs" textLength="87" x="85.5" y="28.6855">bubbleSort</text><ellipse cx="134.5" cy="42.6406" fill="#000000" filter="url(#fpdoprf2ezql)" rx="10" ry="10" style="stroke: none; stroke-width: 1.0;"/><rect fill="#FEFECE" filter="url(#fpdoprf2ezql)" height="35.0938" rx="12.5" ry="12.5" style="stroke: #A80036; stroke-width: 1.5;" width="104" x="82.5" y="72.6406"/><text fill="#000000" font-family="sans-serif" font-size="12" lengthAdjust="spacingAndGlyphs" textLength="84" x="92.5" y="95.0977">New variable: n</text><rect fill="#FEFECE" filter="url(#fpdoprf2ezql)" height="35.0938" rx="12.5" ry="12.5" style="stroke: #A80036; stroke-width: 1.5;" width="136" x="66.5" y="127.7344"/><text fill="#000000" font-family="sans-serif" font-size="12" lengthAdjust="spacingAndGlyphs" textLength="116" x="76.5" y="150.1914">Assign arr.length to n</text><rect fill="#FEFECE" filter="url(#fpdoprf2ezql)" height="35.0938" rx="12.5" ry="12.5" style="stroke: #A80036; stroke-width: 1.5;" width="100" x="84.5" y="182.8281"/><text fill="#000000" font-family="sans-serif" font-size="12" lengthAdjust="spacingAndGlyphs" textLength="80" x="94.5" y="205.2852">New variable: i</text><rect fill="#FEFECE" filter="url(#fpdoprf2ezql)" height="35.0938" rx="12.5" ry="12.5" style="stroke: #A80036; stroke-width: 1.5;" width="87" x="91" y="237.9219"/><text fill="#000000" font-family="sans-serif" font-size="12" lengthAdjust="spacingAndGlyphs" textLength="67" x="101" y="260.3789">Assign 0 to i</text><rect fill="#FEFECE" filter="url(#fpdoprf2ezql)" height="35.0938" rx="12.5" ry="12.5" style="stroke: #A80036; stroke-width: 1.5;" width="37" x="116" y="354.8516"/><text fill="#000000" font-family="sans-serif" font-size="12" lengthAdjust="spacingAndGlyphs" textLength="17" x="126" y="377.3086">i++</text><rect fill="#FEFECE" filter="url(#fpdoprf2ezql)" height="35.0938" rx="12.5" ry="12.5" style="stroke: #A80036; stroke-width: 1.5;" width="100" x="84.5" y="409.9453"/><text fill="#000000" font-family="sans-serif" font-size="12" lengthAdjust="spacingAndGlyphs" textLength="80" x="94.5" y="432.4023">New variable: j</text><rect fill="#FEFECE" filter="url(#fpdoprf2ezql)" height="35.0938" rx="12.5" ry="12.5" style="stroke: #A80036; stroke-width: 1.5;" width="87" x="91" y="465.0391"/><text fill="#000000" font-family="sans-serif" font-size="12" lengthAdjust="spacingAndGlyphs" textLength="67" x="101" y="487.4961">Assign 0 to j</text><rect fill="#FEFECE" filter="url(#fpdoprf2ezql)" height="35.0938" rx="12.5" ry="12.5" style="stroke: #A80036; stroke-width: 1.5;" width="37" x="116" y="577.0518"/><text fill="#000000" font-family="sans-serif" font-size="12" lengthAdjust="spacingAndGlyphs" textLength="17" x="126" y="599.5088">j++</text><rect fill="#FEFECE" filter="url(#fpdoprf2ezql)" height="35.0938" rx="12.5" ry="12.5" style="stroke: #A80036; stroke-width: 1.5;" width="125" x="72" y="681.0635"/><text fill="#000000" font-family="sans-serif" font-size="12" lengthAdjust="spacingAndGlyphs" textLength="105" x="82" y="703.5205">New variable: temp</text><rect fill="#FEFECE" filter="url(#fpdoprf2ezql)" height="35.0938" rx="12.5" ry="12.5" style="stroke: #A80036; stroke-width: 1.5;" width="129" x="70" y="736.1572"/><text fill="#000000" font-family="sans-serif" font-size="12" lengthAdjust="spacingAndGlyphs" textLength="109" x="80" y="758.6143">Assign arr[j] to temp</text><rect fill="#FEFECE" filter="url(#fpdoprf2ezql)" height="35.0938" rx="12.5" ry="12.5" style="stroke: #A80036; stroke-width: 1.5;" width="139" x="65" y="806.251"/><text fill="#000000" font-family="sans-serif" font-size="12" lengthAdjust="spacingAndGlyphs" textLength="119" x="75" y="828.708">Assign arr[j+1] to arr[j]</text><rect fill="#FEFECE" filter="url(#fpdoprf2ezql)" height="35.0938" rx="12.5" ry="12.5" style="stroke: #A80036; stroke-width: 1.5;" width="143" x="63" y="861.3447"/><text fill="#000000" font-family="sans-serif" font-size="12" lengthAdjust="spacingAndGlyphs" textLength="123" x="73" y="883.8018">Assign temp to arr[j+1]</text><polygon fill="#FEFECE" filter="url(#fpdoprf2ezql)" points="103.5,632.1455,165.5,632.1455,177.5,644.1455,165.5,656.1455,103.5,656.1455,91.5,644.1455,103.5,632.1455" style="stroke: #A80036; stroke-width: 1.5;"/><text fill="#000000" font-family="sans-serif" font-size="11" lengthAdjust="spacingAndGlyphs" textLength="18" x="138.5" y="667.5645">yes</text><text fill="#000000" font-family="sans-serif" font-size="11" lengthAdjust="spacingAndGlyphs" textLength="62" x="103.5" y="648.6465">arr[j]&gt;arr[j+1]</text><text fill="#000000" font-family="sans-serif" font-size="11" lengthAdjust="spacingAndGlyphs" textLength="12" x="177.5" y="641.7285">no</text><polygon fill="#FEFECE" filter="url(#fpdoprf2ezql)" points="134.5,916.4385,146.5,928.4385,134.5,940.4385,122.5,928.4385,134.5,916.4385" style="stroke: #A80036; stroke-width: 1.5;"/><polygon fill="#FEFECE" filter="url(#fpdoprf2ezql)" points="119.5,520.1328,149.5,520.1328,161.5,532.1328,149.5,544.1328,119.5,544.1328,107.5,532.1328,119.5,520.1328" style="stroke: #A80036; stroke-width: 1.5;"/><text fill="#000000" font-family="sans-serif" font-size="11" lengthAdjust="spacingAndGlyphs" textLength="20" x="138.5" y="555.5518">Yes</text><text fill="#000000" font-family="sans-serif" font-size="11" lengthAdjust="spacingAndGlyphs" textLength="30" x="119.5" y="536.6338">j&lt;n-i-1</text><text fill="#000000" font-family="sans-serif" font-size="11" lengthAdjust="spacingAndGlyphs" textLength="13" x="94.5" y="529.7158">No</text><polygon fill="#FEFECE" filter="url(#fpdoprf2ezql)" points="122.5,293.0156,146.5,293.0156,158.5,305.0156,146.5,317.0156,122.5,317.0156,110.5,305.0156,122.5,293.0156" style="stroke: #A80036; stroke-width: 1.5;"/><text fill="#000000" font-family="sans-serif" font-size="11" lengthAdjust="spacingAndGlyphs" textLength="20" x="138.5" y="328.4346">Yes</text><text fill="#000000" font-family="sans-serif" font-size="11" lengthAdjust="spacingAndGlyphs" textLength="24" x="122.5" y="309.5166">i&lt;n-1</text><text fill="#000000" font-family="sans-serif" font-size="11" lengthAdjust="spacingAndGlyphs" textLength="13" x="97.5" y="302.5986">No</text><ellipse cx="24" cy="352.0156" fill="#FFFFFF" filter="url(#fpdoprf2ezql)" rx="11" ry="11" style="stroke: #000000; stroke-width: 1.0;"/><ellipse cx="24" cy="352.0156" fill="#000000" rx="6" ry="6" style="stroke: #7F7F7F; stroke-width: 1.0;"/><line style="stroke: #A80036; stroke-width: 1.5;" x1="134.5" x2="134.5" y1="52.6406" y2="72.6406"/><polygon fill="#A80036" points="130.5,62.6406,134.5,72.6406,138.5,62.6406,134.5,66.6406" style="stroke: #A80036; stroke-width: 1.0;"/><line style="stroke: #A80036; stroke-width: 1.5;" x1="134.5" x2="134.5" y1="107.7344" y2="127.7344"/><polygon fill="#A80036" points="130.5,117.7344,134.5,127.7344,138.5,117.7344,134.5,121.7344" style="stroke: #A80036; stroke-width: 1.0;"/><line style="stroke: #A80036; stroke-width: 1.5;" x1="134.5" x2="134.5" y1="162.8281" y2="182.8281"/><polygon fill="#A80036" points="130.5,172.8281,134.5,182.8281,138.5,172.8281,134.5,176.8281" style="stroke: #A80036; stroke-width: 1.0;"/><line style="stroke: #A80036; stroke-width: 1.5;" x1="134.5" x2="134.5" y1="217.9219" y2="237.9219"/><polygon fill="#A80036" points="130.5,227.9219,134.5,237.9219,138.5,227.9219,134.5,231.9219" style="stroke: #A80036; stroke-width: 1.0;"/><line style="stroke: #A80036; stroke-width: 1.5;" x1="134.5" x2="134.5" y1="389.9453" y2="409.9453"/><polygon fill="#A80036" points="130.5,399.9453,134.5,409.9453,138.5,399.9453,134.5,403.9453" style="stroke: #A80036; stroke-width: 1.0;"/><line style="stroke: #A80036; stroke-width: 1.5;" x1="134.5" x2="134.5" y1="445.0391" y2="465.0391"/><polygon fill="#A80036" points="130.5,455.0391,134.5,465.0391,138.5,455.0391,134.5,459.0391" style="stroke: #A80036; stroke-width: 1.0;"/><line style="stroke: #A80036; stroke-width: 1.5;" x1="134.5" x2="134.5" y1="716.1572" y2="736.1572"/><polygon fill="#A80036" points="130.5,726.1572,134.5,736.1572,138.5,726.1572,134.5,730.1572" style="stroke: #A80036; stroke-width: 1.0;"/><line style="stroke: #A80036; stroke-width: 1.5;" x1="134.5" x2="134.5" y1="771.251" y2="806.251"/><polygon fill="#A80036" points="130.5,796.251,134.5,806.251,138.5,796.251,134.5,800.251" style="stroke: #A80036; stroke-width: 1.0;"/><line style="stroke: #A80036; stroke-width: 1.5;" x1="134.5" x2="134.5" y1="841.3447" y2="861.3447"/><polygon fill="#A80036" points="130.5,851.3447,134.5,861.3447,138.5,851.3447,134.5,855.3447" style="stroke: #A80036; stroke-width: 1.0;"/><line style="stroke: #A80036; stroke-width: 1.5;" x1="134.5" x2="134.5" y1="656.1455" y2="681.0635"/><polygon fill="#A80036" points="130.5,671.0635,134.5,681.0635,138.5,671.0635,134.5,675.0635" style="stroke: #A80036; stroke-width: 1.0;"/><line style="stroke: #A80036; stroke-width: 1.5;" x1="177.5" x2="216" y1="644.1455" y2="644.1455"/><polygon fill="#A80036" points="212,778.751,216,788.751,220,778.751,216,782.751" style="stroke: #A80036; stroke-width: 1.5;"/><line style="stroke: #A80036; stroke-width: 1.5;" x1="216" x2="216" y1="644.1455" y2="928.4385"/><line style="stroke: #A80036; stroke-width: 1.5;" x1="216" x2="146.5" y1="928.4385" y2="928.4385"/><polygon fill="#A80036" points="156.5,924.4385,146.5,928.4385,156.5,932.4385,152.5,928.4385" style="stroke: #A80036; stroke-width: 1.0;"/><line style="stroke: #A80036; stroke-width: 1.5;" x1="134.5" x2="134.5" y1="896.4385" y2="916.4385"/><polygon fill="#A80036" points="130.5,906.4385,134.5,916.4385,138.5,906.4385,134.5,910.4385" style="stroke: #A80036; stroke-width: 1.0;"/><line style="stroke: #A80036; stroke-width: 1.5;" x1="134.5" x2="134.5" y1="612.1455" y2="632.1455"/><polygon fill="#A80036" points="130.5,622.1455,134.5,632.1455,138.5,622.1455,134.5,626.1455" style="stroke: #A80036; stroke-width: 1.0;"/><line style="stroke: #A80036; stroke-width: 1.5;" x1="134.5" x2="134.5" y1="544.1328" y2="577.0518"/><polygon fill="#A80036" points="130.5,567.0518,134.5,577.0518,138.5,567.0518,134.5,571.0518" style="stroke: #A80036; stroke-width: 1.0;"/><line style="stroke: #A80036; stroke-width: 1.5;" x1="134.5" x2="134.5" y1="940.4385" y2="950.4385"/><line style="stroke: #A80036; stroke-width: 1.5;" x1="134.5" x2="234" y1="950.4385" y2="950.4385"/><polygon fill="#A80036" points="230,744.7861,234,734.7861,238,744.7861,234,740.7861" style="stroke: #A80036; stroke-width: 1.5;"/><line style="stroke: #A80036; stroke-width: 1.5;" x1="234" x2="234" y1="532.1328" y2="950.4385"/><line style="stroke: #A80036; stroke-width: 1.5;" x1="234" x2="161.5" y1="532.1328" y2="532.1328"/><polygon fill="#A80036" points="171.5,528.1328,161.5,532.1328,171.5,536.1328,167.5,532.1328" style="stroke: #A80036; stroke-width: 1.0;"/><line style="stroke: #A80036; stroke-width: 1.5;" x1="107.5" x2="49" y1="532.1328" y2="532.1328"/><polygon fill="#A80036" points="45,730.7861,49,740.7861,53,730.7861,49,734.7861" style="stroke: #A80036; stroke-width: 1.5;"/><line style="stroke: #A80036; stroke-width: 1.5;" x1="49" x2="49" y1="532.1328" y2="962.4385"/><line style="stroke: #A80036; stroke-width: 1.5;" x1="49" x2="246" y1="962.4385" y2="962.4385"/><line style="stroke: #A80036; stroke-width: 1.5;" x1="246" x2="246" y1="305.0156" y2="962.4385"/><line style="stroke: #A80036; stroke-width: 1.5;" x1="246" x2="158.5" y1="305.0156" y2="305.0156"/><polygon fill="#A80036" points="168.5,301.0156,158.5,305.0156,168.5,309.0156,164.5,305.0156" style="stroke: #A80036; stroke-width: 1.0;"/><line style="stroke: #A80036; stroke-width: 1.5;" x1="134.5" x2="134.5" y1="500.1328" y2="520.1328"/><polygon fill="#A80036" points="130.5,510.1328,134.5,520.1328,138.5,510.1328,134.5,514.1328" style="stroke: #A80036; stroke-width: 1.0;"/><line style="stroke: #A80036; stroke-width: 1.5;" x1="134.5" x2="134.5" y1="317.0156" y2="354.8516"/><polygon fill="#A80036" points="130.5,344.8516,134.5,354.8516,138.5,344.8516,134.5,348.8516" style="stroke: #A80036; stroke-width: 1.0;"/><line style="stroke: #A80036; stroke-width: 1.5;" x1="110.5" x2="24" y1="305.0156" y2="305.0156"/><line style="stroke: #A80036; stroke-width: 1.5;" x1="24" x2="24" y1="305.0156" y2="341.0156"/><polygon fill="#A80036" points="20,331.0156,24,341.0156,28,331.0156,24,335.0156" style="stroke: #A80036; stroke-width: 1.0;"/><line style="stroke: #A80036; stroke-width: 1.5;" x1="134.5" x2="134.5" y1="273.0156" y2="293.0156"/><polygon fill="#A80036" points="130.5,283.0156,134.5,293.0156,138.5,283.0156,134.5,287.0156" style="stroke: #A80036; stroke-width: 1.0;"/><!--MD5=[926272c903e5d0c247ab210775a53ad1]
@startuml
title bubbleSort
start
:New variable: n;
:Assign arr.length to n;
:New variable: i;
:Assign 0 to i;
while (i<n-1) is (Yes)
:i++;
:New variable: j;
:Assign 0 to j;
while (j<n-i-1) is (Yes)
:j++;
if (arr[j]>arr[j+1]) then (yes)
:New variable: temp;
:Assign arr[j] to temp;
:Assign arr[j+1] to arr[j];
:Assign temp to arr[j+1];
else (no)
endif
endwhile (No)
endwhile (No)
stop
@enduml

PlantUML version 1.2020.14(Sat Jun 20 09:14:34 COT 2020)
(GPL source distribution)
Java Runtime: Java(TM) SE Runtime Environment
JVM: Java HotSpot(TM) 64-Bit Server VM
Default Encoding: UTF-8
Language: es
Country: CO
--></g></svg>