<?xml version="1.0" encoding="UTF-8" standalone="no"?><svg xmlns="http://www.w3.org/2000/svg" xmlns:xlink="http://www.w3.org/1999/xlink" contentScriptType="application/ecmascript" contentStyleType="text/css" height="433px" preserveAspectRatio="none" style="width:278px;height:433px;" version="1.1" viewBox="0 0 278 433" width="278px" zoomAndPan="magnify"><defs><filter height="300%" id="f3snqcguu9soy" width="300%" x="-1" y="-1"><feGaussianBlur result="blurOut" stdDeviation="2.0"/><feColorMatrix in="blurOut" result="blurOut2" type="matrix" values="0 0 0 0 0 0 0 0 0 0 0 0 0 0 0 0 0 0 .4 0"/><feOffset dx="4.0" dy="4.0" in="blurOut2" result="blurOut3"/><feBlend in="SourceGraphic" in2="blurOut3" mode="normal"/></filter></defs><g><text fill="#000000" font-family="sans-serif" font-size="18" lengthAdjust="spacingAndGlyphs" textLength="95" x="90.5" y="28.6855">conditionals</text><ellipse cx="135.5" cy="42.6406" fill="#000000" filter="url(#f3snqcguu9soy)" rx="10" ry="10" style="stroke: none; stroke-width: 1.0;"/><rect fill="#FEFECE" filter="url(#f3snqcguu9soy)" height="35.0938" rx="12.5" ry="12.5" style="stroke: #A80036; stroke-width: 1.5;" width="104" x="83.5" y="72.6406"/><text fill="#000000" font-family="sans-serif" font-size="12" lengthAdjust="spacingAndGlyphs" textLength="74" x="93.5" y="95.0977">New variable:</text><text fill="#000000" font-family="sans-serif" font-size="12" font-weight="bold" lengthAdjust="spacingAndGlyphs" textLength="7" x="170.5" y="95.0977">n</text><polygon fill="#FEFECE" filter="url(#f3snqcguu9soy)" points="123.5,127.7344,147.5,127.7344,159.5,139.7344,147.5,151.7344,123.5,151.7344,111.5,139.7344,123.5,127.7344" style="stroke: #A80036; stroke-width: 1.5;"/><text fill="#000000" font-family="sans-serif" font-size="11" lengthAdjust="spacingAndGlyphs" textLength="18" x="126.5" y="144.2354">1&gt;4</text><text fill="#000000" font-family="sans-serif" font-size="11" lengthAdjust="spacingAndGlyphs" textLength="18" x="93.5" y="137.3174">yes</text><text fill="#000000" font-family="sans-serif" font-size="11" lengthAdjust="spacingAndGlyphs" textLength="12" x="159.5" y="137.3174">no</text><rect fill="#FEFECE" filter="url(#f3snqcguu9soy)" height="35.0938" rx="12.5" ry="12.5" style="stroke: #A80036; stroke-width: 1.5;" width="91" x="17" y="161.7344"/><text fill="#000000" font-family="sans-serif" font-size="12" lengthAdjust="spacingAndGlyphs" textLength="38" x="27" y="184.1914">Assign</text><text fill="#00008B" font-family="sans-serif" font-size="12" font-style="italic" lengthAdjust="spacingAndGlyphs" textLength="7" x="68" y="184.1914">2</text><text fill="#000000" font-family="sans-serif" font-size="12" lengthAdjust="spacingAndGlyphs" textLength="10" x="78" y="184.1914">to</text><text fill="#000000" font-family="sans-serif" font-size="12" font-weight="bold" lengthAdjust="spacingAndGlyphs" textLength="7" x="91" y="184.1914">n</text><rect fill="#FEFECE" filter="url(#f3snqcguu9soy)" height="35.0938" rx="12.5" ry="12.5" style="stroke: #A80036; stroke-width: 1.5;" width="103" x="11" y="265.7461"/><text fill="#000000" font-family="sans-serif" font-size="12" lengthAdjust="spacingAndGlyphs" textLength="38" x="21" y="288.2031">Assign</text><text fill="#00008B" font-family="sans-serif" font-size="12" font-style="italic" lengthAdjust="spacingAndGlyphs" textLength="19" x="62" y="288.2031">5*n</text><text fill="#000000" font-family="sans-serif" font-size="12" lengthAdjust="spacingAndGlyphs" textLength="10" x="84" y="288.2031">to</text><text fill="#000000" font-family="sans-serif" font-size="12" font-weight="bold" lengthAdjust="spacingAndGlyphs" textLength="7" x="97" y="288.2031">n</text><polygon fill="#FEFECE" filter="url(#f3snqcguu9soy)" points="50.5,216.8281,74.5,216.8281,86.5,228.8281,74.5,240.8281,50.5,240.8281,38.5,228.8281,50.5,216.8281" style="stroke: #A80036; stroke-width: 1.5;"/><text fill="#000000" font-family="sans-serif" font-size="11" lengthAdjust="spacingAndGlyphs" textLength="18" x="66.5" y="252.2471">yes</text><text fill="#000000" font-family="sans-serif" font-size="11" lengthAdjust="spacingAndGlyphs" textLength="20" x="52.5" y="233.3291">n!=2</text><text fill="#000000" font-family="sans-serif" font-size="11" lengthAdjust="spacingAndGlyphs" textLength="12" x="86.5" y="226.4111">no</text><polygon fill="#FEFECE" filter="url(#f3snqcguu9soy)" points="62.5,320.8398,74.5,332.8398,62.5,344.8398,50.5,332.8398,62.5,320.8398" style="stroke: #A80036; stroke-width: 1.5;"/><rect fill="#FEFECE" filter="url(#f3snqcguu9soy)" height="35.0938" rx="12.5" ry="12.5" style="stroke: #A80036; stroke-width: 1.5;" width="105" x="156" y="161.7344"/><text fill="#000000" font-family="sans-serif" font-size="12" lengthAdjust="spacingAndGlyphs" textLength="38" x="166" y="184.1914">Assign</text><text fill="#00008B" font-family="sans-serif" font-size="12" font-style="italic" lengthAdjust="spacingAndGlyphs" textLength="21" x="207" y="184.1914">9+n</text><text fill="#000000" font-family="sans-serif" font-size="12" lengthAdjust="spacingAndGlyphs" textLength="10" x="231" y="184.1914">to</text><text fill="#000000" font-family="sans-serif" font-size="12" font-weight="bold" lengthAdjust="spacingAndGlyphs" textLength="7" x="244" y="184.1914">n</text><polygon fill="#FEFECE" filter="url(#f3snqcguu9soy)" points="135.5,350.8398,147.5,362.8398,135.5,374.8398,123.5,362.8398,135.5,350.8398" style="stroke: #A80036; stroke-width: 1.5;"/><ellipse cx="135.5" cy="405.8398" fill="#FFFFFF" filter="url(#f3snqcguu9soy)" rx="11" ry="11" style="stroke: #000000; stroke-width: 1.0;"/><ellipse cx="135.5" cy="405.8398" fill="#000000" rx="6" ry="6" style="stroke: #7F7F7F; stroke-width: 1.0;"/><line style="stroke: #A80036; stroke-width: 1.5;" x1="135.5" x2="135.5" y1="52.6406" y2="72.6406"/><polygon fill="#A80036" points="131.5,62.6406,135.5,72.6406,139.5,62.6406,135.5,66.6406" style="stroke: #A80036; stroke-width: 1.0;"/><line style="stroke: #A80036; stroke-width: 1.5;" x1="62.5" x2="62.5" y1="240.8281" y2="265.7461"/><polygon fill="#A80036" points="58.5,255.7461,62.5,265.7461,66.5,255.7461,62.5,259.7461" style="stroke: #A80036; stroke-width: 1.0;"/><line style="stroke: #A80036; stroke-width: 1.5;" x1="86.5" x2="124" y1="228.8281" y2="228.8281"/><polygon fill="#A80036" points="120,273.293,124,283.293,128,273.293,124,277.293" style="stroke: #A80036; stroke-width: 1.5;"/><line style="stroke: #A80036; stroke-width: 1.5;" x1="124" x2="124" y1="228.8281" y2="332.8398"/><line style="stroke: #A80036; stroke-width: 1.5;" x1="124" x2="74.5" y1="332.8398" y2="332.8398"/><polygon fill="#A80036" points="84.5,328.8398,74.5,332.8398,84.5,336.8398,80.5,332.8398" style="stroke: #A80036; stroke-width: 1.0;"/><line style="stroke: #A80036; stroke-width: 1.5;" x1="62.5" x2="62.5" y1="300.8398" y2="320.8398"/><polygon fill="#A80036" points="58.5,310.8398,62.5,320.8398,66.5,310.8398,62.5,314.8398" style="stroke: #A80036; stroke-width: 1.0;"/><line style="stroke: #A80036; stroke-width: 1.5;" x1="62.5" x2="62.5" y1="196.8281" y2="216.8281"/><polygon fill="#A80036" points="58.5,206.8281,62.5,216.8281,66.5,206.8281,62.5,210.8281" style="stroke: #A80036; stroke-width: 1.0;"/><line style="stroke: #A80036; stroke-width: 1.5;" x1="111.5" x2="62.5" y1="139.7344" y2="139.7344"/><line style="stroke: #A80036; stroke-width: 1.5;" x1="62.5" x2="62.5" y1="139.7344" y2="161.7344"/><polygon fill="#A80036" points="58.5,151.7344,62.5,161.7344,66.5,151.7344,62.5,155.7344" style="stroke: #A80036; stroke-width: 1.0;"/><line style="stroke: #A80036; stroke-width: 1.5;" x1="159.5" x2="208.5" y1="139.7344" y2="139.7344"/><line style="stroke: #A80036; stroke-width: 1.5;" x1="208.5" x2="208.5" y1="139.7344" y2="161.7344"/><polygon fill="#A80036" points="204.5,151.7344,208.5,161.7344,212.5,151.7344,208.5,155.7344" style="stroke: #A80036; stroke-width: 1.0;"/><line style="stroke: #A80036; stroke-width: 1.5;" x1="62.5" x2="62.5" y1="344.8398" y2="362.8398"/><line style="stroke: #A80036; stroke-width: 1.5;" x1="62.5" x2="123.5" y1="362.8398" y2="362.8398"/><polygon fill="#A80036" points="113.5,358.8398,123.5,362.8398,113.5,366.8398,117.5,362.8398" style="stroke: #A80036; stroke-width: 1.0;"/><line style="stroke: #A80036; stroke-width: 1.5;" x1="208.5" x2="208.5" y1="196.8281" y2="362.8398"/><line style="stroke: #A80036; stroke-width: 1.5;" x1="208.5" x2="147.5" y1="362.8398" y2="362.8398"/><polygon fill="#A80036" points="157.5,358.8398,147.5,362.8398,157.5,366.8398,153.5,362.8398" style="stroke: #A80036; stroke-width: 1.0;"/><line style="stroke: #A80036; stroke-width: 1.5;" x1="135.5" x2="135.5" y1="107.7344" y2="127.7344"/><polygon fill="#A80036" points="131.5,117.7344,135.5,127.7344,139.5,117.7344,135.5,121.7344" style="stroke: #A80036; stroke-width: 1.0;"/><line style="stroke: #A80036; stroke-width: 1.5;" x1="135.5" x2="135.5" y1="374.8398" y2="394.8398"/><polygon fill="#A80036" points="131.5,384.8398,135.5,394.8398,139.5,384.8398,135.5,388.8398" style="stroke: #A80036; stroke-width: 1.0;"/><!--MD5=[cd2202c6f98703f89cfaa8fbd6867186]
@startuml
title conditionals
start
:New variable: <b>n</b>;
if (1>4) then (yes)
:Assign <color:darkblue><i>2</i></color> to <b>n</b>;
if (n!=2) then (yes)
:Assign <color:darkblue><i>5*n</i></color> to <b>n</b>;
else (no)
endif
else (no)
:Assign <color:darkblue><i>9+n</i></color> to <b>n</b>;
endif
stop
@enduml

PlantUML version 1.2020.14(Sat Jun 20 09:14:34 COT 2020)
(GPL source distribution)
Java Runtime: Java(TM) SE Runtime Environment
JVM: Java HotSpot(TM) 64-Bit Server VM
Default Encoding: UTF-8
Language: es
Country: CO
--></g></svg>