<?xml version="1.0" encoding="UTF-8" standalone="no"?><svg xmlns="http://www.w3.org/2000/svg" xmlns:xlink="http://www.w3.org/1999/xlink" contentScriptType="application/ecmascript" contentStyleType="text/css" height="996px" preserveAspectRatio="none" style="width:264px;height:996px;" version="1.1" viewBox="0 0 264 996" width="264px" zoomAndPan="magnify"><defs><filter height="300%" id="ftqddy5ac6s4k" width="300%" x="-1" y="-1"><feGaussianBlur result="blurOut" stdDeviation="2.0"/><feColorMatrix in="blurOut" result="blurOut2" type="matrix" values="0 0 0 0 0 0 0 0 0 0 0 0 0 0 0 0 0 0 .4 0"/><feOffset dx="4.0" dy="4.0" in="blurOut2" result="blurOut3"/><feBlend in="SourceGraphic" in2="blurOut3" mode="normal"/></filter></defs><g><text fill="#000000" font-family="sans-serif" font-size="18" lengthAdjust="spacingAndGlyphs" textLength="87" x="87.5" y="28.6855">bubbleSort</text><ellipse cx="136.5" cy="42.6406" fill="#000000" filter="url(#ftqddy5ac6s4k)" rx="10" ry="10" style="stroke: none; stroke-width: 1.0;"/><rect fill="#FEFECE" filter="url(#ftqddy5ac6s4k)" height="35.0938" rx="12.5" ry="12.5" style="stroke: #A80036; stroke-width: 1.5;" width="104" x="84.5" y="72.6406"/><text fill="#000000" font-family="sans-serif" font-size="12" lengthAdjust="spacingAndGlyphs" textLength="74" x="94.5" y="95.0977">New variable:</text><text fill="#000000" font-family="sans-serif" font-size="12" font-weight="bold" lengthAdjust="spacingAndGlyphs" textLength="7" x="171.5" y="95.0977">n</text><rect fill="#FEFECE" filter="url(#ftqddy5ac6s4k)" height="35.0938" rx="12.5" ry="12.5" style="stroke: #A80036; stroke-width: 1.5;" width="136" x="68.5" y="127.7344"/><text fill="#000000" font-family="sans-serif" font-size="12" lengthAdjust="spacingAndGlyphs" textLength="38" x="78.5" y="150.1914">Assign</text><text fill="#00008B" font-family="sans-serif" font-size="12" font-style="italic" lengthAdjust="spacingAndGlyphs" textLength="52" x="119.5" y="150.1914">arr.length</text><text fill="#000000" font-family="sans-serif" font-size="12" lengthAdjust="spacingAndGlyphs" textLength="10" x="174.5" y="150.1914">to</text><text fill="#000000" font-family="sans-serif" font-size="12" font-weight="bold" lengthAdjust="spacingAndGlyphs" textLength="7" x="187.5" y="150.1914">n</text><rect fill="#FEFECE" filter="url(#ftqddy5ac6s4k)" height="35.0938" rx="12.5" ry="12.5" style="stroke: #A80036; stroke-width: 1.5;" width="100" x="86.5" y="182.8281"/><text fill="#000000" font-family="sans-serif" font-size="12" lengthAdjust="spacingAndGlyphs" textLength="74" x="96.5" y="205.2852">New variable:</text><text fill="#000000" font-family="sans-serif" font-size="12" font-weight="bold" lengthAdjust="spacingAndGlyphs" textLength="3" x="173.5" y="205.2852">i</text><rect fill="#FEFECE" filter="url(#ftqddy5ac6s4k)" height="35.0938" rx="12.5" ry="12.5" style="stroke: #A80036; stroke-width: 1.5;" width="87" x="93" y="237.9219"/><text fill="#000000" font-family="sans-serif" font-size="12" lengthAdjust="spacingAndGlyphs" textLength="38" x="103" y="260.3789">Assign</text><text fill="#00008B" font-family="sans-serif" font-size="12" font-style="italic" lengthAdjust="spacingAndGlyphs" textLength="7" x="144" y="260.3789">0</text><text fill="#000000" font-family="sans-serif" font-size="12" lengthAdjust="spacingAndGlyphs" textLength="10" x="154" y="260.3789">to</text><text fill="#000000" font-family="sans-serif" font-size="12" font-weight="bold" lengthAdjust="spacingAndGlyphs" textLength="3" x="167" y="260.3789">i</text><rect fill="#FEFECE" filter="url(#ftqddy5ac6s4k)" height="35.0938" rx="12.5" ry="12.5" style="stroke: #A80036; stroke-width: 1.5;" width="37" x="118" y="354.8516"/><text fill="#000000" font-family="sans-serif" font-size="12" lengthAdjust="spacingAndGlyphs" textLength="17" x="128" y="377.3086">i++</text><rect fill="#FEFECE" filter="url(#ftqddy5ac6s4k)" height="35.0938" rx="12.5" ry="12.5" style="stroke: #A80036; stroke-width: 1.5;" width="100" x="86.5" y="409.9453"/><text fill="#000000" font-family="sans-serif" font-size="12" lengthAdjust="spacingAndGlyphs" textLength="74" x="96.5" y="432.4023">New variable:</text><text fill="#000000" font-family="sans-serif" font-size="12" font-weight="bold" lengthAdjust="spacingAndGlyphs" textLength="3" x="173.5" y="432.4023">j</text><rect fill="#FEFECE" filter="url(#ftqddy5ac6s4k)" height="35.0938" rx="12.5" ry="12.5" style="stroke: #A80036; stroke-width: 1.5;" width="87" x="93" y="465.0391"/><text fill="#000000" font-family="sans-serif" font-size="12" lengthAdjust="spacingAndGlyphs" textLength="38" x="103" y="487.4961">Assign</text><text fill="#00008B" font-family="sans-serif" font-size="12" font-style="italic" lengthAdjust="spacingAndGlyphs" textLength="7" x="144" y="487.4961">0</text><text fill="#000000" font-family="sans-serif" font-size="12" lengthAdjust="spacingAndGlyphs" textLength="10" x="154" y="487.4961">to</text><text fill="#000000" font-family="sans-serif" font-size="12" font-weight="bold" lengthAdjust="spacingAndGlyphs" textLength="3" x="167" y="487.4961">j</text><rect fill="#FEFECE" filter="url(#ftqddy5ac6s4k)" height="35.0938" rx="12.5" ry="12.5" style="stroke: #A80036; stroke-width: 1.5;" width="37" x="118" y="577.0518"/><text fill="#000000" font-family="sans-serif" font-size="12" lengthAdjust="spacingAndGlyphs" textLength="17" x="128" y="599.5088">j++</text><rect fill="#FEFECE" filter="url(#ftqddy5ac6s4k)" height="35.0938" rx="12.5" ry="12.5" style="stroke: #A80036; stroke-width: 1.5;" width="126" x="73.5" y="681.0635"/><text fill="#000000" font-family="sans-serif" font-size="12" lengthAdjust="spacingAndGlyphs" textLength="74" x="83.5" y="703.5205">New variable:</text><text fill="#000000" font-family="sans-serif" font-size="12" font-weight="bold" lengthAdjust="spacingAndGlyphs" textLength="29" x="160.5" y="703.5205">temp</text><rect fill="#FEFECE" filter="url(#ftqddy5ac6s4k)" height="35.0938" rx="12.5" ry="12.5" style="stroke: #A80036; stroke-width: 1.5;" width="130" x="71.5" y="736.1572"/><text fill="#000000" font-family="sans-serif" font-size="12" lengthAdjust="spacingAndGlyphs" textLength="38" x="81.5" y="758.6143">Assign</text><text fill="#00008B" font-family="sans-serif" font-size="12" font-style="italic" lengthAdjust="spacingAndGlyphs" textLength="24" x="122.5" y="758.6143">arr[j]</text><text fill="#000000" font-family="sans-serif" font-size="12" lengthAdjust="spacingAndGlyphs" textLength="10" x="149.5" y="758.6143">to</text><text fill="#000000" font-family="sans-serif" font-size="12" font-weight="bold" lengthAdjust="spacingAndGlyphs" textLength="29" x="162.5" y="758.6143">temp</text><rect fill="#FEFECE" filter="url(#ftqddy5ac6s4k)" height="35.0938" rx="12.5" ry="12.5" style="stroke: #A80036; stroke-width: 1.5;" width="143" x="65" y="806.251"/><text fill="#000000" font-family="sans-serif" font-size="12" lengthAdjust="spacingAndGlyphs" textLength="38" x="75" y="828.708">Assign</text><text fill="#00008B" font-family="sans-serif" font-size="12" font-style="italic" lengthAdjust="spacingAndGlyphs" textLength="38" x="116" y="828.708">arr[j+1]</text><text fill="#000000" font-family="sans-serif" font-size="12" lengthAdjust="spacingAndGlyphs" textLength="10" x="157" y="828.708">to</text><text fill="#000000" font-family="sans-serif" font-size="12" font-weight="bold" lengthAdjust="spacingAndGlyphs" textLength="28" x="170" y="828.708">arr[j]</text><rect fill="#FEFECE" filter="url(#ftqddy5ac6s4k)" height="35.0938" rx="12.5" ry="12.5" style="stroke: #A80036; stroke-width: 1.5;" width="147" x="63" y="861.3447"/><text fill="#000000" font-family="sans-serif" font-size="12" lengthAdjust="spacingAndGlyphs" textLength="38" x="73" y="883.8018">Assign</text><text fill="#00008B" font-family="sans-serif" font-size="12" font-style="italic" lengthAdjust="spacingAndGlyphs" textLength="28" x="114" y="883.8018">temp</text><text fill="#000000" font-family="sans-serif" font-size="12" lengthAdjust="spacingAndGlyphs" textLength="10" x="145" y="883.8018">to</text><text fill="#000000" font-family="sans-serif" font-size="12" font-weight="bold" lengthAdjust="spacingAndGlyphs" textLength="42" x="158" y="883.8018">arr[j+1]</text><polygon fill="#FEFECE" filter="url(#ftqddy5ac6s4k)" points="98,632.1455,175,632.1455,187,644.1455,175,656.1455,98,656.1455,86,644.1455,98,632.1455" style="stroke: #A80036; stroke-width: 1.5;"/><text fill="#000000" font-family="sans-serif" font-size="11" lengthAdjust="spacingAndGlyphs" textLength="18" x="140.5" y="667.5645">yes</text><text fill="#000000" font-family="sans-serif" font-size="11" lengthAdjust="spacingAndGlyphs" textLength="77" x="98" y="648.6465">arr[j] &gt; arr[j+1] ?</text><text fill="#000000" font-family="sans-serif" font-size="11" lengthAdjust="spacingAndGlyphs" textLength="12" x="187" y="641.7285">no</text><polygon fill="#FEFECE" filter="url(#ftqddy5ac6s4k)" points="136.5,916.4385,148.5,928.4385,136.5,940.4385,124.5,928.4385,136.5,916.4385" style="stroke: #A80036; stroke-width: 1.5;"/><polygon fill="#FEFECE" filter="url(#ftqddy5ac6s4k)" points="114,520.1328,159,520.1328,171,532.1328,159,544.1328,114,544.1328,102,532.1328,114,520.1328" style="stroke: #A80036; stroke-width: 1.5;"/><text fill="#000000" font-family="sans-serif" font-size="11" lengthAdjust="spacingAndGlyphs" textLength="20" x="140.5" y="555.5518">Yes</text><text fill="#000000" font-family="sans-serif" font-size="11" lengthAdjust="spacingAndGlyphs" textLength="45" x="114" y="536.6338">j &lt; n-i-1 ?</text><text fill="#000000" font-family="sans-serif" font-size="11" lengthAdjust="spacingAndGlyphs" textLength="13" x="89" y="529.7158">No</text><polygon fill="#FEFECE" filter="url(#ftqddy5ac6s4k)" points="117,293.0156,156,293.0156,168,305.0156,156,317.0156,117,317.0156,105,305.0156,117,293.0156" style="stroke: #A80036; stroke-width: 1.5;"/><text fill="#000000" font-family="sans-serif" font-size="11" lengthAdjust="spacingAndGlyphs" textLength="20" x="140.5" y="328.4346">Yes</text><text fill="#000000" font-family="sans-serif" font-size="11" lengthAdjust="spacingAndGlyphs" textLength="39" x="117" y="309.5166">i &lt; n-1 ?</text><text fill="#000000" font-family="sans-serif" font-size="11" lengthAdjust="spacingAndGlyphs" textLength="13" x="92" y="302.5986">No</text><ellipse cx="24" cy="352.0156" fill="#FFFFFF" filter="url(#ftqddy5ac6s4k)" rx="11" ry="11" style="stroke: #000000; stroke-width: 1.0;"/><ellipse cx="24" cy="352.0156" fill="#000000" rx="6" ry="6" style="stroke: #7F7F7F; stroke-width: 1.0;"/><line style="stroke: #A80036; stroke-width: 1.5;" x1="136.5" x2="136.5" y1="52.6406" y2="72.6406"/><polygon fill="#A80036" points="132.5,62.6406,136.5,72.6406,140.5,62.6406,136.5,66.6406" style="stroke: #A80036; stroke-width: 1.0;"/><line style="stroke: #A80036; stroke-width: 1.5;" x1="136.5" x2="136.5" y1="107.7344" y2="127.7344"/><polygon fill="#A80036" points="132.5,117.7344,136.5,127.7344,140.5,117.7344,136.5,121.7344" style="stroke: #A80036; stroke-width: 1.0;"/><line style="stroke: #A80036; stroke-width: 1.5;" x1="136.5" x2="136.5" y1="162.8281" y2="182.8281"/><polygon fill="#A80036" points="132.5,172.8281,136.5,182.8281,140.5,172.8281,136.5,176.8281" style="stroke: #A80036; stroke-width: 1.0;"/><line style="stroke: #A80036; stroke-width: 1.5;" x1="136.5" x2="136.5" y1="217.9219" y2="237.9219"/><polygon fill="#A80036" points="132.5,227.9219,136.5,237.9219,140.5,227.9219,136.5,231.9219" style="stroke: #A80036; stroke-width: 1.0;"/><line style="stroke: #A80036; stroke-width: 1.5;" x1="136.5" x2="136.5" y1="389.9453" y2="409.9453"/><polygon fill="#A80036" points="132.5,399.9453,136.5,409.9453,140.5,399.9453,136.5,403.9453" style="stroke: #A80036; stroke-width: 1.0;"/><line style="stroke: #A80036; stroke-width: 1.5;" x1="136.5" x2="136.5" y1="445.0391" y2="465.0391"/><polygon fill="#A80036" points="132.5,455.0391,136.5,465.0391,140.5,455.0391,136.5,459.0391" style="stroke: #A80036; stroke-width: 1.0;"/><line style="stroke: #A80036; stroke-width: 1.5;" x1="136.5" x2="136.5" y1="716.1572" y2="736.1572"/><polygon fill="#A80036" points="132.5,726.1572,136.5,736.1572,140.5,726.1572,136.5,730.1572" style="stroke: #A80036; stroke-width: 1.0;"/><line style="stroke: #A80036; stroke-width: 1.5;" x1="136.5" x2="136.5" y1="771.251" y2="806.251"/><polygon fill="#A80036" points="132.5,796.251,136.5,806.251,140.5,796.251,136.5,800.251" style="stroke: #A80036; stroke-width: 1.0;"/><line style="stroke: #A80036; stroke-width: 1.5;" x1="136.5" x2="136.5" y1="841.3447" y2="861.3447"/><polygon fill="#A80036" points="132.5,851.3447,136.5,861.3447,140.5,851.3447,136.5,855.3447" style="stroke: #A80036; stroke-width: 1.0;"/><line style="stroke: #A80036; stroke-width: 1.5;" x1="136.5" x2="136.5" y1="656.1455" y2="681.0635"/><polygon fill="#A80036" points="132.5,671.0635,136.5,681.0635,140.5,671.0635,136.5,675.0635" style="stroke: #A80036; stroke-width: 1.0;"/><line style="stroke: #A80036; stroke-width: 1.5;" x1="187" x2="220" y1="644.1455" y2="644.1455"/><polygon fill="#A80036" points="216,778.751,220,788.751,224,778.751,220,782.751" style="stroke: #A80036; stroke-width: 1.5;"/><line style="stroke: #A80036; stroke-width: 1.5;" x1="220" x2="220" y1="644.1455" y2="928.4385"/><line style="stroke: #A80036; stroke-width: 1.5;" x1="220" x2="148.5" y1="928.4385" y2="928.4385"/><polygon fill="#A80036" points="158.5,924.4385,148.5,928.4385,158.5,932.4385,154.5,928.4385" style="stroke: #A80036; stroke-width: 1.0;"/><line style="stroke: #A80036; stroke-width: 1.5;" x1="136.5" x2="136.5" y1="896.4385" y2="916.4385"/><polygon fill="#A80036" points="132.5,906.4385,136.5,916.4385,140.5,906.4385,136.5,910.4385" style="stroke: #A80036; stroke-width: 1.0;"/><line style="stroke: #A80036; stroke-width: 1.5;" x1="136.5" x2="136.5" y1="612.1455" y2="632.1455"/><polygon fill="#A80036" points="132.5,622.1455,136.5,632.1455,140.5,622.1455,136.5,626.1455" style="stroke: #A80036; stroke-width: 1.0;"/><line style="stroke: #A80036; stroke-width: 1.5;" x1="136.5" x2="136.5" y1="544.1328" y2="577.0518"/><polygon fill="#A80036" points="132.5,567.0518,136.5,577.0518,140.5,567.0518,136.5,571.0518" style="stroke: #A80036; stroke-width: 1.0;"/><line style="stroke: #A80036; stroke-width: 1.5;" x1="136.5" x2="136.5" y1="940.4385" y2="950.4385"/><line style="stroke: #A80036; stroke-width: 1.5;" x1="136.5" x2="238" y1="950.4385" y2="950.4385"/><polygon fill="#A80036" points="234,744.7861,238,734.7861,242,744.7861,238,740.7861" style="stroke: #A80036; stroke-width: 1.5;"/><line style="stroke: #A80036; stroke-width: 1.5;" x1="238" x2="238" y1="532.1328" y2="950.4385"/><line style="stroke: #A80036; stroke-width: 1.5;" x1="238" x2="171" y1="532.1328" y2="532.1328"/><polygon fill="#A80036" points="181,528.1328,171,532.1328,181,536.1328,177,532.1328" style="stroke: #A80036; stroke-width: 1.0;"/><line style="stroke: #A80036; stroke-width: 1.5;" x1="102" x2="49" y1="532.1328" y2="532.1328"/><polygon fill="#A80036" points="45,730.7861,49,740.7861,53,730.7861,49,734.7861" style="stroke: #A80036; stroke-width: 1.5;"/><line style="stroke: #A80036; stroke-width: 1.5;" x1="49" x2="49" y1="532.1328" y2="962.4385"/><line style="stroke: #A80036; stroke-width: 1.5;" x1="49" x2="250" y1="962.4385" y2="962.4385"/><line style="stroke: #A80036; stroke-width: 1.5;" x1="250" x2="250" y1="305.0156" y2="962.4385"/><line style="stroke: #A80036; stroke-width: 1.5;" x1="250" x2="168" y1="305.0156" y2="305.0156"/><polygon fill="#A80036" points="178,301.0156,168,305.0156,178,309.0156,174,305.0156" style="stroke: #A80036; stroke-width: 1.0;"/><line style="stroke: #A80036; stroke-width: 1.5;" x1="136.5" x2="136.5" y1="500.1328" y2="520.1328"/><polygon fill="#A80036" points="132.5,510.1328,136.5,520.1328,140.5,510.1328,136.5,514.1328" style="stroke: #A80036; stroke-width: 1.0;"/><line style="stroke: #A80036; stroke-width: 1.5;" x1="136.5" x2="136.5" y1="317.0156" y2="354.8516"/><polygon fill="#A80036" points="132.5,344.8516,136.5,354.8516,140.5,344.8516,136.5,348.8516" style="stroke: #A80036; stroke-width: 1.0;"/><line style="stroke: #A80036; stroke-width: 1.5;" x1="105" x2="24" y1="305.0156" y2="305.0156"/><line style="stroke: #A80036; stroke-width: 1.5;" x1="24" x2="24" y1="305.0156" y2="341.0156"/><polygon fill="#A80036" points="20,331.0156,24,341.0156,28,331.0156,24,335.0156" style="stroke: #A80036; stroke-width: 1.0;"/><line style="stroke: #A80036; stroke-width: 1.5;" x1="136.5" x2="136.5" y1="273.0156" y2="293.0156"/><polygon fill="#A80036" points="132.5,283.0156,136.5,293.0156,140.5,283.0156,136.5,287.0156" style="stroke: #A80036; stroke-width: 1.0;"/><!--MD5=[2aaf31a037d6beeead6dc8d4fb825894]
@startuml
title bubbleSort
start
:New variable: <b>n</b>;
:Assign <color:darkblue><i>arr.length</i></color> to <b>n</b>;
:New variable: <b>i</b>;
:Assign <color:darkblue><i>0</i></color> to <b>i</b>;
while (i < n-1 ?) is (Yes)
:i++;
:New variable: <b>j</b>;
:Assign <color:darkblue><i>0</i></color> to <b>j</b>;
while (j < n-i-1 ?) is (Yes)
:j++;
if (arr[j] > arr[j+1] ?) then (yes)
:New variable: <b>temp</b>;
:Assign <color:darkblue><i>arr[j]</i></color> to <b>temp</b>;
:Assign <color:darkblue><i>arr[j+1]</i></color> to <b>arr[j]</b>;
:Assign <color:darkblue><i>temp</i></color> to <b>arr[j+1]</b>;
else (no)
endif
endwhile (No)
endwhile (No)
stop
@enduml

PlantUML version 1.2020.14(Sat Jun 20 09:14:34 COT 2020)
(GPL source distribution)
Java Runtime: Java(TM) SE Runtime Environment
JVM: Java HotSpot(TM) 64-Bit Server VM
Default Encoding: UTF-8
Language: es
Country: CO
--></g></svg>