<?xml version="1.0" encoding="UTF-8" standalone="no"?><svg xmlns="http://www.w3.org/2000/svg" xmlns:xlink="http://www.w3.org/1999/xlink" contentScriptType="application/ecmascript" contentStyleType="text/css" height="616px" preserveAspectRatio="none" style="width:331px;height:616px;" version="1.1" viewBox="0 0 331 616" width="331px" zoomAndPan="magnify"><defs><filter height="300%" id="f101t0ypwk8aj6" width="300%" x="-1" y="-1"><feGaussianBlur result="blurOut" stdDeviation="2.0"/><feColorMatrix in="blurOut" result="blurOut2" type="matrix" values="0 0 0 0 0 0 0 0 0 0 0 0 0 0 0 0 0 0 .4 0"/><feOffset dx="4.0" dy="4.0" in="blurOut2" result="blurOut3"/><feBlend in="SourceGraphic" in2="blurOut3" mode="normal"/></filter></defs><g><text fill="#000000" font-family="sans-serif" font-size="18" lengthAdjust="spacingAndGlyphs" textLength="87" x="121" y="28.6855">bubbleSort</text><ellipse cx="156.25" cy="42.6406" fill="#000000" filter="url(#f101t0ypwk8aj6)" rx="10" ry="10" style="stroke: none; stroke-width: 1.0;"/><rect fill="#FEFECE" filter="url(#f101t0ypwk8aj6)" height="35.0938" rx="12.5" ry="12.5" style="stroke: #A80036; stroke-width: 1.5;" width="104" x="104.25" y="72.6406"/><text fill="#000000" font-family="sans-serif" font-size="12" lengthAdjust="spacingAndGlyphs" textLength="84" x="114.25" y="95.0977">New variable: n</text><rect fill="#FEFECE" filter="url(#f101t0ypwk8aj6)" height="35.0938" rx="12.5" ry="12.5" style="stroke: #A80036; stroke-width: 1.5;" width="136" x="88.25" y="127.7344"/><text fill="#000000" font-family="sans-serif" font-size="12" lengthAdjust="spacingAndGlyphs" textLength="116" x="98.25" y="150.1914">Assign arr.length to n</text><rect fill="#FEFECE" filter="url(#f101t0ypwk8aj6)" height="35.0938" rx="12.5" ry="12.5" style="stroke: #A80036; stroke-width: 1.5;" width="100" x="106.25" y="182.8281"/><text fill="#000000" font-family="sans-serif" font-size="12" lengthAdjust="spacingAndGlyphs" textLength="80" x="116.25" y="205.2852">New variable: i</text><rect fill="#FEFECE" filter="url(#f101t0ypwk8aj6)" height="35.0938" rx="12.5" ry="12.5" style="stroke: #A80036; stroke-width: 1.5;" width="87" x="112.75" y="237.9219"/><text fill="#000000" font-family="sans-serif" font-size="12" lengthAdjust="spacingAndGlyphs" textLength="67" x="122.75" y="260.3789">Assign 0 to i</text><rect fill="#FEFECE" filter="url(#f101t0ypwk8aj6)" height="35.0938" rx="12.5" ry="12.5" style="stroke: #A80036; stroke-width: 1.5;" width="100" x="106.25" y="293.0156"/><text fill="#000000" font-family="sans-serif" font-size="12" lengthAdjust="spacingAndGlyphs" textLength="80" x="116.25" y="315.4727">New variable: j</text><rect fill="#FEFECE" filter="url(#f101t0ypwk8aj6)" height="35.0938" rx="12.5" ry="12.5" style="stroke: #A80036; stroke-width: 1.5;" width="87" x="112.75" y="348.1094"/><text fill="#000000" font-family="sans-serif" font-size="12" lengthAdjust="spacingAndGlyphs" textLength="67" x="122.75" y="370.5664">Assign 0 to j</text><polygon fill="#FEFECE" filter="url(#f101t0ypwk8aj6)" points="125.25,403.2031,187.25,403.2031,199.25,415.2031,187.25,427.2031,125.25,427.2031,113.25,415.2031,125.25,403.2031" style="stroke: #A80036; stroke-width: 1.5;"/><text fill="#000000" font-family="sans-serif" font-size="11" lengthAdjust="spacingAndGlyphs" textLength="62" x="125.25" y="419.7041">arr[j]&gt;arr[j+1]</text><text fill="#000000" font-family="sans-serif" font-size="11" lengthAdjust="spacingAndGlyphs" textLength="18" x="95.25" y="412.7861">yes</text><text fill="#000000" font-family="sans-serif" font-size="11" lengthAdjust="spacingAndGlyphs" textLength="12" x="199.25" y="412.7861">no</text><rect fill="#FEFECE" filter="url(#f101t0ypwk8aj6)" height="35.0938" rx="12.5" ry="12.5" style="stroke: #A80036; stroke-width: 1.5;" width="125" x="13" y="437.2031"/><text fill="#000000" font-family="sans-serif" font-size="12" lengthAdjust="spacingAndGlyphs" textLength="105" x="23" y="459.6602">New variable: temp</text><rect fill="#FEFECE" filter="url(#f101t0ypwk8aj6)" height="35.0938" rx="12.5" ry="12.5" style="stroke: #A80036; stroke-width: 1.5;" width="129" x="11" y="492.2969"/><text fill="#000000" font-family="sans-serif" font-size="12" lengthAdjust="spacingAndGlyphs" textLength="109" x="21" y="514.7539">Assign arr[j] to temp</text><rect fill="#FEFECE" filter="url(#f101t0ypwk8aj6)" height="35.0938" rx="12.5" ry="12.5" style="stroke: #A80036; stroke-width: 1.5;" width="154" x="160" y="437.2031"/><text fill="#000000" font-family="sans-serif" font-size="12" lengthAdjust="spacingAndGlyphs" textLength="134" x="170" y="459.6602">New variable: doNothing</text><polygon fill="#FEFECE" filter="url(#f101t0ypwk8aj6)" points="156.25,533.3906,168.25,545.3906,156.25,557.3906,144.25,545.3906,156.25,533.3906" style="stroke: #A80036; stroke-width: 1.5;"/><ellipse cx="156.25" cy="588.3906" fill="#FFFFFF" filter="url(#f101t0ypwk8aj6)" rx="11" ry="11" style="stroke: #000000; stroke-width: 1.0;"/><ellipse cx="156.25" cy="588.3906" fill="#000000" rx="6" ry="6" style="stroke: #7F7F7F; stroke-width: 1.0;"/><line style="stroke: #A80036; stroke-width: 1.5;" x1="156.25" x2="156.25" y1="52.6406" y2="72.6406"/><polygon fill="#A80036" points="152.25,62.6406,156.25,72.6406,160.25,62.6406,156.25,66.6406" style="stroke: #A80036; stroke-width: 1.0;"/><line style="stroke: #A80036; stroke-width: 1.5;" x1="156.25" x2="156.25" y1="107.7344" y2="127.7344"/><polygon fill="#A80036" points="152.25,117.7344,156.25,127.7344,160.25,117.7344,156.25,121.7344" style="stroke: #A80036; stroke-width: 1.0;"/><line style="stroke: #A80036; stroke-width: 1.5;" x1="156.25" x2="156.25" y1="162.8281" y2="182.8281"/><polygon fill="#A80036" points="152.25,172.8281,156.25,182.8281,160.25,172.8281,156.25,176.8281" style="stroke: #A80036; stroke-width: 1.0;"/><line style="stroke: #A80036; stroke-width: 1.5;" x1="156.25" x2="156.25" y1="217.9219" y2="237.9219"/><polygon fill="#A80036" points="152.25,227.9219,156.25,237.9219,160.25,227.9219,156.25,231.9219" style="stroke: #A80036; stroke-width: 1.0;"/><line style="stroke: #A80036; stroke-width: 1.5;" x1="156.25" x2="156.25" y1="273.0156" y2="293.0156"/><polygon fill="#A80036" points="152.25,283.0156,156.25,293.0156,160.25,283.0156,156.25,287.0156" style="stroke: #A80036; stroke-width: 1.0;"/><line style="stroke: #A80036; stroke-width: 1.5;" x1="156.25" x2="156.25" y1="328.1094" y2="348.1094"/><polygon fill="#A80036" points="152.25,338.1094,156.25,348.1094,160.25,338.1094,156.25,342.1094" style="stroke: #A80036; stroke-width: 1.0;"/><line style="stroke: #A80036; stroke-width: 1.5;" x1="75.5" x2="75.5" y1="472.2969" y2="492.2969"/><polygon fill="#A80036" points="71.5,482.2969,75.5,492.2969,79.5,482.2969,75.5,486.2969" style="stroke: #A80036; stroke-width: 1.0;"/><line style="stroke: #A80036; stroke-width: 1.5;" x1="113.25" x2="75.5" y1="415.2031" y2="415.2031"/><line style="stroke: #A80036; stroke-width: 1.5;" x1="75.5" x2="75.5" y1="415.2031" y2="437.2031"/><polygon fill="#A80036" points="71.5,427.2031,75.5,437.2031,79.5,427.2031,75.5,431.2031" style="stroke: #A80036; stroke-width: 1.0;"/><line style="stroke: #A80036; stroke-width: 1.5;" x1="199.25" x2="237" y1="415.2031" y2="415.2031"/><line style="stroke: #A80036; stroke-width: 1.5;" x1="237" x2="237" y1="415.2031" y2="437.2031"/><polygon fill="#A80036" points="233,427.2031,237,437.2031,241,427.2031,237,431.2031" style="stroke: #A80036; stroke-width: 1.0;"/><line style="stroke: #A80036; stroke-width: 1.5;" x1="75.5" x2="75.5" y1="527.3906" y2="545.3906"/><line style="stroke: #A80036; stroke-width: 1.5;" x1="75.5" x2="144.25" y1="545.3906" y2="545.3906"/><polygon fill="#A80036" points="134.25,541.3906,144.25,545.3906,134.25,549.3906,138.25,545.3906" style="stroke: #A80036; stroke-width: 1.0;"/><line style="stroke: #A80036; stroke-width: 1.5;" x1="237" x2="237" y1="472.2969" y2="545.3906"/><line style="stroke: #A80036; stroke-width: 1.5;" x1="237" x2="168.25" y1="545.3906" y2="545.3906"/><polygon fill="#A80036" points="178.25,541.3906,168.25,545.3906,178.25,549.3906,174.25,545.3906" style="stroke: #A80036; stroke-width: 1.0;"/><line style="stroke: #A80036; stroke-width: 1.5;" x1="156.25" x2="156.25" y1="383.2031" y2="403.2031"/><polygon fill="#A80036" points="152.25,393.2031,156.25,403.2031,160.25,393.2031,156.25,397.2031" style="stroke: #A80036; stroke-width: 1.0;"/><line style="stroke: #A80036; stroke-width: 1.5;" x1="156.25" x2="156.25" y1="557.3906" y2="577.3906"/><polygon fill="#A80036" points="152.25,567.3906,156.25,577.3906,160.25,567.3906,156.25,571.3906" style="stroke: #A80036; stroke-width: 1.0;"/><!--MD5=[a1a9fc6aed3ba97fae708097dbbe97e3]
@startuml
title bubbleSort
start
:New variable: n;
:Assign arr.length to n;
:New variable: i;
:Assign 0 to i;
:New variable: j;
:Assign 0 to j;
if (arr[j]>arr[j+1]) then (yes)
:New variable: temp;
:Assign arr[j] to temp;
else (no)
:New variable: doNothing;
endif
stop
@enduml

PlantUML version 1.2020.14(Sat Jun 20 09:14:34 COT 2020)
(GPL source distribution)
Java Runtime: Java(TM) SE Runtime Environment
JVM: Java HotSpot(TM) 64-Bit Server VM
Default Encoding: UTF-8
Language: es
Country: CO
--></g></svg>