<?xml version="1.0" encoding="UTF-8" standalone="no"?><svg xmlns="http://www.w3.org/2000/svg" xmlns:xlink="http://www.w3.org/1999/xlink" contentScriptType="application/ecmascript" contentStyleType="text/css" height="406px" preserveAspectRatio="none" style="width:291px;height:406px;" version="1.1" viewBox="0 0 291 406" width="291px" zoomAndPan="magnify"><defs><filter height="300%" id="fbstbrt8wm97n" width="300%" x="-1" y="-1"><feGaussianBlur result="blurOut" stdDeviation="2.0"/><feColorMatrix in="blurOut" result="blurOut2" type="matrix" values="0 0 0 0 0 0 0 0 0 0 0 0 0 0 0 0 0 0 .4 0"/><feOffset dx="4.0" dy="4.0" in="blurOut2" result="blurOut3"/><feBlend in="SourceGraphic" in2="blurOut3" mode="normal"/></filter></defs><g><text fill="#000000" font-family="sans-serif" font-size="18" lengthAdjust="spacingAndGlyphs" textLength="62" x="113.5" y="28.6855">forEach</text><ellipse cx="171.5" cy="42.6406" fill="#000000" filter="url(#fbstbrt8wm97n)" rx="10" ry="10" style="stroke: none; stroke-width: 1.0;"/><rect fill="#FEFECE" filter="url(#fbstbrt8wm97n)" height="35.0938" rx="12.5" ry="12.5" style="stroke: #A80036; stroke-width: 1.5;" width="106" x="118.5" y="72.6406"/><text fill="#000000" font-family="sans-serif" font-size="12" lengthAdjust="spacingAndGlyphs" textLength="47" x="128.5" y="95.0977">New list:</text><text fill="#000000" font-family="sans-serif" font-size="12" font-weight="bold" lengthAdjust="spacingAndGlyphs" textLength="36" x="178.5" y="95.0977">words</text><rect fill="#FEFECE" filter="url(#fbstbrt8wm97n)" height="35.0938" rx="12.5" ry="12.5" style="stroke: #A80036; stroke-width: 1.5;" width="205" x="69" y="127.7344"/><text fill="#000000" font-family="sans-serif" font-size="12" lengthAdjust="spacingAndGlyphs" textLength="38" x="79" y="150.1914">Assign</text><text fill="#00008B" font-family="sans-serif" font-size="12" font-style="italic" lengthAdjust="spacingAndGlyphs" textLength="92" x="120" y="150.1914">newArrayList&lt;&gt;()</text><text fill="#000000" font-family="sans-serif" font-size="12" lengthAdjust="spacingAndGlyphs" textLength="10" x="215" y="150.1914">to</text><text fill="#000000" font-family="sans-serif" font-size="12" font-weight="bold" lengthAdjust="spacingAndGlyphs" textLength="36" x="228" y="150.1914">words</text><rect fill="#FEFECE" filter="url(#fbstbrt8wm97n)" height="35.0938" rx="12.5" ry="12.5" style="stroke: #A80036; stroke-width: 1.5;" width="121" x="111" y="182.8281"/><text fill="#000000" font-family="sans-serif" font-size="12" lengthAdjust="spacingAndGlyphs" textLength="101" x="121" y="205.2852">words.add("hello")</text><rect fill="#FEFECE" filter="url(#fbstbrt8wm97n)" height="35.0938" rx="12.5" ry="12.5" style="stroke: #A80036; stroke-width: 1.5;" width="124" x="109.5" y="237.9219"/><text fill="#000000" font-family="sans-serif" font-size="12" lengthAdjust="spacingAndGlyphs" textLength="104" x="119.5" y="260.3789">words.add("world")</text><rect fill="#FEFECE" filter="url(#fbstbrt8wm97n)" height="35.0938" rx="12.5" ry="12.5" style="stroke: #A80036; stroke-width: 1.5;" width="77" x="133" y="337.0156"/><text fill="#000000" font-family="sans-serif" font-size="12" lengthAdjust="spacingAndGlyphs" textLength="28" x="143" y="359.4727">Print:</text><text fill="#00008B" font-family="sans-serif" font-size="12" font-style="italic" lengthAdjust="spacingAndGlyphs" textLength="26" x="174" y="359.4727">word</text><polygon fill="#FEFECE" filter="url(#fbstbrt8wm97n)" points="108,293.0156,235,293.0156,247,305.0156,235,317.0156,108,317.0156,96,305.0156,108,293.0156" style="stroke: #A80036; stroke-width: 1.5;"/><text fill="#000000" font-family="sans-serif" font-size="11" lengthAdjust="spacingAndGlyphs" textLength="43" x="108" y="309.5166">For each</text><text fill="#000000" font-family="sans-serif" font-size="11" font-weight="bold" lengthAdjust="spacingAndGlyphs" textLength="29" x="154" y="309.5166">word</text><text fill="#000000" font-family="sans-serif" font-size="11" lengthAdjust="spacingAndGlyphs" textLength="10" x="186" y="309.5166">of</text><text fill="#000000" font-family="sans-serif" font-size="11" font-weight="bold" lengthAdjust="spacingAndGlyphs" textLength="36" x="199" y="309.5166">words</text><text fill="#000000" font-family="sans-serif" font-size="11" lengthAdjust="spacingAndGlyphs" textLength="86" x="10" y="302.5986">No more elements</text><ellipse cx="85" cy="348.0156" fill="#FFFFFF" filter="url(#fbstbrt8wm97n)" rx="11" ry="11" style="stroke: #000000; stroke-width: 1.0;"/><ellipse cx="85" cy="348.0156" fill="#000000" rx="6" ry="6" style="stroke: #7F7F7F; stroke-width: 1.0;"/><line style="stroke: #A80036; stroke-width: 1.5;" x1="171.5" x2="171.5" y1="52.6406" y2="72.6406"/><polygon fill="#A80036" points="167.5,62.6406,171.5,72.6406,175.5,62.6406,171.5,66.6406" style="stroke: #A80036; stroke-width: 1.0;"/><line style="stroke: #A80036; stroke-width: 1.5;" x1="171.5" x2="171.5" y1="107.7344" y2="127.7344"/><polygon fill="#A80036" points="167.5,117.7344,171.5,127.7344,175.5,117.7344,171.5,121.7344" style="stroke: #A80036; stroke-width: 1.0;"/><line style="stroke: #A80036; stroke-width: 1.5;" x1="171.5" x2="171.5" y1="162.8281" y2="182.8281"/><polygon fill="#A80036" points="167.5,172.8281,171.5,182.8281,175.5,172.8281,171.5,176.8281" style="stroke: #A80036; stroke-width: 1.0;"/><line style="stroke: #A80036; stroke-width: 1.5;" x1="171.5" x2="171.5" y1="217.9219" y2="237.9219"/><polygon fill="#A80036" points="167.5,227.9219,171.5,237.9219,175.5,227.9219,171.5,231.9219" style="stroke: #A80036; stroke-width: 1.0;"/><line style="stroke: #A80036; stroke-width: 1.5;" x1="171.5" x2="171.5" y1="317.0156" y2="337.0156"/><polygon fill="#A80036" points="167.5,327.0156,171.5,337.0156,175.5,327.0156,171.5,331.0156" style="stroke: #A80036; stroke-width: 1.0;"/><line style="stroke: #A80036; stroke-width: 1.5;" x1="171.5" x2="171.5" y1="372.1094" y2="382.1094"/><line style="stroke: #A80036; stroke-width: 1.5;" x1="171.5" x2="259" y1="382.1094" y2="382.1094"/><polygon fill="#A80036" points="255,352.5625,259,342.5625,263,352.5625,259,348.5625" style="stroke: #A80036; stroke-width: 1.5;"/><line style="stroke: #A80036; stroke-width: 1.5;" x1="259" x2="259" y1="305.0156" y2="382.1094"/><line style="stroke: #A80036; stroke-width: 1.5;" x1="259" x2="247" y1="305.0156" y2="305.0156"/><polygon fill="#A80036" points="257,301.0156,247,305.0156,257,309.0156,253,305.0156" style="stroke: #A80036; stroke-width: 1.0;"/><line style="stroke: #A80036; stroke-width: 1.5;" x1="96" x2="85" y1="305.0156" y2="305.0156"/><line style="stroke: #A80036; stroke-width: 1.5;" x1="85" x2="85" y1="305.0156" y2="337.0156"/><polygon fill="#A80036" points="81,327.0156,85,337.0156,89,327.0156,85,331.0156" style="stroke: #A80036; stroke-width: 1.0;"/><line style="stroke: #A80036; stroke-width: 1.5;" x1="171.5" x2="171.5" y1="273.0156" y2="293.0156"/><polygon fill="#A80036" points="167.5,283.0156,171.5,293.0156,175.5,283.0156,171.5,287.0156" style="stroke: #A80036; stroke-width: 1.0;"/><!--MD5=[2cdbdd0439d7de043e0761cec2eb8b4e]
@startuml
title forEach
start
:New list: <b>words</b>;
:Assign <color:darkblue><i>newArrayList<>()</i></color> to <b>words</b>;
:words.add("hello");
:words.add("world");
while(For each <b>word</b> of <b>words</b>);
:Print: <color:darkblue><i>word</i></color>;
endWhile (No more elements)
stop
@enduml

PlantUML version 1.2020.14(Sat Jun 20 09:14:34 COT 2020)
(GPL source distribution)
Java Runtime: Java(TM) SE Runtime Environment
JVM: Java HotSpot(TM) 64-Bit Server VM
Default Encoding: UTF-8
Language: es
Country: CO
--></g></svg>