<?xml version="1.0" encoding="UTF-8" standalone="no"?><svg xmlns="http://www.w3.org/2000/svg" xmlns:xlink="http://www.w3.org/1999/xlink" contentScriptType="application/ecmascript" contentStyleType="text/css" height="554px" preserveAspectRatio="none" style="width:363px;height:554px;" version="1.1" viewBox="0 0 363 554" width="363px" zoomAndPan="magnify"><defs><filter height="300%" id="f13uux8e9onhl8" width="300%" x="-1" y="-1"><feGaussianBlur result="blurOut" stdDeviation="2.0"/><feColorMatrix in="blurOut" result="blurOut2" type="matrix" values="0 0 0 0 0 0 0 0 0 0 0 0 0 0 0 0 0 0 .4 0"/><feOffset dx="4.0" dy="4.0" in="blurOut2" result="blurOut3"/><feBlend in="SourceGraphic" in2="blurOut3" mode="normal"/></filter></defs><g><text fill="#000000" font-family="sans-serif" font-size="18" lengthAdjust="spacingAndGlyphs" textLength="126" x="117.5" y="28.6855">notifyObservers</text><ellipse cx="178.5" cy="42.6406" fill="#000000" filter="url(#f13uux8e9onhl8)" rx="10" ry="10" style="stroke: none; stroke-width: 1.0;"/><rect fill="#FEFECE" filter="url(#f13uux8e9onhl8)" height="35.0938" rx="12.5" ry="12.5" style="stroke: #A80036; stroke-width: 1.5;" width="159" x="99" y="72.6406"/><text fill="#000000" font-family="sans-serif" font-size="12" lengthAdjust="spacingAndGlyphs" textLength="47" x="109" y="95.0977">New list:</text><text fill="#000000" font-family="sans-serif" font-size="12" font-weight="bold" lengthAdjust="spacingAndGlyphs" textLength="89" x="159" y="95.0977">observersLocal</text><rect fill="#FEFECE" filter="url(#f13uux8e9onhl8)" height="35.0938" rx="12.5" ry="12.5" style="stroke: #A80036; stroke-width: 1.5;" width="186" x="85.5" y="127.7344"/><text fill="#000000" font-family="sans-serif" font-size="12" lengthAdjust="spacingAndGlyphs" textLength="38" x="95.5" y="150.1914">Assign</text><text fill="#00008B" font-family="sans-serif" font-size="12" font-style="italic" lengthAdjust="spacingAndGlyphs" textLength="20" x="136.5" y="150.1914">null</text><text fill="#000000" font-family="sans-serif" font-size="12" lengthAdjust="spacingAndGlyphs" textLength="10" x="159.5" y="150.1914">to</text><text fill="#000000" font-family="sans-serif" font-size="12" font-weight="bold" lengthAdjust="spacingAndGlyphs" textLength="89" x="172.5" y="150.1914">observersLocal</text><rect fill="#FEFECE" filter="url(#f13uux8e9onhl8)" height="35.0938" rx="12.5" ry="12.5" style="stroke: #A80036; stroke-width: 1.5;" width="105" x="126" y="231.7461"/><text fill="#4B0082" font-family="sans-serif" font-size="12" font-weight="bold" lengthAdjust="spacingAndGlyphs" textLength="85" x="136" y="254.2031">Exit subroutine</text><polygon fill="#FEFECE" filter="url(#f13uux8e9onhl8)" points="152,182.8281,205,182.8281,217,194.8281,205,206.8281,152,206.8281,140,194.8281,152,182.8281" style="stroke: #A80036; stroke-width: 1.5;"/><text fill="#000000" font-family="sans-serif" font-size="11" lengthAdjust="spacingAndGlyphs" textLength="18" x="182.5" y="218.2471">yes</text><text fill="#000000" font-family="sans-serif" font-size="11" lengthAdjust="spacingAndGlyphs" textLength="53" x="152" y="199.3291">!changed ?</text><text fill="#000000" font-family="sans-serif" font-size="11" lengthAdjust="spacingAndGlyphs" textLength="12" x="217" y="192.4111">no</text><polygon fill="#FEFECE" filter="url(#f13uux8e9onhl8)" points="178.5,286.8398,190.5,298.8398,178.5,310.8398,166.5,298.8398,178.5,286.8398" style="stroke: #A80036; stroke-width: 1.5;"/><rect fill="#FEFECE" filter="url(#f13uux8e9onhl8)" height="35.0938" rx="12.5" ry="12.5" style="stroke: #A80036; stroke-width: 1.5;" width="335" x="11" y="330.8398"/><text fill="#000000" font-family="sans-serif" font-size="12" lengthAdjust="spacingAndGlyphs" textLength="38" x="21" y="353.2969">Assign</text><text fill="#00008B" font-family="sans-serif" font-size="12" font-style="italic" lengthAdjust="spacingAndGlyphs" textLength="169" x="62" y="353.2969">newArrayList&lt;&gt;(this.observers)</text><text fill="#000000" font-family="sans-serif" font-size="12" lengthAdjust="spacingAndGlyphs" textLength="10" x="234" y="353.2969">to</text><text fill="#000000" font-family="sans-serif" font-size="12" font-weight="bold" lengthAdjust="spacingAndGlyphs" textLength="89" x="247" y="353.2969">observersLocal</text><rect fill="#FEFECE" filter="url(#f13uux8e9onhl8)" height="35.0938" rx="12.5" ry="12.5" style="stroke: #A80036; stroke-width: 1.5;" width="176" x="90.5" y="385.9336"/><text fill="#000000" font-family="sans-serif" font-size="12" lengthAdjust="spacingAndGlyphs" textLength="38" x="100.5" y="408.3906">Assign</text><text fill="#00008B" font-family="sans-serif" font-size="12" font-style="italic" lengthAdjust="spacingAndGlyphs" textLength="26" x="141.5" y="408.3906">false</text><text fill="#000000" font-family="sans-serif" font-size="12" lengthAdjust="spacingAndGlyphs" textLength="10" x="170.5" y="408.3906">to</text><text fill="#000000" font-family="sans-serif" font-size="12" font-weight="bold" lengthAdjust="spacingAndGlyphs" textLength="73" x="183.5" y="408.3906">this.changed</text><rect fill="#FEFECE" filter="url(#f13uux8e9onhl8)" height="35.0938" rx="12.5" ry="12.5" style="stroke: #A80036; stroke-width: 1.5;" width="186" x="85.5" y="485.0273"/><text fill="#000000" font-family="sans-serif" font-size="12" lengthAdjust="spacingAndGlyphs" textLength="29" x="95.5" y="507.4844">Enter</text><text fill="#000000" font-family="sans-serif" font-size="12" font-weight="bold" lengthAdjust="spacingAndGlyphs" textLength="27" x="127.5" y="507.4844">obj's</text><text fill="#000000" font-family="sans-serif" font-size="12" lengthAdjust="spacingAndGlyphs" textLength="62" x="157.5" y="507.4844">subroutine:</text><text fill="#8B0000" font-family="sans-serif" font-size="12" font-weight="bold" lengthAdjust="spacingAndGlyphs" textLength="39" x="222.5" y="507.4844">update</text><polygon fill="#FEFECE" filter="url(#f13uux8e9onhl8)" points="95.5,441.0273,261.5,441.0273,273.5,453.0273,261.5,465.0273,95.5,465.0273,83.5,453.0273,95.5,441.0273" style="stroke: #A80036; stroke-width: 1.5;"/><text fill="#000000" font-family="sans-serif" font-size="11" lengthAdjust="spacingAndGlyphs" textLength="43" x="95.5" y="457.5283">For each</text><text fill="#000000" font-family="sans-serif" font-size="11" font-weight="bold" lengthAdjust="spacingAndGlyphs" textLength="17" x="141.5" y="457.5283">obj</text><text fill="#000000" font-family="sans-serif" font-size="11" lengthAdjust="spacingAndGlyphs" textLength="10" x="161.5" y="457.5283">of</text><text fill="#000000" font-family="sans-serif" font-size="11" font-weight="bold" lengthAdjust="spacingAndGlyphs" textLength="87" x="174.5" y="457.5283">observersLocal</text><ellipse cx="62.5" cy="496.0273" fill="#FFFFFF" filter="url(#f13uux8e9onhl8)" rx="11" ry="11" style="stroke: #000000; stroke-width: 1.0;"/><ellipse cx="62.5" cy="496.0273" fill="#000000" rx="6" ry="6" style="stroke: #7F7F7F; stroke-width: 1.0;"/><line style="stroke: #A80036; stroke-width: 1.5;" x1="178.5" x2="178.5" y1="52.6406" y2="72.6406"/><polygon fill="#A80036" points="174.5,62.6406,178.5,72.6406,182.5,62.6406,178.5,66.6406" style="stroke: #A80036; stroke-width: 1.0;"/><line style="stroke: #A80036; stroke-width: 1.5;" x1="178.5" x2="178.5" y1="107.7344" y2="127.7344"/><polygon fill="#A80036" points="174.5,117.7344,178.5,127.7344,182.5,117.7344,178.5,121.7344" style="stroke: #A80036; stroke-width: 1.0;"/><line style="stroke: #A80036; stroke-width: 1.5;" x1="178.5" x2="178.5" y1="206.8281" y2="231.7461"/><polygon fill="#A80036" points="174.5,221.7461,178.5,231.7461,182.5,221.7461,178.5,225.7461" style="stroke: #A80036; stroke-width: 1.0;"/><line style="stroke: #A80036; stroke-width: 1.5;" x1="217" x2="241" y1="194.8281" y2="194.8281"/><polygon fill="#A80036" points="237,239.293,241,249.293,245,239.293,241,243.293" style="stroke: #A80036; stroke-width: 1.5;"/><line style="stroke: #A80036; stroke-width: 1.5;" x1="241" x2="241" y1="194.8281" y2="298.8398"/><line style="stroke: #A80036; stroke-width: 1.5;" x1="241" x2="190.5" y1="298.8398" y2="298.8398"/><polygon fill="#A80036" points="200.5,294.8398,190.5,298.8398,200.5,302.8398,196.5,298.8398" style="stroke: #A80036; stroke-width: 1.0;"/><line style="stroke: #A80036; stroke-width: 1.5;" x1="178.5" x2="178.5" y1="266.8398" y2="286.8398"/><polygon fill="#A80036" points="174.5,276.8398,178.5,286.8398,182.5,276.8398,178.5,280.8398" style="stroke: #A80036; stroke-width: 1.0;"/><line style="stroke: #A80036; stroke-width: 1.5;" x1="178.5" x2="178.5" y1="162.8281" y2="182.8281"/><polygon fill="#A80036" points="174.5,172.8281,178.5,182.8281,182.5,172.8281,178.5,176.8281" style="stroke: #A80036; stroke-width: 1.0;"/><line style="stroke: #A80036; stroke-width: 1.5;" x1="178.5" x2="178.5" y1="310.8398" y2="330.8398"/><polygon fill="#A80036" points="174.5,320.8398,178.5,330.8398,182.5,320.8398,178.5,324.8398" style="stroke: #A80036; stroke-width: 1.0;"/><line style="stroke: #A80036; stroke-width: 1.5;" x1="178.5" x2="178.5" y1="365.9336" y2="385.9336"/><polygon fill="#A80036" points="174.5,375.9336,178.5,385.9336,182.5,375.9336,178.5,379.9336" style="stroke: #A80036; stroke-width: 1.0;"/><line style="stroke: #A80036; stroke-width: 1.5;" x1="178.5" x2="178.5" y1="465.0273" y2="485.0273"/><polygon fill="#A80036" points="174.5,475.0273,178.5,485.0273,182.5,475.0273,178.5,479.0273" style="stroke: #A80036; stroke-width: 1.0;"/><line style="stroke: #A80036; stroke-width: 1.5;" x1="178.5" x2="178.5" y1="520.1211" y2="530.1211"/><line style="stroke: #A80036; stroke-width: 1.5;" x1="178.5" x2="285.5" y1="530.1211" y2="530.1211"/><polygon fill="#A80036" points="281.5,500.5742,285.5,490.5742,289.5,500.5742,285.5,496.5742" style="stroke: #A80036; stroke-width: 1.5;"/><line style="stroke: #A80036; stroke-width: 1.5;" x1="285.5" x2="285.5" y1="453.0273" y2="530.1211"/><line style="stroke: #A80036; stroke-width: 1.5;" x1="285.5" x2="273.5" y1="453.0273" y2="453.0273"/><polygon fill="#A80036" points="283.5,449.0273,273.5,453.0273,283.5,457.0273,279.5,453.0273" style="stroke: #A80036; stroke-width: 1.0;"/><line style="stroke: #A80036; stroke-width: 1.5;" x1="83.5" x2="62.5" y1="453.0273" y2="453.0273"/><line style="stroke: #A80036; stroke-width: 1.5;" x1="62.5" x2="62.5" y1="453.0273" y2="485.0273"/><polygon fill="#A80036" points="58.5,475.0273,62.5,485.0273,66.5,475.0273,62.5,479.0273" style="stroke: #A80036; stroke-width: 1.0;"/><line style="stroke: #A80036; stroke-width: 1.5;" x1="178.5" x2="178.5" y1="421.0273" y2="441.0273"/><polygon fill="#A80036" points="174.5,431.0273,178.5,441.0273,182.5,431.0273,178.5,435.0273" style="stroke: #A80036; stroke-width: 1.0;"/><!--MD5=[b24846f8810ade3a1979c13b27e0c2d4]
@startuml
title notifyObservers
start
:New list: <b>observersLocal</b>;
:Assign <color:darkblue><i>null</i></color> to <b>observersLocal</b>;
if (!changed ?) then (yes)
:<color:INDIGO><b>Exit subroutine</b></color>;
else (no)
endif
:Assign <color:darkblue><i>newArrayList<>(this.observers)</i></color> to <b>observersLocal</b>;
:Assign <color:darkblue><i>false</i></color> to <b>this.changed</b>;
while(For each <b>obj</b> of <b>observersLocal</b>);
:Enter <b>obj's</b> subroutine: <color:darkred><b>update</b></color>;
endWhile
stop
@enduml

PlantUML version 1.2020.14(Sat Jun 20 09:14:34 COT 2020)
(GPL source distribution)
Java Runtime: Java(TM) SE Runtime Environment
JVM: Java HotSpot(TM) 64-Bit Server VM
Default Encoding: UTF-8
Language: es
Country: CO
--></g></svg>