<?xml version="1.0" encoding="UTF-8" standalone="no"?><svg xmlns="http://www.w3.org/2000/svg" xmlns:xlink="http://www.w3.org/1999/xlink" contentScriptType="application/ecmascript" contentStyleType="text/css" height="340px" preserveAspectRatio="none" style="width:512px;height:340px;" version="1.1" viewBox="0 0 512 340" width="512px" zoomAndPan="magnify"><defs><filter height="300%" id="feu00th600t20" width="300%" x="-1" y="-1"><feGaussianBlur result="blurOut" stdDeviation="2.0"/><feColorMatrix in="blurOut" result="blurOut2" type="matrix" values="0 0 0 0 0 0 0 0 0 0 0 0 0 0 0 0 0 0 .4 0"/><feOffset dx="4.0" dy="4.0" in="blurOut2" result="blurOut3"/><feBlend in="SourceGraphic" in2="blurOut3" mode="normal"/></filter></defs><g><text fill="#000000" font-family="sans-serif" font-size="18" lengthAdjust="spacingAndGlyphs" textLength="55" x="227.5" y="28.6855">update</text><ellipse cx="238" cy="42.6406" fill="#000000" filter="url(#feu00th600t20)" rx="10" ry="10" style="stroke: none; stroke-width: 1.0;"/><rect fill="#FEFECE" filter="url(#feu00th600t20)" height="35.0938" rx="12.5" ry="12.5" style="stroke: #A80036; stroke-width: 1.5;" width="122" x="177" y="72.6406"/><text fill="#000000" font-family="sans-serif" font-size="12" lengthAdjust="spacingAndGlyphs" textLength="74" x="187" y="95.0977">New variable:</text><text fill="#000000" font-family="sans-serif" font-size="12" font-weight="bold" lengthAdjust="spacingAndGlyphs" textLength="25" x="264" y="95.0977">msg</text><rect fill="#FEFECE" filter="url(#feu00th600t20)" height="35.0938" rx="12.5" ry="12.5" style="stroke: #A80036; stroke-width: 1.5;" width="255" x="110.5" y="127.7344"/><text fill="#000000" font-family="sans-serif" font-size="12" lengthAdjust="spacingAndGlyphs" textLength="38" x="120.5" y="150.1914">Assign</text><text fill="#00008B" font-family="sans-serif" font-size="12" font-style="italic" lengthAdjust="spacingAndGlyphs" textLength="153" x="161.5" y="150.1914">(String)topic.getUpdate(this)</text><text fill="#000000" font-family="sans-serif" font-size="12" lengthAdjust="spacingAndGlyphs" textLength="10" x="317.5" y="150.1914">to</text><text fill="#000000" font-family="sans-serif" font-size="12" font-weight="bold" lengthAdjust="spacingAndGlyphs" textLength="25" x="330.5" y="150.1914">msg</text><polygon fill="#FEFECE" filter="url(#feu00th600t20)" points="196.5,182.8281,279.5,182.8281,291.5,194.8281,279.5,206.8281,196.5,206.8281,184.5,194.8281,196.5,182.8281" style="stroke: #A80036; stroke-width: 1.5;"/><text fill="#000000" font-family="sans-serif" font-size="11" lengthAdjust="spacingAndGlyphs" textLength="83" x="196.5" y="199.3291">msg equals null ?</text><text fill="#000000" font-family="sans-serif" font-size="11" lengthAdjust="spacingAndGlyphs" textLength="18" x="166.5" y="192.4111">yes</text><text fill="#000000" font-family="sans-serif" font-size="11" lengthAdjust="spacingAndGlyphs" textLength="12" x="291.5" y="192.4111">no</text><rect fill="#FEFECE" filter="url(#feu00th600t20)" height="35.0938" rx="12.5" ry="12.5" style="stroke: #A80036; stroke-width: 1.5;" width="202" x="11" y="216.8281"/><text fill="#000000" font-family="sans-serif" font-size="12" lengthAdjust="spacingAndGlyphs" textLength="28" x="21" y="239.2852">Print:</text><text fill="#00008B" font-family="sans-serif" font-size="12" font-style="italic" lengthAdjust="spacingAndGlyphs" textLength="151" x="52" y="239.2852">name+":: No new message"</text><rect fill="#FEFECE" filter="url(#feu00th600t20)" height="35.0938" rx="12.5" ry="12.5" style="stroke: #A80036; stroke-width: 1.5;" width="262" x="233" y="216.8281"/><text fill="#000000" font-family="sans-serif" font-size="12" lengthAdjust="spacingAndGlyphs" textLength="28" x="243" y="239.2852">Print:</text><text fill="#00008B" font-family="sans-serif" font-size="12" font-style="italic" lengthAdjust="spacingAndGlyphs" textLength="211" x="274" y="239.2852">name+":: Consuming message::"+msg</text><polygon fill="#FEFECE" filter="url(#feu00th600t20)" points="238,257.9219,250,269.9219,238,281.9219,226,269.9219,238,257.9219" style="stroke: #A80036; stroke-width: 1.5;"/><ellipse cx="238" cy="312.9219" fill="#FFFFFF" filter="url(#feu00th600t20)" rx="11" ry="11" style="stroke: #000000; stroke-width: 1.0;"/><ellipse cx="238" cy="312.9219" fill="#000000" rx="6" ry="6" style="stroke: #7F7F7F; stroke-width: 1.0;"/><line style="stroke: #A80036; stroke-width: 1.5;" x1="238" x2="238" y1="52.6406" y2="72.6406"/><polygon fill="#A80036" points="234,62.6406,238,72.6406,242,62.6406,238,66.6406" style="stroke: #A80036; stroke-width: 1.0;"/><line style="stroke: #A80036; stroke-width: 1.5;" x1="238" x2="238" y1="107.7344" y2="127.7344"/><polygon fill="#A80036" points="234,117.7344,238,127.7344,242,117.7344,238,121.7344" style="stroke: #A80036; stroke-width: 1.0;"/><line style="stroke: #A80036; stroke-width: 1.5;" x1="184.5" x2="112" y1="194.8281" y2="194.8281"/><line style="stroke: #A80036; stroke-width: 1.5;" x1="112" x2="112" y1="194.8281" y2="216.8281"/><polygon fill="#A80036" points="108,206.8281,112,216.8281,116,206.8281,112,210.8281" style="stroke: #A80036; stroke-width: 1.0;"/><line style="stroke: #A80036; stroke-width: 1.5;" x1="291.5" x2="364" y1="194.8281" y2="194.8281"/><line style="stroke: #A80036; stroke-width: 1.5;" x1="364" x2="364" y1="194.8281" y2="216.8281"/><polygon fill="#A80036" points="360,206.8281,364,216.8281,368,206.8281,364,210.8281" style="stroke: #A80036; stroke-width: 1.0;"/><line style="stroke: #A80036; stroke-width: 1.5;" x1="112" x2="112" y1="251.9219" y2="269.9219"/><line style="stroke: #A80036; stroke-width: 1.5;" x1="112" x2="226" y1="269.9219" y2="269.9219"/><polygon fill="#A80036" points="216,265.9219,226,269.9219,216,273.9219,220,269.9219" style="stroke: #A80036; stroke-width: 1.0;"/><line style="stroke: #A80036; stroke-width: 1.5;" x1="364" x2="364" y1="251.9219" y2="269.9219"/><line style="stroke: #A80036; stroke-width: 1.5;" x1="364" x2="250" y1="269.9219" y2="269.9219"/><polygon fill="#A80036" points="260,265.9219,250,269.9219,260,273.9219,256,269.9219" style="stroke: #A80036; stroke-width: 1.0;"/><line style="stroke: #A80036; stroke-width: 1.5;" x1="238" x2="238" y1="162.8281" y2="182.8281"/><polygon fill="#A80036" points="234,172.8281,238,182.8281,242,172.8281,238,176.8281" style="stroke: #A80036; stroke-width: 1.0;"/><line style="stroke: #A80036; stroke-width: 1.5;" x1="238" x2="238" y1="281.9219" y2="301.9219"/><polygon fill="#A80036" points="234,291.9219,238,301.9219,242,291.9219,238,295.9219" style="stroke: #A80036; stroke-width: 1.0;"/><!--MD5=[6ecd20ba9301454f9f8fb14ff0c36a18]
@startuml
title update
start
:New variable: <b>msg</b>;
:Assign <color:darkblue><i>(String)topic.getUpdate(this)</i></color> to <b>msg</b>;
if (msg equals null ?) then (yes)
:Print: <color:darkblue><i>name+":: No new message"</i></color>;
else (no)
:Print: <color:darkblue><i>name+":: Consuming message::"+msg</i></color>;
endif
stop
@enduml

PlantUML version 1.2020.14(Sat Jun 20 09:14:34 COT 2020)
(GPL source distribution)
Java Runtime: Java(TM) SE Runtime Environment
JVM: Java HotSpot(TM) 64-Bit Server VM
Default Encoding: UTF-8
Language: es
Country: CO
--></g></svg>