<?xml version="1.0" encoding="UTF-8" standalone="no"?><svg xmlns="http://www.w3.org/2000/svg" xmlns:xlink="http://www.w3.org/1999/xlink" contentScriptType="application/ecmascript" contentStyleType="text/css" height="420px" preserveAspectRatio="none" style="width:159px;height:420px;" version="1.1" viewBox="0 0 159 420" width="159px" zoomAndPan="magnify"><defs><filter height="300%" id="f1ghugt5gsjrtd" width="300%" x="-1" y="-1"><feGaussianBlur result="blurOut" stdDeviation="2.0"/><feColorMatrix in="blurOut" result="blurOut2" type="matrix" values="0 0 0 0 0 0 0 0 0 0 0 0 0 0 0 0 0 0 .4 0"/><feOffset dx="4.0" dy="4.0" in="blurOut2" result="blurOut3"/><feBlend in="SourceGraphic" in2="blurOut3" mode="normal"/></filter></defs><g><text fill="#000000" font-family="sans-serif" font-size="18" lengthAdjust="spacingAndGlyphs" textLength="105" x="26" y="28.6855">doWhileLoop</text><ellipse cx="66" cy="42.6406" fill="#000000" filter="url(#f1ghugt5gsjrtd)" rx="10" ry="10" style="stroke: none; stroke-width: 1.0;"/><rect fill="#FEFECE" filter="url(#f1ghugt5gsjrtd)" height="35.0938" rx="12.5" ry="12.5" style="stroke: #A80036; stroke-width: 1.5;" width="104" x="14" y="72.6406"/><text fill="#000000" font-family="sans-serif" font-size="12" lengthAdjust="spacingAndGlyphs" textLength="74" x="24" y="95.0977">New variable:</text><text fill="#000000" font-family="sans-serif" font-size="12" font-weight="bold" lengthAdjust="spacingAndGlyphs" textLength="7" x="101" y="95.0977">a</text><rect fill="#FEFECE" filter="url(#f1ghugt5gsjrtd)" height="35.0938" rx="12.5" ry="12.5" style="stroke: #A80036; stroke-width: 1.5;" width="105" x="13.5" y="127.7344"/><text fill="#000000" font-family="sans-serif" font-size="12" lengthAdjust="spacingAndGlyphs" textLength="38" x="23.5" y="150.1914">Assign</text><text fill="#00008B" font-family="sans-serif" font-size="12" font-style="italic" lengthAdjust="spacingAndGlyphs" textLength="21" x="64.5" y="150.1914">true</text><text fill="#000000" font-family="sans-serif" font-size="12" lengthAdjust="spacingAndGlyphs" textLength="10" x="88.5" y="150.1914">to</text><text fill="#000000" font-family="sans-serif" font-size="12" font-weight="bold" lengthAdjust="spacingAndGlyphs" textLength="7" x="101.5" y="150.1914">a</text><rect fill="#FEFECE" filter="url(#f1ghugt5gsjrtd)" height="35.0938" rx="12.5" ry="12.5" style="stroke: #A80036; stroke-width: 1.5;" width="110" x="11" y="226.8281"/><text fill="#000000" font-family="sans-serif" font-size="12" lengthAdjust="spacingAndGlyphs" textLength="38" x="21" y="249.2852">Assign</text><text fill="#00008B" font-family="sans-serif" font-size="12" font-style="italic" lengthAdjust="spacingAndGlyphs" textLength="26" x="62" y="249.2852">false</text><text fill="#000000" font-family="sans-serif" font-size="12" lengthAdjust="spacingAndGlyphs" textLength="10" x="91" y="249.2852">to</text><text fill="#000000" font-family="sans-serif" font-size="12" font-weight="bold" lengthAdjust="spacingAndGlyphs" textLength="7" x="104" y="249.2852">a</text><polygon fill="#FEFECE" filter="url(#f1ghugt5gsjrtd)" points="66,182.8281,78,194.8281,66,206.8281,54,194.8281,66,182.8281" style="stroke: #A80036; stroke-width: 1.5;"/><polygon fill="#FEFECE" filter="url(#f1ghugt5gsjrtd)" points="47.5,281.9219,84.5,281.9219,96.5,293.9219,84.5,305.9219,47.5,305.9219,35.5,293.9219,47.5,281.9219" style="stroke: #A80036; stroke-width: 1.5;"/><text fill="#000000" font-family="sans-serif" font-size="11" lengthAdjust="spacingAndGlyphs" textLength="37" x="47.5" y="298.4229">a==true</text><rect fill="#FEFECE" filter="url(#f1ghugt5gsjrtd)" height="35.0938" rx="12.5" ry="12.5" style="stroke: #A80036; stroke-width: 1.5;" width="105" x="13.5" y="325.9219"/><text fill="#4B0082" font-family="sans-serif" font-size="12" font-weight="bold" lengthAdjust="spacingAndGlyphs" textLength="85" x="23.5" y="348.3789">Exit subroutine</text><ellipse cx="66" cy="392.0156" fill="#FFFFFF" filter="url(#f1ghugt5gsjrtd)" rx="11" ry="11" style="stroke: #000000; stroke-width: 1.0;"/><ellipse cx="66" cy="392.0156" fill="#000000" rx="6" ry="6" style="stroke: #7F7F7F; stroke-width: 1.0;"/><line style="stroke: #A80036; stroke-width: 1.5;" x1="66" x2="66" y1="52.6406" y2="72.6406"/><polygon fill="#A80036" points="62,62.6406,66,72.6406,70,62.6406,66,66.6406" style="stroke: #A80036; stroke-width: 1.0;"/><line style="stroke: #A80036; stroke-width: 1.5;" x1="66" x2="66" y1="107.7344" y2="127.7344"/><polygon fill="#A80036" points="62,117.7344,66,127.7344,70,117.7344,66,121.7344" style="stroke: #A80036; stroke-width: 1.0;"/><line style="stroke: #A80036; stroke-width: 1.5;" x1="66" x2="66" y1="206.8281" y2="226.8281"/><polygon fill="#A80036" points="62,216.8281,66,226.8281,70,216.8281,66,220.8281" style="stroke: #A80036; stroke-width: 1.0;"/><line style="stroke: #A80036; stroke-width: 1.5;" x1="96.5" x2="133" y1="293.9219" y2="293.9219"/><polygon fill="#A80036" points="129,254.375,133,244.375,137,254.375,133,250.375" style="stroke: #A80036; stroke-width: 1.5;"/><line style="stroke: #A80036; stroke-width: 1.5;" x1="133" x2="133" y1="194.8281" y2="293.9219"/><line style="stroke: #A80036; stroke-width: 1.5;" x1="133" x2="78" y1="194.8281" y2="194.8281"/><polygon fill="#A80036" points="88,190.8281,78,194.8281,88,198.8281,84,194.8281" style="stroke: #A80036; stroke-width: 1.0;"/><line style="stroke: #A80036; stroke-width: 1.5;" x1="66" x2="66" y1="261.9219" y2="281.9219"/><polygon fill="#A80036" points="62,271.9219,66,281.9219,70,271.9219,66,275.9219" style="stroke: #A80036; stroke-width: 1.0;"/><line style="stroke: #A80036; stroke-width: 1.5;" x1="66" x2="66" y1="162.8281" y2="182.8281"/><polygon fill="#A80036" points="62,172.8281,66,182.8281,70,172.8281,66,176.8281" style="stroke: #A80036; stroke-width: 1.0;"/><line style="stroke: #A80036; stroke-width: 1.5;" x1="66" x2="66" y1="305.9219" y2="325.9219"/><polygon fill="#A80036" points="62,315.9219,66,325.9219,70,315.9219,66,319.9219" style="stroke: #A80036; stroke-width: 1.0;"/><line style="stroke: #A80036; stroke-width: 1.5;" x1="66" x2="66" y1="361.0156" y2="381.0156"/><polygon fill="#A80036" points="62,371.0156,66,381.0156,70,371.0156,66,375.0156" style="stroke: #A80036; stroke-width: 1.0;"/><!--MD5=[5ee30e20edd3821c35db4ecda3bd0938]
@startuml
title doWhileLoop
start
:New variable: <b>a</b>;
:Assign <color:darkblue><i>true</i></color> to <b>a</b>;
repeat
:Assign <color:darkblue><i>false</i></color> to <b>a</b>;
repeat while (a==true)
:<color:INDIGO><b>Exit subroutine</b></color>;
stop
@enduml

PlantUML version 1.2020.14(Sat Jun 20 09:14:34 COT 2020)
(GPL source distribution)
Java Runtime: Java(TM) SE Runtime Environment
JVM: Java HotSpot(TM) 64-Bit Server VM
Default Encoding: UTF-8
Language: es
Country: CO
--></g></svg>