<?xml version="1.0" encoding="UTF-8" standalone="no"?><svg xmlns="http://www.w3.org/2000/svg" xmlns:xlink="http://www.w3.org/1999/xlink" contentScriptType="application/ecmascript" contentStyleType="text/css" height="662px" preserveAspectRatio="none" style="width:269px;height:662px;" version="1.1" viewBox="0 0 269 662" width="269px" zoomAndPan="magnify"><defs><filter height="300%" id="fbf3ytlfd7vns" width="300%" x="-1" y="-1"><feGaussianBlur result="blurOut" stdDeviation="2.0"/><feColorMatrix in="blurOut" result="blurOut2" type="matrix" values="0 0 0 0 0 0 0 0 0 0 0 0 0 0 0 0 0 0 .4 0"/><feOffset dx="4.0" dy="4.0" in="blurOut2" result="blurOut3"/><feBlend in="SourceGraphic" in2="blurOut3" mode="normal"/></filter></defs><g><text fill="#000000" font-family="sans-serif" font-size="18" lengthAdjust="spacingAndGlyphs" textLength="83" x="92" y="28.6855">withArrays</text><ellipse cx="131.5" cy="42.6406" fill="#000000" filter="url(#fbf3ytlfd7vns)" rx="10" ry="10" style="stroke: none; stroke-width: 1.0;"/><rect fill="#FEFECE" filter="url(#fbf3ytlfd7vns)" height="35.0938" rx="12.5" ry="12.5" style="stroke: #A80036; stroke-width: 1.5;" width="132" x="65.5" y="72.6406"/><text fill="#000000" font-family="sans-serif" font-size="12" lengthAdjust="spacingAndGlyphs" textLength="58" x="75.5" y="95.0977">New array:</text><text fill="#000000" font-family="sans-serif" font-size="12" font-weight="bold" lengthAdjust="spacingAndGlyphs" textLength="51" x="136.5" y="95.0977">numbers</text><rect fill="#FEFECE" filter="url(#fbf3ytlfd7vns)" height="35.0938" rx="12.5" ry="12.5" style="stroke: #A80036; stroke-width: 1.5;" width="106" x="78.5" y="127.7344"/><text fill="#000000" font-family="sans-serif" font-size="12" lengthAdjust="spacingAndGlyphs" textLength="47" x="88.5" y="150.1914">New list:</text><text fill="#000000" font-family="sans-serif" font-size="12" font-weight="bold" lengthAdjust="spacingAndGlyphs" textLength="36" x="138.5" y="150.1914">words</text><rect fill="#FEFECE" filter="url(#fbf3ytlfd7vns)" height="35.0938" rx="12.5" ry="12.5" style="stroke: #A80036; stroke-width: 1.5;" width="205" x="29" y="182.8281"/><text fill="#000000" font-family="sans-serif" font-size="12" lengthAdjust="spacingAndGlyphs" textLength="38" x="39" y="205.2852">Assign</text><text fill="#00008B" font-family="sans-serif" font-size="12" font-style="italic" lengthAdjust="spacingAndGlyphs" textLength="92" x="80" y="205.2852">newArrayList&lt;&gt;()</text><text fill="#000000" font-family="sans-serif" font-size="12" lengthAdjust="spacingAndGlyphs" textLength="10" x="175" y="205.2852">to</text><text fill="#000000" font-family="sans-serif" font-size="12" font-weight="bold" lengthAdjust="spacingAndGlyphs" textLength="36" x="188" y="205.2852">words</text><rect fill="#FEFECE" filter="url(#fbf3ytlfd7vns)" height="35.0938" rx="12.5" ry="12.5" style="stroke: #A80036; stroke-width: 1.5;" width="123" x="70" y="237.9219"/><text fill="#000000" font-family="sans-serif" font-size="12" lengthAdjust="spacingAndGlyphs" textLength="103" x="80" y="260.3789">words.add("Word")</text><rect fill="#FEFECE" filter="url(#fbf3ytlfd7vns)" height="35.0938" rx="12.5" ry="12.5" style="stroke: #A80036; stroke-width: 1.5;" width="147" x="58" y="293.0156"/><text fill="#000000" font-family="sans-serif" font-size="12" lengthAdjust="spacingAndGlyphs" textLength="56" x="68" y="315.4727">New map:</text><text fill="#000000" font-family="sans-serif" font-size="12" font-weight="bold" lengthAdjust="spacingAndGlyphs" textLength="68" x="127" y="315.4727">numberMap</text><rect fill="#FEFECE" filter="url(#fbf3ytlfd7vns)" height="35.0938" rx="12.5" ry="12.5" style="stroke: #A80036; stroke-width: 1.5;" width="241" x="11" y="348.1094"/><text fill="#000000" font-family="sans-serif" font-size="12" lengthAdjust="spacingAndGlyphs" textLength="38" x="21" y="370.5664">Assign</text><text fill="#00008B" font-family="sans-serif" font-size="12" font-style="italic" lengthAdjust="spacingAndGlyphs" textLength="96" x="62" y="370.5664">newHashMap&lt;&gt;()</text><text fill="#000000" font-family="sans-serif" font-size="12" lengthAdjust="spacingAndGlyphs" textLength="10" x="161" y="370.5664">to</text><text fill="#000000" font-family="sans-serif" font-size="12" font-weight="bold" lengthAdjust="spacingAndGlyphs" textLength="68" x="174" y="370.5664">numberMap</text><rect fill="#FEFECE" filter="url(#fbf3ytlfd7vns)" height="35.0938" rx="12.5" ry="12.5" style="stroke: #A80036; stroke-width: 1.5;" width="134" x="64.5" y="403.2031"/><text fill="#000000" font-family="sans-serif" font-size="12" lengthAdjust="spacingAndGlyphs" textLength="48" x="74.5" y="425.6602">New set:</text><text fill="#000000" font-family="sans-serif" font-size="12" font-weight="bold" lengthAdjust="spacingAndGlyphs" textLength="63" x="125.5" y="425.6602">numberSet</text><rect fill="#FEFECE" filter="url(#fbf3ytlfd7vns)" height="35.0938" rx="12.5" ry="12.5" style="stroke: #A80036; stroke-width: 1.5;" width="231" x="16" y="458.2969"/><text fill="#000000" font-family="sans-serif" font-size="12" lengthAdjust="spacingAndGlyphs" textLength="38" x="26" y="480.7539">Assign</text><text fill="#00008B" font-family="sans-serif" font-size="12" font-style="italic" lengthAdjust="spacingAndGlyphs" textLength="91" x="67" y="480.7539">newHashSet&lt;&gt;()</text><text fill="#000000" font-family="sans-serif" font-size="12" lengthAdjust="spacingAndGlyphs" textLength="10" x="161" y="480.7539">to</text><text fill="#000000" font-family="sans-serif" font-size="12" font-weight="bold" lengthAdjust="spacingAndGlyphs" textLength="63" x="174" y="480.7539">numberSet</text><rect fill="#FEFECE" filter="url(#fbf3ytlfd7vns)" height="35.0938" rx="12.5" ry="12.5" style="stroke: #A80036; stroke-width: 1.5;" width="104" x="79.5" y="513.3906"/><text fill="#000000" font-family="sans-serif" font-size="12" lengthAdjust="spacingAndGlyphs" textLength="74" x="89.5" y="535.8477">New variable:</text><text fill="#000000" font-family="sans-serif" font-size="12" font-weight="bold" lengthAdjust="spacingAndGlyphs" textLength="7" x="166.5" y="535.8477">x</text><rect fill="#FEFECE" filter="url(#fbf3ytlfd7vns)" height="35.0938" rx="12.5" ry="12.5" style="stroke: #A80036; stroke-width: 1.5;" width="160" x="51.5" y="568.4844"/><text fill="#000000" font-family="sans-serif" font-size="12" lengthAdjust="spacingAndGlyphs" textLength="38" x="61.5" y="590.9414">Assign</text><text fill="#00008B" font-family="sans-serif" font-size="12" font-style="italic" lengthAdjust="spacingAndGlyphs" textLength="76" x="102.5" y="590.9414">newInteger(5)</text><text fill="#000000" font-family="sans-serif" font-size="12" lengthAdjust="spacingAndGlyphs" textLength="10" x="181.5" y="590.9414">to</text><text fill="#000000" font-family="sans-serif" font-size="12" font-weight="bold" lengthAdjust="spacingAndGlyphs" textLength="7" x="194.5" y="590.9414">x</text><ellipse cx="131.5" cy="634.5781" fill="#FFFFFF" filter="url(#fbf3ytlfd7vns)" rx="11" ry="11" style="stroke: #000000; stroke-width: 1.0;"/><ellipse cx="131.5" cy="634.5781" fill="#000000" rx="6" ry="6" style="stroke: #7F7F7F; stroke-width: 1.0;"/><line style="stroke: #A80036; stroke-width: 1.5;" x1="131.5" x2="131.5" y1="52.6406" y2="72.6406"/><polygon fill="#A80036" points="127.5,62.6406,131.5,72.6406,135.5,62.6406,131.5,66.6406" style="stroke: #A80036; stroke-width: 1.0;"/><line style="stroke: #A80036; stroke-width: 1.5;" x1="131.5" x2="131.5" y1="107.7344" y2="127.7344"/><polygon fill="#A80036" points="127.5,117.7344,131.5,127.7344,135.5,117.7344,131.5,121.7344" style="stroke: #A80036; stroke-width: 1.0;"/><line style="stroke: #A80036; stroke-width: 1.5;" x1="131.5" x2="131.5" y1="162.8281" y2="182.8281"/><polygon fill="#A80036" points="127.5,172.8281,131.5,182.8281,135.5,172.8281,131.5,176.8281" style="stroke: #A80036; stroke-width: 1.0;"/><line style="stroke: #A80036; stroke-width: 1.5;" x1="131.5" x2="131.5" y1="217.9219" y2="237.9219"/><polygon fill="#A80036" points="127.5,227.9219,131.5,237.9219,135.5,227.9219,131.5,231.9219" style="stroke: #A80036; stroke-width: 1.0;"/><line style="stroke: #A80036; stroke-width: 1.5;" x1="131.5" x2="131.5" y1="273.0156" y2="293.0156"/><polygon fill="#A80036" points="127.5,283.0156,131.5,293.0156,135.5,283.0156,131.5,287.0156" style="stroke: #A80036; stroke-width: 1.0;"/><line style="stroke: #A80036; stroke-width: 1.5;" x1="131.5" x2="131.5" y1="328.1094" y2="348.1094"/><polygon fill="#A80036" points="127.5,338.1094,131.5,348.1094,135.5,338.1094,131.5,342.1094" style="stroke: #A80036; stroke-width: 1.0;"/><line style="stroke: #A80036; stroke-width: 1.5;" x1="131.5" x2="131.5" y1="383.2031" y2="403.2031"/><polygon fill="#A80036" points="127.5,393.2031,131.5,403.2031,135.5,393.2031,131.5,397.2031" style="stroke: #A80036; stroke-width: 1.0;"/><line style="stroke: #A80036; stroke-width: 1.5;" x1="131.5" x2="131.5" y1="438.2969" y2="458.2969"/><polygon fill="#A80036" points="127.5,448.2969,131.5,458.2969,135.5,448.2969,131.5,452.2969" style="stroke: #A80036; stroke-width: 1.0;"/><line style="stroke: #A80036; stroke-width: 1.5;" x1="131.5" x2="131.5" y1="493.3906" y2="513.3906"/><polygon fill="#A80036" points="127.5,503.3906,131.5,513.3906,135.5,503.3906,131.5,507.3906" style="stroke: #A80036; stroke-width: 1.0;"/><line style="stroke: #A80036; stroke-width: 1.5;" x1="131.5" x2="131.5" y1="548.4844" y2="568.4844"/><polygon fill="#A80036" points="127.5,558.4844,131.5,568.4844,135.5,558.4844,131.5,562.4844" style="stroke: #A80036; stroke-width: 1.0;"/><line style="stroke: #A80036; stroke-width: 1.5;" x1="131.5" x2="131.5" y1="603.5781" y2="623.5781"/><polygon fill="#A80036" points="127.5,613.5781,131.5,623.5781,135.5,613.5781,131.5,617.5781" style="stroke: #A80036; stroke-width: 1.0;"/><!--MD5=[368bbeb1fafd12bcf694aa1a725a95c7]
@startuml
title withArrays
start
:New array: <b>numbers</b>;
:New list: <b>words</b>;
:Assign <color:darkblue><i>newArrayList<>()</i></color> to <b>words</b>;
:words.add("Word");
:New map: <b>numberMap</b>;
:Assign <color:darkblue><i>newHashMap<>()</i></color> to <b>numberMap</b>;
:New set: <b>numberSet</b>;
:Assign <color:darkblue><i>newHashSet<>()</i></color> to <b>numberSet</b>;
:New variable: <b>x</b>;
:Assign <color:darkblue><i>newInteger(5)</i></color> to <b>x</b>;
stop
@enduml

PlantUML version 1.2020.14(Sat Jun 20 09:14:34 COT 2020)
(GPL source distribution)
Java Runtime: Java(TM) SE Runtime Environment
JVM: Java HotSpot(TM) 64-Bit Server VM
Default Encoding: UTF-8
Language: es
Country: CO
--></g></svg>