<?xml version="1.0" encoding="UTF-8" standalone="no"?><svg xmlns="http://www.w3.org/2000/svg" xmlns:xlink="http://www.w3.org/1999/xlink" contentScriptType="application/ecmascript" contentStyleType="text/css" height="563px" preserveAspectRatio="none" style="width:323px;height:563px;" version="1.1" viewBox="0 0 323 563" width="323px" zoomAndPan="magnify"><defs><filter height="300%" id="f11n2oh05i6mk8" width="300%" x="-1" y="-1"><feGaussianBlur result="blurOut" stdDeviation="2.0"/><feColorMatrix in="blurOut" result="blurOut2" type="matrix" values="0 0 0 0 0 0 0 0 0 0 0 0 0 0 0 0 0 0 .4 0"/><feOffset dx="4.0" dy="4.0" in="blurOut2" result="blurOut3"/><feBlend in="SourceGraphic" in2="blurOut3" mode="normal"/></filter></defs><g><text fill="#000000" font-family="sans-serif" font-size="18" lengthAdjust="spacingAndGlyphs" textLength="59" x="131" y="28.6855">method</text><ellipse cx="147.5" cy="42.6406" fill="#000000" filter="url(#f11n2oh05i6mk8)" rx="10" ry="10" style="stroke: none; stroke-width: 1.0;"/><rect fill="#FEFECE" filter="url(#f11n2oh05i6mk8)" height="35.0938" rx="12.5" ry="12.5" style="stroke: #A80036; stroke-width: 1.5;" width="104" x="95.5" y="72.6406"/><text fill="#000000" font-family="sans-serif" font-size="12" lengthAdjust="spacingAndGlyphs" textLength="84" x="105.5" y="95.0977">New variable: n</text><polygon fill="#FEFECE" filter="url(#f11n2oh05i6mk8)" points="135.5,127.7344,159.5,127.7344,171.5,139.7344,159.5,151.7344,135.5,151.7344,123.5,139.7344,135.5,127.7344" style="stroke: #A80036; stroke-width: 1.5;"/><text fill="#000000" font-family="sans-serif" font-size="11" lengthAdjust="spacingAndGlyphs" textLength="18" x="138.5" y="144.2354">1&gt;4</text><text fill="#000000" font-family="sans-serif" font-size="11" lengthAdjust="spacingAndGlyphs" textLength="18" x="105.5" y="137.3174">yes</text><text fill="#000000" font-family="sans-serif" font-size="11" lengthAdjust="spacingAndGlyphs" textLength="12" x="171.5" y="137.3174">no</text><rect fill="#FEFECE" filter="url(#f11n2oh05i6mk8)" height="35.0938" rx="12.5" ry="12.5" style="stroke: #A80036; stroke-width: 1.5;" width="91" x="17" y="161.7344"/><text fill="#000000" font-family="sans-serif" font-size="12" lengthAdjust="spacingAndGlyphs" textLength="71" x="27" y="184.1914">Assign 2 to n</text><rect fill="#FEFECE" filter="url(#f11n2oh05i6mk8)" height="35.0938" rx="12.5" ry="12.5" style="stroke: #A80036; stroke-width: 1.5;" width="103" x="11" y="265.7461"/><text fill="#000000" font-family="sans-serif" font-size="12" lengthAdjust="spacingAndGlyphs" textLength="83" x="21" y="288.2031">Assign 5*n to n</text><polygon fill="#FEFECE" filter="url(#f11n2oh05i6mk8)" points="50.5,216.8281,74.5,216.8281,86.5,228.8281,74.5,240.8281,50.5,240.8281,38.5,228.8281,50.5,216.8281" style="stroke: #A80036; stroke-width: 1.5;"/><text fill="#000000" font-family="sans-serif" font-size="11" lengthAdjust="spacingAndGlyphs" textLength="18" x="66.5" y="252.2471">yes</text><text fill="#000000" font-family="sans-serif" font-size="11" lengthAdjust="spacingAndGlyphs" textLength="20" x="52.5" y="233.3291">n!=2</text><text fill="#000000" font-family="sans-serif" font-size="11" lengthAdjust="spacingAndGlyphs" textLength="12" x="86.5" y="226.4111">no</text><polygon fill="#FEFECE" filter="url(#f11n2oh05i6mk8)" points="62.5,325.7578,74.5,337.7578,62.5,349.7578,50.5,337.7578,62.5,325.7578" style="stroke: #A80036; stroke-width: 1.5;"/><rect fill="#FEFECE" filter="url(#f11n2oh05i6mk8)" height="35.0938" rx="12.5" ry="12.5" style="stroke: #A80036; stroke-width: 1.5;" width="100" x="182.5" y="161.7344"/><text fill="#000000" font-family="sans-serif" font-size="12" lengthAdjust="spacingAndGlyphs" textLength="80" x="192.5" y="184.1914">New variable: i</text><rect fill="#FEFECE" filter="url(#f11n2oh05i6mk8)" height="35.0938" rx="12.5" ry="12.5" style="stroke: #A80036; stroke-width: 1.5;" width="87" x="189" y="216.8281"/><text fill="#000000" font-family="sans-serif" font-size="12" lengthAdjust="spacingAndGlyphs" textLength="67" x="199" y="239.2852">Assign 0 to i</text><rect fill="#FEFECE" filter="url(#f11n2oh05i6mk8)" height="35.0938" rx="12.5" ry="12.5" style="stroke: #A80036; stroke-width: 1.5;" width="47" x="209" y="348.7578"/><text fill="#000000" font-family="sans-serif" font-size="12" lengthAdjust="spacingAndGlyphs" textLength="27" x="219" y="371.2148">i=i+1</text><rect fill="#FEFECE" filter="url(#f11n2oh05i6mk8)" height="35.0938" rx="12.5" ry="12.5" style="stroke: #A80036; stroke-width: 1.5;" width="105" x="180" y="417.4336"/><text fill="#000000" font-family="sans-serif" font-size="12" lengthAdjust="spacingAndGlyphs" textLength="85" x="190" y="439.8906">Assign 9+n to n</text><polygon fill="#FEFECE" filter="url(#f11n2oh05i6mk8)" points="220.5,286.9219,244.5,286.9219,256.5,298.9219,244.5,310.9219,220.5,310.9219,208.5,298.9219,220.5,286.9219" style="stroke: #A80036; stroke-width: 1.5;"/><text fill="#000000" font-family="sans-serif" font-size="11" lengthAdjust="spacingAndGlyphs" textLength="20" x="236.5" y="322.3408">Yes</text><text fill="#000000" font-family="sans-serif" font-size="11" lengthAdjust="spacingAndGlyphs" textLength="14" x="225.5" y="303.4229">i&lt;8</text><text fill="#000000" font-family="sans-serif" font-size="11" lengthAdjust="spacingAndGlyphs" textLength="13" x="195.5" y="296.5049">No</text><polygon fill="#FEFECE" filter="url(#f11n2oh05i6mk8)" points="147.5,480.5273,159.5,492.5273,147.5,504.5273,135.5,492.5273,147.5,480.5273" style="stroke: #A80036; stroke-width: 1.5;"/><ellipse cx="147.5" cy="535.5273" fill="#FFFFFF" filter="url(#f11n2oh05i6mk8)" rx="11" ry="11" style="stroke: #000000; stroke-width: 1.0;"/><ellipse cx="147.5" cy="535.5273" fill="#000000" rx="6" ry="6" style="stroke: #7F7F7F; stroke-width: 1.0;"/><line style="stroke: #A80036; stroke-width: 1.5;" x1="147.5" x2="147.5" y1="52.6406" y2="72.6406"/><polygon fill="#A80036" points="143.5,62.6406,147.5,72.6406,151.5,62.6406,147.5,66.6406" style="stroke: #A80036; stroke-width: 1.0;"/><line style="stroke: #A80036; stroke-width: 1.5;" x1="62.5" x2="62.5" y1="240.8281" y2="265.7461"/><polygon fill="#A80036" points="58.5,255.7461,62.5,265.7461,66.5,255.7461,62.5,259.7461" style="stroke: #A80036; stroke-width: 1.0;"/><line style="stroke: #A80036; stroke-width: 1.5;" x1="86.5" x2="124" y1="228.8281" y2="228.8281"/><polygon fill="#A80036" points="120,273.293,124,283.293,128,273.293,124,277.293" style="stroke: #A80036; stroke-width: 1.5;"/><line style="stroke: #A80036; stroke-width: 1.5;" x1="124" x2="124" y1="228.8281" y2="337.7578"/><line style="stroke: #A80036; stroke-width: 1.5;" x1="124" x2="74.5" y1="337.7578" y2="337.7578"/><polygon fill="#A80036" points="84.5,333.7578,74.5,337.7578,84.5,341.7578,80.5,337.7578" style="stroke: #A80036; stroke-width: 1.0;"/><line style="stroke: #A80036; stroke-width: 1.5;" x1="62.5" x2="62.5" y1="300.8398" y2="325.7578"/><polygon fill="#A80036" points="58.5,315.7578,62.5,325.7578,66.5,315.7578,62.5,319.7578" style="stroke: #A80036; stroke-width: 1.0;"/><line style="stroke: #A80036; stroke-width: 1.5;" x1="62.5" x2="62.5" y1="196.8281" y2="216.8281"/><polygon fill="#A80036" points="58.5,206.8281,62.5,216.8281,66.5,206.8281,62.5,210.8281" style="stroke: #A80036; stroke-width: 1.0;"/><line style="stroke: #A80036; stroke-width: 1.5;" x1="232.5" x2="232.5" y1="196.8281" y2="216.8281"/><polygon fill="#A80036" points="228.5,206.8281,232.5,216.8281,236.5,206.8281,232.5,210.8281" style="stroke: #A80036; stroke-width: 1.0;"/><line style="stroke: #A80036; stroke-width: 1.5;" x1="232.5" x2="232.5" y1="383.8516" y2="417.4336"/><polygon fill="#A80036" points="228.5,407.4336,232.5,417.4336,236.5,407.4336,232.5,411.4336" style="stroke: #A80036; stroke-width: 1.0;"/><line style="stroke: #A80036; stroke-width: 1.5;" x1="232.5" x2="232.5" y1="310.9219" y2="348.7578"/><polygon fill="#A80036" points="228.5,338.7578,232.5,348.7578,236.5,338.7578,232.5,342.7578" style="stroke: #A80036; stroke-width: 1.0;"/><line style="stroke: #A80036; stroke-width: 1.5;" x1="232.5" x2="232.5" y1="452.5273" y2="462.5273"/><line style="stroke: #A80036; stroke-width: 1.5;" x1="232.5" x2="297" y1="462.5273" y2="462.5273"/><polygon fill="#A80036" points="293,392.4336,297,382.4336,301,392.4336,297,388.4336" style="stroke: #A80036; stroke-width: 1.5;"/><line style="stroke: #A80036; stroke-width: 1.5;" x1="297" x2="297" y1="298.9219" y2="462.5273"/><line style="stroke: #A80036; stroke-width: 1.5;" x1="297" x2="256.5" y1="298.9219" y2="298.9219"/><polygon fill="#A80036" points="266.5,294.9219,256.5,298.9219,266.5,302.9219,262.5,298.9219" style="stroke: #A80036; stroke-width: 1.0;"/><line style="stroke: #A80036; stroke-width: 1.5;" x1="208.5" x2="168" y1="298.9219" y2="298.9219"/><polygon fill="#A80036" points="164,387.4336,168,397.4336,172,387.4336,168,391.4336" style="stroke: #A80036; stroke-width: 1.5;"/><line style="stroke: #A80036; stroke-width: 1.5;" x1="168" x2="168" y1="298.9219" y2="492.5273"/><line style="stroke: #A80036; stroke-width: 1.5;" x1="168" x2="159.5" y1="492.5273" y2="492.5273"/><polygon fill="#A80036" points="169.5,488.5273,159.5,492.5273,169.5,496.5273,165.5,492.5273" style="stroke: #A80036; stroke-width: 1.0;"/><line style="stroke: #A80036; stroke-width: 1.5;" x1="232.5" x2="232.5" y1="251.9219" y2="286.9219"/><polygon fill="#A80036" points="228.5,276.9219,232.5,286.9219,236.5,276.9219,232.5,280.9219" style="stroke: #A80036; stroke-width: 1.0;"/><line style="stroke: #A80036; stroke-width: 1.5;" x1="123.5" x2="62.5" y1="139.7344" y2="139.7344"/><line style="stroke: #A80036; stroke-width: 1.5;" x1="62.5" x2="62.5" y1="139.7344" y2="161.7344"/><polygon fill="#A80036" points="58.5,151.7344,62.5,161.7344,66.5,151.7344,62.5,155.7344" style="stroke: #A80036; stroke-width: 1.0;"/><line style="stroke: #A80036; stroke-width: 1.5;" x1="171.5" x2="232.5" y1="139.7344" y2="139.7344"/><line style="stroke: #A80036; stroke-width: 1.5;" x1="232.5" x2="232.5" y1="139.7344" y2="161.7344"/><polygon fill="#A80036" points="228.5,151.7344,232.5,161.7344,236.5,151.7344,232.5,155.7344" style="stroke: #A80036; stroke-width: 1.0;"/><line style="stroke: #A80036; stroke-width: 1.5;" x1="62.5" x2="62.5" y1="349.7578" y2="492.5273"/><line style="stroke: #A80036; stroke-width: 1.5;" x1="62.5" x2="135.5" y1="492.5273" y2="492.5273"/><polygon fill="#A80036" points="125.5,488.5273,135.5,492.5273,125.5,496.5273,129.5,492.5273" style="stroke: #A80036; stroke-width: 1.0;"/><line style="stroke: #A80036; stroke-width: 1.5;" x1="147.5" x2="147.5" y1="107.7344" y2="127.7344"/><polygon fill="#A80036" points="143.5,117.7344,147.5,127.7344,151.5,117.7344,147.5,121.7344" style="stroke: #A80036; stroke-width: 1.0;"/><line style="stroke: #A80036; stroke-width: 1.5;" x1="147.5" x2="147.5" y1="504.5273" y2="524.5273"/><polygon fill="#A80036" points="143.5,514.5273,147.5,524.5273,151.5,514.5273,147.5,518.5273" style="stroke: #A80036; stroke-width: 1.0;"/><!--MD5=[98af6e329dfffc9633ec3d72600963e3]
@startuml
title method
start
:New variable: n;
if (1>4) then (yes)
:Assign 2 to n;
if (n!=2) then (yes)
:Assign 5*n to n;
else (no)
endif
else (no)
:New variable: i;
:Assign 0 to i;
while (i<8) is (Yes)
:i=i+1;
:Assign 9+n to n;
endwhile (No)
endif
stop
@enduml

PlantUML version 1.2020.14(Sat Jun 20 09:14:34 COT 2020)
(GPL source distribution)
Java Runtime: Java(TM) SE Runtime Environment
JVM: Java HotSpot(TM) 64-Bit Server VM
Default Encoding: UTF-8
Language: es
Country: CO
--></g></svg>